<svg width="42" height="42" viewBox="0 0 42 42" fill="none" xmlns="http://www.w3.org/2000/svg">
<g filter="url(#filter0_d_427_9379)">
<path d="M21.0003 29.3334C16.398 29.3334 12.667 25.6024 12.667 21.0001C12.667 16.3977 16.398 12.6667 21.0003 12.6667C25.6027 12.6667 29.3337 16.3977 29.3337 21.0001C29.3337 25.6024 25.6027 29.3334 21.0003 29.3334ZM17.667 21.8334C17.667 23.6743 19.1594 25.1667 21.0003 25.1667C22.8412 25.1667 24.3337 23.6743 24.3337 21.8334H17.667ZM17.667 20.1667C18.3574 20.1667 18.917 19.6071 18.917 18.9167C18.917 18.2264 18.3574 17.6667 17.667 17.6667C16.9766 17.6667 16.417 18.2264 16.417 18.9167C16.417 19.6071 16.9766 20.1667 17.667 20.1667ZM24.3337 20.1667C25.024 20.1667 25.5837 19.6071 25.5837 18.9167C25.5837 18.2264 25.024 17.6667 24.3337 17.6667C23.6433 17.6667 23.0837 18.2264 23.0837 18.9167C23.0837 19.6071 23.6433 20.1667 24.3337 20.1667Z" fill="url(#paint0_linear_427_9379)"/>
<path d="M21.0003 29.3334C16.398 29.3334 12.667 25.6024 12.667 21.0001C12.667 16.3977 16.398 12.6667 21.0003 12.6667C25.6027 12.6667 29.3337 16.3977 29.3337 21.0001C29.3337 25.6024 25.6027 29.3334 21.0003 29.3334ZM17.667 21.8334C17.667 23.6743 19.1594 25.1667 21.0003 25.1667C22.8412 25.1667 24.3337 23.6743 24.3337 21.8334H17.667ZM17.667 20.1667C18.3574 20.1667 18.917 19.6071 18.917 18.9167C18.917 18.2264 18.3574 17.6667 17.667 17.6667C16.9766 17.6667 16.417 18.2264 16.417 18.9167C16.417 19.6071 16.9766 20.1667 17.667 20.1667ZM24.3337 20.1667C25.024 20.1667 25.5837 19.6071 25.5837 18.9167C25.5837 18.2264 25.024 17.6667 24.3337 17.6667C23.6433 17.6667 23.0837 18.2264 23.0837 18.9167C23.0837 19.6071 23.6433 20.1667 24.3337 20.1667Z" fill="url(#paint1_linear_427_9379)" style="mix-blend-mode:soft-light"/>
</g>
<defs>
<filter id="filter0_d_427_9379" x="0.666992" y="0.666748" width="40.667" height="40.6667" filterUnits="userSpaceOnUse" color-interpolation-filters="sRGB">
<feFlood flood-opacity="0" result="BackgroundImageFix"/>
<feColorMatrix in="SourceAlpha" type="matrix" values="0 0 0 0 0 0 0 0 0 0 0 0 0 0 0 0 0 0 127 0" result="hardAlpha"/>
<feOffset/>
<feGaussianBlur stdDeviation="6"/>
<feComposite in2="hardAlpha" operator="out"/>
<feColorMatrix type="matrix" values="0 0 0 0 0.254902 0 0 0 0 0.368627 0 0 0 0 0.929412 0 0 0 0.2 0"/>
<feBlend mode="normal" in2="BackgroundImageFix" result="effect1_dropShadow_427_9379"/>
<feBlend mode="normal" in="SourceGraphic" in2="effect1_dropShadow_427_9379" result="shape"/>
</filter>
<linearGradient id="paint0_linear_427_9379" x1="29.3337" y1="21.0001" x2="12.667" y2="21.0001" gradientUnits="userSpaceOnUse">
<stop stop-color="#415EED"/>
<stop offset="1" stop-color="#3651DA"/>
</linearGradient>
<linearGradient id="paint1_linear_427_9379" x1="12.667" y1="29.3334" x2="24.1042" y2="9.63105" gradientUnits="userSpaceOnUse">
<stop stop-color="#F7F8FC" stop-opacity="0"/>
<stop offset="0.494206" stop-color="#F7F8FC"/>
<stop offset="1" stop-color="#F7F8FC" stop-opacity="0"/>
</linearGradient>
</defs>
</svg>
