<svg width="44" height="41" viewBox="0 0 44 41" fill="none" xmlns="http://www.w3.org/2000/svg">
<g filter="url(#filter0_d_427_10278)">
<path d="M21.9997 26.8335H23.6663V16.0002L28.9946 18.2837C29.301 18.415 29.4997 18.7163 29.4997 19.0496V26.8335H31.1663V28.5002H12.833V26.8335H14.4997V15.7084C14.4997 15.3791 14.6936 15.0806 14.9946 14.9469L21.4138 12.0939C21.6241 12.0004 21.8703 12.0951 21.9638 12.3054C21.9874 12.3587 21.9997 12.4163 21.9997 12.4746V26.8335Z" fill="url(#paint0_linear_427_10278)"/>
<path d="M21.9997 26.8335H23.6663V16.0002L28.9946 18.2837C29.301 18.415 29.4997 18.7163 29.4997 19.0496V26.8335H31.1663V28.5002H12.833V26.8335H14.4997V15.7084C14.4997 15.3791 14.6936 15.0806 14.9946 14.9469L21.4138 12.0939C21.6241 12.0004 21.8703 12.0951 21.9638 12.3054C21.9874 12.3587 21.9997 12.4163 21.9997 12.4746V26.8335Z" fill="url(#paint1_linear_427_10278)" style="mix-blend-mode:soft-light"/>
</g>
<defs>
<filter id="filter0_d_427_10278" x="0.833008" y="0.0578613" width="42.333" height="40.4424" filterUnits="userSpaceOnUse" color-interpolation-filters="sRGB">
<feFlood flood-opacity="0" result="BackgroundImageFix"/>
<feColorMatrix in="SourceAlpha" type="matrix" values="0 0 0 0 0 0 0 0 0 0 0 0 0 0 0 0 0 0 127 0" result="hardAlpha"/>
<feOffset/>
<feGaussianBlur stdDeviation="6"/>
<feComposite in2="hardAlpha" operator="out"/>
<feColorMatrix type="matrix" values="0 0 0 0 0.254902 0 0 0 0 0.368627 0 0 0 0 0.929412 0 0 0 0.2 0"/>
<feBlend mode="normal" in2="BackgroundImageFix" result="effect1_dropShadow_427_10278"/>
<feBlend mode="normal" in="SourceGraphic" in2="effect1_dropShadow_427_10278" result="shape"/>
</filter>
<linearGradient id="paint0_linear_427_10278" x1="31.1663" y1="20.279" x2="12.833" y2="20.279" gradientUnits="userSpaceOnUse">
<stop stop-color="#415EED"/>
<stop offset="1" stop-color="#3651DA"/>
</linearGradient>
<linearGradient id="paint1_linear_427_10278" x1="12.833" y1="28.5002" x2="23.4773" y2="8.05479" gradientUnits="userSpaceOnUse">
<stop stop-color="#F7F8FC" stop-opacity="0"/>
<stop offset="0.494206" stop-color="#F7F8FC"/>
<stop offset="1" stop-color="#F7F8FC" stop-opacity="0"/>
</linearGradient>
</defs>
</svg>
