<svg width="44" height="42" viewBox="0 0 44 42" fill="none" xmlns="http://www.w3.org/2000/svg">
<g filter="url(#filter0_d_427_9377)">
<path d="M30.333 27.6667V29.3334H13.6663V27.6667H14.4997V22.0352C13.4947 21.3626 12.833 20.2169 12.833 18.9167C12.833 18.2275 13.02 17.5636 13.3607 16.998L15.6208 13.0834C15.7696 12.8256 16.0447 12.6667 16.3424 12.6667H27.6569C27.9546 12.6667 28.2298 12.8256 28.3786 13.0834L30.6309 16.9848C30.9793 17.5636 31.1663 18.2275 31.1663 18.9167C31.1663 20.2169 30.5047 21.3626 29.4997 22.0352V27.6667H30.333ZM16.8235 14.3334L14.7963 17.8444C14.6031 18.1654 14.4997 18.5325 14.4997 18.9167C14.4997 20.0673 15.4324 21.0001 16.583 21.0001C17.4421 21.0001 18.2036 20.4753 18.5178 19.6913C18.7975 18.9936 19.7852 18.9936 20.0648 19.6913C20.3791 20.4753 21.1405 21.0001 21.9997 21.0001C22.8588 21.0001 23.6203 20.4753 23.9345 19.6913C24.2142 18.9936 25.2018 18.9936 25.4815 19.6913C25.7958 20.4753 26.5572 21.0001 27.4163 21.0001C28.5669 21.0001 29.4997 20.0673 29.4997 18.9167C29.4997 18.5325 29.3963 18.1654 29.1953 17.8313L27.1758 14.3334H16.8235Z" fill="url(#paint0_linear_427_9377)"/>
<path d="M30.333 27.6667V29.3334H13.6663V27.6667H14.4997V22.0352C13.4947 21.3626 12.833 20.2169 12.833 18.9167C12.833 18.2275 13.02 17.5636 13.3607 16.998L15.6208 13.0834C15.7696 12.8256 16.0447 12.6667 16.3424 12.6667H27.6569C27.9546 12.6667 28.2298 12.8256 28.3786 13.0834L30.6309 16.9848C30.9793 17.5636 31.1663 18.2275 31.1663 18.9167C31.1663 20.2169 30.5047 21.3626 29.4997 22.0352V27.6667H30.333ZM16.8235 14.3334L14.7963 17.8444C14.6031 18.1654 14.4997 18.5325 14.4997 18.9167C14.4997 20.0673 15.4324 21.0001 16.583 21.0001C17.4421 21.0001 18.2036 20.4753 18.5178 19.6913C18.7975 18.9936 19.7852 18.9936 20.0648 19.6913C20.3791 20.4753 21.1405 21.0001 21.9997 21.0001C22.8588 21.0001 23.6203 20.4753 23.9345 19.6913C24.2142 18.9936 25.2018 18.9936 25.4815 19.6913C25.7958 20.4753 26.5572 21.0001 27.4163 21.0001C28.5669 21.0001 29.4997 20.0673 29.4997 18.9167C29.4997 18.5325 29.3963 18.1654 29.1953 17.8313L27.1758 14.3334H16.8235Z" fill="url(#paint1_linear_427_9377)" style="mix-blend-mode:soft-light"/>
</g>
<defs>
<filter id="filter0_d_427_9377" x="0.833008" y="0.666748" width="42.333" height="40.6667" filterUnits="userSpaceOnUse" color-interpolation-filters="sRGB">
<feFlood flood-opacity="0" result="BackgroundImageFix"/>
<feColorMatrix in="SourceAlpha" type="matrix" values="0 0 0 0 0 0 0 0 0 0 0 0 0 0 0 0 0 0 127 0" result="hardAlpha"/>
<feOffset/>
<feGaussianBlur stdDeviation="6"/>
<feComposite in2="hardAlpha" operator="out"/>
<feColorMatrix type="matrix" values="0 0 0 0 0.254902 0 0 0 0 0.368627 0 0 0 0 0.929412 0 0 0 0.2 0"/>
<feBlend mode="normal" in2="BackgroundImageFix" result="effect1_dropShadow_427_9377"/>
<feBlend mode="normal" in="SourceGraphic" in2="effect1_dropShadow_427_9377" result="shape"/>
</filter>
<linearGradient id="paint0_linear_427_9377" x1="31.1663" y1="21.0001" x2="12.833" y2="21.0001" gradientUnits="userSpaceOnUse">
<stop stop-color="#415EED"/>
<stop offset="1" stop-color="#3651DA"/>
</linearGradient>
<linearGradient id="paint1_linear_427_9377" x1="12.833" y1="29.3334" x2="23.7061" y2="8.72977" gradientUnits="userSpaceOnUse">
<stop stop-color="#F7F8FC" stop-opacity="0"/>
<stop offset="0.494206" stop-color="#F7F8FC"/>
<stop offset="1" stop-color="#F7F8FC" stop-opacity="0"/>
</linearGradient>
</defs>
</svg>
