<svg width="42" height="42" viewBox="0 0 42 42" fill="none" xmlns="http://www.w3.org/2000/svg">
<g filter="url(#filter0_d_427_10280)">
<path d="M21.0003 19.3334C22.8412 19.3334 24.3337 17.841 24.3337 16.0001C24.3337 14.1591 22.8412 12.6667 21.0003 12.6667C19.1594 12.6667 17.667 14.1591 17.667 16.0001C17.667 17.841 19.1594 19.3334 21.0003 19.3334ZM15.5837 21.8334C16.7343 21.8334 17.667 20.9007 17.667 19.7501C17.667 18.5995 16.7343 17.6667 15.5837 17.6667C14.4331 17.6667 13.5003 18.5995 13.5003 19.7501C13.5003 20.9007 14.4331 21.8334 15.5837 21.8334ZM28.5003 19.7501C28.5003 20.9007 27.5676 21.8334 26.417 21.8334C25.2664 21.8334 24.3337 20.9007 24.3337 19.7501C24.3337 18.5995 25.2664 17.6667 26.417 17.6667C27.5676 17.6667 28.5003 18.5995 28.5003 19.7501ZM21.0003 20.1667C23.3015 20.1667 25.167 22.0322 25.167 24.3334V29.3334H16.8337V24.3334C16.8337 22.0322 18.6991 20.1667 21.0003 20.1667ZM15.167 24.3333C15.167 23.7559 15.2509 23.1981 15.4071 22.6714L15.2659 22.6837C13.8045 22.8421 12.667 24.0799 12.667 25.5833V29.3333H15.167V24.3333ZM29.3337 29.3333V25.5833C29.3337 24.0316 28.1219 22.7628 26.5935 22.6714C26.7497 23.1981 26.8337 23.7559 26.8337 24.3333V29.3333H29.3337Z" fill="url(#paint0_linear_427_10280)"/>
<path d="M21.0003 19.3334C22.8412 19.3334 24.3337 17.841 24.3337 16.0001C24.3337 14.1591 22.8412 12.6667 21.0003 12.6667C19.1594 12.6667 17.667 14.1591 17.667 16.0001C17.667 17.841 19.1594 19.3334 21.0003 19.3334ZM15.5837 21.8334C16.7343 21.8334 17.667 20.9007 17.667 19.7501C17.667 18.5995 16.7343 17.6667 15.5837 17.6667C14.4331 17.6667 13.5003 18.5995 13.5003 19.7501C13.5003 20.9007 14.4331 21.8334 15.5837 21.8334ZM28.5003 19.7501C28.5003 20.9007 27.5676 21.8334 26.417 21.8334C25.2664 21.8334 24.3337 20.9007 24.3337 19.7501C24.3337 18.5995 25.2664 17.6667 26.417 17.6667C27.5676 17.6667 28.5003 18.5995 28.5003 19.7501ZM21.0003 20.1667C23.3015 20.1667 25.167 22.0322 25.167 24.3334V29.3334H16.8337V24.3334C16.8337 22.0322 18.6991 20.1667 21.0003 20.1667ZM15.167 24.3333C15.167 23.7559 15.2509 23.1981 15.4071 22.6714L15.2659 22.6837C13.8045 22.8421 12.667 24.0799 12.667 25.5833V29.3333H15.167V24.3333ZM29.3337 29.3333V25.5833C29.3337 24.0316 28.1219 22.7628 26.5935 22.6714C26.7497 23.1981 26.8337 23.7559 26.8337 24.3333V29.3333H29.3337Z" fill="url(#paint1_linear_427_10280)" style="mix-blend-mode:soft-light"/>
</g>
<defs>
<filter id="filter0_d_427_10280" x="0.666992" y="0.666748" width="40.667" height="40.6667" filterUnits="userSpaceOnUse" color-interpolation-filters="sRGB">
<feFlood flood-opacity="0" result="BackgroundImageFix"/>
<feColorMatrix in="SourceAlpha" type="matrix" values="0 0 0 0 0 0 0 0 0 0 0 0 0 0 0 0 0 0 127 0" result="hardAlpha"/>
<feOffset/>
<feGaussianBlur stdDeviation="6"/>
<feComposite in2="hardAlpha" operator="out"/>
<feColorMatrix type="matrix" values="0 0 0 0 0.254902 0 0 0 0 0.368627 0 0 0 0 0.929412 0 0 0 0.2 0"/>
<feBlend mode="normal" in2="BackgroundImageFix" result="effect1_dropShadow_427_10280"/>
<feBlend mode="normal" in="SourceGraphic" in2="effect1_dropShadow_427_10280" result="shape"/>
</filter>
<linearGradient id="paint0_linear_427_10280" x1="29.3337" y1="21.0001" x2="12.667" y2="21.0001" gradientUnits="userSpaceOnUse">
<stop stop-color="#415EED"/>
<stop offset="1" stop-color="#3651DA"/>
</linearGradient>
<linearGradient id="paint1_linear_427_10280" x1="12.667" y1="29.3334" x2="24.1042" y2="9.63105" gradientUnits="userSpaceOnUse">
<stop stop-color="#F7F8FC" stop-opacity="0"/>
<stop offset="0.494206" stop-color="#F7F8FC"/>
<stop offset="1" stop-color="#F7F8FC" stop-opacity="0"/>
</linearGradient>
</defs>
</svg>
