<svg width="580" height="688" viewBox="0 0 580 688" fill="none" xmlns="http://www.w3.org/2000/svg">
<g clip-path="url(#clip0_3287_27182)">
<circle cx="14" cy="22.5" r="1.5" fill="#A6ABBF"/>
<circle cx="60" cy="22.5" r="1.5" fill="#A6ABBF"/>
<circle cx="106" cy="22.5" r="1.5" fill="#A6ABBF"/>
<circle cx="152" cy="22.5" r="1.5" fill="#A6ABBF"/>
<circle cx="198" cy="22.5" r="1.5" fill="#A6ABBF"/>
<circle cx="244" cy="22.5" r="1.5" fill="#A6ABBF"/>
<circle cx="290" cy="22.5" r="1.5" fill="#A6ABBF"/>
<circle cx="336" cy="22.5" r="1.5" fill="#A6ABBF"/>
<circle cx="382" cy="22.5" r="1.5" fill="#A6ABBF"/>
<circle cx="428" cy="22.5" r="1.5" fill="#A6ABBF"/>
<circle cx="474" cy="22.5" r="1.5" fill="#A6ABBF"/>
<circle cx="520" cy="22.5" r="1.5" fill="#A6ABBF"/>
<circle cx="566" cy="22.5" r="1.5" fill="#A6ABBF"/>
<circle cx="37" cy="68" r="1.5" fill="#A6ABBF"/>
<circle cx="83" cy="68" r="1.5" fill="#A6ABBF"/>
<circle cx="129" cy="68" r="1.5" fill="#A6ABBF"/>
<circle cx="175" cy="68" r="1.5" fill="#A6ABBF"/>
<circle cx="221" cy="68" r="1.5" fill="#A6ABBF"/>
<circle cx="267" cy="68" r="1.5" fill="#A6ABBF"/>
<circle cx="313" cy="68" r="1.5" fill="#A6ABBF"/>
<circle cx="359" cy="68" r="1.5" fill="#A6ABBF"/>
<circle cx="405" cy="68" r="1.5" fill="#A6ABBF"/>
<circle cx="451" cy="68" r="1.5" fill="#A6ABBF"/>
<circle cx="497" cy="68" r="1.5" fill="#A6ABBF"/>
<circle cx="543" cy="68" r="1.5" fill="#A6ABBF"/>
<circle cx="14" cy="114" r="1.5" fill="#A6ABBF"/>
<circle cx="60" cy="114" r="1.5" fill="#A6ABBF"/>
<circle cx="106" cy="114" r="1.5" fill="#A6ABBF"/>
<circle cx="152" cy="114" r="1.5" fill="#A6ABBF"/>
<circle cx="198" cy="114" r="1.5" fill="#A6ABBF"/>
<circle cx="244" cy="114" r="1.5" fill="#A6ABBF"/>
<circle cx="290" cy="114" r="1.5" fill="#A6ABBF"/>
<circle cx="336" cy="114" r="1.5" fill="#A6ABBF"/>
<circle cx="382" cy="114" r="1.5" fill="#A6ABBF"/>
<circle cx="428" cy="114" r="1.5" fill="#A6ABBF"/>
<circle cx="474" cy="114" r="1.5" fill="#A6ABBF"/>
<circle cx="520" cy="114" r="1.5" fill="#A6ABBF"/>
<circle cx="566" cy="114" r="1.5" fill="#A6ABBF"/>
<circle cx="37" cy="160" r="1.5" fill="#A6ABBF"/>
<circle cx="83" cy="160" r="1.5" fill="#A6ABBF"/>
<circle cx="129" cy="160" r="1.5" fill="#A6ABBF"/>
<circle cx="175" cy="160" r="1.5" fill="#A6ABBF"/>
<circle cx="221" cy="160" r="1.5" fill="#A6ABBF"/>
<circle cx="267" cy="160" r="1.5" fill="#A6ABBF"/>
<circle cx="313" cy="160" r="1.5" fill="#A6ABBF"/>
<circle cx="359" cy="160" r="1.5" fill="#A6ABBF"/>
<circle cx="405" cy="160" r="1.5" fill="#A6ABBF"/>
<circle cx="451" cy="160" r="1.5" fill="#A6ABBF"/>
<circle cx="497" cy="160" r="1.5" fill="#A6ABBF"/>
<circle cx="543" cy="160" r="1.5" fill="#A6ABBF"/>
<circle cx="14" cy="206" r="1.5" fill="#A6ABBF"/>
<circle cx="60" cy="206" r="1.5" fill="#A6ABBF"/>
<circle cx="106" cy="206" r="1.5" fill="#A6ABBF"/>
<circle cx="152" cy="206" r="1.5" fill="#A6ABBF"/>
<circle cx="198" cy="206" r="1.5" fill="#A6ABBF"/>
<circle cx="244" cy="206" r="1.5" fill="#A6ABBF"/>
<circle cx="290" cy="206" r="1.5" fill="#A6ABBF"/>
<circle cx="336" cy="206" r="1.5" fill="#A6ABBF"/>
<circle cx="382" cy="206" r="1.5" fill="#A6ABBF"/>
<circle cx="428" cy="206" r="1.5" fill="#A6ABBF"/>
<circle cx="474" cy="206" r="1.5" fill="#A6ABBF"/>
<circle cx="520" cy="206" r="1.5" fill="#A6ABBF"/>
<circle cx="566" cy="206" r="1.5" fill="#A6ABBF"/>
<circle cx="37" cy="252" r="1.5" fill="#A6ABBF"/>
<circle cx="83" cy="252" r="1.5" fill="#A6ABBF"/>
<circle cx="129" cy="252" r="1.5" fill="#A6ABBF"/>
<circle cx="175" cy="252" r="1.5" fill="#A6ABBF"/>
<circle cx="221" cy="252" r="1.5" fill="#A6ABBF"/>
<circle cx="267" cy="252" r="1.5" fill="#A6ABBF"/>
<circle cx="313" cy="252" r="1.5" fill="#A6ABBF"/>
<circle cx="359" cy="252" r="1.5" fill="#A6ABBF"/>
<circle cx="405" cy="252" r="1.5" fill="#A6ABBF"/>
<circle cx="451" cy="252" r="1.5" fill="#A6ABBF"/>
<circle cx="497" cy="252" r="1.5" fill="#A6ABBF"/>
<circle cx="543" cy="252" r="1.5" fill="#A6ABBF"/>
<circle cx="14" cy="298" r="1.5" fill="#A6ABBF"/>
<circle cx="60" cy="298" r="1.5" fill="#A6ABBF"/>
<circle cx="106" cy="298" r="1.5" fill="#A6ABBF"/>
<circle cx="152" cy="298" r="1.5" fill="#A6ABBF"/>
<circle cx="198" cy="298" r="1.5" fill="#A6ABBF"/>
<circle cx="244" cy="298" r="1.5" fill="#A6ABBF"/>
<circle cx="290" cy="298" r="1.5" fill="#A6ABBF"/>
<circle cx="336" cy="298" r="1.5" fill="#A6ABBF"/>
<circle cx="382" cy="298" r="1.5" fill="#A6ABBF"/>
<circle cx="428" cy="298" r="1.5" fill="#A6ABBF"/>
<circle cx="474" cy="298" r="1.5" fill="#A6ABBF"/>
<circle cx="520" cy="298" r="1.5" fill="#A6ABBF"/>
<circle cx="566" cy="298" r="1.5" fill="#A6ABBF"/>
<circle cx="37" cy="344" r="1.5" fill="#A6ABBF"/>
<circle cx="83" cy="344" r="1.5" fill="#A6ABBF"/>
<circle cx="129" cy="344" r="1.5" fill="#A6ABBF"/>
<circle cx="175" cy="344" r="1.5" fill="#A6ABBF"/>
<circle cx="221" cy="344" r="1.5" fill="#A6ABBF"/>
<circle cx="267" cy="344" r="1.5" fill="#A6ABBF"/>
<circle cx="313" cy="344" r="1.5" fill="#A6ABBF"/>
<circle cx="359" cy="344" r="1.5" fill="#A6ABBF"/>
<circle cx="405" cy="344" r="1.5" fill="#A6ABBF"/>
<circle cx="451" cy="344" r="1.5" fill="#A6ABBF"/>
<circle cx="497" cy="344" r="1.5" fill="#A6ABBF"/>
<circle cx="543" cy="344" r="1.5" fill="#A6ABBF"/>
<circle cx="14" cy="390" r="1.5" fill="#A6ABBF"/>
<circle cx="60" cy="390" r="1.5" fill="#A6ABBF"/>
<circle cx="106" cy="390" r="1.5" fill="#A6ABBF"/>
<circle cx="152" cy="390" r="1.5" fill="#A6ABBF"/>
<circle cx="198" cy="390" r="1.5" fill="#A6ABBF"/>
<circle cx="244" cy="390" r="1.5" fill="#A6ABBF"/>
<circle cx="290" cy="390" r="1.5" fill="#A6ABBF"/>
<circle cx="336" cy="390" r="1.5" fill="#A6ABBF"/>
<circle cx="382" cy="390" r="1.5" fill="#A6ABBF"/>
<circle cx="428" cy="390" r="1.5" fill="#A6ABBF"/>
<circle cx="474" cy="390" r="1.5" fill="#A6ABBF"/>
<circle cx="520" cy="390" r="1.5" fill="#A6ABBF"/>
<circle cx="566" cy="390" r="1.5" fill="#A6ABBF"/>
<circle cx="37" cy="436" r="1.5" fill="#A6ABBF"/>
<circle cx="83" cy="436" r="1.5" fill="#A6ABBF"/>
<circle cx="129" cy="436" r="1.5" fill="#A6ABBF"/>
<circle cx="175" cy="436" r="1.5" fill="#A6ABBF"/>
<circle cx="221" cy="436" r="1.5" fill="#A6ABBF"/>
<circle cx="267" cy="436" r="1.5" fill="#A6ABBF"/>
<circle cx="313" cy="436" r="1.5" fill="#A6ABBF"/>
<circle cx="359" cy="436" r="1.5" fill="#A6ABBF"/>
<circle cx="405" cy="436" r="1.5" fill="#A6ABBF"/>
<circle cx="451" cy="436" r="1.5" fill="#A6ABBF"/>
<circle cx="497" cy="436" r="1.5" fill="#A6ABBF"/>
<circle cx="543" cy="436" r="1.5" fill="#A6ABBF"/>
<circle cx="14" cy="482" r="1.5" fill="#A6ABBF"/>
<circle cx="60" cy="482" r="1.5" fill="#A6ABBF"/>
<circle cx="106" cy="482" r="1.5" fill="#A6ABBF"/>
<circle cx="152" cy="482" r="1.5" fill="#A6ABBF"/>
<circle cx="198" cy="482" r="1.5" fill="#A6ABBF"/>
<circle cx="244" cy="482" r="1.5" fill="#A6ABBF"/>
<circle cx="290" cy="482" r="1.5" fill="#A6ABBF"/>
<circle cx="336" cy="482" r="1.5" fill="#A6ABBF"/>
<circle cx="382" cy="482" r="1.5" fill="#A6ABBF"/>
<circle cx="428" cy="482" r="1.5" fill="#A6ABBF"/>
<circle cx="474" cy="482" r="1.5" fill="#A6ABBF"/>
<circle cx="520" cy="482" r="1.5" fill="#A6ABBF"/>
<circle cx="566" cy="482" r="1.5" fill="#A6ABBF"/>
<circle cx="37" cy="528" r="1.5" fill="#A6ABBF"/>
<circle cx="83" cy="528" r="1.5" fill="#A6ABBF"/>
<circle cx="129" cy="528" r="1.5" fill="#A6ABBF"/>
<circle cx="175" cy="528" r="1.5" fill="#A6ABBF"/>
<circle cx="221" cy="528" r="1.5" fill="#A6ABBF"/>
<circle cx="267" cy="528" r="1.5" fill="#A6ABBF"/>
<circle cx="313" cy="528" r="1.5" fill="#A6ABBF"/>
<circle cx="359" cy="528" r="1.5" fill="#A6ABBF"/>
<circle cx="405" cy="528" r="1.5" fill="#A6ABBF"/>
<circle cx="451" cy="528" r="1.5" fill="#A6ABBF"/>
<circle cx="497" cy="528" r="1.5" fill="#A6ABBF"/>
<circle cx="543" cy="528" r="1.5" fill="#A6ABBF"/>
<circle cx="14" cy="574" r="1.5" fill="#A6ABBF"/>
<circle cx="60" cy="574" r="1.5" fill="#A6ABBF"/>
<circle cx="106" cy="574" r="1.5" fill="#A6ABBF"/>
<circle cx="152" cy="574" r="1.5" fill="#A6ABBF"/>
<circle cx="198" cy="574" r="1.5" fill="#A6ABBF"/>
<circle cx="244" cy="574" r="1.5" fill="#A6ABBF"/>
<circle cx="290" cy="574" r="1.5" fill="#A6ABBF"/>
<circle cx="336" cy="574" r="1.5" fill="#A6ABBF"/>
<circle cx="382" cy="574" r="1.5" fill="#A6ABBF"/>
<circle cx="428" cy="574" r="1.5" fill="#A6ABBF"/>
<circle cx="474" cy="574" r="1.5" fill="#A6ABBF"/>
<circle cx="520" cy="574" r="1.5" fill="#A6ABBF"/>
<circle cx="566" cy="574" r="1.5" fill="#A6ABBF"/>
<circle cx="37" cy="620" r="1.5" fill="#A6ABBF"/>
<circle cx="83" cy="620" r="1.5" fill="#A6ABBF"/>
<circle cx="129" cy="620" r="1.5" fill="#A6ABBF"/>
<circle cx="175" cy="620" r="1.5" fill="#A6ABBF"/>
<circle cx="221" cy="620" r="1.5" fill="#A6ABBF"/>
<circle cx="267" cy="620" r="1.5" fill="#A6ABBF"/>
<circle cx="313" cy="620" r="1.5" fill="#A6ABBF"/>
<circle cx="359" cy="620" r="1.5" fill="#A6ABBF"/>
<circle cx="405" cy="620" r="1.5" fill="#A6ABBF"/>
<circle cx="451" cy="620" r="1.5" fill="#A6ABBF"/>
<circle cx="497" cy="620" r="1.5" fill="#A6ABBF"/>
<circle cx="543" cy="620" r="1.5" fill="#A6ABBF"/>
<circle cx="14" cy="666" r="1.5" fill="#A6ABBF"/>
<circle cx="60" cy="666" r="1.5" fill="#A6ABBF"/>
<circle cx="106" cy="666" r="1.5" fill="#A6ABBF"/>
<circle cx="152" cy="666" r="1.5" fill="#A6ABBF"/>
<circle cx="198" cy="666" r="1.5" fill="#A6ABBF"/>
<circle cx="244" cy="666" r="1.5" fill="#A6ABBF"/>
<circle cx="290" cy="666" r="1.5" fill="#A6ABBF"/>
<circle cx="336" cy="666" r="1.5" fill="#A6ABBF"/>
<circle cx="382" cy="666" r="1.5" fill="#A6ABBF"/>
<circle cx="428" cy="666" r="1.5" fill="#A6ABBF"/>
<circle cx="474" cy="666" r="1.5" fill="#A6ABBF"/>
<circle cx="520" cy="666" r="1.5" fill="#A6ABBF"/>
<circle cx="566" cy="666" r="1.5" fill="#A6ABBF"/>
</g>
<defs>
<clipPath id="clip0_3287_27182">
<path d="M0 0H580V688H0V0Z" fill="white"/>
</clipPath>
</defs>
</svg>
