<svg width="32" height="32" viewBox="0 0 32 32" fill="none" xmlns="http://www.w3.org/2000/svg">
<path d="M20.2981 20.677L17.3478 26.8771C17.1579 27.2762 16.6806 27.4457 16.2817 27.2558C16.1927 27.2135 16.1123 27.1551 16.0446 27.0835L11.3227 22.0986C11.1963 21.9651 11.0278 21.8793 10.8456 21.8555L4.03722 20.9655C3.59911 20.9082 3.29039 20.5067 3.34766 20.0686C3.36042 19.9709 3.39113 19.8765 3.43821 19.7899L6.72008 13.7587C6.80794 13.5973 6.83752 13.4105 6.80386 13.2298L5.54634 6.47964C5.46542 6.04528 5.75194 5.62757 6.1863 5.54665C6.28314 5.52861 6.38248 5.52861 6.47932 5.54665L13.2295 6.80417C13.4102 6.83783 13.597 6.80825 13.7583 6.7204L19.7895 3.43852C20.1777 3.22733 20.6635 3.37075 20.8746 3.75884C20.9218 3.84537 20.9525 3.93985 20.9651 4.03753L21.8551 10.8459C21.879 11.0282 21.9649 11.1966 22.0982 11.323L27.0833 16.0449C27.4041 16.3487 27.4178 16.8551 27.1139 17.1758C27.0462 17.2474 26.9658 17.3058 26.8769 17.3481L20.6767 20.2983C20.5107 20.3774 20.377 20.511 20.2981 20.677ZM21.3605 23.2465L23.2461 21.3609L28.903 27.0177L27.0174 28.9033L21.3605 23.2465Z" fill="#CCD0DE"/>
</svg>
