<svg width="19" height="18" viewBox="0 0 19 18" fill="none" xmlns="http://www.w3.org/2000/svg">
<path d="M15.2985 3.72948C14.2008 3.22696 13.0421 2.87045 11.8518 2.66907C11.6889 2.96024 11.5415 3.25981 11.4103 3.56654C10.1424 3.37549 8.85306 3.37549 7.58517 3.56654C7.45385 3.25985 7.30648 2.96027 7.14366 2.66907C5.95262 2.87215 4.7931 3.2295 3.69436 3.73211C1.51308 6.95933 0.921774 10.1064 1.21743 13.2088C2.49484 14.1526 3.92462 14.8704 5.44463 15.3309C5.7869 14.8706 6.08975 14.3823 6.34999 13.8711C5.8557 13.6865 5.37863 13.4587 4.92428 13.1904C5.04386 13.1037 5.16081 13.0143 5.27381 12.9276C6.59584 13.5493 8.03878 13.8717 9.4997 13.8717C10.9606 13.8717 12.4036 13.5493 13.7256 12.9276C13.8399 13.0209 13.9569 13.1102 14.0751 13.1904C13.6199 13.4591 13.1419 13.6873 12.6468 13.8724C12.9067 14.3833 13.2096 14.8713 13.5521 15.3309C15.0735 14.8722 16.5043 14.1548 17.782 13.2101C18.1289 9.61233 17.1894 6.49417 15.2985 3.72948ZM6.72449 11.3008C5.9006 11.3008 5.21994 10.5532 5.21994 9.63336C5.21994 8.71355 5.87695 7.9593 6.72186 7.9593C7.56678 7.9593 8.24218 8.71355 8.22773 9.63336C8.21328 10.5532 7.56415 11.3008 6.72449 11.3008ZM12.2749 11.3008C11.4497 11.3008 10.7717 10.5532 10.7717 9.63336C10.7717 8.71355 11.4287 7.9593 12.2749 7.9593C13.1211 7.9593 13.7913 8.71355 13.7768 9.63336C13.7624 10.5532 13.1146 11.3008 12.2749 11.3008Z" fill="white"/>
</svg>
