<svg width="1368" height="753" viewBox="0 0 1368 753" fill="none" xmlns="http://www.w3.org/2000/svg">
<g style="mix-blend-mode:soft-light">
<circle cx="34" cy="9.5" r="1.5" fill="white"/>
<circle cx="84" cy="9.5" r="1.5" fill="white"/>
<circle cx="134" cy="9.5" r="1.5" fill="white"/>
<circle cx="184" cy="9.5" r="1.5" fill="white"/>
<circle cx="234" cy="9.5" r="1.5" fill="white"/>
<circle cx="284" cy="9.5" r="1.5" fill="white"/>
<circle cx="334" cy="9.5" r="1.5" fill="white"/>
<circle cx="384" cy="9.5" r="1.5" fill="white"/>
<circle cx="434" cy="9.5" r="1.5" fill="white"/>
<circle cx="484" cy="9.5" r="1.5" fill="white"/>
<circle cx="534" cy="9.5" r="1.5" fill="white"/>
<circle cx="584" cy="9.5" r="1.5" fill="white"/>
<circle cx="634" cy="9.5" r="1.5" fill="white"/>
<circle cx="684" cy="9.5" r="1.5" fill="white"/>
<circle cx="734" cy="9.5" r="1.5" fill="white"/>
<circle cx="784" cy="9.5" r="1.5" fill="white"/>
<circle cx="834" cy="9.5" r="1.5" fill="white"/>
<circle cx="884" cy="9.5" r="1.5" fill="white"/>
<circle cx="934" cy="9.5" r="1.5" fill="white"/>
<circle cx="984" cy="9.5" r="1.5" fill="white"/>
<circle cx="1034" cy="9.5" r="1.5" fill="white"/>
<circle cx="1084" cy="9.5" r="1.5" fill="white"/>
<circle cx="1134" cy="9.5" r="1.5" fill="white"/>
<circle cx="1184" cy="9.5" r="1.5" fill="white"/>
<circle cx="1234" cy="9.5" r="1.5" fill="white"/>
<circle cx="1284" cy="9.5" r="1.5" fill="white"/>
<circle cx="1334" cy="9.5" r="1.5" fill="white"/>
<circle cx="9" cy="55" r="1.5" fill="white"/>
<circle cx="59" cy="55" r="1.5" fill="white"/>
<circle cx="109" cy="55" r="1.5" fill="white"/>
<circle cx="159" cy="55" r="1.5" fill="white"/>
<circle cx="209" cy="55" r="1.5" fill="white"/>
<circle cx="259" cy="55" r="1.5" fill="white"/>
<circle cx="309" cy="55" r="1.5" fill="white"/>
<circle cx="359" cy="55" r="1.5" fill="white"/>
<circle cx="409" cy="55" r="1.5" fill="white"/>
<circle cx="459" cy="55" r="1.5" fill="white"/>
<circle cx="509" cy="55" r="1.5" fill="white"/>
<circle cx="559" cy="55" r="1.5" fill="white"/>
<circle cx="609" cy="55" r="1.5" fill="white"/>
<circle cx="659" cy="55" r="1.5" fill="white"/>
<circle cx="709" cy="55" r="1.5" fill="white"/>
<circle cx="759" cy="55" r="1.5" fill="white"/>
<circle cx="809" cy="55" r="1.5" fill="white"/>
<circle cx="859" cy="55" r="1.5" fill="white"/>
<circle cx="909" cy="55" r="1.5" fill="white"/>
<circle cx="959" cy="55" r="1.5" fill="white"/>
<circle cx="1009" cy="55" r="1.5" fill="white"/>
<circle cx="1059" cy="55" r="1.5" fill="white"/>
<circle cx="1109" cy="55" r="1.5" fill="white"/>
<circle cx="1159" cy="55" r="1.5" fill="white"/>
<circle cx="1209" cy="55" r="1.5" fill="white"/>
<circle cx="1259" cy="55" r="1.5" fill="white"/>
<circle cx="1309" cy="55" r="1.5" fill="white"/>
<circle cx="1359" cy="55" r="1.5" fill="white"/>
<circle cx="34" cy="100.5" r="1.5" fill="white"/>
<circle cx="84" cy="100.5" r="1.5" fill="white"/>
<circle cx="134" cy="100.5" r="1.5" fill="white"/>
<circle cx="184" cy="100.5" r="1.5" fill="white"/>
<circle cx="234" cy="100.5" r="1.5" fill="white"/>
<circle cx="284" cy="100.5" r="1.5" fill="white"/>
<circle cx="334" cy="100.5" r="1.5" fill="white"/>
<circle cx="384" cy="100.5" r="1.5" fill="white"/>
<circle cx="434" cy="100.5" r="1.5" fill="white"/>
<circle cx="484" cy="100.5" r="1.5" fill="white"/>
<circle cx="534" cy="100.5" r="1.5" fill="white"/>
<circle cx="584" cy="100.5" r="1.5" fill="white"/>
<circle cx="634" cy="100.5" r="1.5" fill="white"/>
<circle cx="684" cy="100.5" r="1.5" fill="white"/>
<circle cx="734" cy="100.5" r="1.5" fill="white"/>
<circle cx="784" cy="100.5" r="1.5" fill="white"/>
<circle cx="834" cy="100.5" r="1.5" fill="white"/>
<circle cx="884" cy="100.5" r="1.5" fill="white"/>
<circle cx="934" cy="100.5" r="1.5" fill="white"/>
<circle cx="984" cy="100.5" r="1.5" fill="white"/>
<circle cx="1034" cy="100.5" r="1.5" fill="white"/>
<circle cx="1084" cy="100.5" r="1.5" fill="white"/>
<circle cx="1134" cy="100.5" r="1.5" fill="white"/>
<circle cx="1184" cy="100.5" r="1.5" fill="white"/>
<circle cx="1234" cy="100.5" r="1.5" fill="white"/>
<circle cx="1284" cy="100.5" r="1.5" fill="white"/>
<circle cx="1334" cy="100.5" r="1.5" fill="white"/>
<circle cx="9" cy="146" r="1.5" fill="white"/>
<circle cx="59" cy="146" r="1.5" fill="white"/>
<circle cx="109" cy="146" r="1.5" fill="white"/>
<circle cx="159" cy="146" r="1.5" fill="white"/>
<circle cx="209" cy="146" r="1.5" fill="white"/>
<circle cx="259" cy="146" r="1.5" fill="white"/>
<circle cx="309" cy="146" r="1.5" fill="white"/>
<circle cx="359" cy="146" r="1.5" fill="white"/>
<circle cx="409" cy="146" r="1.5" fill="white"/>
<circle cx="459" cy="146" r="1.5" fill="white"/>
<circle cx="509" cy="146" r="1.5" fill="white"/>
<circle cx="559" cy="146" r="1.5" fill="white"/>
<circle cx="609" cy="146" r="1.5" fill="white"/>
<circle cx="659" cy="146" r="1.5" fill="white"/>
<circle cx="709" cy="146" r="1.5" fill="white"/>
<circle cx="759" cy="146" r="1.5" fill="white"/>
<circle cx="809" cy="146" r="1.5" fill="white"/>
<circle cx="859" cy="146" r="1.5" fill="white"/>
<circle cx="909" cy="146" r="1.5" fill="white"/>
<circle cx="959" cy="146" r="1.5" fill="white"/>
<circle cx="1009" cy="146" r="1.5" fill="white"/>
<circle cx="1059" cy="146" r="1.5" fill="white"/>
<circle cx="1109" cy="146" r="1.5" fill="white"/>
<circle cx="1159" cy="146" r="1.5" fill="white"/>
<circle cx="1209" cy="146" r="1.5" fill="white"/>
<circle cx="1259" cy="146" r="1.5" fill="white"/>
<circle cx="1309" cy="146" r="1.5" fill="white"/>
<circle cx="1359" cy="146" r="1.5" fill="white"/>
<circle cx="34" cy="192" r="1.5" fill="white"/>
<circle cx="84" cy="192" r="1.5" fill="white"/>
<circle cx="134" cy="192" r="1.5" fill="white"/>
<circle cx="184" cy="192" r="1.5" fill="white"/>
<circle cx="234" cy="192" r="1.5" fill="white"/>
<circle cx="284" cy="192" r="1.5" fill="white"/>
<circle cx="334" cy="192" r="1.5" fill="white"/>
<circle cx="384" cy="192" r="1.5" fill="white"/>
<circle cx="434" cy="192" r="1.5" fill="white"/>
<circle cx="484" cy="192" r="1.5" fill="white"/>
<circle cx="534" cy="192" r="1.5" fill="white"/>
<circle cx="584" cy="192" r="1.5" fill="white"/>
<circle cx="634" cy="192" r="1.5" fill="white"/>
<circle cx="684" cy="192" r="1.5" fill="white"/>
<circle cx="734" cy="192" r="1.5" fill="white"/>
<circle cx="784" cy="192" r="1.5" fill="white"/>
<circle cx="834" cy="192" r="1.5" fill="white"/>
<circle cx="884" cy="192" r="1.5" fill="white"/>
<circle cx="934" cy="192" r="1.5" fill="white"/>
<circle cx="984" cy="192" r="1.5" fill="white"/>
<circle cx="1034" cy="192" r="1.5" fill="white"/>
<circle cx="1084" cy="192" r="1.5" fill="white"/>
<circle cx="1134" cy="192" r="1.5" fill="white"/>
<circle cx="1184" cy="192" r="1.5" fill="white"/>
<circle cx="1234" cy="192" r="1.5" fill="white"/>
<circle cx="1284" cy="192" r="1.5" fill="white"/>
<circle cx="1334" cy="192" r="1.5" fill="white"/>
<circle cx="9" cy="238" r="1.5" fill="white"/>
<circle cx="59" cy="238" r="1.5" fill="white"/>
<circle cx="109" cy="238" r="1.5" fill="white"/>
<circle cx="159" cy="238" r="1.5" fill="white"/>
<circle cx="209" cy="238" r="1.5" fill="white"/>
<circle cx="259" cy="238" r="1.5" fill="white"/>
<circle cx="309" cy="238" r="1.5" fill="white"/>
<circle cx="359" cy="238" r="1.5" fill="white"/>
<circle cx="409" cy="238" r="1.5" fill="white"/>
<circle cx="459" cy="238" r="1.5" fill="white"/>
<circle cx="509" cy="238" r="1.5" fill="white"/>
<circle cx="559" cy="238" r="1.5" fill="white"/>
<circle cx="609" cy="238" r="1.5" fill="white"/>
<circle cx="659" cy="238" r="1.5" fill="white"/>
<circle cx="709" cy="238" r="1.5" fill="white"/>
<circle cx="759" cy="238" r="1.5" fill="white"/>
<circle cx="809" cy="238" r="1.5" fill="white"/>
<circle cx="859" cy="238" r="1.5" fill="white"/>
<circle cx="909" cy="238" r="1.5" fill="white"/>
<circle cx="959" cy="238" r="1.5" fill="white"/>
<circle cx="1009" cy="238" r="1.5" fill="white"/>
<circle cx="1059" cy="238" r="1.5" fill="white"/>
<circle cx="1109" cy="238" r="1.5" fill="white"/>
<circle cx="1159" cy="238" r="1.5" fill="white"/>
<circle cx="1209" cy="238" r="1.5" fill="white"/>
<circle cx="1259" cy="238" r="1.5" fill="white"/>
<circle cx="1309" cy="238" r="1.5" fill="white"/>
<circle cx="1359" cy="238" r="1.5" fill="white"/>
<circle cx="34" cy="284" r="1.5" fill="white"/>
<circle cx="84" cy="284" r="1.5" fill="white"/>
<circle cx="134" cy="284" r="1.5" fill="white"/>
<circle cx="184" cy="284" r="1.5" fill="white"/>
<circle cx="234" cy="284" r="1.5" fill="white"/>
<circle cx="284" cy="284" r="1.5" fill="white"/>
<circle cx="334" cy="284" r="1.5" fill="white"/>
<circle cx="384" cy="284" r="1.5" fill="white"/>
<circle cx="434" cy="284" r="1.5" fill="white"/>
<circle cx="484" cy="284" r="1.5" fill="white"/>
<circle cx="534" cy="284" r="1.5" fill="white"/>
<circle cx="584" cy="284" r="1.5" fill="white"/>
<circle cx="634" cy="284" r="1.5" fill="white"/>
<circle cx="684" cy="284" r="1.5" fill="white"/>
<circle cx="734" cy="284" r="1.5" fill="white"/>
<circle cx="784" cy="284" r="1.5" fill="white"/>
<circle cx="834" cy="284" r="1.5" fill="white"/>
<circle cx="884" cy="284" r="1.5" fill="white"/>
<circle cx="934" cy="284" r="1.5" fill="white"/>
<circle cx="984" cy="284" r="1.5" fill="white"/>
<circle cx="1034" cy="284" r="1.5" fill="white"/>
<circle cx="1084" cy="284" r="1.5" fill="white"/>
<circle cx="1134" cy="284" r="1.5" fill="white"/>
<circle cx="1184" cy="284" r="1.5" fill="white"/>
<circle cx="1234" cy="284" r="1.5" fill="white"/>
<circle cx="1284" cy="284" r="1.5" fill="white"/>
<circle cx="1334" cy="284" r="1.5" fill="white"/>
<circle cx="9" cy="330" r="1.5" fill="white"/>
<circle cx="59" cy="330" r="1.5" fill="white"/>
<circle cx="109" cy="330" r="1.5" fill="white"/>
<circle cx="159" cy="330" r="1.5" fill="white"/>
<circle cx="209" cy="330" r="1.5" fill="white"/>
<circle cx="259" cy="330" r="1.5" fill="white"/>
<circle cx="309" cy="330" r="1.5" fill="white"/>
<circle cx="359" cy="330" r="1.5" fill="white"/>
<circle cx="409" cy="330" r="1.5" fill="white"/>
<circle cx="459" cy="330" r="1.5" fill="white"/>
<circle cx="509" cy="330" r="1.5" fill="white"/>
<circle cx="559" cy="330" r="1.5" fill="white"/>
<circle cx="609" cy="330" r="1.5" fill="white"/>
<circle cx="659" cy="330" r="1.5" fill="white"/>
<circle cx="709" cy="330" r="1.5" fill="white"/>
<circle cx="759" cy="330" r="1.5" fill="white"/>
<circle cx="809" cy="330" r="1.5" fill="white"/>
<circle cx="859" cy="330" r="1.5" fill="white"/>
<circle cx="909" cy="330" r="1.5" fill="white"/>
<circle cx="959" cy="330" r="1.5" fill="white"/>
<circle cx="1009" cy="330" r="1.5" fill="white"/>
<circle cx="1059" cy="330" r="1.5" fill="white"/>
<circle cx="1109" cy="330" r="1.5" fill="white"/>
<circle cx="1159" cy="330" r="1.5" fill="white"/>
<circle cx="1209" cy="330" r="1.5" fill="white"/>
<circle cx="1259" cy="330" r="1.5" fill="white"/>
<circle cx="1309" cy="330" r="1.5" fill="white"/>
<circle cx="1359" cy="330" r="1.5" fill="white"/>
<circle cx="34" cy="376" r="1.5" fill="white"/>
<circle cx="84" cy="376" r="1.5" fill="white"/>
<circle cx="134" cy="376" r="1.5" fill="white"/>
<circle cx="184" cy="376" r="1.5" fill="white"/>
<circle cx="234" cy="376" r="1.5" fill="white"/>
<circle cx="284" cy="376" r="1.5" fill="white"/>
<circle cx="334" cy="376" r="1.5" fill="white"/>
<circle cx="384" cy="376" r="1.5" fill="white"/>
<circle cx="434" cy="376" r="1.5" fill="white"/>
<circle cx="484" cy="376" r="1.5" fill="white"/>
<circle cx="534" cy="376" r="1.5" fill="white"/>
<circle cx="584" cy="376" r="1.5" fill="white"/>
<circle cx="634" cy="376" r="1.5" fill="white"/>
<circle cx="684" cy="376" r="1.5" fill="white"/>
<circle cx="734" cy="376" r="1.5" fill="white"/>
<circle cx="784" cy="376" r="1.5" fill="white"/>
<circle cx="834" cy="376" r="1.5" fill="white"/>
<circle cx="884" cy="376" r="1.5" fill="white"/>
<circle cx="934" cy="376" r="1.5" fill="white"/>
<circle cx="984" cy="376" r="1.5" fill="white"/>
<circle cx="1034" cy="376" r="1.5" fill="white"/>
<circle cx="1084" cy="376" r="1.5" fill="white"/>
<circle cx="1134" cy="376" r="1.5" fill="white"/>
<circle cx="1184" cy="376" r="1.5" fill="white"/>
<circle cx="1234" cy="376" r="1.5" fill="white"/>
<circle cx="1284" cy="376" r="1.5" fill="white"/>
<circle cx="1334" cy="376" r="1.5" fill="white"/>
<circle cx="9" cy="422" r="1.5" fill="white"/>
<circle cx="59" cy="422" r="1.5" fill="white"/>
<circle cx="109" cy="422" r="1.5" fill="white"/>
<circle cx="159" cy="422" r="1.5" fill="white"/>
<circle cx="209" cy="422" r="1.5" fill="white"/>
<circle cx="259" cy="422" r="1.5" fill="white"/>
<circle cx="309" cy="422" r="1.5" fill="white"/>
<circle cx="359" cy="422" r="1.5" fill="white"/>
<circle cx="409" cy="422" r="1.5" fill="white"/>
<circle cx="459" cy="422" r="1.5" fill="white"/>
<circle cx="509" cy="422" r="1.5" fill="white"/>
<circle cx="559" cy="422" r="1.5" fill="white"/>
<circle cx="609" cy="422" r="1.5" fill="white"/>
<circle cx="659" cy="422" r="1.5" fill="white"/>
<circle cx="709" cy="422" r="1.5" fill="white"/>
<circle cx="759" cy="422" r="1.5" fill="white"/>
<circle cx="809" cy="422" r="1.5" fill="white"/>
<circle cx="859" cy="422" r="1.5" fill="white"/>
<circle cx="909" cy="422" r="1.5" fill="white"/>
<circle cx="959" cy="422" r="1.5" fill="white"/>
<circle cx="1009" cy="422" r="1.5" fill="white"/>
<circle cx="1059" cy="422" r="1.5" fill="white"/>
<circle cx="1109" cy="422" r="1.5" fill="white"/>
<circle cx="1159" cy="422" r="1.5" fill="white"/>
<circle cx="1209" cy="422" r="1.5" fill="white"/>
<circle cx="1259" cy="422" r="1.5" fill="white"/>
<circle cx="1309" cy="422" r="1.5" fill="white"/>
<circle cx="1359" cy="422" r="1.5" fill="white"/>
<circle cx="34" cy="468" r="1.5" fill="white"/>
<circle cx="84" cy="468" r="1.5" fill="white"/>
<circle cx="134" cy="468" r="1.5" fill="white"/>
<circle cx="184" cy="468" r="1.5" fill="white"/>
<circle cx="234" cy="468" r="1.5" fill="white"/>
<circle cx="284" cy="468" r="1.5" fill="white"/>
<circle cx="334" cy="468" r="1.5" fill="white"/>
<circle cx="384" cy="468" r="1.5" fill="white"/>
<circle cx="434" cy="468" r="1.5" fill="white"/>
<circle cx="484" cy="468" r="1.5" fill="white"/>
<circle cx="534" cy="468" r="1.5" fill="white"/>
<circle cx="584" cy="468" r="1.5" fill="white"/>
<circle cx="634" cy="468" r="1.5" fill="white"/>
<circle cx="684" cy="468" r="1.5" fill="white"/>
<circle cx="734" cy="468" r="1.5" fill="white"/>
<circle cx="784" cy="468" r="1.5" fill="white"/>
<circle cx="834" cy="468" r="1.5" fill="white"/>
<circle cx="884" cy="468" r="1.5" fill="white"/>
<circle cx="934" cy="468" r="1.5" fill="white"/>
<circle cx="984" cy="468" r="1.5" fill="white"/>
<circle cx="1034" cy="468" r="1.5" fill="white"/>
<circle cx="1084" cy="468" r="1.5" fill="white"/>
<circle cx="1134" cy="468" r="1.5" fill="white"/>
<circle cx="1184" cy="468" r="1.5" fill="white"/>
<circle cx="1234" cy="468" r="1.5" fill="white"/>
<circle cx="1284" cy="468" r="1.5" fill="white"/>
<circle cx="1334" cy="468" r="1.5" fill="white"/>
<circle cx="9" cy="514" r="1.5" fill="white"/>
<circle cx="59" cy="514" r="1.5" fill="white"/>
<circle cx="109" cy="514" r="1.5" fill="white"/>
<circle cx="159" cy="514" r="1.5" fill="white"/>
<circle cx="209" cy="514" r="1.5" fill="white"/>
<circle cx="259" cy="514" r="1.5" fill="white"/>
<circle cx="309" cy="514" r="1.5" fill="white"/>
<circle cx="359" cy="514" r="1.5" fill="white"/>
<circle cx="409" cy="514" r="1.5" fill="white"/>
<circle cx="459" cy="514" r="1.5" fill="white"/>
<circle cx="509" cy="514" r="1.5" fill="white"/>
<circle cx="559" cy="514" r="1.5" fill="white"/>
<circle cx="609" cy="514" r="1.5" fill="white"/>
<circle cx="659" cy="514" r="1.5" fill="white"/>
<circle cx="709" cy="514" r="1.5" fill="white"/>
<circle cx="759" cy="514" r="1.5" fill="white"/>
<circle cx="809" cy="514" r="1.5" fill="white"/>
<circle cx="859" cy="514" r="1.5" fill="white"/>
<circle cx="909" cy="514" r="1.5" fill="white"/>
<circle cx="959" cy="514" r="1.5" fill="white"/>
<circle cx="1009" cy="514" r="1.5" fill="white"/>
<circle cx="1059" cy="514" r="1.5" fill="white"/>
<circle cx="1109" cy="514" r="1.5" fill="white"/>
<circle cx="1159" cy="514" r="1.5" fill="white"/>
<circle cx="1209" cy="514" r="1.5" fill="white"/>
<circle cx="1259" cy="514" r="1.5" fill="white"/>
<circle cx="1309" cy="514" r="1.5" fill="white"/>
<circle cx="1359" cy="514" r="1.5" fill="white"/>
<circle cx="34" cy="560" r="1.5" fill="white"/>
<circle cx="84" cy="560" r="1.5" fill="white"/>
<circle cx="134" cy="560" r="1.5" fill="white"/>
<circle cx="184" cy="560" r="1.5" fill="white"/>
<circle cx="234" cy="560" r="1.5" fill="white"/>
<circle cx="284" cy="560" r="1.5" fill="white"/>
<circle cx="334" cy="560" r="1.5" fill="white"/>
<circle cx="384" cy="560" r="1.5" fill="white"/>
<circle cx="434" cy="560" r="1.5" fill="white"/>
<circle cx="484" cy="560" r="1.5" fill="white"/>
<circle cx="534" cy="560" r="1.5" fill="white"/>
<circle cx="584" cy="560" r="1.5" fill="white"/>
<circle cx="634" cy="560" r="1.5" fill="white"/>
<circle cx="684" cy="560" r="1.5" fill="white"/>
<circle cx="734" cy="560" r="1.5" fill="white"/>
<circle cx="784" cy="560" r="1.5" fill="white"/>
<circle cx="834" cy="560" r="1.5" fill="white"/>
<circle cx="884" cy="560" r="1.5" fill="white"/>
<circle cx="934" cy="560" r="1.5" fill="white"/>
<circle cx="984" cy="560" r="1.5" fill="white"/>
<circle cx="1034" cy="560" r="1.5" fill="white"/>
<circle cx="1084" cy="560" r="1.5" fill="white"/>
<circle cx="1134" cy="560" r="1.5" fill="white"/>
<circle cx="1184" cy="560" r="1.5" fill="white"/>
<circle cx="1234" cy="560" r="1.5" fill="white"/>
<circle cx="1284" cy="560" r="1.5" fill="white"/>
<circle cx="1334" cy="560" r="1.5" fill="white"/>
<circle cx="9" cy="606" r="1.5" fill="white"/>
<circle cx="59" cy="606" r="1.5" fill="white"/>
<circle cx="109" cy="606" r="1.5" fill="white"/>
<circle cx="159" cy="606" r="1.5" fill="white"/>
<circle cx="209" cy="606" r="1.5" fill="white"/>
<circle cx="259" cy="606" r="1.5" fill="white"/>
<circle cx="309" cy="606" r="1.5" fill="white"/>
<circle cx="359" cy="606" r="1.5" fill="white"/>
<circle cx="409" cy="606" r="1.5" fill="white"/>
<circle cx="459" cy="606" r="1.5" fill="white"/>
<circle cx="509" cy="606" r="1.5" fill="white"/>
<circle cx="559" cy="606" r="1.5" fill="white"/>
<circle cx="609" cy="606" r="1.5" fill="white"/>
<circle cx="659" cy="606" r="1.5" fill="white"/>
<circle cx="709" cy="606" r="1.5" fill="white"/>
<circle cx="759" cy="606" r="1.5" fill="white"/>
<circle cx="809" cy="606" r="1.5" fill="white"/>
<circle cx="859" cy="606" r="1.5" fill="white"/>
<circle cx="909" cy="606" r="1.5" fill="white"/>
<circle cx="959" cy="606" r="1.5" fill="white"/>
<circle cx="1009" cy="606" r="1.5" fill="white"/>
<circle cx="1059" cy="606" r="1.5" fill="white"/>
<circle cx="1109" cy="606" r="1.5" fill="white"/>
<circle cx="1159" cy="606" r="1.5" fill="white"/>
<circle cx="1209" cy="606" r="1.5" fill="white"/>
<circle cx="1259" cy="606" r="1.5" fill="white"/>
<circle cx="1309" cy="606" r="1.5" fill="white"/>
<circle cx="1359" cy="606" r="1.5" fill="white"/>
<circle cx="34" cy="652" r="1.5" fill="white"/>
<circle cx="84" cy="652" r="1.5" fill="white"/>
<circle cx="134" cy="652" r="1.5" fill="white"/>
<circle cx="184" cy="652" r="1.5" fill="white"/>
<circle cx="234" cy="652" r="1.5" fill="white"/>
<circle cx="284" cy="652" r="1.5" fill="white"/>
<circle cx="334" cy="652" r="1.5" fill="white"/>
<circle cx="384" cy="652" r="1.5" fill="white"/>
<circle cx="434" cy="652" r="1.5" fill="white"/>
<circle cx="484" cy="652" r="1.5" fill="white"/>
<circle cx="534" cy="652" r="1.5" fill="white"/>
<circle cx="584" cy="652" r="1.5" fill="white"/>
<circle cx="634" cy="652" r="1.5" fill="white"/>
<circle cx="684" cy="652" r="1.5" fill="white"/>
<circle cx="734" cy="652" r="1.5" fill="white"/>
<circle cx="784" cy="652" r="1.5" fill="white"/>
<circle cx="834" cy="652" r="1.5" fill="white"/>
<circle cx="884" cy="652" r="1.5" fill="white"/>
<circle cx="934" cy="652" r="1.5" fill="white"/>
<circle cx="984" cy="652" r="1.5" fill="white"/>
<circle cx="1034" cy="652" r="1.5" fill="white"/>
<circle cx="1084" cy="652" r="1.5" fill="white"/>
<circle cx="1134" cy="652" r="1.5" fill="white"/>
<circle cx="1184" cy="652" r="1.5" fill="white"/>
<circle cx="1234" cy="652" r="1.5" fill="white"/>
<circle cx="1284" cy="652" r="1.5" fill="white"/>
<circle cx="1334" cy="652" r="1.5" fill="white"/>
<circle cx="9" cy="698" r="1.5" fill="white"/>
<circle cx="59" cy="698" r="1.5" fill="white"/>
<circle cx="109" cy="698" r="1.5" fill="white"/>
<circle cx="159" cy="698" r="1.5" fill="white"/>
<circle cx="209" cy="698" r="1.5" fill="white"/>
<circle cx="259" cy="698" r="1.5" fill="white"/>
<circle cx="309" cy="698" r="1.5" fill="white"/>
<circle cx="359" cy="698" r="1.5" fill="white"/>
<circle cx="409" cy="698" r="1.5" fill="white"/>
<circle cx="459" cy="698" r="1.5" fill="white"/>
<circle cx="509" cy="698" r="1.5" fill="white"/>
<circle cx="559" cy="698" r="1.5" fill="white"/>
<circle cx="609" cy="698" r="1.5" fill="white"/>
<circle cx="659" cy="698" r="1.5" fill="white"/>
<circle cx="709" cy="698" r="1.5" fill="white"/>
<circle cx="759" cy="698" r="1.5" fill="white"/>
<circle cx="809" cy="698" r="1.5" fill="white"/>
<circle cx="859" cy="698" r="1.5" fill="white"/>
<circle cx="909" cy="698" r="1.5" fill="white"/>
<circle cx="959" cy="698" r="1.5" fill="white"/>
<circle cx="1009" cy="698" r="1.5" fill="white"/>
<circle cx="1059" cy="698" r="1.5" fill="white"/>
<circle cx="1109" cy="698" r="1.5" fill="white"/>
<circle cx="1159" cy="698" r="1.5" fill="white"/>
<circle cx="1209" cy="698" r="1.5" fill="white"/>
<circle cx="1259" cy="698" r="1.5" fill="white"/>
<circle cx="1309" cy="698" r="1.5" fill="white"/>
<circle cx="1359" cy="698" r="1.5" fill="white"/>
<circle cx="34" cy="744" r="1.5" fill="white"/>
<circle cx="84" cy="744" r="1.5" fill="white"/>
<circle cx="134" cy="744" r="1.5" fill="white"/>
<circle cx="184" cy="744" r="1.5" fill="white"/>
<circle cx="234" cy="744" r="1.5" fill="white"/>
<circle cx="284" cy="744" r="1.5" fill="white"/>
<circle cx="334" cy="744" r="1.5" fill="white"/>
<circle cx="384" cy="744" r="1.5" fill="white"/>
<circle cx="434" cy="744" r="1.5" fill="white"/>
<circle cx="484" cy="744" r="1.5" fill="white"/>
<circle cx="534" cy="744" r="1.5" fill="white"/>
<circle cx="584" cy="744" r="1.5" fill="white"/>
<circle cx="634" cy="744" r="1.5" fill="white"/>
<circle cx="684" cy="744" r="1.5" fill="white"/>
<circle cx="734" cy="744" r="1.5" fill="white"/>
<circle cx="784" cy="744" r="1.5" fill="white"/>
<circle cx="834" cy="744" r="1.5" fill="white"/>
<circle cx="884" cy="744" r="1.5" fill="white"/>
<circle cx="934" cy="744" r="1.5" fill="white"/>
<circle cx="984" cy="744" r="1.5" fill="white"/>
<circle cx="1034" cy="744" r="1.5" fill="white"/>
<circle cx="1084" cy="744" r="1.5" fill="white"/>
<circle cx="1134" cy="744" r="1.5" fill="white"/>
<circle cx="1184" cy="744" r="1.5" fill="white"/>
<circle cx="1234" cy="744" r="1.5" fill="white"/>
<circle cx="1284" cy="744" r="1.5" fill="white"/>
<circle cx="1334" cy="744" r="1.5" fill="white"/>
</g>
</svg>
