<svg width="32" height="32" viewBox="0 0 32 32" fill="none" xmlns="http://www.w3.org/2000/svg">
<path d="M10.5877 24.0001C10.1916 22.3033 8.40517 20.9143 7.67161 19.999C6.20827 18.173 5.33301 15.8554 5.33301 13.3334C5.33301 7.44237 10.1086 2.66675 15.9997 2.66675C21.8907 2.66675 26.6663 7.44237 26.6663 13.3334C26.6663 15.8567 25.7901 18.1754 24.3254 20.0019C23.5922 20.9161 21.8074 22.3035 21.4117 24.0001H10.5877ZM21.333 26.6667V28.0001C21.333 29.4729 20.1391 30.6667 18.6663 30.6667H13.333C11.8602 30.6667 10.6663 29.4729 10.6663 28.0001V26.6667H21.333ZM17.333 13.3398V8.00008L11.333 16.0065H14.6663V21.3398L20.6663 13.3398H17.333Z" fill="#CCD0DE"/>
</svg>
