<svg width="280" height="280" viewBox="0 0 280 280" fill="none" xmlns="http://www.w3.org/2000/svg">
<path fill-rule="evenodd" clip-rule="evenodd" d="M129.292 2.80285C126.613 7.7779 125.244 8.24914 115.637 7.47018C105.687 6.66558 101.279 6.84189 99.753 8.10809C97.7464 9.77178 98.5574 10.243 104.154 10.6629C110.78 11.1662 113.447 12.2946 115.258 15.3623C119.413 22.3921 111.697 27.1364 104.475 21.9946C99.6761 18.5775 93.5695 18.3531 87.1808 21.3567C85.2735 22.2543 82.5744 22.6357 79.0194 22.5107C69.5854 22.1837 66.2965 24.7931 65.4053 33.3167C65.0559 36.6601 64.5334 38.2597 63.7897 38.2597C61.86 38.2597 53.6377 44.4817 51.5957 47.4821C47.5599 53.4253 47.4028 61.077 51.1534 69.3217C53.4646 74.4057 53.3235 75.2167 49.5858 78.2203C39.8794 86.0195 40.2737 100.586 50.4353 109.532C53.8428 112.53 55.8047 115.081 57.2311 118.377C58.7442 121.864 59.8629 123.265 61.7638 124.05C63.9692 124.964 64.2129 125.371 63.6839 127.25C60.7476 137.697 64.2161 147.054 75.3843 158.828C87.059 171.137 90.3415 175.317 90.9409 178.648C91.6333 182.488 92.5662 183.7 94.4478 183.206C98.2464 182.212 100.865 206.552 97.897 215.23C96.4417 219.484 90.5819 229.177 84.8183 236.864C75.5221 249.266 76.0286 250.981 90.4088 255.764C94.5857 257.152 98.9452 258.457 100.093 258.665C101.24 258.874 105.465 260.313 109.482 261.864C113.499 263.416 117.3 264.685 117.932 264.685C118.56 264.685 122.295 265.807 126.228 267.179C130.161 268.554 137.024 270.606 141.483 271.741C145.942 272.879 151.395 274.52 153.603 275.389C170.282 281.963 174.892 281.607 175.818 273.677C177.498 259.271 178.508 253.77 182.066 239.602C186.662 221.307 187.175 220.147 192.776 215.486C207.614 203.125 210.624 199.048 210.624 191.313C210.624 185.726 211.179 184.216 214.948 179.51C217.16 176.75 217.337 176.067 216.981 171.746C216.763 169.137 216.843 166.454 217.154 165.777C217.468 165.104 218.51 162.896 219.472 160.873C223.52 152.343 223.732 150.92 223.52 133.385L223.318 116.777L226.764 113.267C230.053 109.914 230.194 109.568 229.842 105.682C229.059 97.0659 228.704 76.64 229.338 77.0343C230.255 77.6017 234.954 71.6169 236.506 67.9048C238.147 63.978 237.586 58.0349 235.269 54.7812C234.297 53.4124 233.265 51.1301 232.98 49.7068C232.377 46.6807 231.092 47.9149 231.072 51.5436C231.056 54.4062 227.806 54.5632 218.391 52.1559C214.875 51.2551 211.871 50.521 211.72 50.521C211.567 50.521 211.442 52.1751 211.442 54.1978C211.442 60.2083 205.479 56.4705 204.412 49.7901C203.787 45.8857 202.469 45.5203 200.059 48.588C196.08 53.6432 198.687 60.7564 205.726 64.0485C218.885 70.2096 220.795 71.3797 221.36 73.6139C221.671 74.8481 221.866 75.861 221.792 75.861C221.719 75.861 219.651 75.0981 217.196 74.1621C212.051 72.2067 195.068 68.094 188.759 67.2733L184.467 66.7156V69.6551C184.467 71.2707 184.633 72.5914 184.835 72.5914C194.487 72.5914 224.03 86.8049 225.77 92.2832C226.533 94.6874 226.501 94.6938 217.33 93.8988C205.822 92.8987 205.72 92.9435 205.72 98.8867C205.72 105.458 210.425 125.576 214.343 135.754C215.891 139.777 215.868 139.989 213.596 142.438C211.288 144.928 210.634 145.069 211.188 142.957C211.547 141.582 211.018 141.335 206.819 140.925C187.861 139.069 187.631 139.02 184.784 136.26C181.284 132.869 179.556 133.946 179.575 139.514C179.594 145.201 182.739 147.794 189.612 147.794C192.144 147.794 193.635 148.269 194.657 149.4C197.699 152.76 203.037 154.016 205.287 151.904L207.258 150.051L208.938 152.804C212.721 159.007 206.396 161.681 196.395 158.11L190.746 156.093L186.759 157.667C181.966 159.555 179.296 159.661 177.927 158.01C176.587 156.398 172.295 156.417 171.673 158.042C170.478 161.152 173.827 162.716 180.79 162.299C186.771 161.94 187.727 162.107 192.003 164.251C197.196 166.851 200.52 167.201 202.908 165.396C205.332 163.562 206.511 163.896 207.713 166.755C209.643 171.339 205.941 173.952 197.517 173.952C191.487 173.952 191.23 175.009 196.946 176.288C203.309 177.715 206.114 179.741 207.787 184.12C209.531 188.684 209.38 188.886 205.28 187.495C198.033 185.04 196.875 185.052 196.584 187.591C196.02 192.496 182.665 195.64 176.325 192.361C171.228 189.723 166.733 179.548 167.535 172.448C167.843 169.701 167.538 167.845 166.416 165.643C165.567 163.979 164.544 159.741 164.147 156.228C163.252 148.317 162.191 145.8 156.341 137.684C147.115 124.89 142.868 109.709 147.151 104.836C148.622 103.16 149.273 102.82 149.292 103.714C149.398 109.045 154.45 109.343 167.509 104.788C174.629 102.304 180.38 102.852 180.38 106.013C180.38 106.824 181.117 108.154 182.014 108.965C184.342 111.074 184.037 112.956 181.197 114.03C177.956 115.251 178.068 116.735 181.402 116.713C190.766 116.652 197.408 109.542 198.145 98.7969L198.571 92.5557L195.305 92.8666C191.173 93.2609 176.414 90.3566 169.045 87.696C161.928 85.1316 161.406 85.1508 156.046 88.1769C153.603 89.5553 151.443 90.5201 151.247 90.3246C150.722 89.7989 156.232 82.6537 161.06 77.6017L165.259 73.21L156.2 73.7229C142.628 74.4955 139.621 73.1395 145.474 68.8857C152.725 63.619 152.93 47.2513 145.747 47.2513C145.214 47.2513 142.051 45.9467 138.723 44.3503C134.207 42.1865 131.828 41.5134 129.347 41.7025L126.023 41.9525L128.882 43.581C133.232 46.0557 141.961 54.8998 141.961 56.8328C141.961 62.3816 133.973 63.6542 131.565 58.4901C130.988 57.2559 130.052 55.2492 129.488 54.0375C127.481 49.7389 123.869 48.5079 112.328 48.1906C100.237 47.8572 99.1696 48.6522 108.129 51.3128C115.371 53.4637 118.111 55.6692 121.343 61.9585C123.811 66.7636 127.843 70.1391 131.113 70.1391C135.062 70.1391 132.476 72.181 128.212 72.4279C122.362 72.7709 118.98 70.995 116.374 66.2027C112.248 58.6247 106.363 55.7044 100.135 58.1503C98.2528 58.8908 96.6565 59.4069 96.5923 59.3011C96.5278 59.1966 95.7126 57.8439 94.7504 56.2473L94.7434 56.2358L94.7388 56.2281L94.7319 56.2167L94.6241 56.0378C92.4059 52.3514 87.7097 51.8481 81.555 54.6402C76.9294 56.7398 76.7979 56.509 78.9232 50.0338C80.8786 44.0778 80.6671 42.2058 77.6763 39.0066C71.0087 31.8742 83.7733 31.3741 97.413 38.2341C109.639 44.3823 116.887 43.7284 119.249 36.2594C121.083 30.4669 124.292 29.4187 134.466 31.2876C143.179 32.884 171.885 31.5504 173.988 29.4476C175.558 27.8769 171.843 21.4433 167.577 18.3371L163.624 15.4617L163.134 18.2954C161.941 25.2451 156.674 27.2518 156.674 20.7573C156.674 13.2851 148.898 5.42501 137.566 1.44369C131.498 -0.691219 131.145 -0.633519 129.292 2.80285ZM142.442 11.397C145.259 12.7594 150.135 18.9814 150.135 21.2189C150.135 27.4794 140.544 29.6656 134.771 24.7258C124.894 16.2727 130.905 5.83533 142.442 11.397ZM68.5382 53.3494C68.2955 56.8675 68.1975 58.2871 67.6275 58.5124C67.242 58.6647 66.6405 58.2708 65.6321 57.6103L65.556 57.5604C62.9851 55.8775 62.7736 52.0533 65.1233 49.7036C68.1076 46.7192 68.9411 47.5623 68.55 53.1784L68.5382 53.3494ZM92.4219 72.5401C93.0694 77.4061 97.9836 82.3363 104.488 84.6475C109.809 86.5388 109.472 87.3081 103.337 87.2857C94.3004 87.2536 88.3733 82.987 87.4116 75.8226C86.857 71.6842 86.1133 71.7483 83.9977 76.1207C80.0837 84.202 83.9015 95.6074 91.3448 98.0885C94.0471 98.9892 90.771 100.384 85.9531 100.384C79.5579 100.384 77.423 102.201 75.2304 109.523C72.8711 117.402 70.6529 114.764 69.5085 102.717C68.4955 92.078 74.1469 78.2813 81.3402 73.8159C82.7892 72.9183 85.1613 71.3861 86.607 70.4148C90.8319 67.5714 91.8128 67.9305 92.4219 72.5401ZM110.049 71.2675C111.322 75.1238 113.111 76.4701 118.711 77.7876C123.465 78.9063 123.519 78.9512 121.269 79.8488C116.143 81.8907 106.857 80.663 105.324 77.7395C103.927 75.0725 103.337 70.9565 104.353 70.9565C104.869 70.9565 105.847 70.4052 106.52 69.7288C108.344 67.908 109.04 68.2093 110.049 71.2675ZM134.585 83.1826C136.482 86.7247 135.348 90.238 130.443 96.0145C129.238 97.4313 128.055 99.0854 127.811 99.6913C127.456 100.586 127.209 100.56 126.504 99.5662C125.013 97.457 125.523 93.9757 128.065 88.9398C129.414 86.2663 130.517 83.1377 130.517 81.9869C130.517 79.5539 133.04 80.2976 134.585 83.1826ZM118.64 102.724C118.942 104.105 118.595 106.5 117.784 108.641C114.784 116.54 117.294 124.906 122.663 124.906C125.359 124.906 128.074 130.93 126.584 133.593C125.875 134.86 125.619 134.68 124.567 132.161C123.324 129.189 121.657 128.211 115.473 126.839C109.867 125.595 106.215 115.286 109.828 110.898C110.331 110.286 111.402 106.958 112.203 103.503L113.659 97.223L115.893 98.8129C117.124 99.6881 118.361 101.448 118.64 102.724ZM132.543 111.613C132.931 113.68 134.402 116.046 137.031 118.822C143.794 125.977 143.996 126.721 142.781 140.008C140.765 162.075 142.246 166.37 151.565 165.428C157.415 164.838 157.633 165.066 154.104 168.079C140.246 179.917 123.907 165.938 132.69 149.756C137.511 140.873 137.996 139.472 138.028 134.353C138.06 128.458 136.688 125.253 132.793 122.13C131.318 120.947 129.651 119.604 129.097 119.149C126.696 117.184 126.843 111.533 129.356 109.016C131.078 107.295 131.85 107.923 132.543 111.613ZM93.3868 111.741C97.1982 113.472 99.9229 118.027 99.1023 121.297C98.442 123.929 97.631 123.784 96.3071 120.8C93.4028 114.235 82.3019 114.828 80.9427 121.617C79.8176 127.256 73.6629 127.512 73.7719 121.922C73.9322 113.485 84.8023 107.843 93.3868 111.741ZM85.3728 142.066C87.6392 146.037 91.7038 148.432 93.8772 147.076C97.5604 144.778 103.542 147.031 103.542 150.721C103.542 154.545 93.5374 155.404 87.8668 152.07C85.094 150.439 80.1446 143.992 79.4073 141.05C78.4168 137.107 82.9847 137.886 85.3728 142.066ZM111.806 140.527C113.854 142.575 118.48 144.005 120.74 143.287C123.481 142.418 123.798 145.284 121.208 147.515C115.29 152.602 104.215 146.813 107.639 140.421C108.741 138.357 109.658 138.379 111.806 140.527ZM110.601 180.898C116.845 192.925 128.667 209.386 140.502 222.532C154.604 238.198 155.431 246.686 144.641 265.092C142.474 268.792 139.137 263.111 138.191 254.107C137.217 244.836 131.69 233.719 123.461 224.459C116.092 216.169 112.418 207.411 109.302 190.707C107.876 183.065 106.52 175.894 106.286 174.769C105.715 172.022 106.764 173.512 110.601 180.898ZM168.572 7.12432C167.742 8.46745 168.96 10.176 171.662 11.4647C179.884 15.3851 186.158 23.9888 184.721 29.371C183.654 33.3683 185.106 33.6568 188.616 30.1499C191.123 27.64 191.578 25.1621 190.197 21.527C187.808 15.2472 170.623 3.80335 168.572 7.12432ZM203.973 29.4157C205.419 29.2009 205.72 28.5951 205.72 25.9216C205.72 21.873 207.685 22.793 212.352 29.031C216.401 34.4453 216.459 34.5895 215.555 36.9648C214.282 40.3147 211.304 39.7761 208.615 35.7115C206.499 32.5155 206.217 32.3648 203.14 32.7784C199.963 33.2047 199.918 33.1758 201.062 31.4448C201.703 30.4735 203.015 29.56 203.973 29.4157ZM152.842 42.9882C156.592 46.0132 158.246 47.3474 158.987 49.0734C159.571 50.4351 159.586 52.0408 159.614 54.9133C159.617 55.248 159.621 55.6 159.625 55.9707C159.75 66.1035 166.248 68.7994 169.809 60.1957C174.069 49.9154 167.915 41.145 155.852 40.2955L148.912 39.8082L151.743 42.1002C152.128 42.4119 152.494 42.7073 152.842 42.9882ZM185.517 43.9688C186.963 43.9624 188.697 43.6002 189.37 43.1642C190.044 42.7283 190.653 42.3661 190.723 42.3596C190.794 42.3532 190.656 44.501 190.415 47.1327C189.899 52.8258 191.162 57.2399 193.926 59.4133C197.961 62.5868 195.278 62.9138 189.451 59.9614C180.366 55.3582 177.574 44.0073 185.517 43.9688Z" fill="#7E839D"/>
</svg>
