<svg width="100" height="100" viewBox="0 0 100 100" fill="none" xmlns="http://www.w3.org/2000/svg">
<path d="M44.2993 13.5804C29.4355 16.05 17.0165 27.5998 13.9699 41.7883C11.6557 52.5634 14.154 67.835 18.4553 69.2165C25.7933 71.5743 34.723 68.5811 42.4701 61.1698C44.6947 59.0409 45.0218 58.056 42.9662 59.6775C33.273 67.3202 19.9226 70.0659 18.9017 64.6255C18.4167 62.0427 22.7056 60.64 23.6395 63.0761C24.0847 64.2338 23.2242 64.8866 22.3736 64.0361C21.6959 63.3596 20.9921 63.4491 20.9921 64.2114C20.9921 65.5855 23.9952 66.0916 25.9077 65.0396C26.2559 64.8468 27.1997 64.7337 28.003 64.7859C31.1852 64.9936 35.5959 63.2638 42.0473 59.2796C47.6816 55.7978 47.7699 57.2141 42.2748 62.9467C35.5437 69.9689 31.4898 71.9597 23.9255 71.9622C18.7512 71.9647 18.7537 71.9622 20.8416 74.2851C22.0615 75.6405 22.6459 76.0037 24.7263 76.6913C35.3087 80.1881 40.8908 79.0142 54.7635 70.373C66.5246 63.0475 71.6342 62.2591 80.0653 66.4696C81.4244 67.1486 82.6667 67.6224 82.8271 67.5241C83.0845 67.365 83.7709 65.3666 83.7759 64.7623C83.7784 64.3656 78.6514 62.9244 75.5401 62.4468C70.7675 61.7144 62.9445 63.1507 59.2401 65.44C57.7715 66.3478 57.4582 66.2707 57.4582 64.9998C57.4582 63.6083 58.3087 62.7888 60.2598 62.3026C61.0731 62.0999 62.2233 61.651 62.8152 61.3041C67.8117 58.3806 76.086 57.7712 78.6166 60.1414C79.2557 60.7407 79.3403 60.7519 79.5268 60.267C79.9384 59.1951 77.8493 57.959 74.7045 57.4131C73.451 57.1955 68.8923 57.8558 67.2906 58.4863C64.5736 59.5582 64.7974 58.4552 67.5356 57.2813C72.1503 55.3029 78.8752 55.1611 84.0271 56.9331C86.0777 57.6394 86.0242 57.668 86.345 55.7157C90.3417 31.4274 68.518 9.55765 44.2993 13.5804ZM47.3111 23.924C48.0373 25.3478 48.0248 25.3416 48.9264 24.7957C49.7732 24.2834 51.5141 26.1387 51.3662 27.3959C51.2381 28.4802 48.4464 29.9625 47.8023 29.2873C47.423 28.8881 45.9569 25.6164 45.5067 24.1665C44.9571 22.3907 46.4282 22.193 47.3111 23.924ZM55.5842 30.7036C58.2254 31.696 58.2366 32.0118 55.6488 32.4868C54.4638 32.7044 52.223 33.2988 50.6698 33.8087C47.3571 34.8955 46.994 34.8346 46.994 33.1907C46.994 30.159 51.0279 28.9913 55.5842 30.7036ZM65.7711 35.7523C67.0593 36.3405 67.6052 37.0965 67.6052 38.2953C67.6052 38.8897 67.8104 39.1135 68.4769 39.2453C68.9569 39.3411 70.3111 39.6196 71.4875 39.8659C72.6626 40.1108 73.6848 40.2526 73.7594 40.178C73.987 39.9504 75.2156 40.7313 75.2156 41.1044C75.2156 41.2984 74.7393 42.185 74.1573 43.0754C73.5754 43.9657 72.1677 46.1207 71.0286 47.8641C69.2703 50.5576 67.701 53.639 66.8542 56.0626C66.7286 56.4208 66.4625 56.5799 66.1727 56.468C62.4073 55.0231 55.6849 55.6971 51.2045 57.9677C49.2298 58.9675 49.0184 58.9874 48.8095 58.1903C48.5819 57.3211 49.3654 56.3549 50.5007 56.1049C52.0327 55.7692 51.6124 54.8651 49.8653 54.7408C47.806 54.5928 41.9043 57.0575 39.6871 58.9911C38.5928 59.9461 34.7789 61.0765 32.0954 61.2406L29.3957 61.406L28.2057 60.3005C26.3379 58.5634 26.798 55.4309 28.7877 56.3375C29.4641 56.6459 29.9155 56.4345 32.9174 54.4013C43.0918 47.5097 55.4126 43.9496 67.9373 44.2803C71.4614 44.3736 71.5721 44.3562 71.6678 43.6859C71.7984 42.762 70.1346 42.4859 64.4343 42.4884C55.0408 42.4922 42.342 46.7972 32.9858 53.1528C30.2227 55.028 30.0834 55.0852 29.6556 54.4995C28.764 53.2821 30.015 51.2938 32.9621 49.2457C34.6235 48.093 34.6658 47.7037 33.1213 47.7945C30.5572 47.945 31.7398 44.0602 34.7615 42.4051C35.3584 42.0768 35.3572 42.0395 34.6819 40.4702C33.8028 38.4246 33.7916 38.488 35.1657 37.5964L36.3296 36.8416L36.9091 37.5579C37.9287 38.8151 37.9685 39.7117 37.0409 40.4416C36.1194 41.1666 35.9329 41.7684 36.725 41.465C37.1478 41.3021 37.1901 41.4004 36.9688 42.0296C36.6753 42.8602 36.6342 44.7454 36.9041 45.0153C36.9961 45.1073 38.8452 44.34 41.0127 43.3092C48.2126 39.8858 52.7788 38.8723 61.3429 38.7952C66.7883 38.7467 67.2819 38.6199 65.7959 37.6462C62.5043 35.4887 49.384 37.6151 41.1283 41.6428C38.3864 42.9809 38.1153 42.997 38.1153 41.8219C38.1153 39.6259 42.919 36.5892 47.8968 35.6404C52.0824 34.8408 63.9344 34.9167 65.7711 35.7523ZM59.6144 58.2338C60.2934 58.9128 60.0198 59.7895 58.8086 60.8141C58.1558 61.365 56.7207 62.7105 55.619 63.8035C51.0826 68.3013 46.9629 71.6128 42.9787 73.9618C35.8073 78.191 27.8463 75.5212 34.3748 71.0768C36.7263 69.4764 37.9225 69.3894 38.0593 70.812C38.3055 73.3935 44.4671 70.3792 53.2078 63.4019C61.3628 56.8933 58.0339 58.0087 49.2982 64.7125C44.4174 68.458 41.9204 69.2004 41.9204 66.9049C41.9204 65.241 42.3581 64.4203 44.4099 62.2417C46.1496 60.3938 47.3521 59.8703 46.4157 61.3687C45.4906 62.851 46.8833 63.0039 48.8966 61.6411C53.1419 58.7648 58.4567 57.0761 59.6144 58.2338Z" fill="#7E839D"/>
<path d="M48.8128 25.9061C48.6077 26.4446 49.1125 27.7291 49.5304 27.7291C50.0663 27.7291 50.2454 26.8873 49.8611 26.1685C49.462 25.4249 49.0367 25.3179 48.8128 25.9061Z" fill="#7E839D"/>
<path d="M46.3601 50.8163C46.3601 50.978 45.5071 51.3498 44.465 51.642C42.5724 52.1742 38.7349 54.4872 38.5023 55.237C38.3034 55.8799 38.9177 55.7008 40.9023 54.5381C41.9295 53.9363 43.7214 53.1305 44.8828 52.75C46.9309 52.0772 47.6173 51.3 46.6772 50.7181C46.5031 50.6111 46.3601 50.6546 46.3601 50.8163Z" fill="#7E839D"/>
<path d="M79.2933 57.7888C81.6037 59.4576 82.218 60.9237 80.9409 61.722C80.3826 62.0702 82.8323 63.2142 84.1902 63.2391C84.4924 63.2453 85.2049 61.5865 85.5059 60.1714C85.8006 58.7911 82.55 57.2043 79.4972 57.2367L78.5459 57.2479L79.2933 57.7888Z" fill="#7E839D"/>
<path d="M63.1184 67.3389C60.1178 68.1484 52.694 72.5156 47.2238 76.6876C43.5903 79.4594 37.415 81.4391 32.3277 81.4627C28.7315 81.4789 28.6009 81.6231 31.0594 82.8629C38.5205 86.6258 41.1866 85.9431 51.6147 77.6053C64.2388 67.5105 71.7186 65.6489 77.777 71.0955L79.4172 72.5704L80.1857 71.6763C82.9003 68.5202 70.4577 65.3592 63.1184 67.3389Z" fill="#7E839D"/>
<path d="M65.228 71.7646C57.6165 73.7753 53.0005 83.1378 58.8836 84.6325C62.8728 85.6447 75.533 79.2692 75.533 76.2475C75.533 73.6883 68.8889 70.7984 65.228 71.7646ZM68.7608 73.7517C71.8957 76.6964 68.2261 82.2698 63.1526 82.2698C59.0925 82.2698 58.5143 78.4808 62.0919 75.3272C65.1136 72.6636 67.1032 72.1936 68.7608 73.7517Z" fill="#7E839D"/>
<path d="M66.4957 75.6108C66.2582 76.3557 65.532 76.4502 65.2708 75.7687C64.9413 74.9094 63.5772 75.1868 63.3931 76.1492C63.1021 77.6676 63.5933 78.3851 64.8033 78.2085C66.676 77.9362 68.1458 76.5633 67.728 75.4752C67.4594 74.7751 66.7357 74.8547 66.4957 75.6108Z" fill="#7E839D"/>
<path d="M48.7381 83.0271C48.2146 83.2559 47.3578 83.803 46.8355 84.242C46.312 84.681 45.3968 85.3363 44.8011 85.6969C43.5017 86.4853 43.6857 86.5574 47.7421 86.8459C53.9609 87.2899 55.3001 86.7253 53.6637 84.3465C52.3779 82.4775 50.9006 82.082 48.7381 83.0271Z" fill="#7E839D"/>
</svg>
