<svg width="32" height="32" viewBox="0 0 32 32" fill="none" xmlns="http://www.w3.org/2000/svg">
<path d="M22.7223 1.5L24.4807 4.79709L27.7778 6.55556L24.4807 8.31401L22.7223 11.6111L20.9638 8.31401L17.6667 6.55556L20.9638 4.79709L22.7223 1.5ZM10.7222 5.66667L14.2778 12.3333L20.9444 15.8889L14.2778 19.4444L10.7222 26.1111L7.16666 19.4444L0.5 15.8889L7.16666 12.3333L10.7222 5.66667ZM26.2778 21.6667L24.0556 17.5L21.8334 21.6667L17.6667 23.8889L21.8334 26.1111L24.0556 30.2777L26.2778 26.1111L30.4444 23.8889L26.2778 21.6667Z" fill="url(#paint0_linear_3312_26898)"/>
<path d="M22.7223 1.5L24.4807 4.79709L27.7778 6.55556L24.4807 8.31401L22.7223 11.6111L20.9638 8.31401L17.6667 6.55556L20.9638 4.79709L22.7223 1.5ZM10.7222 5.66667L14.2778 12.3333L20.9444 15.8889L14.2778 19.4444L10.7222 26.1111L7.16666 19.4444L0.5 15.8889L7.16666 12.3333L10.7222 5.66667ZM26.2778 21.6667L24.0556 17.5L21.8334 21.6667L17.6667 23.8889L21.8334 26.1111L24.0556 30.2777L26.2778 26.1111L30.4444 23.8889L26.2778 21.6667Z" fill="url(#paint1_linear_3312_26898)" style="mix-blend-mode:soft-light"/>
<defs>
<linearGradient id="paint0_linear_3312_26898" x1="30.4444" y1="15.8888" x2="0.499991" y2="15.8888" gradientUnits="userSpaceOnUse">
<stop stop-color="#415EED"/>
<stop offset="1" stop-color="#3651DA"/>
</linearGradient>
<linearGradient id="paint1_linear_3312_26898" x1="0.499999" y1="30.2777" x2="19.8514" y2="-4.40964" gradientUnits="userSpaceOnUse">
<stop stop-color="#F7F8FC" stop-opacity="0"/>
<stop offset="0.494206" stop-color="#F7F8FC"/>
<stop offset="1" stop-color="#F7F8FC" stop-opacity="0"/>
</linearGradient>
</defs>
</svg>
