<svg width="100" height="100" viewBox="0 0 100 100" fill="none" xmlns="http://www.w3.org/2000/svg">
<path fill-rule="evenodd" clip-rule="evenodd" d="M46.2446 92.2852C47.6787 93.1686 49.4237 94.4727 49.4237 94.6617L50.0414 94.6827C50.0414 94.5858 50.5275 94.1756 51.1227 93.7718C52.6133 92.76 54.5795 91.3647 54.8565 91.1233C54.9825 91.0126 55.3297 90.7655 55.6277 90.5742C56.4804 90.0259 59.0506 88.1824 60.8521 86.8258C64.0708 84.4009 66.7759 82.3975 67.2418 82.0931C67.5018 81.9235 68.8423 80.9036 70.2199 79.8281C72.803 77.8117 73.6428 77.1722 77.0569 74.6262C79.9461 72.471 84.1023 69.2047 85.714 67.8231C88.6525 65.3045 88.7203 64.3799 86.8187 52.7504C86.6515 51.7314 86.4585 50.3877 86.3899 49.7651C86.3205 49.1425 86.0879 47.706 85.8731 46.5731C85.6583 45.441 85.4257 44.0045 85.3555 43.3819C85.2861 42.7593 85.1447 41.7863 85.0422 41.2194C84.9396 40.6534 84.8007 39.5883 84.7345 38.8519C84.6683 38.1154 84.4236 36.3091 84.1911 34.8362C83.5427 30.7293 83.5298 30.2933 83.9908 28.0412C85.345 21.4375 85.2013 20.823 81.5675 17.6431C80.8561 17.0205 79.6562 15.9288 78.902 15.2182C78.1478 14.5076 77.2523 13.7784 76.9132 13.5975C76.5732 13.4167 76.1412 13.1348 75.9539 12.9709C75.5824 12.6455 72.4784 12.5446 71.3447 12.8199C70.3676 13.0581 68.7551 13.9375 67.686 14.8152C66.3665 15.8997 66.3003 15.7083 67.2975 13.6848C68.6073 11.0281 69.0966 10.6591 71.352 10.6276C73.6041 10.5961 73.2803 9.92749 70.0777 8C64.4059 4.58593 58.0663 4.46965 52.7005 7.68105C50.2611 9.14019 50.0867 9.29764 49.8266 10.2626C49.8146 10.3073 49.8033 10.35 49.7926 10.3908C49.7098 10.7044 49.6583 10.8994 49.5419 10.9528C49.3501 11.0408 48.9823 10.7448 48.0091 9.96167L47.7667 9.7668C40.4751 3.91005 33.8553 3.83658 27.1894 9.53828L26.1938 10.391L27.9767 10.5363C29.943 10.6978 32.4131 11.5239 33.466 12.3718C34.3325 13.0711 34.1088 13.1397 32.1191 12.782C27.4631 11.9446 23.9514 12.245 22.3566 13.6153C20.4347 15.2666 16.5071 19.011 15.7682 19.8944C14.6927 21.1823 14.7879 24.6271 16.0048 28.4376C16.3504 29.5181 16.2891 31.985 15.8659 34.0279C15.6132 35.2464 14.9252 40.3821 14.6127 43.3795C14.4884 44.5681 14.3204 45.6332 14.238 45.7479C14.1557 45.8625 14.0612 46.28 14.0273 46.6765C13.9934 47.0729 13.8779 47.5615 13.7713 47.7617C13.6639 47.962 13.6203 48.197 13.6736 48.2834C13.7269 48.3698 13.647 49.0868 13.4968 49.8766C13.3458 50.6671 13.1205 52.3313 12.9961 53.5765C12.871 54.8208 12.682 56.1637 12.577 56.5602C11.7897 59.5156 11.6525 64.262 12.3178 65.5484C12.7337 66.3542 15.4509 69.019 17.5076 70.6396C21.4554 73.7493 22.3695 74.4574 23.2537 75.0921C23.8068 75.4886 24.5699 76.0748 24.9502 76.3946C25.3298 76.7144 26.7065 77.7601 28.009 78.7178C29.3115 79.6763 30.698 80.7123 31.0912 81.0191C31.4837 81.3268 33.2036 82.5978 34.9139 83.8429C36.6241 85.0889 39.1104 86.9421 40.4387 87.9611C41.7671 88.981 43.1511 90.017 43.5137 90.2633C43.8762 90.5104 44.4883 90.9739 44.8743 91.2928C45.2603 91.6126 45.8772 92.0591 46.2446 92.2852ZM37.2694 24.157C37.193 24.0806 37.553 21.4379 37.6996 21.0015C37.8901 20.4343 46.4049 20.7311 47.6973 21.3501C48.275 21.6275 49.0055 21.854 49.3207 21.854C49.8748 21.854 49.8923 21.8988 49.8923 23.2931C49.8923 25.3941 49.6272 25.5829 47.7 24.8533C44.1397 23.5047 43.7218 23.4678 38.7444 24.0569C37.9691 24.1482 37.3054 24.193 37.2694 24.157ZM65.4592 21.9656C66.3784 24.7839 68.0589 26.3713 71.5533 27.7226L73.6245 28.5242V27.3556V26.1878L71.512 25.3818C69.4128 24.5802 66.6682 22.97 65.7787 22.0165C65.3476 21.5547 65.3239 21.5511 65.4592 21.9656ZM25.9362 26.3327C27.3779 25.8954 30.8925 24.2 32.6529 23.0937C33.3298 22.6679 33.9067 22.315 33.933 22.3106C34.2833 22.2482 32.8531 24.5284 31.9417 25.4845C30.1164 27.3994 25.1776 29.3521 24.9239 28.259C24.5885 26.8164 24.6359 26.7278 25.9362 26.3327ZM32.5413 34.2749C30.6369 34.9159 28.5157 35.9001 28.6228 36.0924C28.6843 36.2039 28.7949 36.275 28.8686 36.2504C29.9442 35.8913 34.8917 37.2943 34.8917 37.9572C34.8917 38.3462 37.3167 39.7115 38.4739 39.9731C39.1508 40.1268 39.8664 40.2953 40.0631 40.3489C40.3572 40.4279 40.9367 41.3068 40.9367 41.6729C40.9367 41.7256 40.1307 42.6528 39.1465 43.7336C36.7601 46.3526 35.7407 48.271 35.832 49.9752L35.8996 51.2325L37.6907 49.6188C38.6759 48.732 39.7057 47.8988 39.9806 47.7697C40.5232 47.5125 40.632 47.2798 40.8392 45.9215C40.9147 45.429 41.3616 44.0189 41.8322 42.7871C42.8472 40.1347 43.9236 36.5235 43.8051 36.1696C43.7594 36.0309 42.7173 35.4769 41.4898 34.9361L39.258 33.9545L36.3474 33.9641C34.5256 33.9703 33.1015 34.087 32.5413 34.2749ZM58.0611 35.0415C58.6099 34.7834 59.4905 34.4313 60.0173 34.2592C62.013 33.6069 66.6997 33.951 68.9061 34.9133C69.9439 35.3655 70.9264 35.7351 71.0888 35.7351C71.5226 35.7351 71.4514 36.1337 70.994 36.2654C70.778 36.3278 69.7964 36.4472 68.8113 36.5315C66.3652 36.7396 63.6469 38.1224 64.1342 38.9108C64.2001 39.0171 64.1711 39.0838 64.0701 39.0583C63.9683 39.0338 63.5328 39.1734 63.1017 39.37C62.6706 39.5667 61.5968 39.9416 60.7153 40.2033C59.8268 40.4675 59.0533 40.8328 58.9804 41.0242C58.6854 41.7924 58.8768 42.4061 59.6231 43.0857C61.43 44.7293 63.3256 48.0929 63.3256 49.6549V50.6031L62.4862 49.8164C62.0244 49.3836 61.2553 48.733 60.7768 48.3712C60.2983 48.0095 59.7126 47.5573 59.4756 47.3659C59.2385 47.1754 58.9497 46.5705 58.8346 46.0226C58.7188 45.4747 58.177 43.616 57.6292 41.8916C56.0321 36.8642 55.8697 35.5112 56.8627 35.5112C56.9724 35.5112 57.5115 35.2996 58.0611 35.0415ZM48.995 40.1954C48.8704 40.6361 48.5648 42.0541 48.3146 43.3474C48.0652 44.6407 47.8133 45.9199 47.7562 46.1912C47.6684 46.6012 47.8282 46.7628 48.7158 47.157L49.7808 47.6311L50.7317 47.171C51.8933 46.61 51.9793 45.7303 51.2234 42.1103C51.1994 41.9954 51.1766 41.8858 51.1548 41.7812C50.8366 40.2521 50.7422 39.7984 50.4707 39.6298C50.3562 39.5586 50.2101 39.5382 50.0025 39.5091C49.9683 39.5044 49.9326 39.4994 49.895 39.4939C49.2821 39.4043 49.1996 39.4684 48.995 40.1954ZM67.1071 46.5379C67.8982 46.7592 68.7736 44.4264 68.7534 42.1523L68.7393 40.622L69.3346 40.7677C71.4427 41.284 71.0564 45.6266 68.3987 51.2949L66.8244 54.6532L66.698 59.4673C66.6143 62.6656 66.6288 63.9582 66.0797 64.9335C65.6433 65.7087 64.851 66.2834 63.3704 67.4553C62.8743 67.8478 62.5135 68.9338 62.3036 70.6617C62.1114 72.2492 61.711 73.5451 61.2983 73.9191C61.0648 74.1307 60.9357 74.4038 61.0112 74.5267C61.0867 74.6496 61.0095 74.7023 60.8383 74.6443C60.667 74.5864 59.8215 75.0368 58.9602 75.6452C58.098 76.2537 56.2341 77.5198 54.8178 78.4575C53.4016 79.3952 51.636 80.6296 50.8941 81.1994L49.5446 82.2364L48.2074 81.0388C47.4717 80.3803 46.7833 79.8421 46.678 79.8412C46.5726 79.8412 46.1195 79.555 45.6709 79.2055C45.2222 78.8561 43.9983 78.0035 42.9517 77.3108C41.9052 76.6189 40.5794 75.6953 40.0061 75.2598C39.4327 74.8243 38.8471 74.4678 38.7058 74.4678C38.2518 74.4678 37.6381 72.6249 37.3712 70.4589C37.1227 68.4474 36.567 67.0795 35.9989 67.0795C35.7425 67.0795 35.0524 66.5413 33.9479 65.4824L33.1006 64.6694L33.0585 61.7887C33.0357 60.2039 33.0401 58.0809 33.0681 57.0704C33.1182 55.2889 33.091 55.1827 32.1981 53.6076C31.6915 52.7129 31.2595 51.8884 31.2375 51.7734C31.2156 51.6593 30.802 50.8498 30.3191 49.9753C29.1145 47.7952 28.7941 42.1058 29.8521 41.7002C30.5738 41.4227 30.8617 41.7906 30.8617 42.9882C30.8617 44.4597 31.5957 45.9628 32.6529 46.6556C33.084 46.9374 33.6143 47.3158 33.8311 47.4967C34.048 47.6776 34.3755 47.8251 34.5581 47.8251C34.9207 47.8251 34.9418 48.4915 34.8926 58.1687C34.8654 63.5236 34.9023 63.6615 36.7417 65.0338C37.8626 65.8696 38.5058 66.368 39.2118 66.4837C40.2447 66.6531 41.4121 66.0031 44.4075 64.392C45.3926 63.8617 46.6832 63.1742 47.2767 62.8634C48.8369 62.046 49.2206 61.4612 49.2206 59.8958C49.2206 57.9229 48.9669 57.577 46.433 56.1019C42.6392 53.8929 41.7893 53.3468 41.6725 53.043C41.611 52.8823 41.4354 52.7506 41.2835 52.7506C41.1308 52.7506 40.8349 52.5619 40.6259 52.3309C40.1659 51.8226 40.733 50.2879 41.381 50.2879C41.5803 50.2879 41.8384 50.2009 41.9552 50.0938C42.3371 49.7461 46.0511 50.2756 48.0204 50.9578C49.3365 51.4134 50.038 51.5539 50.2988 51.4126C51.8801 50.5565 57.602 49.7514 58.3966 50.2729C58.8812 50.5908 58.7899 52.2432 58.2605 52.7419C57.8724 53.1071 54.8143 55.0299 52.6852 56.2468C48.923 58.3988 49.4357 61.2558 54.0347 63.7563C60.0437 67.0242 60.3123 67.0646 62.6487 65.054C63.3638 64.4384 63.8355 64.0828 64.1427 63.6184C64.7897 62.6403 64.7068 61.1794 64.6312 55.7885C64.5267 48.3949 64.5425 48.049 64.9868 48.049C65.1431 48.049 65.4486 47.8532 65.6655 47.6135C65.8815 47.3747 66.2748 47.1455 66.5391 47.1042C66.8034 47.0639 66.9948 46.9076 66.964 46.7566C66.9333 46.6055 66.9974 46.5072 67.1071 46.5379ZM55.7073 66.8521C55.5194 66.752 54.5799 66.5606 53.6203 66.4263C51.5359 66.1365 46.1152 66.1436 44.8552 66.4377C42.6067 66.9627 40.9991 67.5624 40.438 68.0866L39.827 68.6564L40.3072 69.1367C41.5961 70.4256 48.8694 74.0973 49.8598 73.9595C51.5324 73.7268 59.7452 69.3368 59.7434 68.6757C59.7425 68.3658 57.7565 67.3052 56.9294 67.1743C56.4456 67.0971 55.8951 66.9522 55.7073 66.8521Z" fill="#7E839D"/>
</svg>
