<svg width="100" height="100" viewBox="0 0 100 100" fill="none" xmlns="http://www.w3.org/2000/svg">
<path d="M27.046 23.4852C21.2932 23.568 21.5585 23.4303 21.5585 26.3296C21.5585 28.8639 21.6034 28.9627 22.53 28.4799C23.5562 27.9444 69.7648 27.9553 71.3028 28.4909C73.6994 29.3257 76.6985 31.6156 77.5283 33.2433C78.2883 34.7324 78.6274 34.2666 78.4359 31.9966C78.1028 28.0631 75.9325 25.1677 72.5096 24.0916C70.7772 23.547 45.8322 23.2149 27.046 23.4852Z" fill="#7E839D"/>
<path d="M21.7391 29.2976C21.3003 29.7364 21.5376 75.8532 21.9805 76.2213C22.6776 76.7997 74.7856 76.705 75.8837 76.1235C77.0037 75.5301 78.2235 74.054 78.399 73.0786C78.6454 71.7092 78.3671 43.3783 78.0908 41.7266C77.1763 36.2671 73.9688 32.7594 69.0458 31.8358C68.5362 31.7401 58.6444 31.6513 47.064 31.6394C30.091 31.6224 25.936 31.5536 25.6268 31.2843C25.4164 31.1008 24.6723 30.9153 23.9752 30.8714C22.8222 30.7986 22.6696 30.7148 22.3126 29.9548C22.0962 29.494 21.8378 29.1988 21.7391 29.2976ZM40.7617 48.8548C43.3898 50.1054 44.6006 53.0826 42.8731 54.047C42.2059 54.42 42.161 54.4021 41.2205 53.3828C39.4053 51.417 36.3424 51.3352 34.2829 53.1963C32.8517 54.4888 31.7247 53.8535 32.1156 51.9745C32.8148 48.6164 37.0486 47.0884 40.7617 48.8548ZM64.1677 48.2354C66.1834 48.6084 67.444 49.2916 68.22 50.4336C69.6682 52.5659 68.3127 55.3326 66.695 53.5453C64.6534 51.2883 60.2481 51.2803 59.0842 53.5314C58.3352 54.9795 56.9997 54.1098 57.3039 52.3704C57.8415 49.2916 60.668 47.5891 64.1677 48.2354ZM40.8974 58.8992C41.2644 59.0956 41.3472 59.335 41.2375 59.8835C41.052 60.8111 41.7601 61.5052 43.5872 62.1894C49.35 64.3457 59.4542 62.9195 59.4542 59.9494C59.4542 58.2229 62.2209 58.3037 62.6567 60.0431C63.7967 64.5851 51.5741 68.5995 44.3742 66.0482C38.9405 64.1233 36.3145 60.3722 39.4462 59.0109C40.4366 58.58 40.3179 58.589 40.8974 58.8992Z" fill="#7E839D"/>
</svg>
