<svg width="100" height="100" viewBox="0 0 100 100" fill="none" xmlns="http://www.w3.org/2000/svg">
<path fill-rule="evenodd" clip-rule="evenodd" d="M47.8061 13.6129C47.8768 13.6524 48.1225 13.6055 48.3535 13.5086C49.2616 13.1256 56.5475 13.9285 59.1331 14.6962C59.7578 14.8819 60.4177 15.0701 60.5985 15.1153C71.2812 17.7502 82.1308 28.9417 85.3311 40.6246C87.5527 48.7357 86.3026 59.7528 82.4382 66.1322C82.1932 66.5358 81.8768 67.1012 81.7338 67.3897C78.2592 74.3888 69.7184 80.3648 63.4425 83.8638L60.7573 78.0229L60.5351 77.5843L59.6706 75.8772L58.7674 73.991C58.2702 72.9538 57.6702 71.7275 57.4327 71.2665C56.7078 69.8578 55.2983 67.019 53.7269 63.803C52.9034 62.119 51.9944 60.3939 51.7059 59.969C51.4182 59.5449 51.1815 59.1307 51.1815 59.0493C51.1807 58.968 50.5544 57.8642 49.7893 56.596C49.0241 55.3287 48.1332 53.7869 47.8086 53.1697C47.4839 52.5532 46.9924 51.7519 46.7171 51.3887C46.4418 51.0254 45.8089 49.9734 45.3109 49.0512C44.8128 48.1291 43.4896 45.8657 42.3694 44.0214C41.25 42.1771 39.9917 40.0279 39.5734 39.2447C39.1551 38.4614 38.2822 36.9525 37.6338 35.8914C36.9845 34.8304 36.1224 33.3494 35.718 32.5998C35.3136 31.8503 34.7605 30.9092 34.4901 30.5082C34.2189 30.1063 33.997 29.697 33.997 29.5967C33.997 29.4973 33.4168 28.5529 32.7083 27.4976C30.4695 24.1641 30.1663 23.5732 30.1424 22.4892C30.1161 21.3155 30.1169 21.3163 29.706 22.1103C29.1397 23.2058 29.8556 26.0018 31.1525 27.759C32.9927 30.2534 33.0149 30.8164 31.3489 32.8398C23.196 42.7434 23.9184 57.7812 32.9771 66.7034C38.4098 72.0542 46.1427 74.8294 52.9364 74.1159L57.6061 85.9033C54.6676 86.8235 48.0905 86.6757 45.3142 86.2796C43.6466 86.0413 43.0121 85.8941 40.0747 85.0641C38.3439 84.575 35.2725 83.3554 34.2066 82.7332C33.688 82.4308 32.7921 81.9385 32.216 81.6393C26.8105 78.8318 18.9954 70.5005 17.0426 65.4649C16.939 65.1978 16.5667 64.3611 16.2141 63.605C15.8624 62.8497 15.4835 61.8593 15.3725 61.4048C15.2616 60.9503 14.9287 59.6559 14.6337 58.5274C14.3386 57.3998 14.046 55.9854 13.9844 55.3838C13.9228 54.783 13.8258 53.9611 13.7691 53.5576C13.3499 50.5684 13.6335 44.4364 14.3058 41.9256C15.3224 38.1327 16.4648 34.9635 17.4708 33.1472C17.5916 32.9294 18.0264 32.1273 18.4365 31.3654C18.8474 30.6035 19.3874 29.7446 19.6381 29.4562C19.8879 29.1677 20.5273 28.3195 21.0583 27.57C22.739 25.198 28.2505 19.98 29.6657 19.4203C29.7783 19.3759 30.1835 19.1277 30.5665 18.8672C33.1373 17.1232 39.8298 14.5367 42.7993 14.1406C45.8418 13.7346 47.6795 13.5406 47.8061 13.6129ZM48.4677 23.0694C47.6869 22.6757 46.2881 22.1604 45.3602 21.9229C42.6488 21.2309 39.6161 21.6673 37.499 23.0546L36.9746 23.3981L37.5179 25.0542L38.0612 26.7103L38.7417 26.0454C40.4158 24.4082 43.3869 24.4025 47.511 26.029C50.3071 27.1311 50.3909 27.1936 51.5851 29.0321C53.6817 32.2579 55.5325 32.4815 59.2926 29.96C60.9224 28.8669 60.7407 28.9055 60.938 29.6131C61.6514 32.1675 58.6663 34.4482 54.8947 34.2296L53.1951 34.131L52.2968 33.1398C51.8029 32.5941 51.2785 31.8963 51.1314 31.5889C50.7632 30.8221 48.8992 30.0611 47.5669 30.135L46.5716 30.1893V29.4438C46.5716 28.3762 46.224 28.045 44.6961 27.6579C42.9077 27.2042 39.2315 27.8149 38.3307 28.7148C38.0784 28.9672 37.997 28.8891 37.7562 28.1601C37.6026 27.6933 37.2031 26.8804 36.8703 26.3544C36.5366 25.8292 36.0476 24.9096 35.7837 24.3129C35.266 23.1434 34.6068 22.5401 33.8458 22.5401C33.1579 22.5401 33.2507 23.0373 34.0981 23.8847C34.9364 24.723 34.6841 25.535 33.7414 25.0304C33.3296 24.8101 33.3346 24.8488 33.8302 25.7117C34.758 27.3283 35.8594 29.0822 36.1667 29.4315C36.3303 29.6181 36.7494 30.3364 37.0971 31.0276C37.6568 32.1404 38.542 33.6584 39.4427 35.049L39.7394 35.5068L40.5284 34.7942C43.0754 32.493 47.8628 32.2596 49.1112 34.3759C50.261 36.3246 54.8249 37.3535 57.0448 36.1659C57.6308 35.852 57.7976 36.8341 57.3209 37.7916C56.1004 40.2441 51.8242 39.9959 48.7726 37.2968C46.8914 35.6325 45.4547 35.5388 42.699 36.9007C40.8958 37.7916 40.9295 37.7184 41.716 39.0408C42.0431 39.5907 42.7187 40.7471 43.2176 41.6117C45.5649 45.6783 45.3881 45.532 46.3752 44.2104C48.1258 41.8673 51.8694 41.4703 55.2786 43.2669C58.1789 44.7948 61.1821 43.668 63.4948 40.1841C64.32 38.9406 64.426 38.9628 64.8657 40.4668C65.4648 42.5141 63.305 45.5673 60.5032 46.6333C58.9721 47.2168 56.813 47.29 56.2475 46.7779C54.3729 45.0816 49.2633 45.2698 47.7305 47.0919C47.0796 47.8653 47.0787 48.0009 47.714 49.0512C47.9935 49.5123 48.5713 50.5027 48.9986 51.2522C49.426 52.0018 50.0334 53.039 50.3481 53.5576C50.6629 54.0762 51.3451 55.3024 51.8629 56.2821C53.1647 58.7436 54.3967 60.7358 55.6854 62.4642C56.2862 63.2713 57.1508 64.5444 57.6061 65.2939C58.0614 66.0435 58.9482 67.3281 59.5761 68.1483C60.204 68.9693 60.8122 69.7945 60.9281 69.9819C61.2256 70.4651 64.9142 68.6685 66.4199 67.3067C69.0038 64.9693 72.865 59.1299 73.2915 56.9166C73.3425 56.6511 73.5208 55.9517 73.6869 55.3624C73.8529 54.7731 74.0559 53.8666 74.1372 53.348C74.2186 52.8294 74.3255 52.2163 74.3756 51.9853C75.7284 45.6824 71.1744 35.0087 64.8912 29.7603C64.3463 29.3049 63.5877 28.6655 63.2063 28.3401C61.3851 26.7851 57.27 25.0583 54.4312 24.6573C51.724 24.2759 49.8978 23.7894 48.4677 23.0694Z" fill="#7E839D"/>
</svg>
