<svg width="100" height="100" viewBox="0 0 100 100" fill="none" xmlns="http://www.w3.org/2000/svg">
<path d="M44.3288 10.2974C43.5367 10.6168 42.7608 11.1339 42.0874 11.7904C41.5213 12.3434 40.8603 12.8544 40.619 12.9271C40.367 13.0022 40.1793 13.2144 40.1793 13.4235C40.1793 13.7713 38.3669 15.7246 37.5427 16.2654C36.9513 16.6538 32.9205 16.9549 30.2479 16.8108C27.0076 16.637 27.0122 16.6347 22.8995 20.7826C17.532 26.1968 17.9112 25.3963 17.9112 31.3153C17.9112 36.0792 17.4999 37.3983 15.8116 38.0509C15.5695 38.1444 15.3719 38.3834 15.3719 38.5825C15.3719 38.7817 14.553 39.7729 13.5526 40.7848C10.7727 43.5969 10.9818 42.9634 10.9474 48.6717C10.9068 55.2985 10.7566 54.8941 14.8717 59.2627C17.7634 62.3329 17.902 62.7465 17.9066 68.3338C17.9104 72.5285 17.9441 72.9889 18.2743 73.4125C18.4742 73.6691 18.7753 74.1471 18.9438 74.4757C19.2954 75.1628 25.4335 81.4204 26.604 82.286L27.3853 82.8636L32.3521 82.8176L37.319 82.7709L38.5048 84.0333C43.7941 89.6628 43.2426 89.2062 45.6486 89.95C46.5839 90.2396 54.0028 90.32 54.634 90.0481C54.9029 89.9324 55.4904 89.7394 55.9401 89.6183C56.8792 89.3671 59.9195 86.2678 61.2777 84.1773L62.0337 83.0137L66.1962 82.8751C68.8344 82.7878 70.6782 82.81 71.2313 82.9356C71.7108 83.0451 72.1941 83.0635 72.3052 82.977C72.4163 82.8912 72.7633 82.7587 73.0766 82.6836C73.8349 82.502 74.4424 82.0156 76.4448 79.9872C77.3709 79.0496 78.2916 78.2307 78.4916 78.1672C78.6915 78.1036 78.8554 77.9619 78.8554 77.8516C78.8554 77.6103 79.4529 76.8037 80.5429 75.5727C82.0313 73.8936 82.0696 73.712 82.0888 68.3116C82.098 65.6796 82.1209 63.3317 82.1409 63.0943C82.1746 62.6776 83.3718 61.2382 86.4911 57.8616C87.3069 56.9792 88.2192 55.9351 88.5187 55.5421L89.0641 54.8274L89.0465 49.4607C89.0281 43.9715 88.9913 43.6781 88.2215 42.9082C88.017 42.7037 87.7251 42.2487 87.5719 41.8971C87.4195 41.5455 86.1862 40.1215 84.8326 38.7319C81.8704 35.6939 81.9831 36.0057 81.9815 30.8504C81.98 25.3489 82.435 26.1386 74.8108 18.3888C73.8702 17.4321 72.1673 16.4332 71.8326 16.64C71.7529 16.689 69.6502 16.7641 67.1591 16.807L62.6304 16.8844L60.6342 14.6185C57.0355 10.5326 56.6011 10.1649 55.1786 9.9979C51.8618 9.60953 45.6088 9.78188 44.3288 10.2974ZM34.4173 33.1507C34.9543 33.4709 36.1845 34.2997 37.152 34.993C38.1187 35.6862 39.3489 36.561 39.8867 36.9371C43.3973 39.3976 46.4981 41.7676 48.5786 43.5816C50.3037 45.0852 50.3811 45.0998 51.2942 44.1116C51.681 43.6934 52.447 43.0124 52.997 42.598C53.547 42.1828 54.3376 41.5539 54.755 41.2C56.235 39.9437 57.8666 38.6982 58.5667 38.2922C58.9566 38.0655 60.0551 37.2719 61.008 36.5288C61.9609 35.7858 63.1797 34.9256 63.7174 34.6169C64.2544 34.3082 65.0235 33.7643 65.4264 33.4081C66.2322 32.6965 67.3307 32.5019 67.3307 33.0711C67.3307 33.3905 66.6375 34.4537 65.2801 36.2171C64.8503 36.7747 64.1908 37.6518 63.8147 38.1658C63.4386 38.6798 62.9116 39.3493 62.6427 39.6527C62.3738 39.956 61.8031 40.6469 61.3734 41.1878C60.9437 41.7286 59.9218 42.8883 59.1029 43.7654C56.7635 46.2718 54.634 48.8288 54.634 49.1329C54.634 49.2853 55.3372 50.1088 56.1967 50.9621C57.0561 51.8162 57.7593 52.5891 57.7593 52.6811C57.7593 52.7722 58.4288 53.5758 59.2462 54.4666C60.0643 55.3575 60.874 56.3104 61.0448 56.5831C61.3665 57.0964 62.6075 58.6943 64.0093 60.4002C65.971 62.7886 67.526 65.1939 67.526 65.8397C67.526 66.4249 66.3341 66.071 65.6707 65.2897C65.5627 65.1633 65.0357 64.8078 64.4987 64.5007C63.961 64.1927 63.2333 63.6941 62.8802 63.3915C62.527 63.0897 62.154 62.8423 62.0506 62.8423C61.9471 62.8423 61.5327 62.5473 61.129 62.1873C60.7261 61.8265 60.075 61.3209 59.6828 61.0636C59.2906 60.8062 58.4557 60.198 57.8275 59.7108C57.1994 59.2236 56.3644 58.6292 55.9722 58.3886C55.58 58.1481 55.2108 57.8256 55.1518 57.6724C55.0928 57.5184 54.7543 57.2434 54.3996 57.0611C54.0449 56.8781 52.9986 56.0822 52.0747 55.2924C50.27 53.7512 50.0034 53.6447 49.458 54.2476C49.2635 54.462 48.99 54.6382 48.8513 54.6382C48.7119 54.6382 48.5235 54.7715 48.4323 54.9347C48.2217 55.3108 45.4617 57.5682 45.2128 57.5682C45.1101 57.5682 44.6176 57.9191 44.1166 58.348C41.9618 60.1949 40.6979 61.2022 40.1693 61.4964C39.8576 61.6695 39.2486 62.1314 38.8165 62.5221C38.3837 62.9127 37.9012 63.2329 37.7441 63.2329C37.5871 63.2329 37.1581 63.4964 36.7904 63.8189C36.4235 64.1414 36.0673 64.4049 35.9999 64.4049C35.9317 64.4049 35.3319 64.8002 34.6678 65.2835C33.5333 66.1093 32.5613 66.4203 32.5613 65.9576C32.5613 65.6482 33.1465 64.5535 33.5479 64.1115C33.8857 63.7408 34.2802 63.2145 35.381 61.6702C36.2259 60.4845 36.9084 59.5974 38.6166 57.4602C39.5297 56.3181 40.6151 54.9446 41.0288 54.4084C41.4417 53.8714 42.3249 52.8473 42.9906 52.1311C44.3112 50.7109 45.4533 49.2914 45.4533 49.0701C45.4533 48.9927 44.3656 47.7747 43.0365 46.3637C41.7075 44.952 40.3861 43.4521 40.1012 43.0293C39.8162 42.6072 39.2271 41.8603 38.7928 41.3693C38.0758 40.5596 36.7307 38.7748 34.8991 36.2048C34.5269 35.6816 34.0458 35.0129 33.8313 34.718C32.7106 33.1837 32.7007 33.1614 32.9527 32.8573C33.2714 32.4736 33.2828 32.4751 34.4173 33.1507Z" fill="#7E839D"/>
</svg>
