<svg width="100" height="100" viewBox="0 0 100 100" fill="none" xmlns="http://www.w3.org/2000/svg">
<path d="M35.4741 0.102037C34.9039 0.320539 32.6752 2.01861 30.4173 3.95287C29.8877 4.40652 29.1365 4.94445 28.7473 5.14735C28.3582 5.35024 27.5092 6.29188 26.8609 7.2408C24.9589 10.0241 24.3117 9.59541 23.5002 5.01312C23.1402 2.98002 22.057 0.607714 21.4879 0.607714C21.1508 0.607714 21.0904 0.773153 21.2184 1.35374C21.5409 2.82082 21.413 7.62578 21.0124 9.09806C20.7949 9.90027 20.053 12.2289 19.3653 14.2713C17.9544 18.4624 17.6641 20.6526 18.1562 23.4058C18.4663 25.1413 19.7378 27.6145 20.1228 27.2295C20.2767 27.0755 20.3194 27.217 20.2955 27.8091C20.2924 27.884 20.4099 28.0931 20.5566 28.2731C20.7033 28.4521 21.1185 28.9692 21.4795 29.4208C23.0736 31.4144 26.4853 32.1042 29.5204 31.045C30.1405 30.8286 30.6483 30.6891 30.6483 30.736C30.6483 31.4206 27.5664 36.4264 27.145 36.4264C26.6351 36.4264 23.4138 34.5858 21.67 33.2987C18.6255 31.0502 15.785 25.9352 15.7891 22.7118C15.7912 21.3591 15.3116 21.4372 15.1003 22.8231C14.1764 28.8797 20.3059 37.0392 27.4967 39.3241L28.457 39.629L28.0596 40.7475C27.8411 41.3624 27.6475 42.5787 27.6298 43.4517L27.5976 45.0374L29.0564 46.0238C30.5422 47.0279 31.206 47.3077 34.496 48.3191C38.1065 49.4293 39.6776 49.7154 41.7398 49.6374L43.7823 49.5594L43.8385 35.3089C43.8708 27.4709 43.801 20.9991 43.6845 20.9263C43.2173 20.6381 35.8049 28.5759 34.1651 31.1199C33.2724 32.5058 32.1945 34.1779 31.7699 34.8344C30.8866 36.2027 30.2092 36.4201 30.3268 35.2985C30.4412 34.2039 32.132 30.4061 33.3171 28.5811C34.4981 26.7624 34.701 25.879 33.8311 26.3451C33.1319 26.7187 31.4047 26.2723 29.9897 25.3515C29.4091 24.9727 28.7952 24.6637 28.6266 24.6637C28.457 24.6637 27.8598 23.8781 27.2979 22.9188C25.4667 19.788 25.8891 16.7654 28.5944 13.6533C29.2135 12.9406 29.8991 12.1321 30.1187 11.8553C31.3641 10.2884 34.0059 5.43972 34.1516 4.45438C34.2359 3.88836 34.2671 3.83529 35.2795 2.56798C36.6248 0.886562 36.7237 -0.376585 35.4741 0.102037Z" fill="#7E839D"/>
<path d="M78.4065 0.88913C78.4065 1.04416 78.2869 1.09618 78.1412 1.00566C77.9956 0.916179 77.8749 1.05769 77.8749 1.32197C77.8738 1.58625 77.3369 2.9368 76.6825 4.32272C76.027 5.70865 75.4901 6.97908 75.489 7.14556C75.489 7.31203 75.2747 7.92592 75.0135 8.50963L74.538 9.56988L73.7629 9.16409C73.3373 8.94039 72.148 8.11633 71.12 7.33284C65.4536 3.00859 62.5038 3.03668 66.7604 7.37342C67.7634 8.39518 68.8539 9.6063 69.1837 10.0652C69.5135 10.524 70.3334 11.5988 71.0066 12.4531C72.4987 14.3499 73.3165 15.9127 73.5131 17.2455C73.5953 17.7991 73.7223 18.4619 73.7972 18.7178C74.5734 21.3835 70.0015 26.6099 66.8946 26.6099C66.1278 26.6099 66.0883 26.6754 66.4535 27.3434C69.8028 33.4708 71.016 39.5993 67.7936 34.1139C65.7626 30.6553 56.8602 20.5085 55.8572 20.5074C55.5887 20.5074 55.877 49.2893 56.1475 49.5598C56.6105 50.0228 59.3303 49.7378 62.6203 48.8804C64.3715 48.4247 66.2599 47.9408 66.8166 47.8056C67.9237 47.5371 70.681 46.2147 71.8401 45.3958C72.7744 44.7361 72.8441 42.9985 72.0055 41.2661C71.3739 39.9624 71.4187 39.8792 73.1001 39.2289C77.8384 37.3976 82.2491 32.9693 83.9939 28.2913C85.0521 25.456 85.3632 21.1734 84.4715 21.7248C84.3269 21.8143 84.2707 22.0515 84.3467 22.2513C84.5444 22.7663 83.5549 26.3914 82.7755 28.0052C82.4155 28.7522 82.1211 29.4639 82.1211 29.5888C82.1211 30.3692 77.1257 34.4645 74.5651 35.7828L73.0574 36.559L72.1262 35.4977C71.6132 34.914 70.9504 33.9588 70.6529 33.3751C70.3553 32.7914 69.8808 31.9861 69.5978 31.5844C68.9943 30.7271 69.0224 30.7146 70.2075 31.3066C72.9596 32.6821 76.2902 31.7124 78.957 28.7574C79.8216 27.7992 80.5291 26.8794 80.5291 26.7129C80.5291 26.5454 80.6977 26.2696 80.9037 26.099C82.5092 24.7661 82.324 18.2662 80.5531 13.8431C78.9642 9.87682 78.3254 6.66069 78.4887 3.46016C78.5689 1.89215 78.5834 0.608196 78.521 0.608196C78.4575 0.608196 78.4065 0.735138 78.4065 0.88913Z" fill="#7E839D"/>
<path d="M46.0371 35.0679V53.0777L46.7665 53.3701C48.167 53.9298 51.7847 53.8435 52.6057 53.2306L53.334 52.6875L53.4048 34.8723L53.4755 17.0582H49.7568H46.0371V35.0679Z" fill="#7E839D"/>
<path d="M71.4968 50.1724C70.9921 50.3899 69.7217 50.9674 68.6739 51.4554C67.6262 51.9434 66.1633 52.473 65.4235 52.6322C64.6837 52.7903 64.0781 52.9682 64.0781 53.0255C64.0781 53.3251 65.5431 56.0605 65.7034 56.0605C65.8064 56.0605 66.1008 55.4935 66.3568 54.8005C66.8833 53.373 67.443 52.6113 67.9664 52.6113C68.5199 52.6113 68.4065 54.4925 67.7458 56.2499C66.9686 58.3174 66.978 58.8449 67.8197 60.7032C68.6656 62.5729 68.6979 62.5115 69.0485 58.3153L69.2701 55.662L69.6801 56.5912C70.1535 57.665 71.117 61.4513 71.3844 63.2909C71.5727 64.5883 71.2335 64.9671 70.5218 64.2554C69.8882 63.6217 69.6177 64.3324 69.6749 66.4862C69.7436 69.1197 69.3274 69.462 68.6958 67.2894C68.2723 65.8307 67.081 63.5822 66.8531 63.8101C66.7948 63.8683 66.6887 65.222 66.6169 66.8202C66.4827 69.8053 66.2538 71.7531 65.4973 76.3458C64.6129 81.7189 65.4568 88.6953 66.9915 88.6953C67.6387 88.6953 67.7458 87.8119 67.3962 85.3783C67.2495 84.3575 67.2152 82.7458 67.3213 81.7969C67.4264 80.848 67.5752 78.4081 67.6511 76.3729C67.7271 74.3387 67.904 72.5585 68.0444 72.418C68.5116 71.9508 69.1193 72.7811 69.1193 73.8872C69.1193 76.1408 69.7592 76.4249 71.2679 74.8392C72.5289 73.5136 73.0585 70.8593 72.2033 70.1497C71.4031 69.4859 71.9275 67.7348 72.9264 67.7348C74.303 67.7348 74.8835 69.5452 73.7463 70.2902C73.0689 70.7334 73.0669 70.747 73.2052 73.6791C73.4903 79.7617 73.6006 81.0779 73.8493 81.3266C74.1604 81.6377 75.0854 81.492 75.0979 81.13C75.1031 80.9864 75.4132 80.3902 75.7877 79.8065C76.9354 78.0179 77.2465 77.2281 77.5909 75.2304L77.9228 73.3076L76.5723 70.7803C75.8293 69.3902 75.2217 68.0219 75.2217 67.741C75.2217 66.9586 74.4611 64.2148 74.1615 63.9152C74.0147 63.7684 73.8951 63.3148 73.8951 62.9059C73.8951 61.9101 74.484 61.9476 75.3049 62.9964L75.9563 63.8288L76.4089 63.14C77.0041 62.2306 76.7928 61.341 75.4548 59.1216C74.87 58.153 74.4299 57.1156 74.4757 56.817L74.5589 56.2728L75.2602 56.8274C76.6576 57.9313 76.4047 55.7089 74.8992 53.6425C74.433 53.0026 73.6828 51.8705 73.2333 51.1287L72.4155 49.7781L71.4968 50.1724ZM73.7765 57.0469C74.5267 58.7419 74.561 58.9791 74.0584 58.9791C73.6142 58.9791 72.8546 57.4569 72.6413 56.1386C72.4197 54.7755 72.9649 55.2115 73.7765 57.0469Z" fill="#7E839D"/>
<path d="M27.5203 50.29C27.3694 50.4721 26.7514 51.576 26.1469 52.7434C25.5423 53.9109 24.8473 55.1917 24.6007 55.5892C23.8651 56.7753 24.7516 57.5057 25.6474 56.4517C27.7939 53.9254 28.7345 54.5393 27.2758 57.514C26.2374 59.6325 25.5018 59.5648 26.2582 57.4204C26.7389 56.0595 26.5547 55.9793 26.0001 57.307C25.7744 57.847 25.1813 58.6971 24.6819 59.1965C23.6476 60.2308 23.0639 62.3148 23.3438 63.9713C23.6476 65.7744 23.8765 65.6995 24.8109 63.4895C25.7244 61.3295 25.791 61.2504 26.4944 61.521C26.8492 61.6562 26.8513 61.8185 26.5121 62.9142C26.3019 63.5957 26.0158 64.6393 25.8774 65.2334C25.6204 66.3374 24.0388 69.8365 22.8298 71.9757C21.4407 74.4334 23.8141 81.5315 26.0241 81.5315C26.6119 81.5315 27.2165 75.9577 26.6973 75.3323C26.46 75.0452 26.4725 74.9286 26.7535 74.8204C27.3174 74.604 27.5453 70.7584 27.0396 69.9863C26.1833 68.6805 27.8043 67.3175 28.9041 68.4173C29.4639 68.9771 29.4317 69.2632 28.7002 70.2298C27.3497 72.0153 27.4953 74.2149 29.0352 75.2824C30.5054 76.301 30.7416 76.1907 31.3035 74.2284C32.2857 70.7948 32.4543 71.7926 32.6051 81.929C32.6967 88.0616 32.7706 89.1052 33.115 89.1739C33.5405 89.2602 33.7871 88.9928 33.9807 88.2322C34.0452 87.9763 34.3448 86.8713 34.6455 85.7767C35.2053 83.7415 35.2282 81.0706 34.735 75.5612L34.5685 73.704L35.4602 73.3242C35.9513 73.114 37.0095 72.7894 37.8117 72.6011C39.2268 72.2702 39.1841 72.2629 36.4133 72.394C33.9765 72.5085 33.5332 72.4668 33.3959 72.11C33.1753 71.5356 33.3491 71.4191 34.8141 71.16C35.5143 71.0362 37.6109 70.1559 39.4744 69.2028C42.8705 67.4642 44.1295 67.1406 45.22 67.7233C45.4801 67.8627 46.327 68.2269 47.1022 68.5317L48.51 69.0873L47.4788 67.947C46.9128 67.3196 46.2365 66.5621 45.9785 66.2645C45.5779 65.8046 45.144 65.7141 43.0838 65.659C41.752 65.6225 40.4483 65.48 40.1882 65.3406C39.8001 65.1325 39.5462 65.3135 38.7783 66.3446C35.2459 71.0903 35.0565 71.2796 34.7891 70.3328C33.3304 65.1689 32.9329 63.0151 32.6395 58.6659C32.5531 57.3986 32.37 55.6672 32.2306 54.8182C31.9059 52.8392 31.9038 52.8766 32.3762 52.8766C32.8288 52.8766 33.8298 54.3666 33.8308 55.0439C33.8319 55.3571 34.1731 55.1636 34.9993 54.3801C36.3873 53.066 36.3675 53.0004 34.4832 52.6092C33.6789 52.4417 31.9059 51.7768 30.5439 51.1317C27.7419 49.8041 27.8876 49.8446 27.5203 50.29ZM30.8925 56.2592C32.0662 60.2151 32.2639 61.5771 32.1889 65.2355C32.1494 67.1937 32.0381 68.796 31.9434 68.796C31.5563 68.796 30.9685 66.9356 30.6428 64.683L30.2973 62.2951L29.7989 63.423C29.3162 64.5175 28.9718 64.7933 28.6804 64.3219C28.6024 64.196 28.7897 63.2107 29.0956 62.1328C29.4015 61.0548 29.6751 59.3973 29.7032 58.4484C29.8073 54.9628 29.8572 54.4686 30.1059 54.4686C30.2464 54.4686 30.5991 55.2749 30.8925 56.2592Z" fill="#7E839D"/>
<path d="M37.9086 55.25C36.9534 55.4799 34.8527 57.1207 34.9973 57.5234C35.0993 57.8054 38.1542 62.4782 39.1957 63.9463C40.0364 65.1304 40.1124 65.0992 42.6678 62.5604C43.9174 61.3201 45.1108 60.3057 45.321 60.3057C45.5926 60.3057 45.757 59.8395 45.885 58.7106C46.092 56.8804 45.9859 56.5911 45.1077 56.5911C44.7592 56.5911 43.5418 56.3029 42.4035 55.9502C39.7492 55.1293 38.9324 55.0023 37.9086 55.25Z" fill="#7E839D"/>
<path d="M58.7964 55.9614C57.7143 56.3162 56.1619 56.6325 55.3472 56.6648L53.8645 56.7231L53.7824 58.1683C53.6554 60.4012 53.8073 60.6686 56.0527 62.1669C57.9901 63.4592 59.5279 64.945 59.2334 65.2394C59.1606 65.3123 58.271 65.461 57.2565 65.5693C55.7177 65.7336 55.1922 65.9282 54.0768 66.7471C52.155 68.158 51.8491 68.5763 52.977 68.2527C55.0871 67.6481 56.3326 67.8989 59.7443 69.6178C63.0916 71.3044 63.5546 71.372 63.539 70.1734C63.5265 69.2057 63.1311 68.5648 61.4923 66.849C59.6725 64.945 59.5102 65.4496 63.9271 59.3055C65.0341 57.7646 65.0497 57.8676 63.4443 56.1269C62.4662 55.0666 61.6162 55.0364 58.7964 55.9614Z" fill="#7E839D"/>
<path d="M49.8412 57.0541L47.4117 57.1415L47.2754 59.7188C47.2005 61.1359 47.06 62.6623 46.9622 63.1097C46.6521 64.5404 49.3397 66.9221 50.6798 66.4028C52.1594 65.8306 53.3726 63.6882 52.894 62.4948C52.7327 62.0932 52.6245 60.6604 52.6526 59.3109C52.6817 57.9604 52.6079 56.8814 52.4882 56.9116C52.3685 56.9417 51.1782 57.0062 49.8412 57.0541Z" fill="#7E839D"/>
<path d="M53.9092 71.0956C53.8124 71.1924 53.7323 71.9624 53.7323 72.8041C53.7323 73.6469 53.6053 74.4148 53.4493 74.5115C53.2589 74.6291 53.289 74.8289 53.5419 75.1244C55.7123 77.6632 56.9838 89.3353 55.7571 95.4534C55.1723 98.3636 55.4959 98.5915 57.7923 96.8903C61.3986 94.2183 63.2662 90.3758 62.3288 87.554C61.9188 86.321 61.9188 86.1962 62.3184 85.9038C62.7637 85.5781 62.6357 84.7374 61.9074 83.2214C61.6171 82.6169 61.8314 81.5317 62.2403 81.5317C62.3766 81.5317 62.488 81.1998 62.488 80.795C62.488 80.3892 62.6721 79.7951 62.8958 79.4747C63.3765 78.789 62.7533 76.9837 61.3403 74.9746C59.7941 72.775 54.8238 70.1811 53.9092 71.0956Z" fill="#7E839D"/>
<path d="M44.5777 71.3642C41.1733 72.1268 40.5084 72.8978 37.8364 79.1751C36.5265 82.2539 36.5036 82.7117 37.6086 83.852L38.468 84.7385L38.3869 87.4469C38.2911 90.6537 38.597 91.7181 40.2982 94.0998C41.6665 96.0153 44.0741 98.3439 44.4477 98.1119C44.7806 97.9069 44.4685 93.4068 44.1054 93.1696C43.6122 92.847 43.5487 87.1192 44.0086 84.4243C44.6901 80.4216 46.4652 76.0058 47.8022 74.9819C48.1487 74.7176 48.0634 74.6396 47.258 74.4887L46.3018 74.3087V72.747C46.3018 71.0707 46.2113 70.9989 44.5777 71.3642Z" fill="#7E839D"/>
<path d="M50.3056 75.7903C50.0008 76.2835 49.7521 76.7913 49.751 76.9203C49.751 77.0483 49.3401 77.8349 48.8375 78.6683C45.097 84.8727 45.0168 90.9366 48.5826 98.0286C50.0465 100.939 50.6854 100.717 52.2399 96.7602C53.2107 94.2901 53.4947 92.9677 53.9026 89.0273C54.0774 87.3366 54.4051 86.9797 55.0586 87.7663C55.5861 88.402 55.9284 88.2355 55.7422 87.4354C54.9118 83.8572 51.7196 75.4293 51.035 75.0047C50.9382 74.9444 50.6094 75.2982 50.3056 75.7903Z" fill="#7E839D"/>
<path d="M28.7636 77.485C28.5649 82.701 28.7688 84.0702 29.7905 84.3917C30.317 84.5572 30.9174 82.7655 31.0912 80.5139L31.2493 78.4641L30.2765 77.6099C29.0872 76.5652 28.8 76.5423 28.7636 77.485Z" fill="#7E839D"/>
<path d="M70.0973 77.6209C68.8748 78.6 68.8352 80.0671 69.9975 81.3989C71.1462 82.7162 71.3376 82.5393 71.5207 79.9849C71.7455 76.8593 71.5197 76.4837 70.0973 77.6209Z" fill="#7E839D"/>
</svg>
