<svg width="100" height="100" viewBox="0 0 100 100" fill="none" xmlns="http://www.w3.org/2000/svg">
<path d="M39.1705 2.05988C38.7391 2.24915 37.4031 2.89071 36.2024 3.48433C35.0004 4.07918 33.7308 4.59784 33.3817 4.63839C33.0315 4.67895 31.5468 5.21358 30.0818 5.82564C28.6168 6.43893 27.1714 7.02026 26.8691 7.11858C26.3762 7.27836 26.3209 7.82405 26.3209 12.5804C26.3209 17.8579 26.3197 17.8653 25.5577 18.2733C24.4983 18.8411 24.2746 19.6179 23.5249 25.3353C23.1635 28.0933 22.538 31.6796 22.1348 33.3044L21.4023 36.2577L22.0918 38.1615C23.4253 41.8437 23.5347 42.3783 23.3627 44.3657C23.268 45.4484 23.1697 47.4616 23.1439 48.8406C23.1168 50.2195 23.0173 51.4879 22.9202 51.6575C22.6904 52.0643 22.8661 54.0406 23.1869 54.6392C23.649 55.5032 26.3259 72.5474 26.8125 77.7253L27.0227 79.9695L30.3546 80.2055C32.1871 80.3345 34.2384 80.4525 34.9131 80.4673C36.3941 80.5005 36.5477 80.8323 36.0721 82.9659C35.6001 85.0786 34.2334 92.3791 34.011 93.9707C33.8045 95.4517 33.2465 96.9412 32.6812 97.5189C31.8565 98.362 32.3198 98.4886 33.92 97.8581C34.8246 97.5017 35.712 97.0887 35.8914 96.94C36.2982 96.6008 45.3783 92.561 45.7298 92.561C45.8724 92.561 46.1575 92.3582 46.3628 92.1099C46.5693 91.8616 46.9392 91.7351 47.185 91.8297C47.4308 91.9243 47.6324 91.8457 47.6324 91.6539C47.6324 91.4634 47.8192 91.3074 48.0466 91.3074C48.2752 91.3074 50.0032 90.5466 51.8861 89.6162C53.7702 88.6858 56.5797 87.3327 58.132 86.6088C59.683 85.8836 63.0973 84.2306 65.7188 82.9352L70.4862 80.5791L69.8742 79.3784L69.2609 78.1776L69.916 77.7179C70.6558 77.2005 70.4948 75.9506 69.6874 75.9506C69.1712 75.9506 69.1085 69.7661 69.5866 66.0335C69.7169 65.0245 69.9074 62.8577 70.0106 61.2206C70.2638 57.2336 70.3056 57.1292 72.1749 55.8854C75.1234 53.9226 76.3217 52.4109 76.9596 49.8472C77.1832 48.95 77.6048 47.4382 77.8949 46.4907C78.84 43.4058 78.8351 42.2419 77.8654 40.7769C76.946 39.3881 76.8293 33.576 77.6761 31.3895C77.9489 30.6853 77.799 30.0278 76.7531 27.3436C75.4638 24.0362 74.4622 20.4511 74.1266 17.9427C73.8993 16.238 73.4384 15.755 68.4743 12.0028C66.5779 10.5697 64.2501 8.74336 63.3025 7.94326C60.8764 5.89815 60.0481 5.44095 58.5253 5.30207C57.7916 5.2357 56.4863 5.10666 55.6248 5.01448C54.762 4.92353 53.0696 4.75638 51.8639 4.64577C50.657 4.53393 48.9745 4.24265 48.124 3.99807C45.1989 3.15741 45.1718 3.38355 47.8806 5.98296C50.1273 8.13991 51.4829 9.38369 56.2503 13.662C57.8714 15.1171 57.8419 15.1343 52.7476 15.6432C50.3645 15.8816 47.6053 16.1692 46.6135 16.2835C45.3525 16.4297 44.8117 16.3843 44.8117 16.1348C44.8117 15.9381 44.9727 15.7771 45.1694 15.7771C45.6217 15.7771 49.8262 12.3961 49.8262 12.031C49.8262 11.8823 48.0883 9.99329 45.9633 7.83511C43.8396 5.6757 41.7588 3.40813 41.3409 2.79362C40.5212 1.59162 40.3626 1.53754 39.1705 2.05988ZM43.9072 7.39389L47.3239 10.9188L46.4144 11.7029C43.6011 14.1265 40.4954 16.0905 39.4728 16.0905C39.2835 16.0905 39.6142 15.4908 40.2078 14.7583C40.8014 14.0257 41.3815 13.1224 41.4946 12.75C41.6089 12.3776 41.9075 11.902 42.1595 11.693C42.8293 11.1375 42.7285 10.8364 41.6961 10.3018L40.7744 9.82614L39.0181 12.4931C36.4998 16.3179 35.5301 17.3441 34.4375 17.3441C33.3166 17.3441 33.3092 17.467 34.5948 14.7435C36.973 9.70938 38.5437 6.31357 38.5437 6.20664C38.5437 5.64374 34.6882 8.48035 33.4592 9.94782C31.5578 12.2191 31.2997 12.8446 31.1215 15.6198C30.9532 18.2241 30.8327 18.395 29.5176 17.8984L28.5098 17.5187L28.5738 13.4801C28.6254 10.1531 28.7225 9.41073 29.1244 9.26325C29.3923 9.16492 29.6823 8.98671 29.7684 8.8675C29.9908 8.55901 33.1113 7.01043 34.4891 6.52496C35.1282 6.29882 36.1962 5.77279 36.8624 5.35369C37.9845 4.64946 39.5896 3.95136 40.2213 3.89237C40.3688 3.87885 42.0267 5.45447 43.9072 7.39389ZM60.4008 8.13745C61.3078 8.7618 62.0489 9.39598 62.0489 9.54715C62.0489 9.94782 61.9322 9.91463 59.7469 8.88225C57.6146 7.87444 56.6805 7.65444 57.4118 8.3341C58.6765 9.50537 65.5074 14.0233 66.75 14.5088C68.4682 15.1798 68.4829 15.3654 66.8581 15.8767C66.0236 16.1385 64.083 16.7886 62.5479 17.3196C61.0116 17.8505 59.4741 18.2844 59.1312 18.2844C58.4884 18.2844 58.7637 18.5363 62.2837 21.1701C63.5668 22.1288 63.6159 22.2308 63.6319 23.9072C63.6405 24.8658 63.7536 26.6012 63.8839 27.7651C64.0129 28.9278 64.0412 29.8803 63.9453 29.8803C63.6909 29.8791 61.9924 27.1248 61.2439 25.4988L60.595 24.0915L59.4495 25.811C58.8203 26.7561 57.7338 28.3366 57.0369 29.3223L55.7686 31.1142L56.9337 32.7697C57.5752 33.6805 58.5302 34.9464 59.055 35.583C62.7261 40.0309 64.0019 42.7298 62.4324 42.7298C61.0866 42.7298 55.2806 46.0187 53.5711 47.7492C50.9041 50.4494 46.7131 56.1115 46.9208 56.7347C47.0314 57.0665 47.8511 56.4975 53.3978 52.2425C54.1057 51.7005 55.3888 50.5932 56.2516 49.7832C57.402 48.7005 58.132 48.2715 59.0009 48.1683L60.1833 48.027L59.9866 57.2091L59.79 66.3912L58.9604 67.0979C58.5044 67.4862 57.4966 68.0467 56.7211 68.3441C55.9455 68.6415 54.5432 69.347 53.6055 69.9111C52.6677 70.4752 51.7435 70.9361 51.5518 70.9361C51.3613 70.9361 50.3362 71.5003 49.2756 72.1897C48.2137 72.8792 47.2219 73.4434 47.0707 73.4434C46.9195 73.4434 45.9904 74.0075 45.0059 74.697C44.0227 75.3865 43.1316 75.9506 43.0284 75.9506C42.9239 75.9506 42.2369 76.4447 41.5007 77.0481L40.1623 78.1444H34.6513H29.1416V76.7777C29.1416 76.0268 29.0518 74.7572 28.9425 73.9571L28.7434 72.5031H33.4481C38.4011 72.5031 40.005 72.0668 38.3716 71.1635C38.0361 70.9779 36.8746 69.9787 35.7931 68.9426L33.8254 67.0585L32.4145 67.7443C31.6402 68.1204 30.7958 68.4289 30.5402 68.4289C30.2846 68.4289 29.8347 68.7104 29.5385 69.0557C28.6549 70.0881 28.4828 69.7944 28.5799 67.41L28.6721 65.1376L34.7828 65.0454C42.4336 64.9298 42.935 64.7467 39.9521 63.1539C37.8075 62.0084 33.8426 59.1866 33.8426 58.8056C33.8426 58.3263 33.335 58.266 33.0597 58.7134C32.777 59.1706 31.0208 59.103 31.0257 58.6347C31.0269 58.4197 31.5554 57.9993 32.2006 57.7007C32.8446 57.402 33.9643 56.6757 34.687 56.087C35.4096 55.4982 36.1704 54.9599 36.3769 54.8911C37.1008 54.6502 36.4273 51.8185 35.6468 51.8185C33.2072 51.8185 29.4673 51.0848 29.8089 50.6731C30.008 50.4322 30.0978 50.163 30.008 50.0733C29.9195 49.9848 29.557 50.4002 29.2042 50.9988L28.5639 52.0852L29.7143 52.2499C30.3472 52.3396 31.8184 52.5031 32.9835 52.6112C35.4133 52.8386 35.4158 52.9775 33.0106 54.3528C32.0445 54.9071 31.0244 55.76 30.7455 56.2504C30.0904 57.4032 30.3042 57.4942 27.459 54.8481C25.2898 52.8312 25.0366 52.4822 25.35 51.9513C25.5454 51.6194 25.8822 50.855 26.0973 50.2515C26.5213 49.0618 29.3886 43.5189 30.437 41.8634C30.7934 41.3005 31.0122 40.6503 30.9237 40.418C30.6852 39.7986 27.1948 37.547 25.4668 36.8981C23.2004 36.0488 23.2103 36.141 24.7785 30.6632C25.2726 28.9401 25.7347 27.1776 25.8072 26.7462C25.9449 25.924 27.5991 20.4106 27.7724 20.198C27.8277 20.1304 28.7384 20.3909 29.7966 20.7768C30.99 21.2119 32.0949 21.4159 32.7033 21.3127C36.2528 20.7129 46.0752 18.6629 50.1396 17.6735C50.7431 17.526 52.0827 17.2421 53.1175 17.043C59.1386 15.8804 58.6666 16.0635 58.4601 14.9672C58.3336 14.29 58.4245 13.8611 58.7527 13.5882C59.3954 13.0548 59.3512 12.6689 58.6162 12.3961C57.8284 12.1048 54.907 9.66268 53.925 8.47421L53.1655 7.55489L54.4474 7.77243C55.3519 7.92483 55.9923 7.84617 56.6178 7.50819C57.9501 6.78551 58.5941 6.89244 60.4008 8.13745ZM71.4252 18.9296C71.9193 20.8543 71.9144 20.8592 70.0929 20.5187C68.3391 20.1918 68.3268 20.2447 69.5706 22.8773C71.4166 26.7843 70.0585 26.3407 66.4526 21.8572C64.5869 19.5392 64.3718 18.9124 65.4361 18.9099C65.7274 18.9087 67.0241 18.5695 68.317 18.1565C69.6099 17.7436 70.7468 17.3921 70.8439 17.3749C70.9398 17.3577 71.2015 18.0582 71.4252 18.9296ZM74.8112 26.7475C77.0173 30.9999 76.8305 31.6956 74.3343 28.5197C72.0963 25.6721 71.6772 24.7724 72.1282 23.7843C72.6592 22.6192 72.685 22.6474 74.8112 26.7475ZM75.6666 40.2066C77.5532 42.1215 77.5753 42.661 75.9665 47.3731C74.2594 52.3777 74.1242 52.5977 71.9193 53.9902C70.1888 55.0828 69.9184 55.3864 69.7414 56.4335C69.4047 58.4283 69.2634 58.5192 67.3645 57.9551C66.4464 57.6822 65.0846 57.4598 64.3386 57.4598H62.9805L63.9343 55.5683C64.9273 53.6031 66.2891 52.449 67.6214 52.4466C69.0384 52.4441 71.8898 50.7124 72.3396 49.5805C75.2156 42.3365 74.7338 40.4082 70.6263 42.7261C68.537 43.9048 68.5751 43.9257 69.1023 41.8916C69.7918 39.2345 69.9909 39.0169 71.8455 38.8866C72.7489 38.8227 73.635 38.7453 73.8132 38.7133C73.9927 38.6814 74.826 39.3537 75.6666 40.2066ZM66.7684 41.3189C67.9495 43.1514 67.2981 45.253 65.4177 45.6795L64.5562 45.8761L64.5598 43.128C64.5623 41.6163 64.6545 40.0444 64.7639 39.6339L64.963 38.8891L65.5627 39.6339C65.8921 40.0444 66.4353 40.8027 66.7684 41.3189ZM26.0481 40.0272C26.6294 40.2644 27.8044 40.5593 28.6586 40.6835C29.8728 40.858 30.0965 40.9735 29.6799 41.2058C29.1059 41.5266 26.2288 42.4373 26.139 42.3267C25.9104 42.0453 24.7687 39.5958 24.8658 39.5958C24.9346 39.5958 25.4668 39.79 26.0481 40.0272ZM70.8242 46.1625C70.8242 47.4001 70.0524 48.4338 68.5677 49.1859C66.8077 50.0782 66.6136 49.7464 67.748 47.775C68.784 45.9745 70.8242 44.9052 70.8242 46.1625ZM32.4612 60.1956C34.1191 60.321 34.7828 60.4918 34.7828 60.7954C34.7828 61.0289 34.9487 61.2206 35.1503 61.2206C35.3531 61.2206 35.1872 61.5734 34.7828 62.0035C34.1155 62.7151 33.8107 62.7876 31.5136 62.7876C30.1211 62.7876 28.4976 62.9265 27.9064 63.0961C26.4942 63.5005 26.4512 63.3972 27.4332 61.963C27.8904 61.2956 28.3894 60.4279 28.543 60.0322C28.7827 59.4176 28.9167 59.366 29.4808 59.6671C29.8421 59.8613 31.1842 60.0985 32.4612 60.1956ZM66.3284 60.6725C66.8508 61.5156 66.3002 71.5285 65.4607 76.4557L65.1338 78.3706L59.7064 81.0781C56.7211 82.5677 54.1585 83.7857 54.0111 83.7869C53.8648 83.7881 52.6862 84.3203 51.3932 84.9692C50.1003 85.6182 48.3403 86.4293 47.48 86.7698C46.6209 87.1114 44.5954 88.0627 42.9792 88.8862L40.0394 90.3831L40.2496 89.513C40.3663 89.0349 41.1382 87.4445 41.9653 85.9795C42.7924 84.5145 43.5729 82.9856 43.7007 82.5812C43.8273 82.1781 44.341 81.0228 44.8425 80.0138C45.3427 79.0047 45.7519 78.0363 45.7519 77.8605C45.7519 77.3787 46.9515 76.3599 48.2235 75.7625C48.8467 75.4688 50.1593 74.6871 51.1413 74.0235C52.1233 73.3598 53.0303 72.8166 53.1581 72.8166C53.2859 72.8166 53.7235 72.5031 54.1315 72.1197C54.7239 71.5629 54.9267 71.5089 55.1368 71.8481C55.3421 72.1811 55.4392 72.1455 55.5867 71.6797C55.6899 71.354 56.039 70.9472 56.3622 70.7764C61.5069 68.054 61.3373 68.2101 61.7269 65.8209C61.9641 64.3608 62.366 62.9019 63.1465 60.6725C63.2276 60.4377 63.8458 60.2804 64.684 60.2804C65.4681 60.2804 66.1932 60.4537 66.3284 60.6725Z" fill="#7E839D"/>
<path d="M40.5815 34.2725C36.1336 35.4069 33.4334 36.0006 33.1372 35.9084C32.7759 35.7953 32.825 35.944 33.9963 38.5152L35.0914 40.9167L34.4498 41.8163C34.0971 42.3116 33.5698 42.8512 33.2773 43.0159C32.7783 43.2961 32.7796 43.3268 33.2835 43.521C33.5993 43.6427 34.1794 43.4768 34.6932 43.1154C35.1737 42.7787 36.0857 42.335 36.7211 42.1285C37.3565 41.922 37.9366 41.5853 38.0091 41.38C38.1013 41.1207 38.5695 41.2338 39.5405 41.7524C41.5512 42.8254 45.1731 42.6189 46.8569 41.3346C48.1388 40.3563 48.0822 40.2358 45.9867 39.4652C43.804 38.6614 44.1555 38.3431 47.2404 38.3308C48.8885 38.3247 50.2773 38.1563 50.7198 37.9105L51.4572 37.5024L50.1102 36.5118C49.369 35.9674 48.607 35.5212 48.4153 35.5212C48.2248 35.5212 47.5906 35.0272 47.0056 34.4237C45.709 33.0865 45.2714 33.0767 40.5815 34.2725ZM46.1748 35.4684C46.9122 36.2832 46.5558 36.4615 44.185 36.4615C41.5549 36.4615 41.2673 36.1886 43.1649 35.4942C45.1104 34.7826 45.5492 34.7789 46.1748 35.4684Z" fill="#7E839D"/>
</svg>
