<svg width="100" height="100" viewBox="0 0 100 100" fill="none" xmlns="http://www.w3.org/2000/svg">
<path d="M32.6123 13.6402C32.3143 13.8386 31.8128 14.2396 31.4968 14.5299C31.1816 14.8193 30.6182 15.2238 30.2455 15.4265C29.4279 15.873 25.334 18.7397 23.7753 19.9566C23.1587 20.4384 22.2604 21.1014 21.7786 21.4286C21.2968 21.7567 20.2379 22.545 19.4272 23.1806C18.6156 23.8169 17.482 24.6774 16.9084 25.0948C12.1747 28.5326 11.2978 29.4893 11.4576 31.048C11.7307 33.724 16.0925 42.5696 20.1881 48.7547C21.9083 51.3526 21.4926 51.2942 28.5124 49.9184C28.8431 49.8531 29.1145 49.8514 29.1145 49.9149C29.1145 50.182 27.5042 53.7744 26.9116 54.8281C26.5578 55.4594 26.2675 56.1739 26.2675 56.4161C26.2675 57.1417 23.9471 56.5921 21.6146 55.3125C20.8983 54.9192 16.3055 53.1749 15.6116 53.0315C14.8412 52.8735 14.4573 53.3098 12.9201 56.0906C12.5208 56.8137 11.8749 57.8975 11.4842 58.4995L10.774 59.5945L10.6159 63.5364C10.2492 72.6817 10.2647 77.8886 10.658 78.0389C10.8573 78.1162 11.0539 78.0818 11.0934 77.9624C11.2746 77.4197 15.3651 70.7408 16.1689 69.6759C16.6645 69.0198 17.0698 68.2666 17.0698 68.003C17.0698 67.23 16.4077 64.0568 16.0332 63.034C15.487 61.5422 15.779 61.5104 18.8458 62.7256C20.3384 63.3174 22.0277 63.9718 22.5996 64.1796C23.9265 64.6631 23.9436 64.5824 21.9426 67.1828C19.2409 70.6936 18.6028 71.6108 18.6028 71.9818C18.6028 72.7418 23.9651 86.1657 24.4761 86.6861C24.7071 86.9214 25.0721 86.608 25.468 85.835C25.6647 85.452 26.0142 85.0784 26.2452 85.0054C26.8824 84.8028 26.9065 84.5039 26.4676 82.2556C26.2444 81.1142 26.0537 79.6878 26.0434 79.0849C26.0159 77.4077 25.4989 74.8579 25.0953 74.413C24.4976 73.7526 24.677 73.2227 25.833 72.2265C27.4183 70.861 27.2766 70.7434 32.6493 77.8809C34.1238 79.8398 34.8392 80.5088 35.461 80.5088C35.7727 80.5088 37.4036 80.848 39.086 81.2619C43.9708 82.4643 46.6812 82.9581 46.9448 82.6944C47.1063 82.533 46.1049 81.4105 43.6118 78.9595C39.8254 75.2349 39.6356 74.93 41.3807 75.3826C41.9904 75.5406 43.1507 75.7725 43.9596 75.8962C44.7678 76.0207 45.873 76.2182 46.4149 76.335C48.5997 76.8065 52.7795 76.5377 58.5146 75.5552C59.5288 75.3818 59.6439 75.855 58.7559 76.5532C56.9533 77.971 52.3175 82.7082 52.6189 82.8241C52.8001 82.8937 53.9672 82.7915 55.2116 82.5965C57.5433 82.2315 58.153 82.101 60.2115 81.5273C60.8737 81.3435 62.0562 81.0773 62.8395 80.9373C63.6227 80.7965 64.4832 80.6419 64.752 80.5921C65.0268 80.5414 65.7001 79.9162 66.285 79.1682C66.8595 78.4348 67.6736 77.4137 68.0953 76.8993C68.517 76.3848 69.0778 75.6806 69.3414 75.3345C70.0697 74.3795 72.0097 71.9079 72.3704 71.4751C72.8299 70.9237 72.9518 70.9692 74.4272 72.242C75.7506 73.3833 75.9842 73.7741 75.5162 74.0635C75.0859 74.3297 74.4882 75.9812 74.3328 77.3329C74.1078 79.291 73.6071 82.4737 73.3726 83.4373C73.121 84.4704 73.2163 84.7573 73.9171 85.0759C74.2151 85.2116 74.6668 85.6753 74.9202 86.1056C75.1744 86.5358 75.4629 86.8063 75.5617 86.7076C75.7798 86.4895 78.2841 80.6685 79.5946 77.3329C80.1159 76.0087 80.8407 74.2937 81.2066 73.5225C82.0053 71.8366 82.1624 72.2248 79.0098 68.0828C77.7044 66.3669 76.6361 64.8718 76.6361 64.7593C76.6361 64.2878 83.108 61.7088 83.4446 62.0455C83.5889 62.1898 83.5107 63.1207 83.2153 64.7988C82.597 68.3044 82.5411 68.0588 84.6358 71.0757C85.6629 72.5563 86.6496 74.0274 86.8274 74.346C87.5144 75.5758 89.1719 77.7709 89.4133 77.7709C89.6829 77.7709 89.7018 76.901 89.5713 70.5441C89.5318 68.617 89.3652 66.154 89.2003 65.0693C89.0362 63.9855 88.9014 62.3581 88.9005 61.452C88.8997 60.0934 88.8104 59.6726 88.3896 59.0431C88.1087 58.624 87.3556 57.2955 86.7149 56.0906C84.8256 52.5394 84.8659 52.5506 80.4757 54.4022C77.7319 55.5598 74.3602 56.8575 74.0974 56.8575C73.9463 56.8575 73.2103 55.6011 72.4623 54.0655C71.7151 52.53 70.9663 51.0091 70.8005 50.6861C70.3797 49.8703 70.6708 49.7775 72.3919 50.176C73.5719 50.45 77.8229 51.1636 78.2738 51.1636C78.3322 51.1636 78.6396 50.6466 78.9574 50.0137C79.2743 49.3816 80.0051 48.0754 80.5814 47.1118C82.2165 44.3809 82.925 43.1073 83.9917 40.98C84.5353 39.8962 85.0737 38.9155 85.188 38.8012C85.3022 38.687 85.3958 38.4594 85.3958 38.2963C85.3958 38.1331 85.7024 37.3894 86.076 36.6431C87.9816 32.8446 88.393 30.0175 87.2027 28.8941C86.3757 28.1152 82.6811 25.1025 81.8241 24.51C81.4402 24.2446 80.4474 23.5052 79.6187 22.868C78.7899 22.2307 77.7903 21.5119 77.3978 21.2706C76.7632 20.8824 74.4375 19.2189 72.3455 17.6576C71.9427 17.3562 70.9937 16.6786 70.2371 16.1513C69.4805 15.6249 68.6647 15.022 68.4242 14.8124C67.5053 14.0146 65.8813 13.2142 65.6503 13.4452C65.4382 13.6573 68.5445 23.342 69.6557 25.9339C70.1504 27.0889 70.171 27.6978 69.7425 28.524C69.265 29.4446 69.3809 29.5065 75.3341 31.5264C82.1813 33.8503 81.9967 33.0877 77.074 38.7274C74.6024 41.5597 72.172 44.8927 70.6021 47.6048C69.4814 49.5405 69.3947 49.5036 65.3119 45.3934L63.3874 43.4551L61.9085 43.5993C59.734 43.8123 59.8508 43.553 63.8494 39.3079C66.4249 36.5735 66.3588 36.7951 65.2501 34.6077C64.1972 32.532 64.1869 33.0842 65.3489 29.3287C66.2326 26.4741 66.1149 26.304 64.32 27.8438C53.4889 37.1403 53.1282 37.3026 54.9454 32.0811C55.422 30.7122 55.939 29.266 56.0936 28.8675C56.5668 27.6506 55.2408 26.8648 54.1553 27.7193C53.2063 28.4656 53.1359 28.3703 51.1169 23.6117C50.2959 21.6777 49.6363 21.8863 48.5963 24.4069C48.2141 25.3318 47.7272 26.286 47.5142 26.5264C47.3012 26.7678 47.0127 27.1869 46.8727 27.4574C46.5584 28.0671 45.9898 28.086 45.2599 27.5123C44.5385 26.9447 44.1898 26.9601 43.6015 27.5871L43.1197 28.0989L43.7965 29.722C46.5343 36.2935 46.5695 36.8191 44.1417 34.9032C41.3498 32.6995 40.57 32.0794 39.8743 31.51C39.1083 30.8831 36.9647 29.0427 35.2248 27.5183C33.4892 25.9991 33.2805 26.5866 34.3703 29.9213C35.2042 32.4736 35.1947 32.9039 34.2612 34.7992C33.2169 36.9188 33.2032 36.8767 35.7418 39.4015C37.8888 41.5382 39.378 43.3821 39.1444 43.6157C39.0842 43.6758 38.5243 43.6071 37.9 43.4637L36.7646 43.2017L34.9654 44.9708C33.3234 46.5854 30.7221 48.8595 30.0445 49.2709C29.8668 49.3791 29.7002 49.252 29.5696 48.9084C29.4588 48.6173 29.0166 47.8478 28.5863 47.1986C28.1569 46.5485 27.086 44.9262 26.2066 43.5916C25.3272 42.2579 24.3009 40.8778 23.9247 40.5257C23.3193 39.958 21.5442 37.9278 18.9575 34.8456C17.8754 33.5557 17.6796 33.7034 23.0101 31.7934C29.3936 29.5065 29.616 29.3897 29.4958 28.4098C29.4004 27.6386 29.719 26.3804 31.4135 20.8326C33.9375 12.5735 33.904 12.7762 32.6123 13.6402ZM54.5838 39.332C54.6809 39.4204 54.4344 39.9263 54.0368 40.4553C53.6392 40.9852 53.0406 41.8371 52.7082 42.3489L52.1028 43.2799H49.8175H47.5322L46.9981 42.5679C46.3127 41.6559 45.32 39.6746 45.32 39.2221C45.32 38.8511 54.1716 38.9567 54.5838 39.332Z" fill="#7E839D"/>
</svg>
