<svg width="100" height="100" viewBox="0 0 100 100" fill="none" xmlns="http://www.w3.org/2000/svg">
<path d="M59.2192 11.9534C57.7628 17.4166 56.5675 19.7091 53.6959 22.5511C51.3284 24.8939 46.105 27.9558 45.1206 27.5785C44.7515 27.4368 43.6469 25.2522 42.6089 22.6137C40.6418 17.6127 40.5232 17.4924 39.9325 19.8945C38.7266 24.8008 35.5971 28.7721 31.0187 31.2055C29.8234 31.8406 29.6949 31.9806 29.2912 33.082C28.3093 35.7617 25.773 38.7561 22.5743 41.0123L20.337 42.5906L19.0544 42.4539C16.3352 42.1631 15.3607 43.8955 14.8977 49.8438C14.728 52.0194 14.7346 52.0326 16.523 53.2064C17.35 53.7484 18.7018 54.8449 19.5272 55.6423C21.1682 57.2272 21.0561 57.2329 21.8486 55.5368C22.4746 54.1957 22.7844 54.1224 23.8305 55.0681C25.3479 56.4388 29.1611 57.8458 29.7723 57.2609C29.8885 57.1497 29.5581 56.5566 28.9518 55.7848C25.9262 51.9337 28.0062 48.3364 33.2519 48.3512C39.0725 48.3668 40.9812 53.5524 37.0115 58.5641C36.1498 59.6531 35.7709 59.5493 35.3557 58.1135C34.9472 56.7008 34.4249 56.4652 34.2124 57.5979C33.8499 59.532 30.1603 64.4153 29.0614 64.4153C28.2459 64.4153 27.161 62.2645 27.4765 61.2718C27.7261 60.486 27.1009 60.5634 26.3043 61.4176C25.4451 62.3394 24.9451 63.7365 25.1626 64.608C25.6016 66.3651 25.6025 66.3643 24.8273 66.2094C23.5076 65.9458 21.5314 64.8428 20.7555 63.9375C19.8213 62.846 19.687 63.0017 19.4869 65.4021C19.1154 69.8587 21.164 73.311 25.3957 75.3589C27.3694 76.3145 27.6775 76.2757 27.9081 75.0451C28.1026 74.0088 29.839 71.4469 31.2905 70.0547C37.299 64.2934 49.1545 64.5578 52.134 70.5202C55.317 76.8903 50.5458 83.636 36.8838 92.0812C34.0328 93.8432 33.1497 94.6373 34.4628 94.2576C35.2528 94.0286 39.0849 92.8506 41.1328 92.2072C49.0762 89.7088 55.8014 86.1748 63.2103 80.6038C68.8464 76.3655 76.5436 67.7877 80.5553 61.2743C81.8338 59.1984 82.0546 58.5773 81.4112 58.8607C78.8337 59.9958 72.7642 61.2438 69.5952 61.2899C68.498 61.3064 66.8908 61.3781 66.0242 61.4498L64.4492 61.5791L64.3199 62.6294C64.048 64.8453 62.6872 67.5826 60.7678 69.7714C59.0676 71.7105 58.8765 71.5935 60.0166 69.3109C60.8543 67.6321 61.1838 66.8569 62.141 64.3098C64.0859 59.1366 64.0629 59.1589 68.3349 58.3425C77.3937 56.6118 81.7358 54.2929 84.3883 49.7664C85.4707 47.9204 85.4303 47.3404 84.2631 47.9442C82.3956 48.9105 76.972 49.9485 72.1448 50.2648C69.9511 50.4089 69.2575 50.1783 70.4906 49.7145C75.4637 47.8429 78.7999 45.3568 83.0381 40.364C84.8026 38.2857 84.8207 38.1555 83.4063 37.6596C79.9457 36.4446 78.6277 32.7253 78.6277 24.178C78.6277 17.9743 77.9424 15.2715 75.7841 12.9642C74.6292 11.7294 74.4266 11.7632 74.4266 13.1858C74.4266 15.9866 73.1885 19.8994 71.5352 22.327C69.8992 24.7291 66.1849 27.5884 64.9361 27.408C64.3001 27.3157 63.31 24.2266 62.3264 19.2684C61.4236 14.7172 59.6162 10.4633 59.2192 11.9534ZM63.9237 31.1973C63.9237 31.4773 61.7596 32.3826 59.0923 33.2188C52.0006 35.4413 48.5976 36.8556 43.6419 39.6424C40.1014 41.6326 39.9457 41.6244 41.4021 39.5296C42.6781 37.6934 43.0233 36.5368 42.8495 34.676C42.7803 33.9338 42.8042 33.3267 42.903 33.3267C43.1172 33.3267 43.338 33.8481 43.338 34.3539C43.338 35.3482 43.7614 35.4726 45.3347 34.9404C48.2591 33.9502 52.7659 32.9609 61.1929 31.4592C63.9047 30.9757 63.9237 30.974 63.9237 31.1973ZM66.5416 36.8449C66.1618 37.7535 65.9468 38.1325 62.7572 43.5215C58.8279 50.1602 57.8732 50.9831 53.6184 51.3974C49.5713 51.7912 49.3489 52.0169 51.6332 53.4082C55.4085 55.7082 55.6622 58.8599 52.1513 59.8533C51.5212 60.0321 49.54 60.285 47.7492 60.4159C44.6856 60.64 43.9764 60.752 42.0191 61.3171C40.8313 61.6598 40.6731 61.3962 40.982 59.593C41.487 56.6497 43.3371 53.484 44.6065 53.3909C46.1321 53.2781 43.8693 50.4575 40.5306 48.3075C40.0841 48.02 39.8007 47.7144 39.9004 47.6279C40.6179 47.0093 44.5448 46.7885 47.2244 47.2177C52.5533 48.0703 55.3096 46.6559 56.0419 42.6928C56.294 41.3262 56.3673 41.2603 58.042 40.883C60.1797 40.4027 63.5933 38.5336 65.7689 36.6538C66.703 35.8465 66.9345 35.9042 66.5416 36.8449ZM37.8764 38.1662C37.8764 39.2594 35.7569 41.5659 34.0097 42.374C32.6077 43.0223 29.9132 43.3238 29.7476 42.851C29.6199 42.4869 32.0953 39.939 32.9957 39.5081C35.3541 38.3804 37.8764 37.6868 37.8764 38.1662ZM22.7119 48.824L22.777 49.7227L21.5669 50.2771C20.1451 50.9279 19.3477 50.9773 18.7636 50.4485C17.8558 49.6272 18.6862 48.5555 20.5479 48.1452C22.4763 47.7202 22.6361 47.7704 22.7119 48.824Z" fill="#7E839D"/>
</svg>
