<svg width="100" height="100" viewBox="0 0 100 100" fill="none" xmlns="http://www.w3.org/2000/svg">
<path d="M19.8696 12.4151C19.106 13.5689 19.0032 14.4177 19.5094 15.3967L19.8433 16.0408L17.2203 18.5786C12.1983 23.4362 12.3389 23.1576 14.135 24.691C15.6675 26.0003 15.6939 25.7789 13.6737 28.4845C11.3995 31.5302 9.47597 34.7877 9.64293 35.3123C9.77034 35.7139 12.7633 37.4863 13.7203 37.7262C14.4531 37.9098 15.2914 37.2297 16.3732 35.5724C17.9329 33.1831 19.1816 32.4573 22.2123 32.1761C26.2572 31.8018 27.8204 30.0496 27.7326 25.9898C27.6482 22.0777 30.0832 26.6629 31.1684 32.4582C31.6333 34.9415 31.5507 35.4063 30.6614 35.3035C30.1333 35.2429 30.0357 35.1199 29.9839 34.4485C29.889 33.2253 29.2528 30.4371 29.0375 30.3044C28.9312 30.2385 28.5594 30.7077 28.2115 31.3483C27.6816 32.3228 27.4338 32.5522 26.6851 32.7587C25.6087 33.0557 25.4927 33.4371 26.1095 34.6471C26.628 35.6629 26.8125 41.2192 26.338 41.5127C25.0454 42.3114 24.0322 45.5979 23.9909 49.1251C23.9725 50.7279 23.9399 52.1629 23.9197 52.3141C23.8327 52.9485 22.1851 53.4503 19.2378 53.7385C17.2132 53.9362 16.2431 54.1216 16.1649 54.3237C16.0542 54.6146 16.4751 56.0285 18.7132 62.8782C19.3319 64.7728 19.9022 66.6594 19.9795 67.0715C20.1983 68.2411 21.6491 68.8492 26.5709 69.836C27.8652 70.0953 29.4101 70.4063 30.005 70.5285C31.9153 70.9186 31.9224 70.8659 30.2809 68.4213C28.28 65.4406 28.3899 65.5329 26.7668 65.4538C24.2589 65.3299 24.0937 65.1779 22.635 61.6541C21.6016 59.1576 21.592 59.1735 24.2589 58.9898C29.8213 58.6084 31.2203 57.9344 30.171 56.1409C28.8081 53.8105 28.1842 50.4309 28.7 48.1656C29.6341 44.0601 30.0498 44.4406 30.606 49.9098C31.1087 54.8562 31.9558 56.7192 34.4382 58.3369C35.3442 58.9274 36.0164 59.546 36.1684 59.9283C36.6025 61.0241 37.3266 65.148 37.3266 66.525C37.3266 67.3931 37.476 68.1462 37.7563 68.6963C38.3784 69.916 40.6614 76.003 41.0366 77.4432C41.4206 78.9177 41.2255 79.8606 40.1649 81.662C35.8231 89.039 35.831 88.8044 39.9382 88.5311L42.8169 88.3387L42.9294 85.9863C43.0401 83.6524 43.1825 83.0733 43.642 83.0733C43.9136 83.0733 45.3266 81.5188 46.5788 79.8413C47.0463 79.2156 47.9057 78.1998 48.4892 77.5829C49.0726 76.967 49.8442 76.0091 50.2044 75.4547C51.447 73.5416 53.0313 72.2982 58.2132 69.1691C59.8486 68.1814 59.9206 67.959 58.8319 67.2719C58.0893 66.8026 57.7176 66.2596 56.5718 63.9678C55.8187 62.4599 55.1544 61.1752 55.0964 61.1137C54.8828 60.8852 50.8705 60.7385 50.4663 60.9441C49.7361 61.3149 50.9215 65.1453 52.0594 66.0891C53.0674 66.9265 52.2739 68.5768 50.6271 69.0654C49.49 69.4028 49.237 69.6787 45.9347 74.177C44.7651 75.7701 44.5665 75.5847 43.2247 71.6453C41.8907 67.7332 41.7607 66.242 42.2686 60.6787C42.9645 53.0425 43.5067 51.1576 44.0269 54.5592C44.1728 55.5144 44.3881 56.8 44.5041 57.416C44.621 58.0329 44.7431 58.7385 44.7774 58.9845C44.8345 59.4002 45.0331 59.438 47.4979 59.4968C50.3714 59.5654 50.8925 59.4485 54.5032 57.9336C56.5006 57.0944 56.4918 57.0882 56.7985 59.6409C57.2642 63.5188 58.7835 64.7095 64.0999 65.3624C65.3064 65.5109 65.737 65.662 65.976 66.0232C66.2334 66.4098 66.5173 66.4916 67.6043 66.4916C69.222 66.4916 69.2774 66.7306 68.0744 68.5065C67.2449 69.7306 64.2343 71.5961 63.0287 71.633C62.4716 71.6497 61.6508 72.5917 60.8916 74.0838C60.5392 74.7763 59.8327 76.1418 59.3204 77.119C57.7123 80.1875 57.8503 80.3123 61.4153 79.0197C63.5937 78.2288 63.7589 78.1032 63.7642 77.2306C63.7686 76.561 64.1078 76.2288 66.6315 74.4265C70.4364 71.7095 71.5524 70.93 73.6833 69.503L75.8679 68.039V65.5003C75.8679 62.4801 75.932 62.5619 73.4004 62.3571C71.8749 62.2332 71.2255 62.0601 70.1543 61.4898C68.1227 60.409 68.0823 60.1067 69.4619 56.2956C70.1306 54.4494 70.2343 51.8633 69.7185 49.8835C69.1104 47.5487 66.1825 43.4467 65.106 43.4204C64.918 43.4151 64.5348 43.2517 64.2554 43.0557C63.976 42.8598 63.2739 42.5821 62.6957 42.4397C61.2607 42.0838 60.9927 41.2648 62.389 41.5012C63.273 41.6506 63.3029 41.6339 63.7589 40.7402C64.0155 40.2376 64.3749 39.8264 64.5586 39.8264C65.1148 39.8264 68.2361 42.4977 68.3881 43.1032C68.5076 43.5768 68.621 43.6392 69.1543 43.5214C70.7036 43.1814 72.5656 48.0891 72.4707 52.2622C72.3828 56.1515 73.2536 57.4995 77.1631 59.5276C79.4329 60.7051 84.5709 61.039 86.1192 60.1093C87.0559 59.5478 87.0366 59.3888 85.9953 59.1093C83.2765 58.3764 81.7616 55.1471 83.5559 53.9098C88.0928 50.7815 89.5357 48.9863 90.1904 45.6524C90.9698 41.691 89.0471 34.5513 86.9681 33.6822C86.5489 33.5065 86.0507 33.0636 85.8609 32.6972C84.0568 29.2086 75.5586 27.0452 69.5937 28.5566C64.2545 29.909 58.1658 35.3009 58.1658 38.677C58.1658 39.8272 57.6104 40.184 55.1412 40.6207C51.3767 41.2877 46.0656 40.1541 46.0656 38.6849C46.0656 38.5759 45.5761 37.9459 44.9768 37.2842C44.1429 36.3641 43.7756 35.7112 43.4065 34.496C42.0761 30.1163 36.3231 21.9002 34.5867 21.9002C34.4109 21.9002 34.048 21.6664 33.78 21.3808C33.3011 20.8712 31.3705 19.9054 30.0445 19.5118C29.5322 19.3597 29.3723 19.1805 29.3723 18.7578C29.3723 17.0759 34.3565 18.3308 37.4531 20.7912C37.9101 21.155 38.3512 21.452 38.4329 21.452C39.5682 21.452 44.5164 29.8536 45.3881 33.2622C45.7457 34.6576 46.7378 34.8668 46.7378 33.5469C46.7378 31.981 47.0586 31.9063 49.106 32.9916C50.3811 33.6682 50.7958 33.7763 52.121 33.7763C54.2941 33.7763 54.3828 33.2279 52.2818 32.7789C50.8925 32.481 50.2115 31.5083 50.2115 29.822V28.2974L48.751 28.0575C46.8248 27.7411 46.8565 27.7719 46.5305 25.8879C45.8793 22.133 42.4487 16.5223 40.8037 16.5223C40.6464 16.5223 40.3819 16.3571 40.2141 16.1559C40.0463 15.9538 39.0515 15.3826 38.0023 14.887L36.0946 13.9854L31.1087 13.8826C26.5603 13.7886 26.1227 13.8132 26.1227 14.1541C26.1227 16.0337 24.2993 16.4388 23.5691 14.7218C23.2677 14.0144 20.9979 11.3685 20.6921 11.3685C20.621 11.3685 20.251 11.8395 19.8696 12.4151ZM21.3705 25.2315L21.4355 27.0706L20.4742 27.4942C18.0955 28.5408 17.6693 28.2754 18.57 26.3079C19.1798 24.9749 20.6684 23.1822 21.0577 23.3114C21.2036 23.3589 21.3319 24.1462 21.3705 25.2315Z" fill="#7E839D"/>
</svg>
