<svg width="101" height="100" viewBox="0 0 101 100" fill="none" xmlns="http://www.w3.org/2000/svg">
<path d="M64.2151 12.3745C57.4875 13.4353 53.7862 17.3663 52.7868 24.5131C52.6427 25.5417 52.2488 27.0448 51.9113 27.8527C51.5738 28.6597 51.1567 30.0147 50.9845 30.862C50.4032 33.7291 49.9569 33.573 49.4411 30.322C49.2859 29.3478 48.9998 27.7993 48.8034 26.8806C48.6079 25.9618 48.3732 24.5332 48.2815 23.7061C47.5491 17.0963 41.8843 12.2586 34.8564 12.2415C32.8889 12.2365 32.8516 12.305 33.3946 14.9324C34.9058 22.2484 40.3268 27.5515 45.6783 26.9481C47.0857 26.7899 47.123 26.8534 47.936 30.734C48.4901 33.3755 49.0341 42.0123 48.6714 42.3901C48.5525 42.513 48.0156 41.9014 47.4726 41.025C46.9316 40.1515 45.7549 38.317 44.8572 36.9479C43.9596 35.5788 42.9018 33.7654 42.5069 32.9171C41.7009 31.1894 40.8779 30.196 39.7808 29.6299C38.8378 29.1433 36.0472 28.9488 35.9042 29.3599C35.7268 29.8727 38.2394 32.1283 40.089 33.1176C42.5099 34.4112 43.8035 36.2689 41.6627 35.3763C38.3079 33.978 37.378 33.8006 34.6146 34.0324C33.1498 34.1543 31.688 34.2046 31.3646 34.1432C28.0945 33.5176 26.4594 38.1558 28.1247 43.334C28.9337 45.8516 29.0516 45.904 31.3254 44.7797C33.7482 43.5819 38.4953 41.8863 41.2154 41.2476C42.2157 41.0129 43.5093 41.6254 46.5578 43.7783C48.6523 45.2572 48.6392 45.224 48.6281 49.1872C48.617 53.2714 48.6795 53.3953 50.7044 53.2885L52.141 53.2119L52.1984 51.7995C52.5238 43.875 52.7646 43.2484 55.9572 42.0173C58.3549 41.0935 58.9906 41.1056 62.4169 42.1422C63.6883 42.5271 65.5379 43.0801 66.5272 43.3713C67.5155 43.6624 68.9864 44.2327 69.7943 44.6387C72.4217 45.9584 72.9395 45.4809 73.5964 41.1328C73.9782 38.6112 72.8741 34.6126 71.7155 34.3175C68.7919 33.572 59.8167 34.3185 58.4929 35.4166C57.959 35.8598 57.7756 35.3833 58.1927 34.6368C58.4053 34.257 59.1538 33.6536 59.856 33.2969C61.5384 32.4416 64.472 30.1467 64.472 29.6853C64.472 29.4274 64.0812 29.2984 63.1382 29.244C60.7868 29.108 59.2253 30.2696 57.6839 33.303C57.2175 34.2218 56.341 35.6825 55.7366 36.5499C55.1321 37.4173 54.2113 38.8902 53.6894 39.8231C53.1676 40.756 52.6185 41.5952 52.4684 41.6879C52.0493 41.9468 52.4543 34.7708 53.0729 30.9909C53.6753 27.3097 53.9262 26.8806 55.4736 26.8806C59.6071 26.8806 63.8807 23.9489 65.7606 19.8225C67.8278 15.288 68.1542 11.7378 66.4799 12.0148C66.364 12.034 65.3455 12.1962 64.2151 12.3745Z" fill="#7E839D"/>
<path d="M25.6508 23.1385C25.1471 24.4532 26.2271 27.7455 27.697 29.3725C29.2978 31.1435 32.8722 32.3585 33.9209 31.4881C34.8105 30.7496 33.4937 26.3562 31.9705 24.98C30.006 23.206 26.0659 22.0575 25.6508 23.1385Z" fill="#7E839D"/>
<path d="M72.8558 23.417C72.3813 23.6265 71.7546 23.7978 71.4655 23.7978C69.0436 23.7978 65.8057 29.1795 66.9471 31.3113C67.3491 32.0638 70.1266 31.8281 71.4806 30.9264C75.5073 28.2446 76.7022 21.7215 72.8558 23.417Z" fill="#7E839D"/>
<path d="M12.0494 38.4404C10.2018 45.973 12.2741 58.2466 16.6262 65.5425C18.9907 69.5057 23.642 75.3146 25.7687 76.9588C26.215 77.3043 27.0995 78.0609 27.7352 78.6432C30.8502 81.4912 37.328 84.981 43.2558 87.0039C45.6586 87.8239 46.8488 88.2533 47.3564 87.8414C47.8709 87.4239 47.6838 86.1417 47.347 83.5252C46.2106 74.694 43.281 69.3073 36.784 64.0988C33.8655 61.7585 31.086 58.9931 30.1047 57.4507C29.8791 57.0971 29.4962 56.5773 29.2514 56.2942C27.6425 54.4315 25.1078 48.6145 24.6464 45.7262C24.0363 43.4634 22.5278 42.3691 21.8498 42.1047C18.6114 41.5636 20.1464 47.2804 20.6342 49.5586C21.6939 54.5104 24.5584 59.0193 26.9917 63.4295C27.6826 64.6817 26.2045 65.2081 25.4091 64.397C20.4867 59.378 17.0411 52.5447 16.6262 46.0093C16.5163 44.2774 14.951 34.2429 12.0494 38.4404Z" fill="#7E839D"/>
<path d="M76.465 45.0581C75.9582 51.4301 71.8962 58.2071 65.3318 63.6291C59.9823 68.0478 57.0446 72.7112 55.6301 79.0298C55.3934 80.0897 55.0892 81.3741 54.9542 81.8859C54.6821 82.9125 54.6187 86.9755 54.8645 87.6152C55.0831 88.1844 55.6171 88.129 58.2636 87.2636C68.1163 84.0439 76.3138 78.24 81.5021 70.8092C82.6405 69.1791 84.2514 66.6787 84.2514 66.5437C84.2514 66.46 84.4781 66.0742 84.7562 65.6843C85.0332 65.2944 85.678 63.9475 86.1877 62.6902C89.3188 54.9743 90.2336 48.6345 89.2473 41.4675C88.4125 35.6947 86.6426 35.717 85.5571 37.5177C81.0117 45.0581 86.1877 54.063 75.4434 65.0103C73.4708 67.0202 72.3385 67.4292 73.8224 65.5967C77.2105 61.4148 78.4827 55.2753 80.3555 47.6319C80.3555 43.2416 76.9776 38.6071 76.465 45.0581Z" fill="#7E839D"/>
</svg>
