<svg width="100" height="100" viewBox="0 0 100 100" fill="none" xmlns="http://www.w3.org/2000/svg">
<path d="M28.5071 15.2356C26.31 18.0065 26.2671 21.189 27.0601 24.3247C27.5493 26.2595 29.6063 27.576 27.8647 29.2835C24.9706 32.1195 23.7106 35.5592 23.615 40.8799C23.5344 45.4616 23.6816 45.1189 22.0047 44.614C18.2287 43.4775 13.3151 44.6516 13.1421 46.7324C13.0326 48.0473 12.619 47.5961 31.1368 66.3535C39.3655 74.6897 46.853 82.3018 47.7747 83.2697C48.6964 84.2376 49.5913 85.0293 49.7632 85.0293C50.1563 85.0293 54.3545 81.032 58.6837 76.5374C64.1774 70.8353 74.8973 59.8866 78.2651 56.5392C86.2822 48.5726 86.8418 47.9377 86.8794 46.7851C86.945 44.7676 83.1099 43.832 77.6012 44.5216L76.7794 44.6237L76.5989 41.7479C76.297 36.9063 75.0917 33.4311 72.6489 30.3663C71.8325 29.3404 71.1632 28.4767 71.1632 28.4466C71.1632 28.4165 71.4608 27.729 71.8239 26.9201C72.7391 24.8834 72.9884 21.6585 72.4212 19.2113C71.5682 15.5406 70.2157 14.0582 69.7527 16.2883C69.5443 17.2906 67.8653 20.4865 67.1767 21.189C66.8383 21.5349 66.8149 20.7683 66.1199 20.2548C61.4496 16.8037 55.79 15.9409 49.583 15.9409C44.506 15.9409 37.3421 17.3926 33.0462 20.2548C32.321 20.2602 30.5879 18.4583 29.9251 16.6815C29.2902 14.982 28.969 14.6533 28.5071 15.2356ZM54.7273 20.1595C59.8106 20.8148 64.4524 22.5228 64.4524 23.7389C64.4524 24.4446 62.3028 25.9078 61.2426 25.9217C57.2249 25.9754 53.858 29.0004 51.4744 31.708C51.2295 31.9873 50.7826 32.7264 50.4818 33.3516C49.7567 34.8556 49.5634 34.7815 48.3849 32.5492C45.8369 27.7298 42.0259 26.9068 37.3331 25.2697C36.1978 24.8733 35.6825 24.4217 35.6581 23.9526C35.5653 22.1688 42.5741 20.1336 49.583 19.9333C51.3347 19.8832 53.0864 19.9478 54.7273 20.1595ZM39.0895 32.8639C48.2345 35.5796 44.6712 50.6309 35.3726 48.5651C31.1347 47.6241 29.2837 45.4691 29.0485 41.2011C28.7681 36.1006 30.7684 33.3108 35.1416 32.7017C37.3137 32.3999 37.5619 32.4095 39.0895 32.8639ZM66.6739 33.3957C69.7538 34.9028 70.8689 37.2361 70.5144 41.431C69.7613 50.3419 57.7878 51.6213 54.9153 43.0972C53.6616 39.3782 56.2269 34.1724 59.7827 33.2216C60.3918 33.0594 61.1373 32.8156 61.4391 32.6813C62.407 32.2495 65.0733 32.6126 66.6739 33.3957ZM50.8492 48.2536C51.8257 49.7747 53.1202 51.1927 54.4211 52.1681L55.3482 52.8632L53.5993 54.6593C51.7269 56.5822 50.0704 58.6372 50.0704 59.0358C50.0704 59.8425 48.9768 59.0659 48.0175 57.5769C47.4159 56.6434 46.2622 55.1642 45.4522 54.2908L43.9816 52.7009L45.8755 50.9478C46.9175 49.9831 48.1196 48.6897 48.5471 48.0731C49.5387 46.6422 49.8287 46.6648 50.8492 48.2536Z" fill="#7E839D"/>
<path d="M36.7333 37.3515C35.0263 38.3924 34.6954 40.6602 36.0533 42.0191C38.9076 44.8734 43.0155 42.3575 41.2548 38.8329C40.2192 36.7585 38.5842 36.2225 36.7333 37.3515Z" fill="#7E839D"/>
<path d="M58.7713 37.5199C58.3459 37.7509 57.9517 38.2493 57.8582 38.6736C57.7691 39.084 57.6423 39.5867 57.5789 39.7919C56.6411 42.7783 60.7243 44.3897 63.0146 41.9361C65.6916 39.0668 62.3443 35.582 58.7713 37.5199Z" fill="#7E839D"/>
</svg>
