<svg width="100" height="100" viewBox="0 0 100 100" fill="none" xmlns="http://www.w3.org/2000/svg">
<path d="M48.6992 5.80877C48.2379 6.87864 47.7182 8.05723 47.5432 8.42844C47.3682 8.80097 46.9015 9.99016 46.5078 11.072C45.8648 12.8339 45.7322 12.9903 45.2311 12.5754C44.9235 12.3195 43.7131 11.2987 42.5411 10.3057C41.3652 9.30873 40.2914 8.63525 40.1442 8.8023C39.826 9.16555 37.9885 14.9895 37.2223 18.0639C36.2744 21.8702 36.0437 21.6806 34.071 15.4787C31.9962 8.96271 31.1915 8.64983 29.4189 13.6691C28.7945 15.435 28.2828 16.9185 28.2801 16.9649C28.2523 17.5257 26.9504 16.5831 24.8955 14.5136C21.7362 11.3331 21.9404 11.3146 21.3226 14.8517C21.2258 15.4098 21.0005 16.3232 20.8228 16.8801C20.6465 17.4382 20.3416 18.5465 20.1467 19.3433L19.7927 20.791L18.7096 20.0353C17.1346 18.9363 14.2657 16.5844 14.1331 16.2848C14.0695 16.1443 13.7049 15.8592 13.3218 15.6551C12.4932 15.2109 12.5409 15.7598 13.7327 20.4304C14.4473 23.2251 14.7416 24.6304 15.4323 28.5439C15.8088 30.6824 16.2901 33.1323 16.5022 33.9901L16.8854 35.5479L18.6088 34.889C19.5567 34.5257 20.9541 34.0299 21.7164 33.7846C22.4773 33.5407 23.8468 33.0409 24.7589 32.6736C27.5231 31.5613 31.9842 30.1905 33.2941 30.0513C33.9742 29.9797 35.3675 29.765 36.3897 29.5754C46.7557 27.6583 60.9624 28.2311 70.0278 30.9329C71.3284 31.3201 72.8994 31.788 73.5172 31.9736C75.4368 32.5464 80.8233 34.6795 81.2675 35.0427C81.5008 35.2323 81.6904 35.288 81.6904 35.166C81.6904 35.0441 81.9714 35.0944 82.3161 35.2787C82.8743 35.577 82.9856 35.406 83.3449 33.6839C83.5663 32.6233 83.9561 30.8428 84.2106 29.7265C84.4665 28.6116 84.8377 26.9385 85.0379 26.0078C85.2381 25.0785 85.8678 22.362 86.4379 19.9704C87.6788 14.7721 87.6708 14.7575 85.0617 17.173C83.9295 18.2204 82.853 19.0781 82.6688 19.0781C82.4845 19.0781 81.9913 19.448 81.5724 19.9001C81.1534 20.3535 80.6377 20.6147 80.4243 20.4834C80.0332 20.2421 78.6478 14.4964 78.6478 13.1136C78.6478 11.6089 77.8855 11.9629 75.3321 14.6528C73.9016 16.1588 72.5586 17.3905 72.3479 17.3905C71.9143 17.3878 70.7503 14.6369 70.1697 12.2426C69.5797 9.80588 67.7435 9.17881 67.2901 11.2589C67.1841 11.7481 66.8898 12.6045 66.6365 13.1613C66.0055 14.5481 64.5591 18.6963 64.2993 19.8617C63.7782 22.1976 62.8953 20.7857 61.5894 15.5278C60.733 12.0756 60.7025 11.9496 60.3605 10.303C59.8885 8.02276 59.6764 8.03071 56.9308 10.4343C53.8431 13.1388 53.9797 13.1348 52.988 10.5417C50.2557 3.40519 49.903 3.01675 48.6992 5.80877Z" fill="#7E839D"/>
<path d="M43.6592 32.9505C42.543 33.1189 40.5716 33.3297 39.2777 33.4185C37.9824 33.5087 36.4618 33.7168 35.897 33.8839C35.3309 34.0496 33.9561 34.3717 32.8412 34.5984C31.7249 34.8265 30.0995 35.2998 29.2285 35.6524C28.3575 36.0037 27.4096 36.2914 27.1219 36.2914C26.5903 36.2914 22.8026 37.5098 19.5241 38.7361L17.7012 39.4188L17.8987 45.2084C18.1639 53.0117 19.422 60.0633 21.2741 64.1373C22.5958 67.0447 26.3053 74.3177 26.5545 74.4927C26.6871 74.5855 27.5435 75.7164 28.4556 77.0063C29.369 78.2963 31.1853 80.4864 32.4925 81.8731C33.7997 83.2612 35.2858 84.8402 35.7949 85.3824C36.3279 85.9511 36.8873 86.2667 37.1154 86.1261C37.3474 85.9829 37.419 86.0294 37.2877 86.2401C36.9603 86.7704 40.1686 89.4325 46.3001 93.72L49.2791 95.8027L50.5253 95.226C51.8431 94.6162 57.9468 90.5952 59.3786 89.3941C65.3405 84.3934 70.8993 78.5362 71.9612 76.1367C72.1972 75.605 72.5432 75.1636 72.7302 75.1583C73.4686 75.1344 78.0716 66.2148 79.0911 62.8288C81.3568 55.3052 81.8221 52.252 81.8433 44.755L81.8606 39.1882L76.7896 37.4859C74.0002 36.5499 71.529 35.6617 71.2997 35.5132C71.069 35.3647 70.1556 35.1579 69.2713 35.0558C68.3857 34.9537 66.3732 34.5746 64.7982 34.214C63.2246 33.8534 61.0331 33.4835 59.9288 33.392C58.8257 33.2992 57.8155 33.1587 57.6843 33.0778C57.1805 32.7663 45.5816 32.6615 43.6592 32.9505ZM63.0363 40.3508C66.7418 41.0137 69.2686 41.6474 73.4925 42.9732L75.2676 43.5313L75.261 46.7568C75.2517 52.2003 73.8756 59.1459 72.0063 63.2014C71.5688 64.1493 71.2109 65.0998 71.2109 65.3146C71.2109 66.4481 69.6929 64.9633 67.4603 61.6463C65.7833 59.1565 65.6891 59.0001 62.9687 54.1797C61.8763 52.2441 60.5452 49.9612 60.011 49.1087C59.4767 48.2549 59.0405 47.4012 59.0405 47.2102C59.0405 47.0193 58.7462 46.4877 58.3856 46.0303C58.025 45.5716 57.6326 44.8053 57.5119 44.3268C57.3913 43.8495 57.0015 43.1442 56.6462 42.7624C56.2896 42.3792 55.9979 41.9006 55.9979 41.6978C55.9979 41.495 55.7659 40.8811 55.4835 40.3349L54.9692 39.3406L57.028 39.4918C58.1602 39.5753 60.8634 39.9611 63.0363 40.3508ZM44.1657 40.0128C44.1657 40.559 39.1424 50.3562 37.0014 53.9861C35.9209 55.817 35.0379 57.3814 35.0379 57.4622C35.0379 57.8281 29.5838 65.703 29.3306 65.703C28.9342 65.703 27.3009 61.9883 26.357 58.9418C25.4011 55.8594 24.4837 49.0756 24.6242 46.1258L24.7276 43.9635L26.9244 43.1402C33.0559 40.8453 44.1657 38.8289 44.1657 40.0128ZM53.6381 49.814C53.7349 49.9068 53.9961 50.3629 54.2175 50.8282C54.4389 51.2935 55.1548 52.5861 55.8084 53.7011C56.4633 54.8174 57.1023 55.9588 57.2296 56.2372C57.3555 56.5156 57.7559 57.1719 58.1178 57.6929C59.0326 59.012 59.0445 59.0094 53.4101 58.6116C49.995 58.3704 47.3369 58.3651 45.1693 58.5931C43.4087 58.7787 41.7926 58.9325 41.5778 58.9364C41.3631 58.9391 42.1996 57.1467 43.4365 54.9526C44.6748 52.7585 45.97 50.3615 46.316 49.6271C46.662 48.8939 47.0744 48.064 47.2321 47.7856C47.3912 47.5072 47.8658 46.5938 48.2861 45.7572C50.0639 42.2254 49.8346 42.2003 51.7529 46.139C52.6929 48.0667 53.5413 49.7212 53.6381 49.814ZM45.278 64.8996C45.3933 65.015 45.1162 65.5996 44.6602 66.1975C44.2041 66.7955 43.931 67.3841 44.0543 67.5074C44.1776 67.6307 44.114 67.7314 43.9138 67.7314C43.4219 67.7314 40.7665 71.657 41.0595 71.95C41.1881 72.0785 41.1098 72.1316 40.8871 72.0693C40.3581 71.9234 37.6762 75.4645 37.9638 75.9298C38.0898 76.1327 38.0248 76.1884 37.8154 76.0598C37.6125 75.9338 37.3049 76.0836 37.1313 76.3925C36.7084 77.1482 36.3265 76.8539 34.3565 74.2514C32.9857 72.4405 32.7603 71.9606 33.1381 71.6556C33.3927 71.4501 34.4466 69.9666 35.4807 68.3598L37.3593 65.4392L40.5093 65.1131C44.7848 64.669 45.0367 64.6584 45.278 64.8996ZM58.5341 65.1926C60.5784 65.4657 62.339 65.6924 62.4464 65.6964C62.5524 65.7004 63.3797 66.8061 64.2825 68.1543C65.1853 69.5026 66.2101 70.9278 66.5588 71.3229C67.0825 71.9168 67.1156 72.121 66.7484 72.5054C66.5045 72.7626 65.705 73.7702 64.9706 74.7459C63.1928 77.1084 62.9846 76.9838 59.0352 71.1797C58.0608 69.7479 56.9193 68.1968 56.5004 67.7314C55.8243 66.9824 54.48 64.6849 54.7212 64.6915C54.773 64.6928 56.4885 64.9182 58.5341 65.1926ZM52.1559 71.8731C53.2298 73.4069 55.29 76.142 56.7364 77.9529L59.3653 81.2434L58.3578 81.9885C57.8036 82.3981 57.3502 82.9417 57.3502 83.1976C57.3502 83.4521 57.2136 83.5767 57.0479 83.4733C56.7722 83.3036 55.7964 83.9294 51.1563 87.2543L49.6238 88.3521L48.1615 87.2543C47.3567 86.6498 46.0907 85.743 45.3482 85.2366C42.4621 83.2745 40.5703 81.3017 41.1244 80.8364C42.2672 79.8752 45.7234 75.438 48.3709 71.535C50.3649 68.5932 49.8279 68.5454 52.1559 71.8731Z" fill="#7E839D"/>
</svg>
