<svg width="100" height="100" viewBox="0 0 100 100" fill="none" xmlns="http://www.w3.org/2000/svg">
<path d="M35.4605 11.3373C31.0383 11.4499 31.0214 11.4622 30.558 14.7338C30.0455 18.3471 30.2133 19.1131 31.1984 17.6531C31.8924 16.6251 32.3505 16.419 32.1567 17.2218C31.239 21.0144 32.2762 25.4596 34.7113 28.1735C35.0162 28.5129 35.3916 28.9434 35.5471 29.1311C35.7623 29.3907 35.8496 29.4099 35.9155 29.2123C35.963 29.069 35.8366 28.8316 35.6336 28.6829C35.1005 28.2938 34.9917 24.8368 35.4613 23.2174C36.2319 20.5617 40.4143 16.3156 42.0314 16.5485C42.4305 16.6059 42.3079 16.7967 40.8663 18.3701C37.4054 22.1465 36.32 27.0896 38.4372 29.4336C38.9804 30.035 39.0853 30.2556 38.8846 30.3797C38.6992 30.4946 38.9306 30.6968 39.6782 31.0737C41.8667 32.1767 43.4792 33.3947 45.398 35.394C46.4804 36.5208 47.395 37.3558 47.431 37.2485C47.5337 36.9406 46.7853 35.6062 45.719 34.1975C44.7845 32.9627 44.5317 32.2924 44.9124 32.0572C45.0074 31.9983 45.146 31.7102 45.2195 31.4176C45.7312 29.3793 48.1656 25.1179 47.919 26.6921C47.8952 26.8422 47.7413 27.7461 47.5766 28.6998C46.783 33.3028 47.5865 35.2155 50.3978 35.4162C52.0447 35.5342 52.3366 35.3488 53.0896 33.708C53.6266 32.5391 53.6633 28.4922 53.1501 27.1777C52.8391 26.3811 53.216 26.0065 53.7154 26.617C54.0555 27.0337 55.0399 29.4168 55.8672 31.829C56.2908 33.0638 56.182 33.5088 55.4581 33.5088C55.0437 33.5088 54.974 33.8995 55.3256 34.2511C55.7369 34.6625 56.0656 34.5123 57.4352 33.2859C58.621 32.2242 58.742 32.0527 58.4846 31.796C58.2556 31.567 58.228 31.2751 58.3521 30.4072C58.6746 28.159 58.5091 26.9885 57.6282 25.2765C56.7894 23.6472 56.758 23.4296 57.3923 23.6311C59.9133 24.4308 61.7325 29.3387 60.0726 30.8592C59.1511 31.7033 59.2078 31.7807 60.4142 31.3295C63.2125 30.2816 63.2263 30.2709 63.4139 28.9442C64.0842 24.2171 63.3419 21.8302 60.0933 18.2575C57.9538 15.905 58.7213 15.6109 61.5426 17.7021C64.6901 20.0362 65.7304 22.0079 65.9142 25.9881C65.9632 27.0628 66.01 27.9805 66.0169 28.0272C66.0238 28.074 66.2857 27.8679 66.5975 27.5684C68.285 25.9521 69.791 19.4831 68.8871 17.7358C68.0935 16.2007 68.6336 15.9181 69.7244 17.2977C70.6857 18.5149 70.7593 18.3961 70.5233 16C70.0499 11.1772 70.076 11.2209 67.7128 11.2791C56.9029 11.5497 46.2193 11.0641 35.4605 11.3373ZM44.5432 23.2649C44.5432 23.3247 44.2237 24.1374 43.8331 25.072C43.1551 26.6928 43.123 26.8736 43.1168 29.0652C43.1099 31.6528 43.0816 31.6911 41.8008 30.8439C40.6281 30.0671 40.4373 27.671 41.4347 26.247C42.6672 24.4882 44.5432 22.6881 44.5432 23.2649Z" fill="#7E839D"/>
<path d="M27.451 12.4097C25.8898 12.8361 23.0525 12.9922 21.9326 14.1064C21.4048 14.6311 21.4355 13.5204 21.499 29.9928C21.5251 36.5997 21.5557 46.5326 21.568 52.0655L21.591 62.1248C25.763 74.1459 36.9319 82.6705 50.2507 88.75C61.6884 84.8614 74.7348 75.5602 78.3535 62.1547C78.4883 61.6553 78.5519 59.2515 78.5289 55.593C78.509 52.4171 78.4883 43.7098 78.4837 36.2435C78.4768 24.3166 78.4691 21.0595 78.4393 15.5603C78.4308 13.9333 78.237 13.7946 74.7348 12.903C71.5076 12.0818 71.6845 11.9723 71.896 14.6587C72.6965 24.8459 70.5539 29.9361 64.1738 33.0109C59.9101 35.0646 58.411 36.3967 58.411 38.1309C58.411 39.3221 58.6286 39.3489 61.4789 38.5124C63.4836 37.9241 64.1492 37.6292 65.178 36.8731C67.8805 34.8861 67.9832 34.8976 67.9809 37.1826C67.9778 39.5825 66.0605 42.5891 64.2841 42.9798C63.3082 43.1943 63.2369 43.0304 63.3357 40.8074C63.443 38.399 63.4108 38.3814 61.8558 39.9801C61.2154 40.6389 60.4701 41.2371 60.1989 41.3091C59.3846 41.5274 59.498 41.8584 60.634 42.5853C61.2277 42.9653 62.0036 43.637 62.3575 44.0775C63.1373 45.0488 63.8735 45.4433 65.9892 46.0232C68.4527 46.698 69.0831 47.7031 68.3822 49.8387C68.2804 50.1505 68.1011 50.7778 67.9847 51.2344C67.7097 52.3099 67.2018 52.5611 64.9551 52.7327C63.9876 52.8063 62.713 52.9801 62.1224 53.1188L61.0484 53.3716L61.0821 54.9159C61.1311 57.1028 62.549 63.5657 63.4223 65.5819C63.9914 66.8963 61.459 69.8417 56.0586 74.1459C50.8696 78.2824 50.2943 78.5038 48.3578 77.1165C43.8544 73.8908 40.7452 71.3208 38.5773 69.0335C36.7328 67.0871 36.5612 66.6482 37.0798 65.1989C37.5486 63.8867 37.8351 62.9223 38.1951 61.4415C38.3384 60.8509 38.6831 59.5319 38.9604 58.5115C40.4273 53.1134 41.6437 48.0646 41.849 46.5234L42.0803 44.7868L41.5503 44.3311C41.2584 44.0798 40.6624 43.7788 40.2258 43.6608C38.1024 43.0893 36.0878 40.2114 36.0587 37.7081C36.0388 36.0052 36.4555 36.0137 39.9853 37.7878C44.0965 39.8537 45.1505 39.8552 44.0291 37.7946C43.2079 36.2864 38.9542 33.3135 37.6175 33.3135C36.6141 33.3135 33.4029 31.1824 32.2393 29.7438C29.268 26.0723 28.6536 22.95 28.9838 13.1941C29.0167 12.2189 28.7134 12.0634 27.451 12.4097Z" fill="#7E839D"/>
<path d="M52.6637 37.7881C51.3844 37.9421 51.3814 38.1129 52.633 39.4956C53.9039 40.8997 58.8309 42.8614 58.572 41.8595C58.4471 41.3784 54.3527 37.6112 53.9873 37.6418C53.7882 37.6587 53.193 37.7245 52.6637 37.7881Z" fill="#7E839D"/>
<path d="M44.4605 42.2722C44.3433 42.4621 45.166 44.8927 46.1886 47.3777C46.8834 49.0667 46.8374 49.511 46.0415 48.7948C45.2119 48.0495 44.5417 48.0349 44.5417 48.7634C44.5417 49.1908 44.318 50.1775 43.5474 53.1396C43.2402 54.3216 42.6772 56.563 42.2957 58.121C41.9142 59.6791 41.5205 61.2609 41.4209 61.637C41.0027 63.2127 40.5944 64.7103 40.3975 65.3882C40.0199 66.6897 42.8066 69.622 46.7631 72.087C47.1078 72.3023 47.9405 72.9396 48.613 73.5034C50.0884 74.7413 50.1374 74.7443 51.5032 73.6987C52.1007 73.2422 52.8728 72.6929 53.2191 72.4777C55.1962 71.2536 59.7088 67.1661 59.885 66.4407C59.9401 66.2163 59.6797 64.1863 59.3074 61.9297C58.9343 59.6737 58.5682 57.2715 58.4931 56.5905C58.284 54.7008 57.5203 54.664 57.2253 56.53C57.1411 57.0639 56.8086 58.1026 56.4869 58.8365C55.858 60.272 55.0131 63.14 54.7986 64.5671C54.6263 65.7122 54.2846 66.9601 54.0801 67.1945C53.8181 67.494 53.907 65.1661 54.2111 63.7857C54.8262 60.989 54.4439 60.6052 53.3011 62.8703C52.4684 64.5196 52.2485 64.1749 52.2914 61.2847C52.3183 59.4608 52.4102 58.7836 52.748 57.9257C53.3822 56.3117 53.5707 55.3787 53.4481 54.4541C53.3171 53.4629 54.0341 52.8493 55.3226 52.8478C56.2012 52.847 56.3735 53.0814 56.0572 53.8467C55.6573 54.8118 56.0625 54.9084 57.2269 54.1247C57.7922 53.744 58.3675 53.433 58.5054 53.433C59.1703 53.433 63.0984 52.0672 63.0984 51.8359C63.0984 51.7386 62.5354 51.4061 61.8475 51.0974C61.1596 50.7887 60.2496 50.2226 59.8252 49.8389C59.312 49.3754 58.7107 49.0629 58.0274 48.9051C56.9549 48.6577 56.5604 48.2379 57.1104 47.93C57.6635 47.6205 57.4674 47.3777 56.6639 47.3777C55.7063 47.3777 55.4719 47.049 56.0871 46.5672C56.601 46.1651 56.2441 45.6197 55.4666 45.6197C55.2858 45.6197 54.8216 45.4879 54.4363 45.3263C54.0502 45.1654 53.419 45.0337 53.0322 45.0337C52.1972 45.0337 51.7215 44.8061 50.7594 43.9459C50.3657 43.5943 49.8096 43.1531 49.5246 42.9662C48.6375 42.3848 44.7224 41.8478 44.4605 42.2722Z" fill="#7E839D"/>
</svg>
