<svg width="100" height="100" viewBox="0 0 100 100" fill="none" xmlns="http://www.w3.org/2000/svg">
<path d="M51.1474 7.63413C51.2842 7.85659 52.0027 8.0376 52.7461 8.0376C55.9006 8.0376 62.1655 10.5109 67.6635 13.928C68.3972 14.384 69.1904 14.7156 69.4252 14.6631C69.9116 14.5567 71.4606 15.7685 73.022 17.4764C73.6037 18.1147 75.3502 19.9912 76.9005 21.6465C79.3794 24.2939 82.498 29.043 83.2912 31.381C83.4058 31.7195 83.6145 31.9972 83.7554 31.9972C83.895 31.9972 84.2266 32.6715 84.4919 33.4951C84.7572 34.3186 85.0791 35.0716 85.2063 35.1684C86.3048 36.0043 87.4088 55.9596 86.4112 56.9572C86.3158 57.0526 86.2371 54.6718 86.2371 51.6679C86.2371 47.8377 86.0795 45.6863 85.712 44.4731C85.4232 43.5224 85.1855 42.1048 85.1842 41.3241C85.1814 40.5448 84.9631 39.5927 84.6964 39.21C84.4311 38.8286 84.094 37.9609 83.9489 37.2824C83.8038 36.604 83.1502 35.0343 82.4953 33.7935C81.8403 32.5541 81.3042 31.3519 81.3042 31.1253C81.3042 30.4607 79.7414 29.1784 78.9331 29.1784C78.4688 29.1784 78.0819 28.8634 77.8982 28.3356C77.105 26.0598 68.0532 18.1465 63.0706 15.372C61.9555 14.7515 60.5682 13.9018 59.9879 13.4831C58.5729 12.4661 57.7784 12.216 57.5712 12.7259C57.4675 12.9801 57.3888 12.929 57.3722 12.596C57.3446 12.053 55.5966 11.1604 51.7291 9.71229C49.6979 8.95094 40.9639 8.962 40.4664 9.72473C40.3504 9.90297 39.6222 10.2512 38.847 10.4971C38.0719 10.7445 37.1986 11.1466 36.9084 11.3911C36.6182 11.6371 34.7156 12.7549 32.6802 13.8769C30.6449 14.9975 28.5322 16.3627 27.985 16.9085C27.4365 17.4556 26.7815 17.9033 26.5287 17.9033C25.9318 17.9033 23.8536 20.2081 22.8532 21.9795C22.3171 22.9302 21.5295 23.6335 20.3453 24.218C18.9124 24.9268 18.4274 25.4367 17.4892 27.2136C16.8674 28.3908 16.0674 29.7325 15.7109 30.1954C15.3544 30.6569 15.0629 31.2884 15.0629 31.5993C15.0629 31.9088 15.3544 31.6186 15.7109 30.954C16.0674 30.288 16.5441 29.6828 16.768 29.6082C17.4146 29.3926 17.2447 30.5699 16.4432 31.8687C16.0398 32.5209 15.7717 33.2422 15.8477 33.4688C15.9223 33.6968 15.4083 34.4042 14.7022 35.0412C13.3896 36.2268 12.4016 38.5661 12.7443 39.677C13.0275 40.5973 13.3495 47.8902 13.3122 52.5453C13.2776 56.8094 13.9285 60.4351 14.9413 61.622C15.201 61.9274 15.4152 62.5299 15.4152 62.9582C15.4152 64.1258 17.4685 68.289 18.0447 68.289C18.7356 68.289 19.6006 69.61 19.4043 70.363C19.3145 70.7029 19.4914 71.1879 19.7954 71.4394C20.0994 71.6923 20.3481 72.0999 20.3481 72.3445C20.3481 72.9276 21.6373 74.5152 21.8984 74.254C22.0103 74.1435 21.7837 73.1528 21.3982 72.0515C21.0113 70.9517 20.6258 69.1388 20.5429 68.0251C20.3633 65.6195 18.795 57.4685 18.1014 55.3351C17.8333 54.5088 17.7407 53.753 17.8969 53.6576C18.053 53.5609 18.1746 50.5791 18.1649 47.0321C18.1525 41.7538 18.2533 40.3817 18.7204 39.478C19.034 38.8715 19.291 37.8959 19.291 37.3101C19.291 36.2696 20.478 33.4398 21.6829 31.6076C22.2052 30.8103 23.8729 28.377 25.6333 25.8415C26.8009 24.1599 29.4096 21.6672 30.6891 21.0137C31.4353 20.6323 32.7037 19.719 33.5079 18.9852C36.1664 16.5603 40.7483 14.3881 44.4846 13.7843C45.0649 13.6904 46.2311 13.4859 47.0754 13.3297C50.0627 12.7798 53.466 13.1846 56.1991 14.4144C57.0226 14.7847 57.7397 15.0472 57.7923 14.9975C57.8461 14.9491 58.2786 15.2711 58.754 15.7133C59.2279 16.1554 60.4936 16.9292 61.5644 17.4308C62.6339 17.9337 64.7646 19.3638 66.297 20.6102C67.8307 21.8565 69.5316 22.9661 70.0774 23.0752C71.1663 23.2922 71.5753 23.6832 72.501 25.3952C74.7243 29.499 76.0079 32.7807 76.0148 34.3752C76.0176 34.8119 76.1641 35.1684 76.3409 35.1684C76.5178 35.1684 76.7734 35.8427 76.9102 36.6662C77.0456 37.4897 77.456 38.9557 77.8208 39.9244C78.187 40.8943 78.4854 42.341 78.4854 43.1397C78.4854 43.9384 78.7894 45.2856 79.1625 46.134C80.3287 48.7925 80.967 59.852 80.2071 64.2363C79.32 69.3557 75.2176 80.255 73.4973 82.0582C73.2347 82.3345 72.3877 83.4013 71.6126 84.4321C69.4446 87.3158 59.9354 92.601 56.9148 92.601C56.557 92.601 56.177 92.8317 56.0678 93.115C55.9407 93.4466 55.5414 93.5737 54.9348 93.4743C54.4194 93.39 53.1247 93.2504 52.0594 93.1647C50.994 93.0805 49.2489 92.7571 48.1835 92.449C44.8231 91.4749 43.9554 91.3823 43.9554 91.9972C43.9554 92.2984 43.8628 92.7848 43.7495 93.0791C43.1457 94.6529 53.7962 96.7559 55.4419 95.3907C55.6726 95.1987 56.7366 94.9002 57.8061 94.7261C59.6742 94.4221 64.3791 92.7475 64.7439 92.2583C64.8406 92.127 65.1916 91.9212 65.5232 91.7982C67.1481 91.1999 71.3017 88.073 72.776 86.3389C73.688 85.2666 74.8887 83.9788 75.4442 83.4745C79.4057 79.8847 83.7388 71.5638 83.7651 67.4959C83.7679 66.8727 83.9585 66.5273 84.2998 66.5273C84.9216 66.5273 84.9437 66.9957 84.4601 70.0508C84.1326 72.1165 83.819 73.0022 82.1512 76.5685C81.745 77.4376 77.8236 82.6579 75.9071 84.8825C74.1522 86.9206 75.3861 85.8967 78.0695 83.0876C79.8299 81.2471 81.2766 79.4757 81.2862 79.1524C81.2959 78.8304 81.4451 78.5126 81.6179 78.4477C81.7906 78.3841 82.3308 77.5385 82.8186 76.5685C83.3064 75.5999 84.1561 73.928 84.7075 72.8529C85.2574 71.7779 85.9275 70.3506 86.1956 69.6818C86.9763 67.7335 87.6727 66.1238 88.5487 64.2363C88.9978 63.2677 89.4441 61.8238 89.5381 61.0279C89.632 60.232 89.9581 58.9829 90.2635 58.2547C90.5689 57.5251 90.8176 56.323 90.8176 55.5824C90.8176 54.8418 90.9792 54.1371 91.1754 54.0155C91.6535 53.7198 91.2169 47.2559 90.6393 46.0911C89.9927 44.7854 89.4082 42.8012 89.4082 41.9086C89.4082 41.4761 89.1912 40.6954 88.926 40.1717C88.6607 39.648 88.2351 38.3478 87.9781 37.2824C87.7224 36.2171 86.9169 34.1348 86.1873 32.6549C85.4577 31.1765 84.9603 29.8679 85.0791 29.7491C85.1994 29.6289 85.1123 29.5308 84.8871 29.5308C84.6605 29.5308 84.4753 29.3664 84.4753 29.166C84.4753 28.5815 79.5811 21.4531 77.9963 19.73C75.335 16.8366 66.9837 11.2087 65.3505 11.2087C65.1529 11.2087 64.024 10.7403 62.8412 10.1669C58.8686 8.24072 50.3874 6.40437 51.1474 7.63413ZM81.1287 32.3496C81.1287 32.6646 80.7363 32.923 80.1587 32.9893C79.2219 33.0971 78.8267 32.4781 79.4402 31.8646C79.8699 31.4349 81.1287 31.7955 81.1287 32.3496ZM82.1471 34.3158C82.7799 35.9642 82.0186 37.0531 80.6078 36.5197C80.1256 36.3359 79.892 36.0789 80.0869 35.9435C80.2803 35.8081 80.6299 35.2609 80.8634 34.7276C81.3415 33.6401 81.8279 33.484 82.1471 34.3158Z" fill="#7E839D"/>
<path d="M45.3649 15.5054C44.6864 15.6713 43.903 15.8564 43.6225 15.9172C43.342 15.9766 43.0518 16.2101 42.9758 16.4367C42.9012 16.662 42.5447 16.8457 42.1854 16.8457C41.8248 16.8457 41.4365 16.9977 41.3218 17.1829C41.2072 17.368 40.9018 17.4385 40.642 17.339C40.3823 17.2395 39.9525 17.3653 39.6845 17.6181C39.1262 18.1487 36.6722 19.3288 35.7672 19.5042C34.981 19.6562 32.6803 21.4042 32.6803 21.8505C32.6803 22.037 32.4828 22.1227 32.2396 22.0411C31.9978 21.9596 31.5224 22.3465 31.1825 22.902C30.844 23.4561 30.2098 24.0599 29.7731 24.2423C28.589 24.7369 27.8788 25.3919 27.6107 26.2348C27.4794 26.6493 27.0345 27.0763 26.6214 27.184C25.9885 27.3498 25.9415 27.4659 26.3215 27.9247C26.7872 28.4856 26.2828 29.6297 25.0088 30.9079C24.7366 31.1814 24.1383 31.9994 23.6782 32.7276C23.2195 33.4558 22.7041 34.1384 22.5327 34.2434C22.3628 34.3484 22.1942 35.2466 22.1583 36.24C22.1237 37.2321 21.7935 38.6346 21.426 39.3559C20.5803 41.014 19.8839 44.7793 20.1769 46.1127C20.2998 46.6723 20.2736 47.3328 20.1188 47.5801C19.7596 48.1535 19.9226 53.5286 20.3592 55.4768C20.7586 57.2621 21.1565 60.0919 21.1427 61.0647C21.1344 61.6699 21.6305 63.3639 23.5207 69.1949C23.7141 69.7891 23.8717 70.795 23.8717 71.4306C23.8717 73.3788 24.8569 74.6307 26.3892 74.6307C27.8801 74.6307 27.9064 75.0895 26.1281 70.0502C24.7809 66.2324 23.797 62.6675 23.6824 61.189C23.6285 60.4816 23.2775 59.2117 22.9044 58.3675C22.0173 56.3625 22.0173 41.0126 22.9044 39.6488C23.1836 39.2191 23.6133 38.2325 23.8578 37.4574C25.1981 33.2264 33.8286 22.5413 36.3973 21.9347C36.9693 21.7993 38.2295 21.1831 39.1995 20.564C40.1681 19.9464 41.6272 19.2486 42.4424 19.0137C43.2577 18.7802 44.1503 18.3629 44.4266 18.0866C44.703 17.8102 44.9918 17.6472 45.0692 17.7245C45.1452 17.8005 45.8388 17.7218 46.6084 17.5477C48.3564 17.1525 49.5046 17.4206 49.7809 18.2897C49.9495 18.8217 50.3336 18.9612 51.6422 18.964C54.881 18.9709 58.3879 20.6428 62.5622 24.1649L64.4317 25.7429L65.8314 25.1128C66.601 24.766 67.1828 24.3887 67.1233 24.2754C64.3598 18.9322 51.8992 13.9095 45.3649 15.5054Z" fill="#7E839D"/>
<path d="M67.2103 15.6124C67.4521 15.904 67.8099 16.1416 68.0075 16.1416C68.9305 16.1416 74.9619 21.6839 74.9619 22.5322C74.9619 22.9136 79.2826 27.0893 79.4761 26.8958C79.5949 26.777 79.2826 26.3307 78.7825 25.9037C78.2836 25.4768 76.7527 23.7592 75.3806 22.0873C72.6143 18.7172 70.5168 16.7745 68.545 15.7589C66.9712 14.9464 66.6258 14.9091 67.2103 15.6124Z" fill="#7E839D"/>
<path d="M45.2377 19.7244C45.1673 19.9828 44.9296 20.7593 44.7085 21.4516C44.4874 22.1438 44.3064 23.205 44.3064 23.8088C44.3064 24.4141 44.1475 25.0068 43.9541 25.1257C43.7606 25.2459 43.599 25.612 43.5962 25.9395C43.5921 26.4839 41.109 29.1977 37.7168 32.3674C36.8601 33.1675 36.0836 34.4028 35.5572 35.8025C34.6991 38.0851 34.6673 38.1059 32.2589 37.9953C30.8053 37.929 27.7461 39.1311 27.7461 39.7695C27.7461 40.0403 28.0528 39.9809 28.6346 39.5995C29.4761 39.0482 34.1298 38.6157 34.5623 39.0482C35.506 39.992 34.8953 41.3115 33.2386 41.9112C30.2816 42.9835 27.8442 46.2513 28.6304 48.0904C28.8598 48.6279 28.9717 48.5312 29.3116 47.5004C30.1573 44.9373 32.0212 42.8619 34.1547 42.1116C34.6977 41.9195 35.6318 43.818 35.9924 45.8423C36.0339 46.0758 36.4954 47.0942 37.0163 48.1056C38.2543 50.5057 38.2668 52.6074 37.0577 55.1622C36.5589 56.2165 36.2384 57.1672 36.3448 57.2736C36.4511 57.38 36.6515 57.1672 36.7911 56.7996C37.0978 55.9913 39.777 53.0716 40.0036 53.2983C40.0921 53.3867 40.0423 53.7446 39.8917 54.0914C39.7425 54.4396 39.5794 54.9177 39.5297 55.1539C39.48 55.3916 38.6067 56.5426 37.5883 57.7116C35.4715 60.1462 35.5116 60.7445 37.6933 59.2743C38.5196 58.7175 39.5739 58.0584 40.0354 57.8111C41.413 57.0704 40.1998 58.3375 38.5086 59.4056C36.6404 60.5842 34.0883 63.0009 34.0883 63.5896C34.0883 64.239 34.1298 64.2238 36.2549 62.7785C39.0875 60.8523 42.1661 59.53 43.9541 59.4692C47.5839 59.3448 50.2963 59.501 50.2963 59.8326C50.2963 60.026 49.5433 60.1877 48.623 60.1904C46.6734 60.1987 41.0109 61.0789 40.2772 61.4893C40.0009 61.6441 42.3816 61.7145 45.568 61.6454C48.7543 61.5777 51.6325 61.6261 51.9641 61.7532C53.1234 62.1981 51.6422 62.6403 48.9754 62.6458C47.5107 62.6486 46.4205 62.802 46.4205 63.0037C46.4205 63.1971 46.6678 63.356 46.9718 63.356C47.2744 63.356 48.4241 63.7706 49.5267 64.2777C51.6587 65.2601 53.9787 66.15 54.9224 66.3489C55.2375 66.4153 56.2351 66.7206 57.1374 67.0274C58.0397 67.3341 59.1589 67.5842 59.6246 67.5842C60.4799 67.5842 61.1072 68.1051 60.6084 68.3995C60.2878 68.5901 55.2154 67.7735 53.4909 67.2554C52.8249 67.055 52.2183 66.9541 52.1437 67.0288C51.971 67.2015 55.6686 68.2889 56.4286 68.2889C57.1139 68.2889 57.1733 68.8485 56.5142 69.1014C56.2517 69.2023 54.758 69.1304 53.1966 68.9411C49.8431 68.5362 46.8917 68.6578 48.0068 69.1553C48.3937 69.3294 49.2904 69.8309 49.9979 70.2717C50.7053 70.7125 52.409 71.6466 53.7853 72.3471C55.9518 73.4511 57.4179 74.8177 55.67 74.102C54.9183 73.7952 52.912 73.2107 52.0221 73.038C51.0038 72.8432 50.8615 73.5258 51.8674 73.7786C52.3593 73.9016 52.7628 74.1241 52.7628 74.2733C52.7628 74.4225 53.5946 74.8951 54.6129 75.3234C58.7292 77.0589 60.5711 79.1398 57.154 78.1961C56.423 77.9944 55.6935 77.9087 55.5332 78.0082C55.3743 78.1063 54.9114 78.0096 54.5038 77.7912C54.0975 77.5743 53.5324 77.4845 53.2491 77.5936C52.3966 77.9211 53.2326 79.0652 57.2162 83.0267C59.228 85.0275 60.788 86.8058 60.6816 86.9771C60.2007 87.7551 52.7835 80.9416 52.2363 79.22C52.0456 78.6175 51.3534 78.1809 51.3534 78.6617C51.3534 79.3554 53.332 84.1224 53.8585 84.6959C54.2247 85.0952 54.5411 85.5719 54.5632 85.7529C54.5839 85.9339 55.4599 86.8625 56.5087 87.8173L58.4169 89.5527L59.6536 88.9627C60.3348 88.638 61.0989 88.3727 61.3545 88.3727C61.6101 88.3727 62.5649 87.9762 63.4755 87.4912C64.3861 87.0075 65.3215 86.5999 65.5537 86.5875C66.905 86.5129 69.7445 83.6858 72.2552 79.9164C74.8501 76.0184 75.7911 68.2392 74.0805 64.8318C73.5955 63.8673 73.1989 62.8766 73.1989 62.6292C73.1989 62.3833 73.0994 62.281 72.9764 62.404C72.8535 62.527 72.4583 62.4676 72.0949 62.2741C71.2437 61.8182 71.2092 60.8385 72.0534 61.1107C72.3933 61.2199 71.9802 60.8979 71.1373 60.3949C70.2931 59.892 69.2139 59.4802 68.7372 59.4802C68.2508 59.4802 67.9676 59.3268 68.0892 59.1279C68.3683 58.6788 70.0665 58.6733 71.2382 59.1196C71.7356 59.3075 72.1419 59.3268 72.1419 59.1597C72.1419 58.5061 70.376 57.753 68.6598 57.6743C67.6277 57.6273 66.8567 57.4256 66.8567 57.2031C66.8567 56.9889 66.3413 56.5191 65.7112 56.1599C64.1968 55.2949 62.2761 53.4682 62.2761 52.892C62.2761 52.2067 62.7542 52.3324 63.8956 53.319C64.9775 54.2544 68.2315 55.6251 69.2485 55.574C69.5801 55.5574 68.9542 55.1222 67.8584 54.6054C65.5661 53.5249 64.5312 52.6723 63.8002 51.256C63.0237 49.7541 63.5363 49.6822 65.0134 51.0847C66.3192 52.3241 68.074 53.301 67.2905 52.3531C66.21 51.0446 66.2459 49.5053 67.4356 46.091C68.8187 42.1268 68.874 41.3005 67.8391 40.1978L67.0584 39.3674L67.9192 36.8277C68.3918 35.4308 69.0619 33.6967 69.4074 32.9754C70.0872 31.555 71.4938 24.975 71.2147 24.5218C70.604 23.5339 66.7793 25.4048 63.7311 28.1835C62.6907 29.1327 61.378 30.147 60.8142 30.4385C59.5942 31.07 58.7623 30.7563 59.7005 30.0198C60.0515 29.7449 60.18 29.5417 59.9866 29.568C59.1644 29.6758 58.714 29.4754 57.6155 28.511C56.7422 27.7441 55.9767 27.4429 54.5204 27.295C53.4564 27.1872 51.5952 26.9662 50.3834 26.8045C49.1702 26.6428 47.9404 26.6428 47.6489 26.8059C45.7517 27.8684 44.4709 28.2139 45.1244 27.4885C45.4781 27.0974 46.1994 26.5972 46.7273 26.3789C48.0164 25.8442 48.1007 24.3256 46.9926 21.6022C46.1511 19.5337 45.4809 18.8166 45.2377 19.7244ZM46.7369 28.6699C49.4659 29.1949 48.746 32.0372 45.4933 33.5806C44.0163 34.2812 44.3299 35.2415 46.2423 35.8716C47.899 36.4187 47.8271 37.0378 46.1234 36.8747C44.2926 36.7006 44.5206 37.5559 46.9179 39.8552L48.7004 41.5644L46.7701 40.5681C45.3427 39.8331 44.6256 39.1822 44.0176 38.0755C43.0974 36.3952 42.4894 36.2101 41.6839 37.3611C40.9225 38.4485 40.9985 40.7519 41.8414 42.1351C42.7105 43.5624 42.7105 43.6025 41.8317 43.3717C40.7926 43.1009 39.7259 41.5768 39.7259 40.3623C39.7259 39.4669 39.6471 39.3757 39.1981 39.7488C37.7141 40.9799 39.5698 46.091 41.5001 46.091C41.6866 46.091 41.84 46.2541 41.84 46.453C41.84 46.9463 39.7743 45.8672 38.5804 44.7521C38.0485 44.2533 37.6118 43.5666 37.6118 43.2266C37.6118 42.8867 37.4529 42.5109 37.2595 42.3907C37.066 42.2719 36.9071 41.7647 36.9071 41.2646C36.9071 40.7644 36.6529 40.1688 36.342 39.9422C35.8598 39.5899 35.9758 39.4683 37.1351 39.1062C39.9967 38.2123 43.3502 33.5364 40.9267 33.821C40.1943 33.9067 39.882 34.1858 39.6831 34.9375C39.3293 36.2709 36.5548 37.9207 36.5548 36.7987C36.5548 36.2336 38.5141 33.3582 39.2091 32.9022C39.6872 32.5899 40.0783 32.1381 40.0783 31.9004C40.0796 30.614 43.3986 28.0301 44.7237 28.2843C45.2695 28.388 46.1746 28.5621 46.7369 28.6699ZM58.5855 31.4527C60.5365 33.2006 60.1565 33.6483 58.1143 32.0082C57.3985 31.4334 56.4963 30.9332 56.1094 30.8959C53.817 30.6775 52.5044 31.327 54.3172 31.7816C55.3273 32.0358 57.9803 35.2442 58.2552 36.5445C58.3616 37.0474 58.6546 38.1321 58.9047 38.9556C59.4449 40.7326 59.2349 40.8196 57.8628 39.3867C57.3018 38.8009 56.6289 38.4029 56.3691 38.5024C56.1094 38.6019 55.9684 38.566 56.0555 38.4237C56.1425 38.28 54.6848 38.1197 52.8153 38.0672C46.6872 37.8931 46.5407 34.5188 52.5154 31.1321C55.4751 29.4547 56.4106 29.5044 58.5855 31.4527ZM68.1983 31.7954C67.7175 32.1975 66.7282 33.0017 65.9986 33.582C65.269 34.1637 64.2037 35.3534 63.6303 36.2253L62.5884 37.8102L62.8067 36.5776C63.2848 33.8749 63.7367 33.3471 67.531 31.0589C69.0274 30.158 69.5152 30.6955 68.1983 31.7954Z" fill="#7E839D"/>
<path d="M43.5243 30.4315C42.6496 30.9069 41.6161 32.2416 41.9021 32.5277C42.6883 33.3139 43.925 33.0099 44.6393 31.8548C45.7558 30.0488 45.2998 29.4685 43.5243 30.4315Z" fill="#7E839D"/>
<path d="M52.6521 34.3946C51.519 35.5774 51.4472 36.4147 52.4324 36.9426C53.7243 37.6335 55.2719 35.5097 54.5119 34.0879C54.0269 33.1828 53.7727 33.2257 52.6521 34.3946Z" fill="#7E839D"/>
<path d="M48.8867 22.327C48.8867 23.087 49.7351 25.6543 49.9852 25.6543C50.444 25.6543 50.3638 24.8474 49.7628 23.4076C49.2888 22.2704 48.8867 21.7757 48.8867 22.327Z" fill="#7E839D"/>
<path d="M12.6994 4.26868C12.64 4.9039 12.6348 5.91872 12.6813 6.52812C12.7691 7.61782 9.33218 11.0186 8.14178 11.0186C6.65184 11.0186 7.7622 12.2245 10.0991 13.1438C12.1778 13.9597 12.7485 14.5691 13.11 16.3715C14.303 22.2771 15.4365 22.5947 15.4365 17.0223C15.4365 13.371 15.5682 13.0508 17.7425 11.393C20.5597 9.24203 20.6191 8.66361 18.0678 8.15492C16.6424 7.86829 15.78 7.10912 14.9821 5.43842C13.7813 2.91818 12.8621 2.44821 12.6994 4.26868Z" fill="#7E839D"/>
<path d="M75.3184 42.7052C75.3156 42.8779 75.6279 44.0772 76.0134 45.3706C76.3975 46.6639 76.8936 49.8516 77.1133 52.4548C77.4864 56.8833 77.5789 58.699 77.7226 64.3835C77.8194 68.2635 78.1441 66.5114 78.4481 60.4593C78.788 53.7012 78.6332 52.4134 76.6794 45.7381C76.0549 43.6005 75.3308 41.988 75.3184 42.7052Z" fill="#7E839D"/>
<path d="M35.4972 52.1489C35.0191 52.7901 34.6653 53.434 34.7109 53.579C34.7565 53.7241 34.6391 53.843 34.4484 53.843C34.132 53.843 32.7129 56.2541 32.7875 56.6617C32.8608 57.0555 31.841 60.3925 31.5218 60.8056C31.3325 61.0502 31.0438 61.9704 30.8793 62.852C30.7135 63.7336 30.3322 64.9744 30.0309 65.6114C29.3718 66.9986 29.4147 73.6034 30.0834 73.8259C30.462 73.9503 31.3077 70.442 31.9709 65.9983C32.1146 65.0296 32.5609 63.3301 32.9616 62.2233C33.3623 61.1151 33.7644 59.7403 33.8556 59.1669C34.0118 58.1679 35.4792 54.1414 36.2626 52.5565C36.9217 51.2218 36.3967 50.9427 35.4972 52.1489Z" fill="#7E839D"/>
<path d="M7.95276 63.9832C2.83474 67.3574 5.6328 76.5958 10.9981 74.0368C12.2265 73.451 12.583 72.7684 11.8852 72.3373C11.6876 72.2157 11.6144 71.9752 11.7194 71.8039C11.8258 71.6312 11.678 70.9293 11.3919 70.2425C10.6596 68.4905 11.5191 68.5568 12.3454 70.3144C14.2038 74.2662 18.1888 78.8592 19.7585 78.8592C20.5502 78.8592 21.4041 79.2447 21.4041 79.6012C21.4041 79.7753 21.0076 79.9162 20.524 79.9162C19.9644 79.9162 19.6424 80.1152 19.6424 80.4606C19.6424 80.7826 19.8939 80.9622 20.2587 80.9C20.5986 80.8434 20.8376 80.9898 20.792 81.2247C20.745 81.4596 20.9274 81.5688 21.1955 81.4651C21.4636 81.3629 21.8974 81.5826 22.16 81.9557C22.4225 82.3274 24.4868 83.8362 26.746 85.3092C31.4136 88.3504 31.5904 88.5301 30.4864 89.1145C25.1902 91.9223 27.1426 100 33.12 100C35.2286 100 38.6319 97.3374 40.1283 94.5158C40.5857 93.6564 41.0859 92.9531 41.242 92.9531C41.3981 92.9531 41.9121 92.0812 42.3833 91.0144C42.8545 89.9491 43.3768 89.0772 43.5412 89.0772C44.5997 89.0772 44.9258 82.174 43.9571 80.2755C43.6103 79.5929 43.3243 78.902 43.3215 78.7376C43.2967 76.5475 35.0517 73.3404 32.577 74.5577C28.078 76.7713 19.3191 75.7571 17.8544 72.854C16.8319 70.8229 15.4142 67.6131 15.4142 67.3243C15.4142 65.0775 9.98118 62.6443 7.95276 63.9832ZM29.3727 77.3669C29.5883 77.5092 29.8784 77.9859 30.0152 78.4267C30.1534 78.8674 31.0972 80.1359 32.1127 81.2454C33.127 82.355 34.5211 84.0117 35.2093 84.9264C35.8974 85.8398 36.5869 86.474 36.7402 86.3358C36.895 86.1963 36.9143 86.2681 36.7831 86.4961C36.6532 86.7241 36.7264 87.3072 36.9475 87.7922C37.684 89.4075 35.8062 92.5841 34.0983 92.609C33.8026 92.6131 33.1643 92.9268 32.6793 93.3054C30.7351 94.8267 30.7351 93.4823 32.6793 91.4594C33.8192 90.2738 34.0887 89.7363 34.0887 88.6544C34.0887 87.2174 33.9615 87.0184 31.0709 83.9537C27.8887 80.5781 26.5871 75.5319 29.3727 77.3669ZM35.3226 77.8215C36.6781 78.0052 37.8415 78.3147 37.9051 78.5082C37.97 78.7016 38.2173 78.8592 38.4536 78.8592C38.9787 78.8592 40.8896 80.8351 41.4879 81.9985C42.0738 83.1371 41.9564 87.4937 41.2904 89.2527C40.9974 90.0279 40.6658 90.9398 40.5539 91.2797C40.4406 91.6183 40.2084 91.896 40.0371 91.896C39.8658 91.896 39.7221 92.0936 39.7165 92.3368C39.6861 93.6826 35.4704 97.5115 34.0002 97.5267C33.0399 97.5377 33.2762 96.5 34.3235 96.1021C35.6528 95.5963 35.9803 95.1127 37.9009 90.8265C39.284 87.7438 39.2868 87.7618 36.6629 84.3392C35.3433 82.6189 33.9726 81.1708 33.6161 81.1197C33.2596 81.0686 32.863 80.9097 32.7345 80.7674C32.6074 80.625 32.7801 80.6085 33.12 80.73C33.4586 80.8516 33.7363 80.7978 33.7363 80.6098C33.7363 80.4219 33.5774 80.2685 33.384 80.2685C33.1905 80.2685 33.0316 80.0585 33.0316 79.8015C33.0316 79.5445 32.635 78.9614 32.1514 78.5068C31.0571 77.4788 31.0184 76.9413 32.063 77.2508C32.4983 77.3793 33.9657 77.6363 35.3226 77.8215Z" fill="#7E839D"/>
</svg>
