<svg width="100" height="100" viewBox="0 0 100 100" fill="none" xmlns="http://www.w3.org/2000/svg">
<path d="M48.9597 11.572C48.6957 11.9424 48.0653 13.0456 47.5584 14.0237C47.0515 15.0018 46.4138 16.2261 46.1416 16.7443C45.8687 17.2626 45.5315 18.1449 45.3926 18.7046C44.8922 20.716 43.0124 20.5308 40.8361 18.2562C39.5501 16.9117 38.5322 16.1123 38.1065 16.1123C37.8798 16.1123 38.0001 17.1822 38.2893 17.7419C38.4526 18.0579 38.927 19.3813 39.3429 20.6835C39.7597 21.9866 40.1723 23.1921 40.2601 23.3627C40.4014 23.6357 48.6315 23.8119 52.0792 23.6154C52.3644 23.5991 53.8835 23.6365 55.4562 23.6974C58.6594 23.8233 58.7195 23.803 59.1103 22.4845C59.2541 21.9996 59.7967 20.4561 60.3158 19.0555C61.6993 15.3235 61.2647 15.2049 58.042 18.4357L56.3815 20.101L55.0395 19.9938C53.4058 19.8622 53.3717 19.8305 53.1987 18.2846C53.1223 17.6022 52.9452 16.9044 52.8047 16.7338C52.6641 16.5632 51.9704 15.304 51.2636 13.9368C49.6202 10.758 49.5739 10.7101 48.9597 11.572ZM50.2075 18.1709C50.6763 18.5316 50.695 18.6063 50.4334 19.0953C49.8631 20.1603 48.3505 20.0767 48.3505 18.98C48.3505 17.8703 49.2855 17.4625 50.2075 18.1709Z" fill="#7E839D"/>
<path d="M41.242 25.7766C40.9609 26.0577 41.1315 26.2356 43.06 27.6857C45.3915 29.438 45.5898 29.7296 45.2534 30.9027C43.8651 35.7379 42.7318 38.3895 42.1794 38.0938C41.2671 37.6055 34.2832 30.4494 33.7674 29.4737L33.219 28.438L20.6395 28.4038C13.7206 28.3843 7.47669 28.3031 6.76506 28.2235C5.62287 28.0951 5.47015 28.1195 5.47015 28.4339C5.47015 28.7865 8.49297 32.0481 10.6092 33.9783C11.2136 34.5299 12.1023 35.374 12.5832 35.8533C13.0642 36.3325 14.4801 37.6494 15.7304 38.7802C18.6004 41.3757 18.494 41.1125 17.2162 42.4529C14.6231 45.1736 11.8091 46.3572 7.93649 46.3572C4.6001 46.3572 4.48393 46.4815 6.22159 48.1891C8.51246 50.4401 10.372 52.4686 10.9764 53.3768C11.3086 53.8756 11.7424 54.5288 11.9398 54.8269C12.424 55.5572 14.4639 55.6734 20.1448 55.2932C22.9352 55.1072 24.4276 55.0812 24.564 55.2177C24.7818 55.4354 23.4998 57.4167 23.0214 57.6003C22.8816 57.654 22.3024 58.3859 21.7329 59.2259C21.1643 60.0667 20.3852 61.1496 20.001 61.6321C18.9213 62.9904 19.1049 63.1301 22.036 63.1756C23.4064 63.1967 24.785 63.2203 25.0978 63.2276C25.5949 63.2382 25.7428 63.0814 26.257 61.9969C27.6129 59.1382 31.6243 55.9171 34.427 55.437C37.0501 54.987 37.0469 55.0779 34.293 58.7385C33.3092 60.0472 32.3636 61.3194 32.193 61.5655C32.0224 61.8117 31.6958 62.2032 31.4684 62.4364C30.4139 63.5119 25.6681 69.3854 25.6681 69.6128C25.6681 69.7712 25.9061 69.8492 26.2895 69.8167C26.6307 69.7883 27.7965 69.7184 28.8785 69.6616C33.3709 69.4244 32.9071 69.6242 35.4953 66.8134C39.0997 62.8986 41.6018 59.4144 43.4167 55.7823C44.6742 53.2655 44.9951 52.8561 45.3956 53.2566C46.394 54.2542 41.7708 67.1197 38.7196 71.8371C38.2403 72.578 37.739 73.3912 37.6058 73.6438C37.4726 73.8973 36.8909 74.6714 36.3141 75.3652C35.068 76.8632 35.0988 77.206 36.4847 77.2653C38.2752 77.3417 40.9934 77.1857 41.194 76.9956C41.3021 76.8925 41.5336 76.8088 41.7074 76.8088C41.8821 76.8088 42.5702 76.4717 43.2379 76.0598C45.1893 74.855 45.1779 75.5122 43.1778 79.4904C42.1429 81.549 42.1445 81.6229 43.2241 82.3694C44.2437 83.0746 47.9026 86.6409 48.9871 87.9862L49.7263 88.9033L50.3332 88.2152C51.5972 86.7806 55.4592 83.103 56.2886 82.5441C57.5153 81.7171 57.5494 81.5668 56.8248 80.1947C56.2301 79.0688 54.9799 75.9054 54.9799 75.5261C54.9799 75.2206 55.7452 75.353 56.2464 75.7454C57.8451 76.9964 59.2197 77.4302 61.5861 77.4302C64.7511 77.4302 65.0882 77.2296 63.8688 76.0703C60.5625 72.9305 53.9441 58.1723 53.9441 53.9406C53.9441 52.6595 54.7305 53.1226 55.6444 54.9415C57.5624 58.7563 60.5804 63.1862 63.9663 67.1579L66.0127 69.5584H68.9762C70.6058 69.5584 72.155 69.638 72.419 69.7355C74.3029 70.4293 74.5344 70.0483 73.1575 68.5218C72.6733 67.9848 71.9267 67.0896 71.4986 66.5323C69.7398 64.2431 68.544 62.7751 67.7195 61.8937C67.2402 61.3811 66.5017 60.3786 66.0777 59.667C65.6544 58.9546 65.2393 58.3721 65.1548 58.3721C64.9257 58.3721 63.2661 55.9009 63.2661 55.5605C63.2661 54.8375 65.5017 55.3395 68.2369 56.6759C69.8714 57.4752 72.4767 60.1699 73.2306 61.8417C73.5506 62.5542 73.8878 63.1383 73.978 63.1415C77.32 63.2325 79.9001 63.2041 79.9797 63.0757C80.2218 62.6833 75.7936 56.3558 74.8829 55.7928C74.7603 55.7165 74.6595 55.463 74.6595 55.2282C74.6595 54.7595 74.9601 54.7627 79.2169 55.2843C80.1853 55.4029 82.4209 55.4703 84.1845 55.4338L87.3918 55.368L87.867 54.5068C88.1278 54.0332 89.8297 52.1217 91.647 50.2598C93.465 48.3987 94.9232 46.782 94.8867 46.6675C94.8461 46.5383 93.7713 46.4896 92.0141 46.5367C87.668 46.6545 85.793 45.899 82.4802 42.6942L81.0829 41.3424L81.4379 40.7421C81.6329 40.4123 81.8725 40.1426 81.9717 40.1426C82.494 40.1426 93.9248 29.226 93.9248 28.7272C93.9248 28.4623 89.4406 28.3941 81.8067 28.5436C78.6336 28.6053 67.4538 28.3868 67.2467 28.2592C66.7446 27.9481 66.1792 28.373 65.6837 29.4331C64.9802 30.9392 57.4934 38.2782 56.6607 38.2782C55.9401 38.2782 53.5396 29.5379 54.1212 29.0294C55.0408 28.2243 56.3504 27.2438 56.854 26.983C57.4284 26.6865 57.759 26.1568 57.5657 25.8433C57.4373 25.6361 41.4475 25.5711 41.242 25.7766Z" fill="#7E839D"/>
</svg>
