<svg width="100" height="100" viewBox="0 0 100 100" fill="none" xmlns="http://www.w3.org/2000/svg">
<path d="M64.2145 8.5942C64.2145 8.83833 64.4511 9.18161 65.8383 10.9532C66.7072 12.0625 68.4723 15.6441 68.6341 16.6253C68.7145 17.1163 68.8651 17.7318 68.969 17.9937C69.4974 19.3322 69.7173 20.3087 69.5844 20.7268C69.5031 20.9831 69.5966 21.4387 69.7921 21.7398C70.5507 22.9091 70.3327 31.0683 69.519 32.0018C69.3207 32.229 69.1289 32.6902 69.0915 33.0269C69.055 33.3636 68.7202 34.0221 68.3488 34.4898C67.9775 34.9575 67.5117 35.5692 67.3152 35.8498C66.5202 36.9807 62.7226 39.3416 61.6984 39.3416C61.4991 39.3416 61.0782 39.5099 60.7639 39.7167C60.1775 40.1011 58.8006 40.045 57.1787 39.5707C53.6738 38.5474 48.0486 38.6906 41.8377 39.9617C41.0885 40.1142 40.7041 40.0356 37.9859 39.1732C35.4838 38.3791 32.2399 35.5393 31.4617 33.4628C31.2241 32.8258 30.821 31.8465 30.5675 31.2853C30.2223 30.5211 30.1064 29.7297 30.1064 28.1359C30.1064 26.9648 29.9819 25.7339 29.8295 25.3999C29.6031 24.9033 29.6312 24.6488 29.9848 23.9931C30.3215 23.3674 30.3888 22.8557 30.2925 21.6538C30.1896 20.3751 30.2457 20.0206 30.6255 19.552C30.8762 19.2424 31.023 18.8365 30.9519 18.6513C30.5039 17.4849 33.6476 11.4358 35.6849 9.54453C37.0608 8.26682 35.8897 8.21257 33.8375 9.45848C30.7041 11.3629 25.3079 17.5541 24.7121 19.929C24.6354 20.232 24.4231 20.6043 24.2388 20.7568C24.0555 20.9092 23.9049 21.2235 23.9049 21.4555C23.9049 21.6875 23.6925 22.346 23.4334 22.9175C23.1734 23.489 22.9592 24.256 22.9564 24.6217C22.9536 24.9865 22.7852 25.5374 22.5841 25.8461C22.3821 26.1538 22.2287 26.7674 22.2437 27.2089C22.2586 27.6504 22.1613 28.699 22.0276 29.5399C21.834 30.7558 21.8527 31.2001 22.1202 31.7174C22.3615 32.1841 22.3961 32.5798 22.2409 33.1214C22.0884 33.6527 22.1258 34.1624 22.3681 34.849C22.5579 35.385 22.7123 36.0285 22.7123 36.2792C22.7123 37.9535 26.8064 43.0896 29.6293 44.9566C31.4692 46.1735 31.9182 46.6683 31.6067 47.1369C27.2395 53.6994 25.1723 61.2778 26.6745 65.2204C26.8747 65.7451 27.1272 66.5271 27.2366 66.9564C27.6641 68.6363 28.2768 68.8421 28.6416 67.4269C29.0428 65.8676 31.5375 63.2495 31.5375 64.3869C31.5375 64.6629 27.4387 72.9455 26.7334 74.0951C25.6344 75.8863 25.9458 79.9458 27.246 80.7792C27.608 81.0112 28.519 81.9765 29.272 82.924C30.8032 84.8509 31.1334 85.0342 32.4233 84.6713C37.0243 83.3758 40.6012 85.2007 40.6012 88.843C40.6012 90.0431 40.7864 90.2685 41.3523 89.756C41.7563 89.3902 41.8433 89.4202 42.7366 90.2264C44.7579 92.0532 45.7663 91.781 46.768 89.1358C47.1787 88.0517 47.8372 86.6814 48.2309 86.0912C48.9306 85.0426 49.1663 83.8688 48.7323 83.6003C48.3488 83.3637 47.7792 83.7322 47.2797 84.5413C46.4238 85.9256 45.3547 85.8087 45.3884 84.3327C45.4136 83.2187 45.5539 82.983 47.7764 80.3172C48.9025 78.9674 49.8922 77.6748 49.9754 77.4447C50.2092 76.8002 50.9585 76.9414 51.2419 77.6832C51.3803 78.0442 52.2727 79.451 53.2267 80.8101C55.2677 83.7191 55.8626 85.3756 54.8655 85.3756C54.3333 85.3756 52.0398 83.1382 51.8602 82.4433C51.6441 81.6098 51.0969 81.1777 50.532 81.3947C49.8089 81.6725 49.9932 84.5338 50.7976 85.5216C51.1586 85.964 51.7498 86.6917 52.1118 87.1379C52.4738 87.585 53.0518 88.5783 53.397 89.3463C54.6045 92.0289 55.5539 92.3002 57.4555 90.5033C58.7276 89.3023 58.9568 89.2209 59.1364 89.9075C59.4572 91.1347 60.1597 90.2452 60.1597 88.612C60.1597 86.876 61.6609 85.2054 64.0012 84.3383C65.0582 83.9464 68.7174 84.0811 69.4582 84.5385C70.1372 84.9585 73.7552 81.8437 73.7552 80.8391C73.7552 80.6764 73.9844 80.1713 74.265 79.7185C75.4679 77.7702 74.6354 74.6891 71.4084 69.1564C70.242 67.1556 69.2271 64.748 69.5096 64.6517C69.8716 64.5263 70.9791 65.9135 71.6385 67.3165C72.3129 68.7504 72.7553 68.7009 73.3455 67.1276C75.3809 61.7081 74.1425 55.9013 69.446 48.8299C68.9297 48.0536 68.5088 47.237 68.5106 47.0172C68.5144 46.5935 70.5993 44.6432 71.6086 44.1194C72.5271 43.6424 75.9028 40.0244 76.06 39.3472C76.1367 39.0161 76.3836 38.5839 76.6081 38.3875C77.985 37.179 78.6668 29.4127 77.5229 27.9666C77.3994 27.8104 77.3274 27.381 77.3629 27.0125C77.4425 26.1913 77.1562 24.5927 76.8204 23.9838C76.6839 23.7359 76.4107 22.9848 76.2124 22.3142C75.7719 20.8185 74.772 18.6223 74.2659 18.0377C74.0592 17.7991 73.672 17.2482 73.4054 16.8133C71.4916 13.6929 68.5518 10.5407 66.3284 9.22557C64.7785 8.30892 64.2145 8.14055 64.2145 8.5942ZM47.7156 71.9737C47.9447 73.5928 45.813 76.817 44.2977 77.1416C43.9049 77.2258 43.2398 77.4447 42.8208 77.628C39.4404 79.1059 34.4474 78.7869 32.8198 76.9901C31.6647 75.7161 31.3532 73.3094 32.2062 72.2552L32.6375 71.723L35.9636 72.7959C42.8947 75.0314 42.8732 75.0314 43.7702 72.9727C44.5129 71.2675 44.6747 71.159 46.2526 71.2993C47.4752 71.4078 47.6463 71.4873 47.7156 71.9737ZM56.5997 71.7801C56.7026 71.9765 57.0215 72.6537 57.3077 73.2832C58.0373 74.8864 58.7389 75.3167 59.7977 74.8116C60.72 74.372 66.6287 72.3937 67.7651 72.1439C68.8913 71.8961 69.2234 72.2992 69.2234 73.9155C69.2234 76.2633 66.9841 78.7046 64.8403 78.6934C63.6692 78.6868 60.1466 78.0517 58.997 77.6402C58.4227 77.4344 57.6987 77.266 57.3873 77.266C55.8009 77.266 53.2127 73.2056 53.8095 71.6529C54.0031 71.1478 56.3256 71.2544 56.5997 71.7801Z" fill="#7E839D"/>
</svg>
