<svg width="100" height="100" viewBox="0 0 100 100" fill="none" xmlns="http://www.w3.org/2000/svg">
<path d="M46.881 8.94699C42.2855 9.70572 37.6507 11.5521 34.9393 13.705C34.4309 14.1079 33.4411 14.8735 32.7386 15.4066C27.0508 19.7194 20.7006 30.6936 19.4713 38.3332C19.308 39.3508 19.0946 40.3806 18.9976 40.6217C17.7335 43.7614 17.903 54.6717 19.3157 61.0943C24.1638 83.1452 41.167 95.6353 58.4937 89.8743C70.8306 85.7718 79.8999 72.5861 81.5437 56.3632C83.3346 38.6907 77.4049 22.9854 65.5411 13.9769C60.4757 10.1309 52.5872 8.00416 46.881 8.94699ZM39.2452 27.5062C39.313 30.3154 39.43 32.7995 39.5063 33.0268C39.5818 33.254 39.5233 34.2261 39.3746 35.1874C39.1897 36.3906 39.1389 37.8826 39.2121 39.9763L39.3191 43.0181L40.0062 43.1298C40.3844 43.1914 41.2502 43.5388 41.9304 43.9016C47.3462 46.7909 46.8663 51.5028 40.9282 53.7527C39.5302 54.2827 39.2205 54.788 39.2205 56.5435C39.2205 57.9801 39.2675 58.0394 40.7842 58.5131C47.5889 60.6383 47.478 67.1965 40.6024 69.2439L39.2999 69.6321L39.2814 75.3414C39.2598 82.1754 39.3831 81.8172 37.0537 81.8172C35.9391 81.8172 35.4708 81.7386 35.2898 81.5199C35.0741 81.2603 34.974 73.1222 35.1542 70.5433C35.1927 69.9957 35.128 69.9518 33.3872 69.3371C26.0957 66.7651 25.9493 61.3092 33.096 58.5046C35.9561 57.3823 36.2157 54.7626 33.5412 54.0123C29.9564 53.0071 27.4568 49.9152 28.2063 47.4141C28.6561 45.9136 31.3444 43.8908 33.9048 43.1267L34.9978 42.8009L35.0086 39.9662C35.0679 24.7139 35.1195 22.7004 35.4546 22.5009C35.6349 22.3938 36.5346 22.3268 37.4527 22.3522L39.1227 22.3992L39.2452 27.5062ZM51.6205 22.8228C51.8886 23.1464 52.0511 78.1399 51.7915 80.7365L51.6937 81.7186L50.0214 81.7748C47.3131 81.8657 47.5827 83.273 47.6181 69.22C47.6613 51.8347 47.6574 42.9927 47.6035 33.2301C47.5765 28.4913 47.6027 24.2047 47.6597 23.7033L47.7653 22.792L49.1402 22.6796C49.8959 22.6179 50.7031 22.5517 50.9327 22.5324C51.1622 22.5132 51.4719 22.6441 51.6205 22.8228ZM64.4711 22.7497C64.5243 22.8883 64.5882 27.4623 64.6129 32.9143L64.6575 42.8271L65.5411 43.0605C71.5539 44.6426 73.7299 49.024 69.9848 52.0073C68.9303 52.8469 66.6695 53.9846 65.6035 54.2103C64.6645 54.4106 64.4896 54.7426 64.6121 56.0967C64.7477 57.5864 64.8386 57.6881 66.6256 58.3398C74.1513 61.0843 73.8432 66.8807 66.0325 69.5073L64.6575 69.9695L64.6075 75.6388C64.5505 82.0637 64.6645 81.6778 62.7904 81.7841C60.109 81.935 60.2415 82.2971 60.166 74.6489L60.1183 69.7399L59.6376 69.5019C59.3734 69.3702 58.6709 69.0521 58.077 68.7933C55.9911 67.8866 54.258 65.8207 54.0053 63.9397C53.785 62.2975 56.0697 59.8981 59.1523 58.5354C60.6097 57.8907 60.7014 57.7228 60.5396 55.9997C60.384 54.3374 60.3617 54.3081 58.7618 53.715C55.9079 52.6551 53.9522 50.3828 53.9522 48.1251C53.9522 46.8056 56.0966 44.685 58.7141 43.4163L60.3363 42.6306L60.2631 40.9614C60.2223 40.0433 60.1984 37.4798 60.2092 35.2652C60.2192 33.0506 60.2238 29.3625 60.2184 27.0694C60.213 24.7763 60.2646 22.8097 60.3332 22.6988C60.5242 22.3892 64.351 22.4362 64.4711 22.7497Z" fill="#7E839D"/>
</svg>
