<svg width="100" height="100" viewBox="0 0 100 100" fill="none" xmlns="http://www.w3.org/2000/svg">
<path d="M49.1282 2.96353C48.0997 5.42476 44.8774 14.3108 43.713 17.8944C42.3045 22.2347 42.3079 21.5653 43.671 24.9821C44.5139 27.0942 42.1521 27.6996 41.1015 25.6393C39.5948 22.6854 37.8958 20.4507 37.3942 20.7611C36.9137 21.0582 36.0995 23.1693 35.8863 24.6705C35.6499 26.3397 35.3528 26.7838 34.4723 26.7838C33.6096 26.7838 33.7322 27.0622 30.49 17.7696C29.5223 14.9979 26.1397 10.3925 26.3728 12.1644C26.428 12.5765 29.034 24.3844 29.6626 27.0655L30.026 28.6143H49.8551H69.6852L70.4795 25.0936C70.9158 23.1571 71.7764 19.515 72.3895 17.0007C73.5582 12.2119 73.7162 11.1271 73.1959 11.4486C72.8104 11.6861 69.5615 16.6119 69.5615 16.9588C69.5615 17.0979 69.3096 17.7497 69.0025 18.407C68.2337 20.0508 66.4628 25.1301 66.4628 25.6924C66.4628 27.5516 64.3363 26.8512 64.0513 24.897C63.8116 23.2543 62.993 21.5542 62.2507 21.1576C61.6266 20.8229 61.6509 20.7964 59.3244 24.3888C57.0167 27.9526 54.941 27.7283 56.5892 24.0939C57.062 23.0511 57.4486 21.9862 57.4486 21.7266C57.4486 20.634 54.3666 11.8297 51.3298 4.24827C50.3433 1.78593 49.7623 1.44569 49.1282 2.96353ZM51.3121 13.9662C51.7695 15.516 52.4455 17.7144 52.8134 18.8522L53.4839 20.9212L52.2655 23.7824C50.4438 28.0564 49.4938 27.9967 47.4391 23.4742L46.3841 21.1499L46.8205 19.6707C49.844 9.41266 49.9335 9.29888 51.3121 13.9662Z" fill="#7E839D"/>
<path d="M29.3363 32.0227C28.816 32.4039 28.9684 34.4851 29.9891 40.8757C30.3714 43.2739 30.6862 45.702 30.6873 46.2731C30.6895 47.4596 31.1148 48.7565 31.5003 48.7565C31.9146 48.7565 33.0624 44.6957 34.0676 39.6716C34.5493 37.2634 34.8807 37.3628 45.6944 43.1579C50.3407 45.6479 49.2824 45.7992 57.6515 41.4611C64.7734 37.7693 65.4992 37.5241 65.7521 38.7171C65.8228 39.0485 66.2128 40.8867 66.6193 42.8011C68.1504 50.0158 68.6464 50.6101 69.2153 45.9174C69.4109 44.3024 69.887 40.7265 70.2747 37.9692C71.2192 31.2484 71.6202 31.7565 65.5246 31.9609C62.8656 32.0504 60.4994 32.1211 60.2674 32.12C60.0354 32.1177 56.3104 32.0669 51.99 32.0073C47.6696 31.9465 43.8673 31.994 43.5392 32.1111C43.2111 32.2293 41.6126 32.2271 39.9854 32.1078C34.8299 31.7289 29.7936 31.6891 29.3363 32.0227Z" fill="#7E839D"/>
<path d="M26.254 45.1649C25.5823 46.0155 19.975 61.9836 18.403 67.5225L17.6562 70.1539L19.7353 72.4914C20.8797 73.7772 22.2098 75.3249 22.6914 75.9314C23.7596 77.2725 23.9088 77.1012 24.6412 73.68C24.9052 72.4439 25.2189 70.989 25.3382 70.4466C25.4564 69.9042 25.9524 67.6231 26.4407 65.3761C27.6072 60.0018 28.5805 56.2382 29.6244 53.0722C30.7081 49.7857 30.602 49.166 28.533 46.7037C26.8572 44.7097 26.6981 44.6026 26.254 45.1649Z" fill="#7E839D"/>
<path d="M71.3379 46.2913C69.2876 49.0287 69.0678 49.8892 69.8897 51.966C71.5655 56.1948 72.9165 61.4785 74.9381 71.7134C75.7335 75.7399 76.0107 76.6436 76.4504 76.6436C76.7929 76.6436 81.7695 71.266 82.2997 70.3237C83.0299 69.0257 74.0632 44.8121 72.8525 44.8121C72.6293 44.8121 71.9477 45.4771 71.3379 46.2913Z" fill="#7E839D"/>
<path d="M34.8422 51.3166C34.0546 51.7706 34.2645 52.3572 35.4907 53.1316C36.3424 53.6696 36.591 53.9833 36.4683 54.3688C36.2927 54.9256 39.2322 57.3603 40.4518 57.6663C41.2085 57.8563 45.5709 56.1153 46.923 55.0836C48.2012 54.1092 47.8687 53.7104 45.3964 53.2586C43.5748 52.9261 36.6274 51.4094 35.758 51.1553C35.526 51.0868 35.114 51.1597 34.8422 51.3166Z" fill="#7E839D"/>
<path d="M63.0596 51.4073C62.9944 51.4713 60.7276 51.9894 58.0211 52.5573C52.786 53.6564 52.0371 53.9061 52.2558 54.4772C52.4204 54.9058 58.4917 57.7758 59.2285 57.7725C60.5508 57.7669 63.7876 55.2217 63.7876 54.1867C63.7876 53.6255 63.9963 53.3162 64.5619 53.0433C65.3938 52.6412 65.5396 52.1706 64.9983 51.6293C64.6801 51.3112 63.3148 51.1543 63.0596 51.4073Z" fill="#7E839D"/>
<path d="M67.9718 58.5443C67.7331 59.1254 67.3675 59.9815 67.1609 60.4455C65.4995 64.1849 63.3652 70.7423 63.3652 72.1121C63.3652 72.6423 63.8027 73.2919 64.8676 74.3435C66.6296 76.0834 66.8715 75.9851 67.1664 73.4034C67.2725 72.4744 67.4702 71.2703 67.6061 70.7279C67.742 70.1855 67.9828 68.4743 68.143 66.9245C68.3021 65.3757 68.6158 62.7974 68.8389 61.1956C69.3592 57.4562 68.9439 56.1847 67.9718 58.5443Z" fill="#7E839D"/>
<path d="M31.3651 58.1631C31.0569 58.9629 31.8368 69.1028 32.2864 70.1644C32.451 70.5522 32.6775 71.7463 32.7913 72.819C33.0321 75.1023 33.1613 75.5166 33.6319 75.5166C34.1611 75.5166 36.9327 72.1042 36.7626 71.6613C36.6808 71.4481 36.4246 70.5477 36.1937 69.6629C34.6261 63.6534 31.8202 56.9745 31.3651 58.1631Z" fill="#7E839D"/>
<path d="M44.8868 68.4337C43.9721 69.0313 41.7926 70.7745 40.0439 72.3067C38.294 73.84 36.2349 75.5324 35.4661 76.0671C33.5991 77.3662 33.5395 78.5902 35.1755 82.05C35.9521 83.6916 36.3211 84.8946 36.4128 86.0799C36.7309 90.2103 38.4796 93.9221 38.9723 91.5138C39.3402 89.7132 40.014 79.8672 39.8472 78.7205C39.6871 77.6158 39.7279 77.5297 40.6923 76.9608C43.2287 75.4639 43.6926 76.4117 43.4551 82.6024C43.0122 94.1739 43.222 95.9105 45.1961 96.9886C47.7247 98.3695 47.548 99.0124 47.5369 88.4981C47.5259 77.8246 47.3414 78.6156 49.8435 78.6156C52.4749 78.6156 52.3246 77.7705 52.3655 92.7798C52.381 98.565 52.3975 98.5982 54.5981 97.1566C56.539 95.8851 56.4418 96.4385 56.4617 86.503C56.4804 77.3805 56.5964 76.362 57.615 76.362C58.6887 76.362 60.296 77.6114 60.1513 78.3339C59.7636 80.2649 60.7655 92.444 61.3278 92.6318C62.005 92.8571 63.1339 89.6734 63.2996 87.0686C63.4333 84.9874 63.6079 84.3665 64.6463 82.2798C66.3906 78.778 66.4988 77.5297 65.129 76.7277C64.5457 76.3863 62.3574 74.5713 60.2662 72.6945C54.1893 67.2429 53.4647 66.8441 52.0683 68.1785C50.8256 69.3661 49.3586 69.3716 48.1533 68.1929C47.0509 67.1158 46.8885 67.1269 44.8868 68.4337ZM53.3862 73.2766C54.6831 74.0599 55.8121 74.811 55.8961 74.9469C56.0562 75.2065 45.1398 75.1325 44.8791 74.8718C44.7078 74.7006 47.3127 72.6812 48.5764 72.0051C49.7452 71.3799 50.6367 71.6152 53.3862 73.2766Z" fill="#7E839D"/>
<path d="M27.735 72.1278C26.8788 73.8168 26.8512 74.4034 27.5891 75.275C28.2575 76.0637 28.6308 75.7577 29.603 73.6213C30.7297 71.1468 28.9523 69.7251 27.735 72.1278Z" fill="#7E839D"/>
<path d="M70.1602 71.7502C69.8332 72.4704 70.6363 74.6754 71.5841 75.6574C72.269 76.3689 73.2566 74.4489 72.786 73.321C71.7852 70.9228 70.8053 70.3362 70.1602 71.7502Z" fill="#7E839D"/>
</svg>
