<svg width="100" height="100" viewBox="0 0 100 100" fill="none" xmlns="http://www.w3.org/2000/svg">
<path fill-rule="evenodd" clip-rule="evenodd" d="M75.8954 6.22521C78.8388 10.0848 80.3678 26.9727 78.4381 34.3226C78.3722 34.5763 77.9055 36.4925 77.401 38.5811C76.8973 40.6698 76.2167 43.0373 75.8891 43.8416C75.3863 45.0781 75.3403 45.3679 75.5939 45.7118C75.7582 45.9356 76.335 46.7272 76.8747 47.471C77.4145 48.2147 78.216 49.2897 78.6565 49.8593C82.1649 54.4012 83.3257 56.4402 83.5297 58.4187C83.6552 59.6273 83.341 61.2187 82.9276 61.4741C82.7345 61.5932 78.717 57.2111 77.2385 55.2677C76.1978 53.9012 75.8683 53.4878 75.0343 52.5048C74.6886 52.0978 74.0649 51.1545 73.6488 50.409C72.0936 47.6217 67.3323 47.1767 63.4646 49.4585C57.4532 53.0031 55.7545 55.8147 52.7587 67.1822C52.4103 68.5054 52.2975 68.5461 49.2015 68.4549L46.9071 68.3872L46.2735 65.7407C45.9242 64.2848 45.5803 62.7946 45.509 62.4291C43.4943 52.1609 30.1366 43.4598 26.7066 50.1806C25.7688 52.0183 18.6608 60.7935 17.5587 61.475C17.1742 61.7124 16.6254 60.2917 16.6254 59.0623C16.6254 57.156 17.9306 54.5294 20.5517 51.159C21.2558 50.2546 22.3931 48.7373 23.079 47.7878C23.7641 46.8382 24.4059 46.0268 24.5034 45.9844C24.8211 45.8472 24.6929 45.1332 24.0782 43.6267C19.7728 33.0761 19.7105 15.7198 23.9474 7.0484C24.905 5.08973 26.9206 5.72878 31.9319 9.58113C37.4342 13.8108 38.7701 15.3678 39.5301 18.4412C39.7494 19.3275 40.0057 20.1561 40.1005 20.2825C40.3893 20.6715 41.0058 22.7403 41.2667 24.1953C41.4021 24.9553 41.7261 26.302 41.9861 27.1875C42.246 28.0738 42.6955 29.8863 42.9844 31.2158C43.2732 32.5454 43.8283 34.8723 44.2173 36.3869C44.6063 37.9015 44.9782 39.7112 45.045 40.408C45.1109 41.1049 45.4656 43.0762 45.833 44.7893C46.2004 46.5016 46.6092 48.5758 46.7419 49.3989C47.149 51.9371 47.6491 54.6783 48.2737 57.7996C48.6031 59.4459 49.105 61.975 49.3884 63.4219L49.9047 66.0512L50.5275 63.0401C50.8696 61.3847 51.1503 59.751 51.1503 59.4107C51.1503 59.0704 51.5556 56.9637 52.0502 54.7289C52.5448 52.4931 53.007 50.3025 53.0774 49.8593C53.1469 49.4161 53.5711 47.2552 54.0188 45.0583C54.4674 42.8604 54.8844 40.6608 54.9458 40.1706C55.0071 39.6805 55.2563 38.4755 55.4982 37.4917C55.741 36.5087 56.1643 34.6683 56.4387 33.402C56.714 32.1365 57.2501 29.9098 57.631 28.4538C58.011 26.9979 58.4678 25.171 58.6456 24.3939C58.8234 23.6167 59.2693 22.1662 59.6366 21.1698C60.004 20.1733 60.5329 18.5107 60.8127 17.4745C61.6585 14.3406 68.7368 8.01328 73.665 5.98602C73.7484 5.95172 73.8272 5.91912 73.9018 5.88825L73.9038 5.88744C74.6656 5.57232 74.9886 5.43869 75.2339 5.52531C75.4144 5.58907 75.5527 5.77217 75.7929 6.09003C75.8251 6.13266 75.8592 6.17771 75.8954 6.22521ZM73.554 61.9245C77.7476 66.0747 77.7539 66.0882 75.4901 66.2652C71.1422 66.6054 62.7976 72.643 56.2473 80.1907C54.9223 81.717 54.5649 82.0148 54.4511 81.6863C54.3726 81.4615 53.9944 80.5075 53.6117 79.5679C52.5764 77.0279 52.6477 76.4547 54.415 73.0871C56.2419 69.6057 58.2863 66.4827 59.8181 64.83C60.115 64.5105 60.3569 64.1594 60.3569 64.0501C60.3569 63.1376 65.621 58.7771 67.1942 58.3854C69.3145 57.8582 69.615 58.0252 73.554 61.9245ZM33.1973 58.9188C35.508 60.0119 39.0733 63.736 41.7126 67.8122C42.5728 69.1418 43.609 70.6852 44.0151 71.2431C44.9602 72.541 46.8367 76.9909 46.6941 77.5938C46.5244 78.3096 45.8835 80.0219 45.3654 81.1447L44.8952 82.1629L44.2841 81.3749C42.5421 79.1283 38.9822 75.5287 36.315 73.3146C34.6632 71.9444 32.95 70.521 32.5068 70.1518C30.2476 68.2662 25.7733 66.2011 23.951 66.2011C22.3931 66.2011 22.7379 65.4546 25.3906 63.0907C26.666 61.9534 28.2736 60.4135 28.9623 59.6698C30.3523 58.1678 31.2657 58.0063 33.1973 58.9188ZM22.2243 70.41C23.6387 71.3956 25.832 72.8976 27.0984 73.7478C35.4737 79.3729 42.821 85.3428 42.2785 86.082C42.2207 86.1605 42.2424 86.1741 42.3254 86.1118C42.4094 86.0495 43.4402 86.9305 44.6172 88.0687C45.7933 89.2068 46.9423 90.1402 47.1698 90.1411C47.3972 90.1429 47.8196 90.2078 48.1085 90.2855C48.5101 90.3929 48.3396 90.1194 47.3837 89.1247C46.0722 87.7591 45.6055 86.7545 46.1309 86.4259C47.4243 85.6172 52.8102 85.7155 53.6586 86.564C54.1109 87.0162 53.3382 88.6554 52.2343 89.5841C51.4147 90.2737 51.4707 90.3676 52.5313 90.0833C53.1396 89.919 54.2074 88.9668 56.8981 86.1849C59.8524 83.1305 63.239 80.1961 65.2184 78.9748C65.4233 78.8485 66.5109 78.0939 67.6347 77.2987C68.7593 76.5026 70.663 75.173 71.8652 74.3426C73.0675 73.5131 74.9061 72.2233 75.9505 71.4777C76.9948 70.7322 77.8577 70.2493 77.8676 70.4054C77.8811 70.6166 77.9163 70.613 78.0048 70.3919C78.1925 69.9243 81.3336 67.805 81.5972 67.9675C81.7272 68.0478 81.7642 68.0018 81.6793 67.8646C81.5945 67.7274 81.7344 67.5487 81.9907 67.4674C82.2462 67.3862 82.7796 67.0477 83.175 66.7147L83.8943 66.109L83.7951 68.1868C83.6642 70.9344 83.0603 71.9516 80.598 73.5718C79.6412 74.2018 78.6872 74.7172 78.4769 74.7172C78.2675 74.7172 77.7557 75.0115 77.3396 75.3707C76.9235 75.7299 75.8069 76.5188 74.8574 77.1236C73.9078 77.7274 72.8049 78.4441 72.4068 78.714C69.4354 80.7295 67.6645 81.986 64.9602 83.9979C63.2516 85.2688 61.283 86.7283 60.5871 87.2401C59.8912 87.7518 58.011 89.3395 56.4089 90.7684C51.0158 95.5793 49.2133 95.6768 44.359 91.4173C41.7514 89.1292 35.0323 84.0015 31.9319 81.9327C30.7919 81.1727 29.6013 80.3748 29.2845 80.1591C24.4384 76.8609 24.0855 76.6163 23.061 75.8401C22.6232 75.5079 21.5654 74.9068 20.7106 74.5042C19.8567 74.1025 19.1572 73.6828 19.1572 73.5736C19.1572 73.4635 18.8124 73.1611 18.3918 72.9003C17.1272 72.1195 16.3248 70.3513 16.2066 68.0857L16.1055 66.1668L17.8782 67.3925C18.8539 68.0668 20.809 69.4243 22.2243 70.41ZM73.4764 10.8998C68.698 12.8062 63.8058 19.1019 62.1838 25.4319C61.9455 26.3607 61.7794 26.6161 61.4067 26.6306C61.1458 26.6405 61.0447 26.6956 61.1828 26.7524C62.6965 27.3788 70.2577 23.4001 72.8752 20.5993C74.7112 18.6352 74.8628 18.1966 74.8303 14.939C74.7906 11.0407 74.5947 10.454 73.4764 10.8998ZM26.5911 20.1236C25.2462 18.8654 24.4682 12.5886 25.461 11C25.739 10.5541 26.6588 10.8448 28.1093 11.8376C28.7917 12.3052 29.5472 12.8025 29.7864 12.9433C30.0265 13.0841 30.4516 13.4136 30.7314 13.6763C31.0121 13.938 31.5257 14.2611 31.8741 14.3929C32.2604 14.5392 32.5068 14.8036 32.5068 15.0726C32.5068 15.3154 32.7216 15.7577 32.9843 16.0573C33.2479 16.3561 33.395 16.4446 33.3129 16.255C33.2307 16.0655 33.3345 16.1169 33.5439 16.3696C33.9871 16.9067 36.8529 22.7123 37.5524 24.4922C38.4271 26.7172 38.2736 26.8436 35.5324 26.1431C33.7759 25.6945 29.3874 22.7403 26.5911 20.1236ZM28.2212 42.1844C27.5127 43.3488 25.9412 37.081 25.4484 31.122C25.438 30.9956 25.4278 30.8775 25.4184 30.7674C25.3515 29.9906 25.3189 29.6104 25.4583 29.5305C25.5919 29.4539 25.8834 29.6527 26.4543 30.0421C26.5385 30.0995 26.6288 30.1611 26.7256 30.2266C27.1535 30.5154 28.9659 31.4623 30.7531 32.3288C32.5402 33.1962 34.2083 34.1385 34.4601 34.4228L34.9177 34.94L34.2299 35.4319C32.9699 36.3346 29.2087 40.5606 28.2212 42.1844ZM73.647 29.9883C73.9313 29.8411 74.1642 29.6417 74.1651 29.5469C74.166 29.4521 74.3222 29.3745 74.5126 29.3745C74.9874 29.3745 74.9549 29.9648 74.2824 33.6104C73.9656 35.3236 73.7066 36.9673 73.7066 37.2633C73.7066 38.4511 71.7208 42.7674 71.478 42.1085C71.1982 41.3512 68.2765 37.8076 66.8178 36.4564C66.6787 36.3276 66.5472 36.2086 66.4247 36.0979C65.8269 35.5573 65.4448 35.2118 65.4435 34.8649C65.4414 34.2503 66.6346 33.6316 69.9416 31.9167C70.3239 31.7184 70.7345 31.5055 71.1747 31.2763L72.2567 30.7127C72.9147 30.3699 73.4605 30.0857 73.647 29.9883Z" fill="#7E839D"/>
</svg>
