<svg width="101" height="100" viewBox="0 0 101 100" fill="none" xmlns="http://www.w3.org/2000/svg">
<path d="M50.115 11.8975C49.9541 12.0109 49.5144 12.0584 49.1383 12.0032C48.4688 11.9044 42.8953 12.5371 42.5483 12.7516C42.4518 12.8114 41.7011 13.0404 40.8792 13.2603C40.0572 13.4809 38.8086 13.9252 38.1039 14.2477C37.3991 14.5702 36.7488 14.8344 36.6584 14.8344C36.568 14.8344 36.2846 14.9938 36.0287 15.1891C35.7721 15.3837 35.0934 15.7414 34.5197 15.9827C33.9467 16.2247 32.9356 16.7679 32.2737 17.1892C31.6119 17.6105 30.6306 18.1643 30.0937 18.4194C29.1714 18.8568 27.3161 20.2394 25.9978 21.4712C25.6722 21.7753 24.7024 22.6355 23.843 23.3824C21.0976 25.7678 16.7129 31.3122 16.7129 32.3976C16.7129 32.488 16.5712 32.6795 16.3988 32.8228C16.0587 33.1047 14.5642 36.1672 14.5642 36.5816C14.5642 36.7203 14.3888 37.1975 14.1735 37.6425C13.9591 38.0868 13.7829 38.5464 13.7829 38.6629C13.7829 38.7785 13.4857 39.9038 13.1226 41.1624C11.7752 45.8305 11.2351 52.9 11.9774 56.1472C12.0999 56.6849 12.3428 57.8715 12.5174 58.7846C13.1272 61.9727 14.9273 66.8408 15.5914 67.0951C15.7247 67.1464 16.7566 67.033 17.8849 66.8438C19.8367 66.5167 28.7171 66.4279 31.7536 66.7052C33.8992 66.9005 37.763 67.4099 38.2977 67.5669C38.6194 67.6619 39.4107 67.7952 40.0557 67.8626C40.6999 67.9308 41.7547 68.146 42.3997 68.3406C43.0439 68.5359 44.0987 68.8454 44.7437 69.0293C45.8728 69.3518 55.1393 72.3063 57.3424 73.047C60.2662 74.029 62.3758 74.5775 64.4724 74.9008C65.4391 75.0494 66.6257 75.2562 67.1091 75.3596C67.9854 75.5473 74.4046 75.5021 75.7038 75.2991C80.604 74.5331 82.7297 73.957 85.6788 72.5966L87.1565 71.9148L88.5828 69.1097C90.6434 65.0559 92.3232 60.0439 92.0222 58.8451C91.9594 58.5954 92.0406 58.135 92.2014 57.8232C92.3998 57.4394 92.5561 56.187 92.6833 53.9617C92.9192 49.8214 92.789 48.2771 91.7112 42.4347C91.6078 41.8755 91.25 40.7326 90.9161 39.8954C90.5821 39.0574 90.101 37.7666 89.8482 37.0274C89.5947 36.2875 89.2699 35.4962 89.1266 35.2694C88.9826 35.0419 88.6617 34.3724 88.4135 33.7818C88.1645 33.1912 87.2407 31.6086 86.3598 30.2658C85.4789 28.923 84.6072 27.5794 84.4225 27.2806C83.9185 26.4671 80.2393 22.6983 79.1225 21.8527C78.5847 21.4459 77.7061 20.7764 77.1691 20.3658C76.6314 19.9545 75.5766 19.2321 74.8251 18.7603C74.0729 18.2892 73.238 17.7606 72.9691 17.586C71.3934 16.5626 64.5896 13.5912 63.1051 13.2779C62.6754 13.1875 61.8335 12.9784 61.2353 12.8137C58.6898 12.112 50.7393 11.4571 50.115 11.8975ZM58.905 18.6132C58.905 18.758 58.6484 19.5876 58.3344 20.4577C55.5759 28.0949 55.6954 36.3441 58.7036 46.071C59.8013 49.623 61.9545 54.4083 63.5655 56.8787C64.9374 58.983 65.0178 59.51 63.9316 59.2901C60.0617 58.5073 53.6923 58.269 49.7243 58.7578C46.2351 59.1875 42.5437 59.811 40.7949 60.2653C39.7945 60.525 38.889 60.7379 38.7833 60.7379C38.1728 60.7379 39.4758 52.7139 40.5758 49.7012C41.1281 48.1875 42.7727 44.3957 42.9903 44.1345C43.1243 43.9737 43.4576 43.4022 43.7318 42.8645C44.6296 41.1034 46.7422 38.5886 51.7397 33.3314C54.9685 29.9349 55.5905 28.8548 53.5536 30.1846C50.3057 32.3049 47.542 35.0243 44.3438 39.2458C42.4158 41.7905 42.1324 42.09 41.8888 41.8464C41.42 41.3776 42.7865 32.5646 43.5602 31.0686C43.705 30.7882 44.0213 29.8997 44.2619 29.0938C45.0754 26.3767 45.8161 25.3625 47.8239 24.2166C50.6497 22.6041 51.5881 22.0258 51.9887 21.652C52.2139 21.4413 53.4709 20.7848 54.7831 20.1919C56.0945 19.5983 57.4488 18.9418 57.792 18.7327C58.5236 18.2869 58.905 18.2463 58.905 18.6132ZM40.739 30.2505C40.739 30.3501 40.4762 31.5144 40.1553 32.8389C39.8335 34.1633 39.4796 36.0822 39.3686 37.1025C39.2575 38.1228 39.0874 39.6648 38.9925 40.5281C38.8163 42.1145 39.02 48.9972 39.2537 49.3756C39.3226 49.4874 39.0752 50.4993 38.7029 51.6239C38.0204 53.6844 37.5585 56.2851 37.3202 59.4035C37.1724 61.3354 36.9978 61.5928 35.7093 61.7889C34.9295 61.9068 33.7598 62.2899 28.2376 64.2363C27.002 64.6714 25.925 65.0299 25.8446 65.0314C25.3796 65.0429 25.938 60.5234 26.8695 56.737C27.192 55.4248 27.457 54.2283 27.457 54.0774C27.4639 52.2053 31.8815 41.3707 33.7881 38.5518C34.2309 37.8969 35.3769 36.1542 36.2815 34.7585C37.7538 32.4888 40.739 29.4699 40.739 30.2505ZM60.241 60.816C60.3382 60.8758 60.9342 60.9692 61.5654 61.0229C63.5961 61.1952 66.3967 61.5361 67.4354 61.736C68.9192 62.0225 70.488 62.1581 72.5784 62.1818C74.351 62.2018 74.4368 62.2224 74.4973 62.6461C74.5632 63.1141 73.3398 63.8495 72.4781 63.8587C72.2613 63.861 71.6025 64.0463 71.0127 64.2708C70.4236 64.4952 69.6775 64.7449 69.3558 64.8269C69.0333 64.9089 68.3171 65.2053 67.7632 65.4872C67.2102 65.7683 66.2979 66.1736 65.7364 66.3865C65.1749 66.6002 64.3966 66.9848 64.0075 67.2406C63.6183 67.4972 62.7068 68.0894 61.9814 68.5574C61.2567 69.0247 60.663 69.472 60.663 69.5517C60.663 69.6313 60.4846 69.7539 60.267 69.8229C60.0487 69.8918 59.3309 70.3813 58.6722 70.9106C57.17 72.1155 57.3163 72.1247 53.2335 70.5881C51.3575 69.8826 49.2563 69.1733 48.5638 69.0132C46.8441 68.6141 45.8943 68.2012 46.1371 67.9584C46.4994 67.596 54.3534 65.9675 55.5844 65.9997C55.9605 66.0096 56.5756 65.9254 56.9517 65.8128C57.9107 65.5255 60.3375 65.0406 61.7929 64.8453C63.5555 64.6094 64.1438 63.8977 62.8462 63.5722C60.9794 63.1034 48.4949 63.0804 46.697 63.5415C46.4818 63.5967 45.2071 63.7468 43.8643 63.874C42.5215 64.0011 41.1718 64.2248 40.8646 64.3711C40.4716 64.5573 40.1982 64.5779 39.9423 64.4408C39.6773 64.2991 39.2544 64.355 38.3973 64.6438C35.9835 65.4573 30.3863 65.9629 30.3863 65.3677C30.3863 64.9158 35.4504 63.1164 37.6136 62.8C38.097 62.7295 38.6684 62.5587 38.8837 62.4201C39.4291 62.0692 41.505 61.6924 43.2867 61.6211C44.1125 61.5882 44.9681 61.4649 45.188 61.3469C45.4086 61.2297 47.0655 61.0397 48.8702 60.9256C50.6757 60.8122 52.1725 60.6988 52.1978 60.6736C52.2951 60.5763 60.0763 60.7142 60.241 60.816Z" fill="#7E839D"/>
<path d="M21.0098 68.1771C17.0855 68.4537 16.2935 68.9186 17.0886 70.4767C17.6792 71.6349 17.8784 71.7307 19.1875 71.4932C20.9049 71.1822 26.3582 70.9608 28.2372 71.1263C33.1466 71.5583 34.2129 71.684 35.2914 71.9605C35.941 72.1267 36.6718 72.2631 36.9146 72.2631C37.1582 72.2631 37.876 72.4416 38.5102 72.6606C39.6784 73.0628 41.405 73.4994 43.1714 73.8395C44.0945 74.0172 46.4799 74.8813 46.892 75.187C46.9992 75.2666 47.7905 75.5746 48.65 75.8725C49.5094 76.1697 50.6516 76.6148 51.1893 76.8607C58.6427 80.2787 61.444 81.3564 64.5693 82.0083C65.6977 82.2435 66.9692 82.5131 67.3951 82.6073C67.8747 82.7138 68.3067 82.7062 68.5281 82.5882C68.7686 82.4595 69.1118 82.471 69.5745 82.6234C70.7809 83.0218 76.5644 81.8413 77.6337 80.978C77.7823 80.8585 78.2343 80.5843 78.6372 80.369C80.1187 79.5793 81.5205 78.5176 82.5063 77.439C83.9342 75.8771 83.8024 75.0429 82.2704 75.9407C81.9349 76.1368 80.8257 76.4922 79.8054 76.7312C78.785 76.9695 77.6529 77.2583 77.2905 77.3724C76.3851 77.6574 68.6583 77.7692 68.3358 77.5019C68.1887 77.3793 67.7383 77.3494 67.2197 77.4275C65.2917 77.7163 59.1421 76.1169 53.338 73.8165C50.1307 72.5457 47.2344 71.5851 43.962 70.7065C43.1025 70.4752 42.0033 70.1695 41.5199 70.0263C41.0366 69.8831 40.1135 69.6624 39.4693 69.5361C38.8243 69.4089 37.9725 69.222 37.5757 69.1193C34.8487 68.4161 25.3156 67.8738 21.0098 68.1771Z" fill="#7E839D"/>
<path d="M20.0579 73.0586C19.7032 73.2486 19.3715 73.4454 19.3225 73.4945C18.9479 73.8691 20.9135 75.9932 21.4689 75.8155C22.1407 75.5995 27.8145 75.683 29.3113 75.9312C31.3329 76.2651 35.0312 77.1407 36.148 77.5482C36.685 77.7443 37.4977 78.0017 37.9543 78.1197C39.0489 78.4023 42.0303 79.5582 43.4964 80.2683C44.1399 80.5801 44.9909 80.9409 45.3877 81.0711C45.7845 81.2006 46.7252 81.6273 47.4774 82.0195C48.2289 82.4117 49.24 82.8927 49.7234 83.0888C50.2067 83.2849 51.833 84.0471 53.3374 84.7832C63.5423 89.7731 66.6063 89.8811 73.2316 85.4834C75.306 84.1061 75.283 83.8173 73.1251 84.1406C67.3509 85.0046 61.5882 84.1367 56.1073 81.5759C54.7921 80.9624 53.0448 80.2722 52.8043 80.2722C52.6656 80.2722 52.1271 80.0462 51.6078 79.7689C50.3691 79.1101 44.182 76.58 43.1801 76.3226C42.7503 76.2123 42.1789 76.017 41.91 75.8875C41.4167 75.6508 40.4017 75.3283 37.906 74.6159C34.7983 73.7289 29.9877 73.0732 25.6 72.9391C23.773 72.8832 21.9246 72.8097 21.4919 72.7744C21.0031 72.7353 20.4593 72.8434 20.0579 73.0586Z" fill="#7E839D"/>
<path d="M23.2473 77.9415C22.6046 78.9818 32.3 86.0582 36.1485 87.3582C36.4702 87.4669 36.8287 87.6293 36.9444 87.7182C37.5273 88.1701 44.1963 90.3962 45.4265 90.5502C45.9098 90.6107 46.5809 90.7432 46.9179 90.8451C48.6813 91.379 57.3664 91.4081 58.6471 90.8841C59.8544 90.3908 59.5495 89.9818 57.4162 89.2334C56.7842 89.012 56.1798 88.7676 56.0726 88.6903C55.9646 88.6137 54.9542 88.1786 53.8258 87.7228C51.6266 86.8357 50.2761 86.2107 46.8919 84.5147C45.7099 83.9226 44.5234 83.3741 44.2545 83.296C43.9856 83.2179 43.143 82.8647 42.3808 82.5108C36.4978 79.7784 23.962 76.7849 23.2473 77.9415Z" fill="#7E839D"/>
</svg>
