<svg width="100" height="100" viewBox="0 0 100 100" fill="none" xmlns="http://www.w3.org/2000/svg">
<path d="M46.1757 1.00107C45.2186 2.77787 44.7298 2.94617 41.2987 2.66797C37.7451 2.38061 36.1709 2.44358 35.6259 2.89579C34.9093 3.48997 35.1989 3.65826 37.1978 3.80824C39.5642 3.98798 40.5167 4.39096 41.1636 5.48658C42.6473 7.99723 39.8916 9.69161 37.3123 7.85527C35.5985 6.63486 33.4175 6.55472 31.1359 7.62745C30.4547 7.948 29.4907 8.08424 28.2211 8.03959C24.8518 7.92282 23.6772 8.85472 23.3589 11.8989C23.2341 13.0929 23.0475 13.6642 22.7819 13.6642C22.0927 13.6642 19.1562 15.8864 18.4269 16.9579C16.9855 19.0805 16.9294 21.8132 18.2689 24.7578C19.0944 26.5735 19.044 26.8632 17.7091 27.9359C14.2425 30.7213 14.3833 35.9235 18.0125 39.1187C19.2294 40.1892 19.9301 41.1005 20.4396 42.2774C20.9799 43.523 21.3795 44.0233 22.0584 44.3038C22.846 44.63 22.933 44.7754 22.7441 45.4463C21.6954 49.1774 22.9342 52.5192 26.9228 56.7242C31.0924 61.1204 32.2647 62.6133 32.4788 63.8028C32.726 65.1743 33.0592 65.6071 33.7312 65.4308C35.0879 65.0759 36.0232 73.7687 34.9631 76.8678C34.4433 78.387 32.3505 81.849 30.2921 84.5944C26.972 89.0238 27.1529 89.6363 32.2887 91.3444C33.7805 91.8401 35.3374 92.3061 35.7473 92.3805C36.1572 92.4549 37.6661 92.9689 39.1006 93.523C40.5351 94.0771 41.8928 94.5305 42.1184 94.5305C42.3428 94.5305 43.6765 94.9312 45.0812 95.4212C46.486 95.9123 48.9371 96.645 50.5296 97.0503C52.122 97.4567 54.0694 98.0429 54.8582 98.3531C60.8149 100.701 62.4612 100.574 62.792 97.7418C63.3919 92.5968 63.7525 90.6323 65.0233 85.5721C66.665 79.0384 66.8482 78.624 68.8483 76.9594C74.1478 72.5448 75.2228 71.0886 75.2228 68.3261C75.2228 66.3306 75.4208 65.7914 76.7672 64.1108C77.5571 63.125 77.6201 62.8812 77.493 61.3379C77.4152 60.406 77.4438 59.4478 77.5548 59.2062C77.667 58.9658 78.0391 58.177 78.3825 57.4546C79.8285 54.4082 79.9041 53.8999 79.8285 47.6376L79.7564 41.7061L80.9871 40.4525C82.1617 39.255 82.2121 39.1313 82.0861 37.7438C81.8068 34.6664 81.6797 27.3715 81.9064 27.5123C82.2338 27.7149 83.9122 25.5775 84.4663 24.2518C85.0524 22.8493 84.8521 20.7268 84.0244 19.5648C83.6775 19.0759 83.3088 18.2608 83.2069 17.7525C82.9917 16.6717 82.5326 17.1125 82.5258 18.4085C82.52 19.4308 81.3592 19.4869 77.9967 18.6271C76.7408 18.3054 75.6681 18.0433 75.6143 18.0433C75.5594 18.0433 75.5147 18.634 75.5147 19.3564C75.5147 21.503 73.3853 20.1681 73.0041 17.7822C72.7808 16.3878 72.3103 16.2573 71.4494 17.3529C70.0286 19.1583 70.9594 21.6988 73.4734 22.8745C78.173 25.0749 78.8554 25.4928 79.0569 26.2907C79.1679 26.7315 79.2377 27.0933 79.2114 27.0933C79.1851 27.0933 78.4467 26.8208 77.5697 26.4865C75.7322 25.7881 69.6668 24.3193 67.4138 24.0262L65.8808 23.827V24.8769C65.8808 25.4539 65.9404 25.9255 66.0125 25.9255C69.4596 25.9255 80.0105 31.0018 80.6322 32.9583C80.9046 33.817 80.8932 33.8193 77.6178 33.5353C73.5078 33.1781 73.4712 33.1942 73.4712 35.3167C73.4712 37.6636 75.1518 44.8487 76.5508 48.4836C77.1038 49.9204 77.0957 49.9959 76.284 50.8706C75.4598 51.7601 75.2262 51.8105 75.4243 51.0561C75.5525 50.5649 75.3636 50.4768 73.8638 50.3302C67.0932 49.6674 67.0108 49.6502 65.9942 48.6645C64.744 47.4532 64.1269 47.8379 64.1338 49.8265C64.1407 51.8575 65.2637 52.7836 67.7183 52.7836C68.6227 52.7836 69.1551 52.9531 69.5203 53.3572C70.6067 54.557 72.5129 55.0058 73.3166 54.2513L74.0207 53.5896L74.6206 54.573C75.9715 56.7883 73.7127 57.7431 70.1408 56.4678L68.1236 55.7477L66.6994 56.3098C64.9878 56.9841 64.0342 57.0219 63.5453 56.4323C63.0668 55.8564 61.5338 55.8633 61.3117 56.4437C60.8847 57.5542 62.0811 58.1129 64.5677 57.9641C66.704 57.8359 67.0451 57.8954 68.5724 58.6613C70.427 59.5898 71.6142 59.7145 72.4671 59.07C73.3326 58.4151 73.7539 58.5342 74.1832 59.5554C74.8724 61.1925 73.5501 62.1256 70.5415 62.1256C68.388 62.1256 68.2964 62.5034 70.3377 62.9602C72.6102 63.4696 73.612 64.1932 74.2096 65.757C74.8324 67.3873 74.7786 67.4594 73.3143 66.9626C70.7258 66.0856 70.3125 66.0902 70.2083 66.9969C70.0068 68.7485 65.2374 69.8716 62.9729 68.7005C61.1526 67.7582 59.5475 64.1245 59.8337 61.5887C59.9436 60.6075 59.8349 59.9447 59.4342 59.1582C59.1308 58.564 58.7656 57.0505 58.6236 55.7957C58.3042 52.9703 57.9253 52.0715 55.8359 49.1728C52.5411 44.6037 51.0241 39.1817 52.5537 37.4415C53.0791 36.8428 53.3115 36.7214 53.3184 37.0409C53.3562 38.9447 55.1605 39.0512 59.8246 37.4244C62.3673 36.5371 64.4211 36.7329 64.4211 37.8617C64.4211 38.1514 64.6845 38.6265 65.005 38.9161C65.8362 39.6694 65.7274 40.3414 64.7131 40.725C63.5556 41.1612 63.5957 41.6912 64.7863 41.6832C68.1304 41.6615 70.5026 39.1222 70.7659 35.2847L70.9181 33.0556L69.7515 33.1667C68.2758 33.3075 63.005 32.2703 60.373 31.3201C57.8314 30.4042 57.6448 30.411 55.7306 31.4918C54.8582 31.9841 54.0866 32.3287 54.0168 32.2588C53.829 32.0711 55.797 29.5192 57.5211 27.7149L59.0209 26.1465L55.7856 26.3297C50.9383 26.6056 49.8644 26.1213 51.9549 24.6021C54.5445 22.7211 54.6178 16.8755 52.0522 16.8755C51.8622 16.8755 50.7322 16.4096 49.5439 15.8394C47.9308 15.0667 47.0813 14.8262 46.1952 14.8938L45.008 14.9831L46.0292 15.5647C47.5827 16.4485 50.7001 19.6071 50.7001 20.2975C50.7001 22.2792 47.8472 22.7337 46.9874 20.8894C46.7813 20.4486 46.447 19.7319 46.2455 19.2992C45.5289 17.7639 44.2386 17.3243 40.1172 17.211C35.7988 17.0919 35.4176 17.3758 38.6174 18.326C41.2036 19.0942 42.1825 19.8819 43.3365 22.1281C44.218 23.8442 45.6582 25.0497 46.826 25.0497C48.2364 25.0497 47.3125 25.779 45.7899 25.8671C43.7006 25.9896 42.4927 25.3554 41.562 23.6439C40.0886 20.9374 37.9866 19.8945 35.7622 20.768C35.0902 21.0325 34.52 21.2168 34.4971 21.179C34.4731 21.1401 34.1571 20.6157 33.7942 20.0135C33.002 18.697 31.3248 18.5172 29.1266 19.5144C27.4746 20.2643 27.4277 20.1818 28.1867 17.8692C28.8851 15.7421 28.8095 15.0735 27.7414 13.931C25.3601 11.3837 29.9189 11.2051 34.7902 13.6551C39.1567 15.8509 41.7452 15.6173 42.5889 12.9498C43.2438 10.8811 44.3898 10.5067 48.0235 11.1742C51.1352 11.7443 61.3873 11.2681 62.1383 10.517C62.6993 9.95606 61.3724 7.65836 59.8486 6.549L58.437 5.52207L58.2619 6.53412C57.836 9.01615 55.955 9.73282 55.955 7.41336C55.955 4.74472 53.1776 1.93756 49.1306 0.515656C46.9634 -0.246812 46.8374 -0.226205 46.1757 1.00107ZM50.8719 4.07041C51.8782 4.55697 53.6195 6.77911 53.6195 7.57822C53.6195 9.8141 50.1941 10.5949 48.1323 8.83068C44.605 5.81172 46.7516 2.0841 50.8719 4.07041ZM24.482 18.9923C24.3309 21.1813 24.3412 21.1653 23.4127 20.5573C22.4946 19.9563 22.419 18.5905 23.2582 17.7513C24.324 16.6855 24.6217 16.9866 24.482 18.9923ZM33.0077 25.9072C33.2389 27.6451 34.994 29.4059 37.3169 30.2313C39.2173 30.9068 39.0971 31.1815 36.9059 31.1735C33.6786 31.1621 31.5617 29.6383 31.2183 27.0795C31.0202 25.6015 30.7546 25.6244 29.999 27.186C28.6012 30.0722 29.9647 34.1455 32.623 35.0316C33.5881 35.3533 32.4181 35.8514 30.6974 35.8514C28.4134 35.8514 27.6509 36.5005 26.8679 39.1153C26.0253 41.9293 25.233 40.9871 24.8243 36.6848C24.4625 32.8851 26.4809 27.9576 29.0499 26.3629C29.5674 26.0423 30.4146 25.4951 30.9309 25.1482C32.4398 24.1327 32.7902 24.2609 33.0077 25.9072ZM39.3032 25.4527C39.7577 26.83 40.3965 27.3108 42.3966 27.7813C44.0944 28.1809 44.1138 28.1969 43.3102 28.5175C41.4795 29.2467 38.1629 28.8083 37.6157 27.7642C37.1165 26.8116 36.9059 25.3417 37.2688 25.3417C37.4531 25.3417 37.8023 25.1448 38.0427 24.9032C38.6941 24.2529 38.9426 24.3605 39.3032 25.4527ZM48.0659 29.7081C48.7436 30.9732 48.3383 32.2279 46.5867 34.2909C46.1562 34.797 45.7338 35.3877 45.6468 35.6041C45.5197 35.9235 45.4316 35.9143 45.1797 35.5594C44.6473 34.8061 44.8294 33.5628 45.7372 31.7643C46.2192 30.8094 46.613 29.6921 46.613 29.2811C46.613 28.4121 47.514 28.6777 48.0659 29.7081ZM42.3714 36.6871C42.479 37.1805 42.3554 38.0357 42.0657 38.8005C40.9941 41.6214 41.8905 44.6094 43.8082 44.6094C44.771 44.6094 45.7407 46.7606 45.2083 47.712C44.9553 48.1642 44.8637 48.1001 44.4882 47.2002C44.044 46.139 43.4487 45.7898 41.2403 45.2998C39.2379 44.8556 37.934 41.1737 39.2242 39.6065C39.4039 39.3878 39.7863 38.1994 40.0725 36.9653L40.5923 34.7225L41.3903 35.2904C41.8299 35.6029 42.2718 36.2314 42.3714 36.6871ZM47.3366 39.8618C47.4751 40.6002 48.0006 41.4451 48.9394 42.4365C51.355 44.9918 51.4271 45.2574 50.9932 50.0028C50.2731 57.8839 50.802 59.418 54.1301 59.0814C56.2195 58.8708 56.2973 58.9521 55.0368 60.0282C50.0877 64.2562 44.2524 59.2635 47.3893 53.4843C49.1111 50.3119 49.284 49.8116 49.2954 47.9833C49.3069 45.8779 48.8169 44.7331 47.4259 43.618C46.8993 43.1955 46.3039 42.7159 46.1059 42.5533C45.2484 41.8515 45.301 39.8331 46.1986 38.9344C46.8134 38.3196 47.0893 38.544 47.3366 39.8618ZM33.3523 39.9075C34.7135 40.5258 35.6866 42.1526 35.3935 43.3203C35.1577 44.2603 34.8681 44.2087 34.3952 43.1429C33.358 40.7982 29.3934 41.01 28.908 43.4348C28.5061 45.4486 26.308 45.5402 26.347 43.5436C26.4042 40.5303 30.2864 38.5154 33.3523 39.9075ZM30.4902 50.7378C31.2996 52.1563 32.7512 53.0115 33.5274 52.5272C34.8429 51.7063 36.9792 52.5112 36.9792 53.8289C36.9792 55.1947 33.4061 55.5015 31.3809 54.3109C30.3906 53.7281 28.6229 51.4259 28.3596 50.3749C28.0058 48.9667 29.6373 49.2449 30.4902 50.7378ZM39.9306 50.1883C40.6621 50.9198 42.3141 51.4304 43.1213 51.174C44.1001 50.8637 44.2134 51.8872 43.2884 52.684C41.175 54.5009 37.2196 52.4333 38.4423 50.1505C38.8361 49.4132 39.1635 49.4212 39.9306 50.1883ZM39.5001 64.6065C41.7303 68.9019 45.9525 74.7807 50.1792 79.4758C55.2154 85.0706 55.5108 88.1022 51.6572 94.6759C50.8833 95.997 49.6915 93.9684 49.3538 90.7525C49.0058 87.4416 47.0321 83.4713 44.0932 80.1638C41.4612 77.2032 40.1492 74.0755 39.0364 68.1097C38.527 65.3804 38.0427 62.8194 37.9591 62.4175C37.7554 61.4364 38.1297 61.9688 39.5001 64.6065Z" fill="#7E839D"/>
<path d="M60.2052 2.54422C59.9087 3.02391 60.3437 3.63411 61.3088 4.09434C64.2453 5.49449 66.4858 8.56726 65.9729 10.4895C65.5917 11.9171 66.1103 12.0201 67.3639 10.7677C68.2592 9.87124 68.4217 8.98627 67.9283 7.68802C67.0754 5.44526 60.9379 1.35816 60.2052 2.54422Z" fill="#7E839D"/>
<path d="M73.472 9.25769C73.472 10.2125 73.3644 10.4289 72.8481 10.5056C72.5058 10.5571 72.0375 10.8834 71.8085 11.2303C71.3998 11.8485 71.4159 11.8588 72.5504 11.7065C73.6495 11.5588 73.7502 11.6126 74.5058 12.7541C75.4663 14.2057 76.5299 14.3981 76.9844 13.2017C77.3072 12.3534 77.2866 12.3018 75.8407 10.3682C74.1738 8.14032 73.472 7.81175 73.472 9.25769Z" fill="#7E839D"/>
<path d="M54.1925 15.0358C57.1176 17.4022 56.9734 17.1469 57.0077 19.9895C57.0524 23.6084 59.373 24.5712 60.6449 21.4984C62.1664 17.8269 59.9683 14.6946 55.6602 14.3912L53.1816 14.2172L54.1925 15.0358Z" fill="#7E839D"/>
<path d="M67.6316 15.4159C67.3912 15.5716 66.7718 15.7009 66.2555 15.7032C63.4185 15.717 64.4157 19.7709 67.6602 21.4149C69.7415 22.4693 70.6998 22.3525 69.2584 21.2191C68.2716 20.4429 67.8205 18.8665 68.0048 16.8332C68.0907 15.8933 68.1399 15.1262 68.1147 15.1285C68.0895 15.1308 67.872 15.2602 67.6316 15.4159Z" fill="#7E839D"/>
</svg>
