<svg width="100" height="100" viewBox="0 0 100 100" fill="none" xmlns="http://www.w3.org/2000/svg">
<path d="M46.445 7.16441C46.2632 7.20077 45.071 7.35142 43.7957 7.49947C41.8078 7.73063 40.3879 8.03366 36.6209 9.03364C34.8582 9.50116 33.0236 10.1756 32.4262 10.5756C32.0617 10.8189 31.5292 11.0189 31.2427 11.0198C30.9561 11.0206 29.6107 11.6042 28.2514 12.3167C6.87341 23.5243 -0.987911 45.5888 8.69416 67.2083C9.19805 68.3347 10.4595 70.487 12.1235 73.0593C14.1547 76.2012 18.9546 81.3405 21.3874 82.9786C21.9943 83.3872 22.7389 83.9448 23.0428 84.2184C30.7803 91.1862 47.096 94.7022 59.9807 92.1793C67.8307 90.6417 76.1457 86.2565 82.4149 80.3466C83.9828 78.8687 83.9837 78.8791 82.1006 78.1648C81.3716 77.8886 80.3283 77.4791 79.782 77.2558C79.2357 77.0315 78.0929 76.648 77.2435 76.4021C70.3502 74.4082 70.8012 74.4904 68.5545 74.822C67.5043 74.977 65.9502 75.351 65.1009 75.6532C59.7183 77.5683 57.727 78.1666 55.7366 78.4653C52.7453 78.9146 47.6363 78.9033 45.5342 78.4427C42.5438 77.7882 38.62 76.5666 37.4088 75.9129C35.917 75.1086 35.6149 75.1095 33.9716 75.9294C31.9699 76.9276 29.4946 76.4445 28.3466 74.8324C27.7111 73.9398 27.7934 73.8134 28.5795 74.4749C30.5665 76.1467 33.2617 74.4575 36.6512 69.4161C37.1413 68.6879 38.0555 67.333 38.6824 66.4049C40.1299 64.2621 40.1222 64.0932 38.5248 63.0638C37.8131 62.6058 37.0538 62.0344 36.8365 61.7946C36.1794 61.069 35.9127 61.2855 35.4054 62.959C34.1794 66.9971 32.7595 69.771 31.6721 70.2524L30.6704 70.6957L29.0098 69.8412C28.0973 69.3711 27.002 68.6784 26.5761 68.3018C26.151 67.9261 25.5796 67.4672 25.306 67.2828C24.1467 66.4992 20.4178 62.6578 19.2775 61.0734C18.8593 60.4916 18.0559 59.3989 17.4914 58.6448C12.6872 52.219 9.40757 38.8954 11.5668 34.5734C12.4006 32.9025 14.507 30.9943 14.1079 32.2713C13.1729 35.2609 12.7071 38.04 13.101 38.2833C13.2188 38.356 14.5434 37.3431 16.0455 36.0331C23.9216 29.1605 32.9318 24.4524 41.9827 22.4793C42.555 22.3546 45.0104 22.1711 47.4389 22.0706C67.732 21.2334 83.3066 33.9864 87.2624 54.6795C87.7135 57.0379 87.9602 68.4551 87.6356 71.9C87.4234 74.1459 87.6338 74.2272 88.8364 72.3667C94.9073 62.9729 96.9315 50.4762 94.2164 39.1413C92.0502 30.0973 85.472 20.8958 77.4747 15.7227C76.4972 15.0898 75.4496 14.3885 75.1457 14.1625C74.2808 13.5193 71.8332 12.2275 70.6263 11.7764C70.0229 11.5505 69.1822 11.1894 68.7588 10.973C68.3346 10.7566 67.8221 10.5799 67.6195 10.5799C67.4177 10.5799 67.1338 10.4379 66.9892 10.2639C66.8446 10.089 66.3113 9.84834 65.8031 9.728C65.2948 9.60766 64.333 9.34186 63.6654 9.13667C58.8915 7.67176 49.3765 6.58174 46.445 7.16441ZM59.224 14.9963L59.9339 15.8794L59.3452 16.6517C58.682 17.5201 58.3989 17.5963 57.8976 17.0378C57.7071 16.8248 57.3894 16.5521 57.1928 16.43C56.8742 16.2344 56.9132 16.0907 57.5296 15.1608C58.3694 13.8942 58.34 13.8968 59.224 14.9963ZM38.5845 16.688C38.8468 17.7183 38.8884 17.7599 39.7854 17.8811C41.0234 18.0491 41.4312 18.4508 40.5715 18.656C39.8624 18.8248 39.1637 19.3486 39.1516 19.7209C39.1395 20.0828 38.0962 21.2914 37.9352 21.1304C37.859 21.0542 37.6313 20.6611 37.4287 20.2577C37.1387 19.6767 36.8893 19.4967 36.2313 19.391C34.9214 19.1824 34.8279 18.6897 36.0478 18.4222C36.9707 18.2196 37.278 17.7893 37.93 15.792C38.1144 15.224 38.2633 15.4283 38.5845 16.688ZM18.2455 64.8335C18.5433 65.4612 18.9849 65.9962 19.3476 66.1702C20.0134 66.4897 20.1511 66.8776 19.5987 66.8776C19.4048 66.8776 18.8862 67.2369 18.4481 67.675C18.0091 68.1139 17.6213 68.3867 17.5858 68.2819C17.3529 67.5919 16.5512 66.6118 16.0706 66.4291C15.3884 66.1694 15.4707 65.6932 16.2161 65.5867C16.9468 65.4828 17.3027 65.1495 17.3027 64.5694C17.3027 64.1313 17.4654 63.7867 17.6723 63.7867C17.7148 63.7867 17.9719 64.2577 18.2455 64.8335Z" fill="#7E839D"/>
<path fill-rule="evenodd" clip-rule="evenodd" d="M30.2196 33.0406C29.2776 33.1081 28.8551 33.3125 27.3495 34.4302C26.3781 35.1505 25.4743 35.7418 25.3409 35.7444C24.7686 35.7548 24.3461 36.5886 24.3989 37.6033C24.4691 38.9704 24.3496 39.0483 21.5315 39.469C18.6726 39.8959 18.5506 39.9738 18.8796 41.1643C19.2856 42.637 21.0215 45.8707 21.6137 46.2585C22.3531 46.7434 26.7418 46.7313 28.3963 46.2404C29.9027 45.7927 29.8629 45.7841 30.9365 46.7815C31.8663 47.6447 31.875 47.6672 31.875 49.1788C31.875 55.4584 37.7113 63.292 42.4272 63.3405C43.2505 63.3491 43.8817 64.214 44.6064 66.3257C45.2496 68.201 45.3994 68.936 45.7613 72.013C46.1154 75.0199 49.7275 76.316 50.7742 73.8121C51.1474 72.9178 50.8062 71.9983 49.8747 71.3879C49.2539 70.981 49.1777 70.5551 48.9777 66.4045L48.8435 63.6132L50.6807 63.0071C52.9491 62.2591 53.801 61.8366 58.3031 59.2289C63.2909 56.3397 64.9913 55.7493 64.9913 56.9068C64.9913 58.0626 66.3956 59.0003 69.186 59.7068L76.9573 60.3907C78.5633 59.8167 80.0334 61.3656 80.5139 64.1387C81.0784 67.388 82.4793 68.4209 84.1104 66.7898C85.0576 65.8426 85.0801 65.1075 84.2143 63.4037C83.6065 62.208 83.0948 60.0107 83.0948 58.5986C83.0948 57.6895 82.6169 57.286 80.5927 56.486C78.0127 55.4653 76.8032 54.1917 75.9149 51.5589C75.714 50.9649 75.1712 49.9225 74.7071 49.2412C73.7426 47.8247 73.5703 47.2464 74.043 47.0144C74.2249 46.9252 74.772 46.6655 75.2577 46.4378C79.481 44.4551 81.1105 38.8396 77.462 38.8396H76.3131L75.5062 40.147C73.676 43.1131 73.1002 43.314 66.206 43.3919C63.1697 43.4266 59.4944 43.5253 58.0373 43.6127C46.5726 44.2949 44.9163 43.7209 37.5918 36.5262C35.1122 34.0899 34.1693 33.3038 33.5079 33.1202C32.6629 32.8856 32.436 32.8796 30.2196 33.0406ZM28.3573 40.1565C28.9313 39.8491 28.946 38.392 28.3807 37.8803C27.1495 36.7669 25.7132 38.4872 26.6993 39.8941C27.0708 40.424 27.6777 40.5201 28.3573 40.1565Z" fill="#7E839D"/>
<path d="M60.7197 60.5937C58.705 61.3175 58.5942 61.3746 58.3604 61.811C58.0453 62.3997 58.0513 62.4109 59.2288 63.546C61.7846 66.0091 60.6937 70.932 57.4834 71.422C55.8245 71.6757 55.4168 72.5579 56.4713 73.6125C57.7206 74.8627 59.3249 74.5224 61.821 72.4783C62.7742 71.6974 64.1508 70.7536 64.8798 70.3814C67.1274 69.2307 67.1914 69.0558 65.8867 67.6394C64.5179 66.1546 64.3646 63.5391 65.5412 61.7607C66.4815 60.3409 66.3023 60.1469 64.0278 60.1253C62.5387 60.1106 61.7586 60.2214 60.7197 60.5937Z" fill="#7E839D"/>
</svg>
