<svg width="100" height="100" viewBox="0 0 100 100" fill="none" xmlns="http://www.w3.org/2000/svg">
<path d="M49.066 5.78319C48.7657 6.23746 48.5199 6.68926 48.5199 6.7869C48.5199 7.34874 46.4438 9.43477 43.0388 12.2937C42.0318 13.1393 40.9404 14.541 40.0583 16.1215C39.1224 17.7996 39.0653 22.8926 39.9656 24.4764C40.6309 25.648 41.3326 26.4887 42.1261 27.0655C42.5672 27.3857 43.6404 28.4639 44.5109 29.461C46.1484 31.3377 46.6201 31.643 46.6225 30.8304C46.6267 29.6248 48.4099 25.2111 49.2679 24.2869C50.5919 22.8587 53.162 27.3634 53.162 31.1109C53.162 32.2421 53.44 32.2826 54.121 31.2491C55.0238 29.8805 56.8061 27.7184 57.9008 26.6633C62.3145 22.4127 60.2773 14.5162 53.5509 9.80134C52.0648 8.75956 51.8653 8.5287 51.0577 6.92177C50.0044 4.82416 49.7843 4.69839 49.066 5.78319Z" fill="#7E839D"/>
<path d="M69.5159 17.3814C62.4403 18.0914 59.6294 21.7959 59.8346 30.1376C59.9463 34.6886 59.8644 34.5372 61.3853 32.9824C63.3141 31.0114 67.1353 29.6055 67.9371 30.5712C68.5975 31.3672 66.3749 36.5802 64.72 38.1143C63.5988 39.1528 63.7618 39.243 65.7526 38.6811C66.9963 38.3303 68.0853 38.2012 70.1489 38.1598C74.2714 38.0787 75.5481 37.5748 77.4654 35.2703C80.0239 32.1955 80.2051 31.6452 80.4028 26.3461C80.4897 24.0251 80.6585 21.6991 80.7785 21.177C81.0532 19.9821 81.0781 17.8647 80.8199 17.705C80.7123 17.6388 80.1811 17.7348 79.6383 17.9193C78.4178 18.3338 75.9221 18.242 74.2631 17.7223C72.7712 17.2548 71.6086 17.1713 69.5159 17.3814Z" fill="#7E839D"/>
<path d="M19.5081 17.5896C19.4361 17.7054 19.4345 17.8933 19.5048 18.0066C19.7241 18.3624 19.6529 26.057 19.4146 27.6813C18.7957 31.9071 21.0985 36.301 24.8659 38.0808L26.2519 38.7354L29.1042 38.5773C33.7843 38.3175 34.0383 38.3158 34.7475 38.5475C35.7776 38.8851 35.8207 38.5665 34.8765 37.5777C33.186 35.8061 31.9961 33.5687 31.5725 31.3618C31.1637 29.2328 36.2625 30.3664 38.6009 32.9241C40.0614 34.5227 40.0804 34.4979 40.0804 31.011C40.0804 27.5059 39.699 25.2527 38.8086 23.4977C36.6382 19.2213 30.9808 16.9706 25.1779 18.0745C23.897 18.3177 23.2557 18.3467 22.6458 18.1862C22.1965 18.0687 21.5188 17.923 21.1407 17.8635C20.7625 17.8031 20.4009 17.6698 20.3372 17.5664C20.1808 17.3132 19.6695 17.3281 19.5081 17.5896Z" fill="#7E839D"/>
<path d="M77.0055 37.3622C74.7126 37.7618 72.4875 39.2157 70.3692 41.6989C69.6096 42.5892 68.8045 43.4159 68.5794 43.5358C68.3552 43.6558 68.1111 43.9454 68.0366 44.1796C67.9622 44.4138 67.5253 44.7977 67.0652 45.0319C66.0449 45.5524 66.1715 45.8643 67.4045 45.8643C69.5542 45.8643 75.7635 47.8726 75.7329 48.5585C75.7097 49.0658 73.9315 50.3665 72.2633 51.0955C71.3208 51.5076 69.8968 51.8138 68.2493 51.9586C66.6068 52.1034 66.4446 52.3301 67.5873 52.882C68.0102 53.0864 69.0437 53.9792 69.8852 54.8671C74.4122 59.6449 74.8607 59.9039 78.3584 59.7483C80.7183 59.6432 82.1771 59.1302 84.3335 57.6474C86.2598 56.3226 86.9549 55.4769 88.93 52.0554C90.3566 49.5854 90.8977 48.9218 92.11 48.1522C93.2378 47.4373 93.2486 47.3347 92.2788 46.571C91.4745 45.9371 89.6673 44.1746 86.8349 41.2612C83.7427 38.0812 80.4279 36.7664 77.0055 37.3622Z" fill="#7E839D"/>
<path d="M20.8957 38.9197C18.1924 39.2697 15.5975 41.1083 12.9472 44.5522C10.9935 47.0909 9.37086 48.7251 8.04941 49.4847C6.68575 50.2691 6.67499 50.7011 8.00969 51.1222C8.9894 51.4317 9.52643 51.9282 14.3514 56.9914C16.4382 59.1809 17.077 59.6145 19.4022 60.4171C20.5838 60.8251 21.0298 60.8714 22.6202 60.7547C24.8452 60.5917 24.8957 60.7067 23.1886 62.053C20.1279 64.4684 18.5259 69.8369 19.7075 73.7169C20.5226 76.3937 20.7352 78.5087 20.3918 80.5219C20.2032 81.6241 20.525 81.8086 21.7935 81.3262C22.5515 81.0383 24.3181 81.0432 26.3653 81.3386C32.8253 82.2729 37.56 80.1372 39.4698 75.4273C39.9497 74.2448 40.4007 63.7998 39.9729 63.7998C39.8926 63.7998 39.1479 64.4295 38.3179 65.1998C35.7536 67.5796 31.8455 68.8705 31.8555 67.3339C31.8596 66.681 32.7152 63.458 33.0321 62.902C33.8339 61.4936 34.5795 60.5652 35.3556 60.0075C36.8566 58.9302 36.6183 58.7349 34.4893 59.2943C33.7926 59.4771 31.704 59.7527 29.8472 59.9066C27.9904 60.0597 26.1443 60.2467 25.7447 60.322C24.9015 60.48 25.1208 60.0108 26.1385 59.4796C26.4373 59.3232 27.2986 58.4519 28.0533 57.5433C28.8079 56.634 30.2701 55.0668 31.3027 54.0597L33.1802 52.2302L32.1467 52.0929C29.7488 51.7743 28.6805 51.4557 26.7211 50.4727C25.2341 49.7271 24.6681 49.3382 24.7161 49.0941C24.9089 48.1078 29.2117 46.2609 32.0102 45.963C33.666 45.7876 33.7388 45.6585 32.6358 44.8617C32.1467 44.5083 30.7492 43.3036 29.5303 42.184C28.1567 40.923 26.8733 39.9449 26.1543 39.6123C25.5163 39.3177 24.8287 38.9892 24.6276 38.8833C24.1998 38.6582 22.8072 38.6723 20.8957 38.9197Z" fill="#7E839D"/>
<path d="M64.9791 59.2401C64.9791 59.2857 65.4937 60.1942 66.1234 61.2592C67.5177 63.6191 68.5752 66.9 68.159 67.5735C67.9306 67.9434 65.8661 67.6819 64.8252 67.1507C64.3965 66.9322 63.9257 66.7535 63.7792 66.7535C63.6328 66.7535 62.7507 66.1379 61.8198 65.3865C60.8881 64.6344 60.1186 64.0882 60.1094 64.1735C60.1012 64.2579 60.0598 64.5102 60.0176 64.7337C59.7785 66.0104 60.3213 73.4617 60.74 74.6458C62.4636 79.5204 68.3055 82.3884 73.6748 80.9974C76.0877 80.3719 78.9648 80.3735 80.4609 81.0007C80.8398 81.1604 80.8498 81.038 80.7033 77.8109C80.5833 75.1514 80.6172 74.1924 80.8655 73.1887C81.8866 69.0696 80.7438 64.78 77.9098 62.0825C75.909 60.1793 74.9723 59.8525 71.0981 59.706C69.2992 59.6373 67.353 59.4917 66.773 59.3816C65.6137 59.1632 64.9791 59.1127 64.9791 59.2401Z" fill="#7E839D"/>
<path d="M53.518 67.8086C53.4593 67.9824 53.3558 68.8628 53.2897 69.7639C53.2144 70.7809 53.0075 71.7192 52.7444 72.2347C52.511 72.6923 52.3199 73.1813 52.3199 73.3203C52.3199 73.6224 51.1556 75.523 50.5574 76.1958C50.0104 76.8131 49.8325 76.7948 49.5264 76.0907C49.3873 75.7713 49.0646 75.178 48.8098 74.7717C48.1048 73.6497 47.2715 71.0415 47.0961 69.4081C46.8884 67.471 46.6973 67.4843 45.1963 69.5421C44.4946 70.5037 43.1094 72.1635 42.1173 73.2318C39.951 75.5644 39.649 76.1047 39.572 77.7952C39.3569 82.4886 41.3908 86.0194 46.3845 89.6255C47.8185 90.6614 48.7543 91.7653 49.5512 93.3614C50.5168 95.2944 50.6583 95.3267 51.6066 93.8298C52.0344 93.1546 52.7493 92.1997 53.1961 91.709C53.643 91.2191 54.0079 90.7318 54.0079 90.6267C54.0079 90.5224 54.7509 89.8514 55.6587 89.1364C59.2085 86.3404 60.6491 83.6868 60.9122 79.4593C61.1207 76.1089 60.4869 74.7179 57.2788 71.4867C56.0021 70.2008 54.6583 68.7759 54.2917 68.32C53.8052 67.7151 53.5975 67.5769 53.518 67.8086Z" fill="#7E839D"/>
</svg>
