<svg width="151" height="26" viewBox="0 0 151 26" fill="none" xmlns="http://www.w3.org/2000/svg">
<path d="M15.2267 0.510324C16.6026 0.644655 17.594 2.05137 17.7279 4.05942C17.7393 4.22936 17.7435 4.66222 17.7338 4.66222C17.7309 4.66222 17.6556 4.61855 17.5664 4.56521C17.0879 4.27881 16.4133 3.95213 16.0344 3.82324C15.6752 3.70112 15.2519 3.81086 14.7618 4.15318C14.3427 4.44588 13.9366 4.8376 13.1867 5.67263C12.542 6.39047 12.3022 6.64298 12.0718 6.84642C11.6144 7.25044 11.3266 7.3214 11.204 7.06049C11.0984 6.83596 11.093 5.91189 11.193 5.19821C11.5746 2.47651 13.4183 0.333746 15.2267 0.510324ZM7.53581 1.766C8.48356 1.91892 9.43654 2.46662 10.2877 3.3475L10.3399 3.40153L10.1293 3.45415C9.39574 3.63732 8.52668 3.96344 8.32822 4.13004C8.04893 4.36455 7.87897 4.77996 7.80435 5.41065C7.75248 5.84938 7.7554 6.4661 7.81446 7.52493C7.88202 8.73685 7.86847 9.19521 7.75634 9.49305C7.64061 9.80035 7.45094 9.82195 7.14099 9.56314C5.95385 8.5718 5.04716 7.04789 4.75993 5.56109C4.38668 3.62888 5.10687 2.09876 6.53568 1.78841C6.81283 1.72821 7.24185 1.71861 7.53581 1.766ZM21.3734 5.18214C23.8472 5.44425 24.5245 7.78133 22.7912 10.0746C22.6083 10.3167 22.1446 10.8356 22.1113 10.8356C22.1074 10.8356 22.0806 10.741 22.0516 10.6253C21.8747 9.91853 21.5614 9.07026 21.396 8.85032C21.1678 8.54699 20.6972 8.35739 20.0055 8.29012C19.6532 8.25584 18.814 8.25318 18.4281 8.28515C18.2987 8.29586 17.2844 8.34351 17.0669 8.34908C16.0734 8.37457 15.636 8.19958 15.8043 7.84393C15.8447 7.75862 15.8967 7.69054 16.07 7.4966C17.462 5.93838 19.6205 4.99639 21.3734 5.18214ZM4.17665 7.71942C4.19203 7.72584 4.17459 7.76111 4.06734 7.94034C3.76893 8.43919 3.4577 9.07999 3.32461 9.46982C3.20626 9.81625 3.3102 10.2419 3.62589 10.7038C3.93198 11.1517 4.35757 11.5921 5.28419 12.4195C6.20588 13.2426 6.52286 13.5764 6.66255 13.8711C6.77901 14.1167 6.7136 14.2774 6.4728 14.3372C6.18308 14.4091 5.26756 14.3975 4.68848 14.3144C2.69104 14.0281 0.95186 12.9589 0.282848 11.6061C-0.620198 9.77996 0.709639 8.06606 3.26756 7.75939C3.56314 7.72396 4.12821 7.6991 4.17665 7.71942ZM19.8255 11.6338C20.8757 11.7173 21.9563 12.0337 22.7725 12.4966C22.7965 12.5102 22.8383 12.5337 22.8653 12.5487C23.4921 12.8978 24.0966 13.43 24.4628 13.9551C25.0478 14.794 25.1585 15.6952 24.7726 16.4791C24.281 17.4777 23.0341 18.1467 21.4432 18.2654C21.2864 18.2771 20.8253 18.284 20.8161 18.2749C20.8131 18.2719 20.837 18.228 20.869 18.1774C21.1778 17.6898 21.6266 16.7669 21.7077 16.4527C21.7346 16.3485 21.7371 16.1319 21.7127 16.0147C21.5845 15.3989 21.0805 14.7842 19.6791 13.5346C18.4768 12.4625 18.1459 12.0222 18.3534 11.7706C18.4352 11.6714 18.5423 11.6478 19.0453 11.6178C19.1538 11.6113 19.678 11.6221 19.8255 11.6338ZM2.90686 15.1586C2.90686 15.1678 2.92868 15.2622 2.95534 15.3683C3.15221 16.1515 3.46096 16.9717 3.6373 17.1796C4.01299 17.6225 4.84099 17.7912 6.33349 17.729C6.59577 17.7181 7.1794 17.6877 7.25162 17.6813C7.60782 17.6494 8.45536 17.6489 8.68382 17.6804C9.07825 17.7349 9.25707 17.8494 9.24426 18.0394C9.23697 18.1475 9.20907 18.1902 8.95737 18.4786C8.24798 19.2916 7.26213 19.9873 6.24056 20.3957C5.5265 20.6812 4.87708 20.823 4.20211 20.8407C2.14766 20.8944 0.92027 19.5991 1.2964 17.774C1.46776 16.9424 1.96798 16.0722 2.7141 15.3076C2.87698 15.1407 2.90686 15.1176 2.90686 15.1586ZM17.6681 16.2982C17.7832 16.3521 18.1783 16.705 18.4477 16.9946C19.3424 17.9564 19.9735 19.1476 20.2297 20.3581C20.3116 20.7449 20.3351 20.9829 20.3347 21.4233C20.3344 21.8725 20.3128 22.066 20.2249 22.4044C19.6561 24.5961 17.2628 24.9012 15.109 23.0567C14.9051 22.882 14.6256 22.6064 14.6459 22.5998C14.6549 22.5969 14.7557 22.572 14.87 22.5446C15.5366 22.3843 16.4322 22.0549 16.6535 21.8886C16.8946 21.7073 17.0672 21.373 17.1588 20.9097C17.2633 20.3809 17.2725 19.7822 17.1976 18.3857C17.149 17.4797 17.1505 17.0488 17.2037 16.7427C17.275 16.3325 17.4282 16.1858 17.6681 16.2982ZM13.6769 18.8051C13.7831 18.8494 13.8277 18.933 13.8466 19.1233C13.9788 20.45 13.7217 21.8393 13.1213 23.0417C11.986 25.3158 9.95292 26.1584 8.52497 24.9466C7.7076 24.253 7.21416 22.9632 7.21347 21.5188L7.21335 21.292L7.30353 21.3485C7.77726 21.6455 8.37452 21.9467 8.87473 22.1408C9.21288 22.272 9.49295 22.2518 9.87602 22.0684C10.4125 21.8117 10.8822 21.3853 12.0121 20.1291C12.6136 19.4605 12.8792 19.1929 13.1269 19.0066C13.3705 18.8234 13.5571 18.755 13.6769 18.8051Z" fill="url(#paint0_linear_662_10772)"/>
<path d="M15.2267 0.510324C16.6026 0.644655 17.594 2.05137 17.7279 4.05942C17.7393 4.22936 17.7435 4.66222 17.7338 4.66222C17.7309 4.66222 17.6556 4.61855 17.5664 4.56521C17.0879 4.27881 16.4133 3.95213 16.0344 3.82324C15.6752 3.70112 15.2519 3.81086 14.7618 4.15318C14.3427 4.44588 13.9366 4.8376 13.1867 5.67263C12.542 6.39047 12.3022 6.64298 12.0718 6.84642C11.6144 7.25044 11.3266 7.3214 11.204 7.06049C11.0984 6.83596 11.093 5.91189 11.193 5.19821C11.5746 2.47651 13.4183 0.333746 15.2267 0.510324ZM7.53581 1.766C8.48356 1.91892 9.43654 2.46662 10.2877 3.3475L10.3399 3.40153L10.1293 3.45415C9.39574 3.63732 8.52668 3.96344 8.32822 4.13004C8.04893 4.36455 7.87897 4.77996 7.80435 5.41065C7.75248 5.84938 7.7554 6.4661 7.81446 7.52493C7.88202 8.73685 7.86847 9.19521 7.75634 9.49305C7.64061 9.80035 7.45094 9.82195 7.14099 9.56314C5.95385 8.5718 5.04716 7.04789 4.75993 5.56109C4.38668 3.62888 5.10687 2.09876 6.53568 1.78841C6.81283 1.72821 7.24185 1.71861 7.53581 1.766ZM21.3734 5.18214C23.8472 5.44425 24.5245 7.78133 22.7912 10.0746C22.6083 10.3167 22.1446 10.8356 22.1113 10.8356C22.1074 10.8356 22.0806 10.741 22.0516 10.6253C21.8747 9.91853 21.5614 9.07026 21.396 8.85032C21.1678 8.54699 20.6972 8.35739 20.0055 8.29012C19.6532 8.25584 18.814 8.25318 18.4281 8.28515C18.2987 8.29586 17.2844 8.34351 17.0669 8.34908C16.0734 8.37457 15.636 8.19958 15.8043 7.84393C15.8447 7.75862 15.8967 7.69054 16.07 7.4966C17.462 5.93838 19.6205 4.99639 21.3734 5.18214ZM4.17665 7.71942C4.19203 7.72584 4.17459 7.76111 4.06734 7.94034C3.76893 8.43919 3.4577 9.07999 3.32461 9.46982C3.20626 9.81625 3.3102 10.2419 3.62589 10.7038C3.93198 11.1517 4.35757 11.5921 5.28419 12.4195C6.20588 13.2426 6.52286 13.5764 6.66255 13.8711C6.77901 14.1167 6.7136 14.2774 6.4728 14.3372C6.18308 14.4091 5.26756 14.3975 4.68848 14.3144C2.69104 14.0281 0.95186 12.9589 0.282848 11.6061C-0.620198 9.77996 0.709639 8.06606 3.26756 7.75939C3.56314 7.72396 4.12821 7.6991 4.17665 7.71942ZM19.8255 11.6338C20.8757 11.7173 21.9563 12.0337 22.7725 12.4966C22.7965 12.5102 22.8383 12.5337 22.8653 12.5487C23.4921 12.8978 24.0966 13.43 24.4628 13.9551C25.0478 14.794 25.1585 15.6952 24.7726 16.4791C24.281 17.4777 23.0341 18.1467 21.4432 18.2654C21.2864 18.2771 20.8253 18.284 20.8161 18.2749C20.8131 18.2719 20.837 18.228 20.869 18.1774C21.1778 17.6898 21.6266 16.7669 21.7077 16.4527C21.7346 16.3485 21.7371 16.1319 21.7127 16.0147C21.5845 15.3989 21.0805 14.7842 19.6791 13.5346C18.4768 12.4625 18.1459 12.0222 18.3534 11.7706C18.4352 11.6714 18.5423 11.6478 19.0453 11.6178C19.1538 11.6113 19.678 11.6221 19.8255 11.6338ZM2.90686 15.1586C2.90686 15.1678 2.92868 15.2622 2.95534 15.3683C3.15221 16.1515 3.46096 16.9717 3.6373 17.1796C4.01299 17.6225 4.84099 17.7912 6.33349 17.729C6.59577 17.7181 7.1794 17.6877 7.25162 17.6813C7.60782 17.6494 8.45536 17.6489 8.68382 17.6804C9.07825 17.7349 9.25707 17.8494 9.24426 18.0394C9.23697 18.1475 9.20907 18.1902 8.95737 18.4786C8.24798 19.2916 7.26213 19.9873 6.24056 20.3957C5.5265 20.6812 4.87708 20.823 4.20211 20.8407C2.14766 20.8944 0.92027 19.5991 1.2964 17.774C1.46776 16.9424 1.96798 16.0722 2.7141 15.3076C2.87698 15.1407 2.90686 15.1176 2.90686 15.1586ZM17.6681 16.2982C17.7832 16.3521 18.1783 16.705 18.4477 16.9946C19.3424 17.9564 19.9735 19.1476 20.2297 20.3581C20.3116 20.7449 20.3351 20.9829 20.3347 21.4233C20.3344 21.8725 20.3128 22.066 20.2249 22.4044C19.6561 24.5961 17.2628 24.9012 15.109 23.0567C14.9051 22.882 14.6256 22.6064 14.6459 22.5998C14.6549 22.5969 14.7557 22.572 14.87 22.5446C15.5366 22.3843 16.4322 22.0549 16.6535 21.8886C16.8946 21.7073 17.0672 21.373 17.1588 20.9097C17.2633 20.3809 17.2725 19.7822 17.1976 18.3857C17.149 17.4797 17.1505 17.0488 17.2037 16.7427C17.275 16.3325 17.4282 16.1858 17.6681 16.2982ZM13.6769 18.8051C13.7831 18.8494 13.8277 18.933 13.8466 19.1233C13.9788 20.45 13.7217 21.8393 13.1213 23.0417C11.986 25.3158 9.95292 26.1584 8.52497 24.9466C7.7076 24.253 7.21416 22.9632 7.21347 21.5188L7.21335 21.292L7.30353 21.3485C7.77726 21.6455 8.37452 21.9467 8.87473 22.1408C9.21288 22.272 9.49295 22.2518 9.87602 22.0684C10.4125 21.8117 10.8822 21.3853 12.0121 20.1291C12.6136 19.4605 12.8792 19.1929 13.1269 19.0066C13.3705 18.8234 13.5571 18.755 13.6769 18.8051Z" fill="url(#paint1_linear_662_10772)" fill-opacity="0.9" style="mix-blend-mode:soft-light"/>
<path d="M35 20.4452V5.21H37.3359V18.4411H44.3438V20.4452H35Z" fill="#070A1D"/>
<path d="M51.0944 20.6906C49.9697 20.6906 48.9459 20.4452 48.0231 19.9544C47.1146 19.4499 46.3865 18.7615 45.8385 17.8889C45.305 17.0164 45.0383 16.0212 45.0383 14.9032C45.0383 13.799 45.305 12.8174 45.8385 11.9585C46.372 11.0996 47.093 10.4179 48.0014 9.91347C48.9243 9.40904 49.9553 9.15683 51.0944 9.15683C52.2335 9.15683 53.2573 9.40904 54.1657 9.91347C55.0886 10.4043 55.8167 11.0859 56.3503 11.9585C56.8838 12.8174 57.1505 13.799 57.1505 14.9032C57.1505 16.0212 56.8766 17.0164 56.3286 17.8889C55.7807 18.7615 55.0525 19.4499 54.1441 19.9544C53.2357 20.4452 52.2191 20.6906 51.0944 20.6906ZM51.0944 18.6865C51.8009 18.6865 52.4354 18.5229 52.9978 18.1957C53.5601 17.8685 53.9999 17.4186 54.3171 16.846C54.6488 16.2734 54.8146 15.6258 54.8146 14.9032C54.8146 14.1943 54.6488 13.5604 54.3171 13.0014C53.9999 12.4288 53.5601 11.9789 52.9978 11.6517C52.4354 11.3245 51.8009 11.1609 51.0944 11.1609C50.3878 11.1609 49.7534 11.3245 49.191 11.6517C48.6431 11.9789 48.2033 12.4288 47.8717 13.0014C47.54 13.5604 47.3742 14.1943 47.3742 14.9032C47.3742 15.6258 47.54 16.2734 47.8717 16.846C48.2033 17.4186 48.6431 17.8685 49.191 18.1957C49.7534 18.5229 50.3878 18.6865 51.0944 18.6865Z" fill="#070A1D"/>
<path d="M64.4027 24.9441C63.5664 24.9441 62.7877 24.8146 62.0668 24.5556C61.3602 24.3102 60.7546 23.9626 60.2499 23.5127C59.7452 23.0764 59.3631 22.5583 59.1036 21.9585L61.1583 21.12C61.3602 21.6381 61.7351 22.0675 62.283 22.4084C62.8454 22.7628 63.5447 22.9401 64.3811 22.9401C65.0155 22.9401 65.5923 22.8242 66.1114 22.5924C66.6305 22.3743 67.0414 22.0403 67.3442 21.5904C67.6471 21.1405 67.7985 20.5951 67.7985 19.9544V17.4799L68.1878 17.8889C67.784 18.6251 67.2145 19.1841 66.4791 19.5658C65.7581 19.9476 64.9434 20.1384 64.035 20.1384C62.9391 20.1384 61.9586 19.8998 61.0934 19.4227C60.2283 18.9319 59.5506 18.2707 59.0603 17.439C58.5701 16.6074 58.3249 15.6735 58.3249 14.6374C58.3249 13.6013 58.5701 12.6742 59.0603 11.8562C59.5506 11.0246 60.2211 10.3702 61.0718 9.89302C61.937 9.40223 62.9175 9.15683 64.0134 9.15683C64.9074 9.15683 65.7149 9.34769 66.4358 9.72942C67.1568 10.0975 67.7408 10.6224 68.1878 11.3041L67.885 11.8562V9.40223H70.0263V19.9544C70.0263 20.9087 69.7811 21.7608 69.2909 22.5106C68.815 23.2741 68.1517 23.8671 67.301 24.2898C66.4647 24.726 65.4986 24.9441 64.4027 24.9441ZM64.2513 18.1343C64.929 18.1343 65.5274 17.9844 66.0465 17.6844C66.58 17.3709 67.0054 16.9482 67.3226 16.4165C67.6398 15.8848 67.7985 15.2986 67.7985 14.6578C67.7985 14.0035 67.6398 13.4104 67.3226 12.8787C67.0054 12.347 66.58 11.9312 66.0465 11.6313C65.5274 11.3177 64.929 11.1609 64.2513 11.1609C63.5736 11.1609 62.9608 11.3177 62.4128 11.6313C61.8649 11.9312 61.4323 12.347 61.1151 12.8787C60.8123 13.3968 60.6609 13.9898 60.6609 14.6578C60.6609 15.2986 60.8123 15.8848 61.1151 16.4165C61.4323 16.9346 61.8577 17.3504 62.3912 17.664C62.9391 17.9775 63.5592 18.1343 64.2513 18.1343Z" fill="#070A1D"/>
<path d="M77.7311 20.6906C76.6064 20.6906 75.5826 20.4452 74.6598 19.9544C73.7514 19.4499 73.0232 18.7615 72.4752 17.8889C71.9417 17.0164 71.675 16.0212 71.675 14.9032C71.675 13.799 71.9417 12.8174 72.4752 11.9585C73.0088 11.0996 73.7297 10.4179 74.6381 9.91347C75.561 9.40904 76.592 9.15683 77.7311 9.15683C78.8702 9.15683 79.894 9.40904 80.8024 9.91347C81.7253 10.4043 82.4535 11.0859 82.987 11.9585C83.5205 12.8174 83.7872 13.799 83.7872 14.9032C83.7872 16.0212 83.5133 17.0164 82.9653 17.8889C82.4174 18.7615 81.6892 19.4499 80.7808 19.9544C79.8724 20.4452 78.8558 20.6906 77.7311 20.6906ZM77.7311 18.6865C78.4377 18.6865 79.0721 18.5229 79.6345 18.1957C80.1968 17.8685 80.6366 17.4186 80.9538 16.846C81.2855 16.2734 81.4513 15.6258 81.4513 14.9032C81.4513 14.1943 81.2855 13.5604 80.9538 13.0014C80.6366 12.4288 80.1968 11.9789 79.6345 11.6517C79.0721 11.3245 78.4377 11.1609 77.7311 11.1609C77.0246 11.1609 76.3901 11.3245 75.8277 11.6517C75.2798 11.9789 74.84 12.4288 74.5084 13.0014C74.1767 13.5604 74.0109 14.1943 74.0109 14.9032C74.0109 15.6258 74.1767 16.2734 74.5084 16.846C74.84 17.4186 75.2798 17.8685 75.8277 18.1957C76.3901 18.5229 77.0246 18.6865 77.7311 18.6865Z" fill="#070A1D"/>
<path d="M85.4375 20.4452V4.9646H87.6653V20.4452H85.4375Z" fill="#070A1D"/>
<path d="M89.7895 20.4452V9.40223H92.0173V20.4452H89.7895ZM89.7895 7.76624V5.21H92.0173V7.76624H89.7895Z" fill="#070A1D"/>
<path d="M97.4507 20.4452L92.887 9.40223H95.3311L98.9215 18.5842H98.0563L101.668 9.40223H104.112L99.5271 20.4452H97.4507Z" fill="#070A1D"/>
<path d="M110.196 20.6906C109.042 20.6906 108.018 20.4384 107.124 19.9339C106.245 19.4159 105.553 18.7206 105.048 17.848C104.543 16.9755 104.291 15.9871 104.291 14.8828C104.291 13.7785 104.543 12.7969 105.048 11.938C105.553 11.0791 106.23 10.4043 107.081 9.91347C107.946 9.40904 108.92 9.15683 110.001 9.15683C110.881 9.15683 111.659 9.29998 112.337 9.58628C113.015 9.87257 113.591 10.2679 114.067 10.7724C114.543 11.2768 114.904 11.8494 115.149 12.4902C115.408 13.1173 115.538 13.7785 115.538 14.4738C115.538 14.651 115.524 14.8351 115.495 15.0259C115.48 15.2032 115.459 15.3736 115.43 15.5372H105.978V13.799H114.154L113.094 14.5761C113.224 13.8944 113.159 13.2809 112.899 12.7356C112.654 12.1902 112.272 11.7608 111.753 11.4472C111.248 11.1337 110.664 10.9769 110.001 10.9769C109.338 10.9769 108.739 11.1405 108.206 11.4677C107.672 11.7812 107.261 12.2311 106.973 12.8174C106.685 13.4036 106.569 14.0989 106.627 14.9032C106.555 15.694 106.67 16.3825 106.973 16.9687C107.29 17.5413 107.73 17.9912 108.292 18.3184C108.869 18.6319 109.511 18.7887 110.217 18.7887C110.967 18.7887 111.594 18.6319 112.099 18.3184C112.618 17.9912 113.036 17.5822 113.354 17.0914L115.192 17.9503C114.961 18.4683 114.601 18.9319 114.111 19.3409C113.62 19.7499 113.043 20.0771 112.38 20.3225C111.717 20.5679 110.989 20.6906 110.196 20.6906Z" fill="#070A1D"/>
<path d="M117.187 20.4452V9.40223H119.329V11.529L119.112 11.2223C119.386 10.5406 119.805 10.0498 120.367 9.74988C120.944 9.43631 121.636 9.27953 122.443 9.27953H123.157V11.2223H122.14C121.319 11.2223 120.655 11.4608 120.151 11.938C119.66 12.4152 119.415 13.09 119.415 13.9626V20.4452H117.187Z" fill="#070A1D"/>
<path d="M124.875 24.9646C124.601 24.9646 124.327 24.9441 124.053 24.9032C123.78 24.8623 123.527 24.7874 123.296 24.6783V22.8583C123.455 22.8855 123.657 22.9128 123.902 22.9401C124.147 22.981 124.385 23.0014 124.616 23.0014C125.294 23.0014 125.798 22.8583 126.13 22.572C126.476 22.2993 126.793 21.8426 127.082 21.2018L127.839 19.5249L127.795 21.345L122.777 9.40223H125.178L128.985 18.7274H128.206L132.013 9.40223H134.435L129.223 21.7131C128.963 22.3266 128.632 22.8787 128.228 23.3695C127.839 23.8739 127.363 24.2625 126.8 24.5351C126.252 24.8214 125.611 24.9646 124.875 24.9646Z" fill="#070A1D"/>
<path d="M151 5.21008H148.664V20.4453H151V5.21008Z" fill="url(#paint2_linear_662_10772)"/>
<path d="M151 5.21008H148.664V20.4453H151V5.21008Z" fill="url(#paint3_linear_662_10772)" fill-opacity="0.9" style="mix-blend-mode:soft-light"/>
<path fill-rule="evenodd" clip-rule="evenodd" d="M139.026 5.21008H141.859L147.569 20.4453H145.06L143.784 16.9483H137.079L135.803 20.4453H133.294L139.026 5.21008ZM143.07 14.9647H137.771L140.43 7.67708L143.07 14.9647Z" fill="url(#paint4_linear_662_10772)"/>
<path fill-rule="evenodd" clip-rule="evenodd" d="M139.026 5.21008H141.859L147.569 20.4453H145.06L143.784 16.9483H137.079L135.803 20.4453H133.294L139.026 5.21008ZM143.07 14.9647H137.771L140.43 7.67708L143.07 14.9647Z" fill="url(#paint5_linear_662_10772)" fill-opacity="0.9" style="mix-blend-mode:soft-light"/>
<defs>
<linearGradient id="paint0_linear_662_10772" x1="12.4994" y1="25.4999" x2="12.4994" y2="0.500145" gradientUnits="userSpaceOnUse">
<stop stop-color="#415EED"/>
<stop offset="1" stop-color="#3651DA"/>
</linearGradient>
<linearGradient id="paint1_linear_662_10772" x1="3.72511e-07" y1="0.500145" x2="24.9997" y2="25.499" gradientUnits="userSpaceOnUse">
<stop stop-color="#F7F8FC" stop-opacity="0"/>
<stop offset="0.119535" stop-color="#F7F8FC" stop-opacity="0.466594"/>
<stop offset="0.275284" stop-color="#F7F8FC" stop-opacity="0.1"/>
<stop offset="0.525208" stop-color="#F7F8FC"/>
<stop offset="0.821602" stop-color="#F7F8FC" stop-opacity="0"/>
<stop offset="1" stop-color="#F7F8FC" stop-opacity="0"/>
</linearGradient>
<linearGradient id="paint2_linear_662_10772" x1="142.147" y1="5.21008" x2="142.147" y2="20.4453" gradientUnits="userSpaceOnUse">
<stop stop-color="#415EED"/>
<stop offset="1" stop-color="#3651DA"/>
</linearGradient>
<linearGradient id="paint3_linear_662_10772" x1="133.294" y1="20.4453" x2="150.097" y2="4.27176" gradientUnits="userSpaceOnUse">
<stop stop-color="#F7F8FC" stop-opacity="0"/>
<stop offset="0.119535" stop-color="#F7F8FC" stop-opacity="0.466594"/>
<stop offset="0.275284" stop-color="#F7F8FC" stop-opacity="0.1"/>
<stop offset="0.525208" stop-color="#F7F8FC"/>
<stop offset="0.821602" stop-color="#F7F8FC" stop-opacity="0"/>
<stop offset="1" stop-color="#F7F8FC" stop-opacity="0"/>
</linearGradient>
<linearGradient id="paint4_linear_662_10772" x1="142.147" y1="5.21008" x2="142.147" y2="20.4453" gradientUnits="userSpaceOnUse">
<stop stop-color="#415EED"/>
<stop offset="1" stop-color="#3651DA"/>
</linearGradient>
<linearGradient id="paint5_linear_662_10772" x1="133.294" y1="20.4453" x2="150.097" y2="4.27176" gradientUnits="userSpaceOnUse">
<stop stop-color="#F7F8FC" stop-opacity="0"/>
<stop offset="0.119535" stop-color="#F7F8FC" stop-opacity="0.466594"/>
<stop offset="0.275284" stop-color="#F7F8FC" stop-opacity="0.1"/>
<stop offset="0.525208" stop-color="#F7F8FC"/>
<stop offset="0.821602" stop-color="#F7F8FC" stop-opacity="0"/>
<stop offset="1" stop-color="#F7F8FC" stop-opacity="0"/>
</linearGradient>
</defs>
</svg>
