<svg width="32" height="32" viewBox="0 0 32 32" fill="none" xmlns="http://www.w3.org/2000/svg">
<path d="M19.4912 0.0124054C21.2523 0.184357 22.5213 1.98504 22.6928 4.55547C22.7073 4.773 22.7127 5.32708 22.7004 5.32708C22.6966 5.32708 22.6002 5.27119 22.4861 5.2029C21.8735 4.83629 21.0101 4.41813 20.525 4.25314C20.0652 4.09682 19.5234 4.23729 18.8961 4.67548C18.3595 5.05015 17.8397 5.55157 16.8798 6.62047C16.0546 7.53935 15.7475 7.86257 15.4527 8.12299C14.8671 8.64016 14.4988 8.73099 14.3418 8.39702C14.2066 8.10961 14.1997 6.92674 14.3277 6.01318C14.8162 2.52925 17.1763 -0.213627 19.4912 0.0124054ZM9.64629 1.61974C10.8595 1.8155 12.0793 2.51658 13.1689 3.64416L13.2357 3.71332L12.9661 3.78068C12.0271 4.01515 10.9147 4.43261 10.6606 4.64586C10.3031 4.94604 10.0856 5.4778 9.99004 6.28512C9.92365 6.84672 9.92738 7.63615 10.003 8.99152C10.0895 10.5429 10.0721 11.1296 9.92859 11.5108C9.78044 11.9042 9.53765 11.9319 9.1409 11.6006C7.62129 10.3316 6.46067 8.38089 6.093 6.4777C5.61521 4.00435 6.5371 2.0457 8.36606 1.64843C8.72084 1.57137 9.27001 1.55908 9.64629 1.61974ZM27.3592 5.99261C30.5259 6.32812 31.3929 9.31974 29.1742 12.2552C28.9399 12.5651 28.3464 13.2294 28.3038 13.2294C28.2988 13.2294 28.2645 13.1082 28.2274 12.9602C28.001 12.0555 27.5999 10.9696 27.3882 10.6881C27.0961 10.2998 26.4937 10.0571 25.6083 9.97101C25.1572 9.92713 24.083 9.92373 23.5891 9.96465C23.4235 9.97836 22.125 10.0394 21.8467 10.0465C20.5749 10.0791 20.015 9.85511 20.2304 9.39987C20.2821 9.29067 20.3488 9.20351 20.5706 8.95527C22.3525 6.96064 25.1154 5.75484 27.3592 5.99261ZM5.34636 9.24048C5.36606 9.2487 5.34373 9.29385 5.20645 9.52328C4.82446 10.1618 4.42606 10.9821 4.2557 11.4811C4.10421 11.9246 4.23726 12.4694 4.64136 13.0607C5.03317 13.634 5.57796 14.1977 6.76409 15.2569C7.94391 16.3105 8.34966 16.7378 8.52847 17.115C8.67755 17.4294 8.59382 17.6351 8.28557 17.7116C7.91472 17.8037 6.7428 17.7888 6.00154 17.6825C3.4447 17.316 1.21844 15.9474 0.362063 14.2156C-0.793891 11.8781 0.908381 9.68421 4.18267 9.29165C4.56104 9.24629 5.28436 9.21448 5.34636 9.24048ZM25.3779 14.2511C26.7222 14.358 28.1055 14.763 29.1501 15.3555C29.1809 15.373 29.2344 15.4031 29.269 15.4223C30.0713 15.8692 30.8451 16.5503 31.3138 17.2225C32.0627 18.2964 32.2043 19.45 31.7104 20.4534C31.0811 21.7317 29.485 22.5881 27.4486 22.74C27.2479 22.755 26.6577 22.7638 26.6459 22.7521C26.6421 22.7482 26.6726 22.6921 26.7136 22.6273C27.1089 22.0031 27.6834 20.8218 27.7872 20.4196C27.8216 20.2862 27.8248 20.009 27.7936 19.859C27.6295 19.0707 26.9843 18.2838 25.1905 16.6843C23.6514 15.312 23.2279 14.7483 23.4934 14.4263C23.5981 14.2993 23.7352 14.269 24.3791 14.2306C24.5181 14.2223 25.189 14.2361 25.3779 14.2511ZM3.72096 18.7631C3.72096 18.7749 3.74888 18.8957 3.78301 19.0315C4.03502 20.0341 4.43023 21.0839 4.65596 21.35C5.13687 21.917 6.19676 22.133 8.10725 22.0534C8.44299 22.0394 9.19007 22.0005 9.28252 21.9923C9.73847 21.9514 10.8234 21.9508 11.1158 21.9912C11.6207 22.0609 11.8496 22.2075 11.8332 22.4506C11.8239 22.5891 11.7882 22.6438 11.466 23.0129C10.5579 24.0536 9.29596 24.9441 7.9883 25.4669C7.07426 25.8324 6.24295 26.0138 5.37895 26.0365C2.74914 26.1053 1.178 24.4472 1.65947 22.111C1.87883 21.0464 2.51913 19.9325 3.47422 18.9539C3.68271 18.7402 3.72096 18.7107 3.72096 18.7631ZM22.6162 20.2218C22.7636 20.2908 23.2693 20.7426 23.6142 21.1133C24.7595 22.3444 25.5673 23.8692 25.8953 25.4187C26.0001 25.9139 26.0301 26.2185 26.0297 26.7822C26.0293 27.3573 26.0016 27.6049 25.8891 28.0382C25.161 30.8436 22.0975 31.2342 19.3404 28.8731C19.0794 28.6495 18.7217 28.2967 18.7476 28.2883C18.7591 28.2846 18.8882 28.2527 19.0344 28.2176C19.8879 28.0124 21.0342 27.5908 21.3175 27.3779C21.6261 27.1458 21.8471 26.7179 21.9643 26.1249C22.098 25.4479 22.1098 24.6816 22.0139 22.894C21.9517 21.7342 21.9537 21.1827 22.0218 20.7909C22.1131 20.2657 22.3092 20.0779 22.6162 20.2218ZM17.5073 23.4308C17.6432 23.4875 17.7003 23.5946 17.7245 23.8381C17.8937 25.5364 17.5646 27.3148 16.7961 28.854C15.3428 31.765 12.7403 32.8435 10.9125 31.2923C9.8662 30.4045 9.23456 28.7535 9.23368 26.9046L9.23352 26.6142L9.34896 26.6866C9.95536 27.0668 10.7199 27.4522 11.3602 27.7007C11.793 27.8687 12.1516 27.8428 12.6419 27.6081C13.3287 27.2795 13.9299 26.7336 15.3762 25.1257C16.1461 24.2697 16.4862 23.9273 16.8032 23.6888C17.115 23.4542 17.3539 23.3667 17.5073 23.4308Z" fill="url(#paint0_linear_503_11803)"/>
<path d="M19.4912 0.0124054C21.2523 0.184357 22.5213 1.98504 22.6928 4.55547C22.7073 4.773 22.7127 5.32708 22.7004 5.32708C22.6966 5.32708 22.6002 5.27119 22.4861 5.2029C21.8735 4.83629 21.0101 4.41813 20.525 4.25314C20.0652 4.09682 19.5234 4.23729 18.8961 4.67548C18.3595 5.05015 17.8397 5.55157 16.8798 6.62047C16.0546 7.53935 15.7475 7.86257 15.4527 8.12299C14.8671 8.64016 14.4988 8.73099 14.3418 8.39702C14.2066 8.10961 14.1997 6.92674 14.3277 6.01318C14.8162 2.52925 17.1763 -0.213627 19.4912 0.0124054ZM9.64629 1.61974C10.8595 1.8155 12.0793 2.51658 13.1689 3.64416L13.2357 3.71332L12.9661 3.78068C12.0271 4.01515 10.9147 4.43261 10.6606 4.64586C10.3031 4.94604 10.0856 5.4778 9.99004 6.28512C9.92365 6.84672 9.92738 7.63615 10.003 8.99152C10.0895 10.5429 10.0721 11.1296 9.92859 11.5108C9.78044 11.9042 9.53765 11.9319 9.1409 11.6006C7.62129 10.3316 6.46067 8.38089 6.093 6.4777C5.61521 4.00435 6.5371 2.0457 8.36606 1.64843C8.72084 1.57137 9.27001 1.55908 9.64629 1.61974ZM27.3592 5.99261C30.5259 6.32812 31.3929 9.31974 29.1742 12.2552C28.9399 12.5651 28.3464 13.2294 28.3038 13.2294C28.2988 13.2294 28.2645 13.1082 28.2274 12.9602C28.001 12.0555 27.5999 10.9696 27.3882 10.6881C27.0961 10.2998 26.4937 10.0571 25.6083 9.97101C25.1572 9.92713 24.083 9.92373 23.5891 9.96465C23.4235 9.97836 22.125 10.0394 21.8467 10.0465C20.5749 10.0791 20.015 9.85511 20.2304 9.39987C20.2821 9.29067 20.3488 9.20351 20.5706 8.95527C22.3525 6.96064 25.1154 5.75484 27.3592 5.99261ZM5.34636 9.24048C5.36606 9.2487 5.34373 9.29385 5.20645 9.52328C4.82446 10.1618 4.42606 10.9821 4.2557 11.4811C4.10421 11.9246 4.23726 12.4694 4.64136 13.0607C5.03317 13.634 5.57796 14.1977 6.76409 15.2569C7.94391 16.3105 8.34966 16.7378 8.52847 17.115C8.67755 17.4294 8.59382 17.6351 8.28557 17.7116C7.91472 17.8037 6.7428 17.7888 6.00154 17.6825C3.4447 17.316 1.21844 15.9474 0.362063 14.2156C-0.793891 11.8781 0.908381 9.68421 4.18267 9.29165C4.56104 9.24629 5.28436 9.21448 5.34636 9.24048ZM25.3779 14.2511C26.7222 14.358 28.1055 14.763 29.1501 15.3555C29.1809 15.373 29.2344 15.4031 29.269 15.4223C30.0713 15.8692 30.8451 16.5503 31.3138 17.2225C32.0627 18.2964 32.2043 19.45 31.7104 20.4534C31.0811 21.7317 29.485 22.5881 27.4486 22.74C27.2479 22.755 26.6577 22.7638 26.6459 22.7521C26.6421 22.7482 26.6726 22.6921 26.7136 22.6273C27.1089 22.0031 27.6834 20.8218 27.7872 20.4196C27.8216 20.2862 27.8248 20.009 27.7936 19.859C27.6295 19.0707 26.9843 18.2838 25.1905 16.6843C23.6514 15.312 23.2279 14.7483 23.4934 14.4263C23.5981 14.2993 23.7352 14.269 24.3791 14.2306C24.5181 14.2223 25.189 14.2361 25.3779 14.2511ZM3.72096 18.7631C3.72096 18.7749 3.74888 18.8957 3.78301 19.0315C4.03502 20.0341 4.43023 21.0839 4.65596 21.35C5.13687 21.917 6.19676 22.133 8.10725 22.0534C8.44299 22.0394 9.19007 22.0005 9.28252 21.9923C9.73847 21.9514 10.8234 21.9508 11.1158 21.9912C11.6207 22.0609 11.8496 22.2075 11.8332 22.4506C11.8239 22.5891 11.7882 22.6438 11.466 23.0129C10.5579 24.0536 9.29596 24.9441 7.9883 25.4669C7.07426 25.8324 6.24295 26.0138 5.37895 26.0365C2.74914 26.1053 1.178 24.4472 1.65947 22.111C1.87883 21.0464 2.51913 19.9325 3.47422 18.9539C3.68271 18.7402 3.72096 18.7107 3.72096 18.7631ZM22.6162 20.2218C22.7636 20.2908 23.2693 20.7426 23.6142 21.1133C24.7595 22.3444 25.5673 23.8692 25.8953 25.4187C26.0001 25.9139 26.0301 26.2185 26.0297 26.7822C26.0293 27.3573 26.0016 27.6049 25.8891 28.0382C25.161 30.8436 22.0975 31.2342 19.3404 28.8731C19.0794 28.6495 18.7217 28.2967 18.7476 28.2883C18.7591 28.2846 18.8882 28.2527 19.0344 28.2176C19.8879 28.0124 21.0342 27.5908 21.3175 27.3779C21.6261 27.1458 21.8471 26.7179 21.9643 26.1249C22.098 25.4479 22.1098 24.6816 22.0139 22.894C21.9517 21.7342 21.9537 21.1827 22.0218 20.7909C22.1131 20.2657 22.3092 20.0779 22.6162 20.2218ZM17.5073 23.4308C17.6432 23.4875 17.7003 23.5946 17.7245 23.8381C17.8937 25.5364 17.5646 27.3148 16.7961 28.854C15.3428 31.765 12.7403 32.8435 10.9125 31.2923C9.8662 30.4045 9.23456 28.7535 9.23368 26.9046L9.23352 26.6142L9.34896 26.6866C9.95536 27.0668 10.7199 27.4522 11.3602 27.7007C11.793 27.8687 12.1516 27.8428 12.6419 27.6081C13.3287 27.2795 13.9299 26.7336 15.3762 25.1257C16.1461 24.2697 16.4862 23.9273 16.8032 23.6888C17.115 23.4542 17.3539 23.3667 17.5073 23.4308Z" fill="url(#paint1_linear_503_11803)" fill-opacity="0.9" style="mix-blend-mode:soft-light"/>
<defs>
<linearGradient id="paint0_linear_503_11803" x1="16" y1="32.0005" x2="16" y2="-0.00062561" gradientUnits="userSpaceOnUse">
<stop stop-color="#415EED"/>
<stop offset="1" stop-color="#3651DA"/>
</linearGradient>
<linearGradient id="paint1_linear_503_11803" x1="4.76837e-07" y1="-0.000626087" x2="32.0012" y2="31.9994" gradientUnits="userSpaceOnUse">
<stop stop-color="#F7F8FC" stop-opacity="0"/>
<stop offset="0.119535" stop-color="#F7F8FC" stop-opacity="0.466594"/>
<stop offset="0.275284" stop-color="#F7F8FC" stop-opacity="0.1"/>
<stop offset="0.525208" stop-color="#F7F8FC"/>
<stop offset="0.821602" stop-color="#F7F8FC" stop-opacity="0"/>
<stop offset="1" stop-color="#F7F8FC" stop-opacity="0"/>
</linearGradient>
</defs>
</svg>
