<svg width="16" height="16" viewBox="0 0 16 16" fill="none" xmlns="http://www.w3.org/2000/svg">
<g clip-path="url(#clip0_662_10791)">
<path d="M2.66634 9.99998H3.99967V13.3333H11.9997V2.66665H3.99967V5.99998H2.66634V1.99998C2.66634 1.82317 2.73658 1.6536 2.8616 1.52858C2.98663 1.40355 3.1562 1.33331 3.33301 1.33331H12.6663C12.8432 1.33331 13.0127 1.40355 13.1377 1.52858C13.2628 1.6536 13.333 1.82317 13.333 1.99998V14C13.333 14.1768 13.2628 14.3464 13.1377 14.4714C13.0127 14.5964 12.8432 14.6666 12.6663 14.6666H3.33301C3.1562 14.6666 2.98663 14.5964 2.8616 14.4714C2.73658 14.3464 2.66634 14.1768 2.66634 14V9.99998ZM6.66634 7.33331V5.33331L9.99967 7.99998L6.66634 10.6666V8.66665H1.33301V7.33331H6.66634Z" fill="#9095AC"/>
</g>
<defs>
<clipPath id="clip0_662_10791">
<rect width="16" height="16" fill="white"/>
</clipPath>
</defs>
</svg>
