<svg width="48" height="52" viewBox="0 0 48 52" fill="none" xmlns="http://www.w3.org/2000/svg">
<g filter="url(#filter0_d_662_10558)">
<path fill-rule="evenodd" clip-rule="evenodd" d="M36 19.3332L29.3333 12.6665H13.3245C12.5933 12.6665 12 13.2586 12 13.9889V38.0108C12 38.7261 12.593 39.3332 13.3245 39.3332H34.6755C35.4068 39.3332 36 38.7412 36 38.0108V19.3332ZM19.5223 24.5772L22.8222 27.877L28.479 22.2202L30.3646 24.1058L22.8222 31.6482L17.6367 26.4629L19.5223 24.5772Z" fill="url(#paint0_linear_662_10558)"/>
<path fill-rule="evenodd" clip-rule="evenodd" d="M36 19.3332L29.3333 12.6665H13.3245C12.5933 12.6665 12 13.2586 12 13.9889V38.0108C12 38.7261 12.593 39.3332 13.3245 39.3332H34.6755C35.4068 39.3332 36 38.7412 36 38.0108V19.3332ZM19.5223 24.5772L22.8222 27.877L28.479 22.2202L30.3646 24.1058L22.8222 31.6482L17.6367 26.4629L19.5223 24.5772Z" fill="url(#paint1_linear_662_10558)" fill-opacity="0.8" style="mix-blend-mode:overlay"/>
</g>
<defs>
<filter id="filter0_d_662_10558" x="0" y="0.666504" width="48" height="50.6665" filterUnits="userSpaceOnUse" color-interpolation-filters="sRGB">
<feFlood flood-opacity="0" result="BackgroundImageFix"/>
<feColorMatrix in="SourceAlpha" type="matrix" values="0 0 0 0 0 0 0 0 0 0 0 0 0 0 0 0 0 0 127 0" result="hardAlpha"/>
<feOffset/>
<feGaussianBlur stdDeviation="6"/>
<feComposite in2="hardAlpha" operator="out"/>
<feColorMatrix type="matrix" values="0 0 0 0 0.898039 0 0 0 0 0.270588 0 0 0 0 0.447059 0 0 0 0.2 0"/>
<feBlend mode="normal" in2="BackgroundImageFix" result="effect1_dropShadow_662_10558"/>
<feBlend mode="normal" in="SourceGraphic" in2="effect1_dropShadow_662_10558" result="shape"/>
</filter>
<linearGradient id="paint0_linear_662_10558" x1="12" y1="29.3332" x2="36" y2="29.3332" gradientUnits="userSpaceOnUse">
<stop stop-color="#E64572"/>
<stop offset="1" stop-color="#EC6034"/>
</linearGradient>
<linearGradient id="paint1_linear_662_10558" x1="12" y1="39.3332" x2="38.5193" y2="15.4657" gradientUnits="userSpaceOnUse">
<stop stop-color="#F7F8FC" stop-opacity="0"/>
<stop offset="0.494206" stop-color="#F7F8FC"/>
<stop offset="1" stop-color="#F7F8FC" stop-opacity="0"/>
</linearGradient>
</defs>
</svg>
