<svg width="52" height="51" viewBox="0 0 52 51" fill="none" xmlns="http://www.w3.org/2000/svg">
<g filter="url(#filter0_d_662_14877)">
<path fill-rule="evenodd" clip-rule="evenodd" d="M12.667 25.5003C12.667 32.8643 18.6363 38.8337 26.0003 38.8337C33.3643 38.8337 39.3337 32.8643 39.3337 25.5003C39.3337 18.1363 33.3643 12.167 26.0003 12.167C18.6363 12.167 12.667 18.1363 12.667 25.5003ZM26.0003 30.8337C28.9458 30.8337 31.3337 28.4458 31.3337 25.5003C31.3337 22.5548 28.9458 20.167 26.0003 20.167C23.0548 20.167 20.667 22.5548 20.667 25.5003C20.667 28.4458 23.0548 30.8337 26.0003 30.8337Z" fill="url(#paint0_linear_662_14877)"/>
<path fill-rule="evenodd" clip-rule="evenodd" d="M12.667 25.5003C12.667 32.8643 18.6363 38.8337 26.0003 38.8337C33.3643 38.8337 39.3337 32.8643 39.3337 25.5003C39.3337 18.1363 33.3643 12.167 26.0003 12.167C18.6363 12.167 12.667 18.1363 12.667 25.5003ZM26.0003 30.8337C28.9458 30.8337 31.3337 28.4458 31.3337 25.5003C31.3337 22.5548 28.9458 20.167 26.0003 20.167C23.0548 20.167 20.667 22.5548 20.667 25.5003C20.667 28.4458 23.0548 30.8337 26.0003 30.8337Z" fill="url(#paint1_linear_662_14877)" style="mix-blend-mode:soft-light"/>
</g>
<defs>
<filter id="filter0_d_662_14877" x="0.666992" y="0.166992" width="50.667" height="50.6665" filterUnits="userSpaceOnUse" color-interpolation-filters="sRGB">
<feFlood flood-opacity="0" result="BackgroundImageFix"/>
<feColorMatrix in="SourceAlpha" type="matrix" values="0 0 0 0 0 0 0 0 0 0 0 0 0 0 0 0 0 0 127 0" result="hardAlpha"/>
<feOffset/>
<feGaussianBlur stdDeviation="6"/>
<feComposite in2="hardAlpha" operator="out"/>
<feColorMatrix type="matrix" values="0 0 0 0 0.254902 0 0 0 0 0.368627 0 0 0 0 0.929412 0 0 0 0.2 0"/>
<feBlend mode="normal" in2="BackgroundImageFix" result="effect1_dropShadow_662_14877"/>
<feBlend mode="normal" in="SourceGraphic" in2="effect1_dropShadow_662_14877" result="shape"/>
</filter>
<linearGradient id="paint0_linear_662_14877" x1="39.3337" y1="25.5003" x2="12.667" y2="25.5003" gradientUnits="userSpaceOnUse">
<stop stop-color="#415EED"/>
<stop offset="1" stop-color="#3651DA"/>
</linearGradient>
<linearGradient id="paint1_linear_662_14877" x1="12.667" y1="38.8337" x2="30.9665" y2="7.30987" gradientUnits="userSpaceOnUse">
<stop stop-color="#F7F8FC" stop-opacity="0"/>
<stop offset="0.494206" stop-color="#F7F8FC"/>
<stop offset="1" stop-color="#F7F8FC" stop-opacity="0"/>
</linearGradient>
</defs>
</svg>
