<svg width="33" height="33" viewBox="0 0 33 33" fill="none" xmlns="http://www.w3.org/2000/svg">
<path fill-rule="evenodd" clip-rule="evenodd" d="M16.7498 29.8333C9.38584 29.8333 3.4165 23.864 3.4165 16.5C3.4165 9.13596 9.38584 3.16663 16.7498 3.16663C24.1138 3.16663 30.0832 9.13596 30.0832 16.5C30.0832 23.864 24.1138 29.8333 16.7498 29.8333ZM16.7498 8.66357C16.3253 8.66357 16.0641 9.22329 15.5416 10.3427L14.1719 13.2777C14.0704 13.495 14.0197 13.6037 13.9367 13.6868C13.8536 13.7698 13.7449 13.8205 13.5275 13.922L10.5926 15.2917C9.47317 15.8142 8.91345 16.0754 8.91345 16.5C8.91345 16.9245 9.47317 17.1857 10.5926 17.7082L13.5275 19.0779C13.7449 19.1794 13.8536 19.2301 13.9367 19.3131C14.0197 19.3962 14.0704 19.5049 14.1719 19.7223L15.5416 22.6572C16.0641 23.7766 16.3253 24.3363 16.7498 24.3363C17.1744 24.3363 17.4356 23.7766 17.9581 22.6572L19.3278 19.7223C19.4293 19.5049 19.48 19.3962 19.563 19.3131C19.6461 19.2301 19.7548 19.1794 19.9721 19.0779L22.9071 17.7082C24.0265 17.1857 24.5862 16.9245 24.5862 16.5C24.5862 16.0754 24.0265 15.8142 22.9071 15.2917L19.9721 13.922C19.7548 13.8205 19.6461 13.7698 19.563 13.6868C19.48 13.6037 19.4293 13.495 19.3278 13.2777L17.9581 10.3427C17.4356 9.22329 17.1744 8.66357 16.7498 8.66357Z" fill="url(#paint0_linear_12_23708)"/>
<path fill-rule="evenodd" clip-rule="evenodd" d="M16.7498 29.8333C9.38584 29.8333 3.4165 23.864 3.4165 16.5C3.4165 9.13596 9.38584 3.16663 16.7498 3.16663C24.1138 3.16663 30.0832 9.13596 30.0832 16.5C30.0832 23.864 24.1138 29.8333 16.7498 29.8333ZM16.7498 8.66357C16.3253 8.66357 16.0641 9.22329 15.5416 10.3427L14.1719 13.2777C14.0704 13.495 14.0197 13.6037 13.9367 13.6868C13.8536 13.7698 13.7449 13.8205 13.5275 13.922L10.5926 15.2917C9.47317 15.8142 8.91345 16.0754 8.91345 16.5C8.91345 16.9245 9.47317 17.1857 10.5926 17.7082L13.5275 19.0779C13.7449 19.1794 13.8536 19.2301 13.9367 19.3131C14.0197 19.3962 14.0704 19.5049 14.1719 19.7223L15.5416 22.6572C16.0641 23.7766 16.3253 24.3363 16.7498 24.3363C17.1744 24.3363 17.4356 23.7766 17.9581 22.6572L19.3278 19.7223C19.4293 19.5049 19.48 19.3962 19.563 19.3131C19.6461 19.2301 19.7548 19.1794 19.9721 19.0779L22.9071 17.7082C24.0265 17.1857 24.5862 16.9245 24.5862 16.5C24.5862 16.0754 24.0265 15.8142 22.9071 15.2917L19.9721 13.922C19.7548 13.8205 19.6461 13.7698 19.563 13.6868C19.48 13.6037 19.4293 13.495 19.3278 13.2777L17.9581 10.3427C17.4356 9.22329 17.1744 8.66357 16.7498 8.66357Z" fill="url(#paint1_linear_12_23708)" fill-opacity="0.8" style="mix-blend-mode:soft-light"/>
<defs>
<linearGradient id="paint0_linear_12_23708" x1="16.7498" y1="3.16663" x2="16.7498" y2="29.8333" gradientUnits="userSpaceOnUse">
<stop stop-color="#415EED"/>
<stop offset="1" stop-color="#3651DA"/>
</linearGradient>
<linearGradient id="paint1_linear_12_23708" x1="3.4165" y1="29.8333" x2="30.788" y2="29.0891" gradientUnits="userSpaceOnUse">
<stop stop-color="#F7F8FC" stop-opacity="0"/>
<stop offset="0.494792" stop-color="#F7F8FC"/>
<stop offset="1" stop-color="#F7F8FC" stop-opacity="0"/>
</linearGradient>
</defs>
</svg>
