<svg width="52" height="52" viewBox="0 0 52 52" fill="none" xmlns="http://www.w3.org/2000/svg">
<g filter="url(#filter0_d_662_10526)">
<path d="M16.667 20.667C14.4579 20.667 12.667 18.8761 12.667 16.667C12.667 14.4579 14.4579 12.667 16.667 12.667C18.8761 12.667 20.667 14.4579 20.667 16.667C20.667 18.8761 18.8761 20.667 16.667 20.667ZM35.3337 20.667C33.1245 20.667 31.3337 18.8761 31.3337 16.667C31.3337 14.4579 33.1245 12.667 35.3337 12.667C37.5429 12.667 39.3337 14.4579 39.3337 16.667C39.3337 18.8761 37.5429 20.667 35.3337 20.667ZM35.3337 39.3337C33.1245 39.3337 31.3337 37.5429 31.3337 35.3337C31.3337 33.1245 33.1245 31.3337 35.3337 31.3337C37.5429 31.3337 39.3337 33.1245 39.3337 35.3337C39.3337 37.5429 37.5429 39.3337 35.3337 39.3337ZM16.667 39.3337C14.4579 39.3337 12.667 37.5429 12.667 35.3337C12.667 33.1245 14.4579 31.3337 16.667 31.3337C18.8761 31.3337 20.667 33.1245 20.667 35.3337C20.667 37.5429 18.8761 39.3337 16.667 39.3337ZM22.0003 15.3337H30.0003V18.0003H22.0003V15.3337ZM22.0003 34.0003H30.0003V36.667H22.0003V34.0003ZM15.3337 22.0003H18.0003V30.0003H15.3337V22.0003ZM34.0003 22.0003H36.667V30.0003H34.0003V22.0003Z" fill="url(#paint0_linear_662_10526)"/>
<path d="M16.667 20.667C14.4579 20.667 12.667 18.8761 12.667 16.667C12.667 14.4579 14.4579 12.667 16.667 12.667C18.8761 12.667 20.667 14.4579 20.667 16.667C20.667 18.8761 18.8761 20.667 16.667 20.667ZM35.3337 20.667C33.1245 20.667 31.3337 18.8761 31.3337 16.667C31.3337 14.4579 33.1245 12.667 35.3337 12.667C37.5429 12.667 39.3337 14.4579 39.3337 16.667C39.3337 18.8761 37.5429 20.667 35.3337 20.667ZM35.3337 39.3337C33.1245 39.3337 31.3337 37.5429 31.3337 35.3337C31.3337 33.1245 33.1245 31.3337 35.3337 31.3337C37.5429 31.3337 39.3337 33.1245 39.3337 35.3337C39.3337 37.5429 37.5429 39.3337 35.3337 39.3337ZM16.667 39.3337C14.4579 39.3337 12.667 37.5429 12.667 35.3337C12.667 33.1245 14.4579 31.3337 16.667 31.3337C18.8761 31.3337 20.667 33.1245 20.667 35.3337C20.667 37.5429 18.8761 39.3337 16.667 39.3337ZM22.0003 15.3337H30.0003V18.0003H22.0003V15.3337ZM22.0003 34.0003H30.0003V36.667H22.0003V34.0003ZM15.3337 22.0003H18.0003V30.0003H15.3337V22.0003ZM34.0003 22.0003H36.667V30.0003H34.0003V22.0003Z" fill="url(#paint1_linear_662_10526)" fill-opacity="0.9" style="mix-blend-mode:soft-light"/>
</g>
<defs>
<filter id="filter0_d_662_10526" x="0.666992" y="0.666992" width="50.667" height="50.6665" filterUnits="userSpaceOnUse" color-interpolation-filters="sRGB">
<feFlood flood-opacity="0" result="BackgroundImageFix"/>
<feColorMatrix in="SourceAlpha" type="matrix" values="0 0 0 0 0 0 0 0 0 0 0 0 0 0 0 0 0 0 127 0" result="hardAlpha"/>
<feOffset/>
<feGaussianBlur stdDeviation="6"/>
<feComposite in2="hardAlpha" operator="out"/>
<feColorMatrix type="matrix" values="0 0 0 0 0.513726 0 0 0 0 0.286275 0 0 0 0 1 0 0 0 0.2 0"/>
<feBlend mode="normal" in2="BackgroundImageFix" result="effect1_dropShadow_662_10526"/>
<feBlend mode="normal" in="SourceGraphic" in2="effect1_dropShadow_662_10526" result="shape"/>
</filter>
<linearGradient id="paint0_linear_662_10526" x1="39.3337" y1="12.667" x2="12.667" y2="12.667" gradientUnits="userSpaceOnUse">
<stop stop-color="#8349FF"/>
<stop offset="1" stop-color="#6A2FE8"/>
</linearGradient>
<linearGradient id="paint1_linear_662_10526" x1="12.667" y1="39.3337" x2="39.3336" y2="12.667" gradientUnits="userSpaceOnUse">
<stop stop-color="#F7F8FC" stop-opacity="0"/>
<stop offset="0.494206" stop-color="#F7F8FC"/>
<stop offset="1" stop-color="#F7F8FC" stop-opacity="0"/>
</linearGradient>
</defs>
</svg>
