<svg width="19" height="18" viewBox="0 0 19 18" fill="none" xmlns="http://www.w3.org/2000/svg">
<path d="M15.2985 3.72936C14.2008 3.22683 13.0421 2.87033 11.8518 2.66895C11.6889 2.96012 11.5415 3.25969 11.4103 3.56642C10.1424 3.37536 8.85306 3.37536 7.58517 3.56642C7.45385 3.25972 7.30648 2.96015 7.14366 2.66895C5.95262 2.87203 4.7931 3.22938 3.69436 3.73199C1.51308 6.95921 0.921774 10.1063 1.21743 13.2087C2.49484 14.1525 3.92462 14.8703 5.44463 15.3308C5.7869 14.8705 6.08975 14.3821 6.34999 13.8709C5.8557 13.6863 5.37863 13.4586 4.92428 13.1903C5.04386 13.1036 5.16081 13.0142 5.27381 12.9275C6.59584 13.5492 8.03878 13.8715 9.4997 13.8715C10.9606 13.8715 12.4036 13.5492 13.7256 12.9275C13.8399 13.0208 13.9569 13.1101 14.0751 13.1903C13.6199 13.459 13.1419 13.6872 12.6468 13.8723C12.9067 14.3832 13.2096 14.8712 13.5521 15.3308C15.0735 14.8721 16.5043 14.1547 17.782 13.21C18.1289 9.61221 17.1894 6.49405 15.2985 3.72936ZM6.72449 11.3007C5.9006 11.3007 5.21994 10.553 5.21994 9.63324C5.21994 8.71342 5.87695 7.95918 6.72186 7.95918C7.56678 7.95918 8.24218 8.71342 8.22773 9.63324C8.21328 10.553 7.56415 11.3007 6.72449 11.3007ZM12.2749 11.3007C11.4497 11.3007 10.7717 10.553 10.7717 9.63324C10.7717 8.71342 11.4287 7.95918 12.2749 7.95918C13.1211 7.95918 13.7913 8.71342 13.7768 9.63324C13.7624 10.553 13.1146 11.3007 12.2749 11.3007Z" fill="url(#paint0_linear_1075_42373)"/>
<defs>
<linearGradient id="paint0_linear_1075_42373" x1="17.853" y1="8.99987" x2="1.14648" y2="8.99987" gradientUnits="userSpaceOnUse">
<stop stop-color="#415EED"/>
<stop offset="1" stop-color="#3651DA"/>
</linearGradient>
</defs>
</svg>
