<svg width="32" height="32" viewBox="0 0 32 32" fill="none" xmlns="http://www.w3.org/2000/svg">
<path d="M12.5084 31.987C10.7473 31.815 9.47831 30.0144 9.30686 27.4441C9.29232 27.2266 9.28694 26.6725 9.29929 26.6725C9.30302 26.6725 9.39942 26.7284 9.51354 26.7967C10.1261 27.1633 10.9895 27.5814 11.4746 27.7464C11.9343 27.9027 12.4761 27.7622 13.1035 27.3241C13.64 26.9494 14.1598 26.448 15.1197 25.3791C15.9448 24.4603 16.2519 24.1371 16.5467 23.8767C17.1322 23.3595 17.5006 23.2687 17.6576 23.6027C17.7927 23.8901 17.7997 25.0729 17.6716 25.9864C17.1832 29.4702 14.8232 32.213 12.5084 31.987ZM22.3529 30.3797C21.1398 30.1839 19.9199 29.4829 18.8304 28.3553L18.7636 28.2862L19.0332 28.2188C19.9722 27.9844 21.0846 27.5669 21.3386 27.3537C21.6961 27.0535 21.9136 26.5218 22.0092 25.7145C22.0755 25.1529 22.0718 24.3635 21.9962 23.0082C21.9097 21.4569 21.9271 20.8702 22.0706 20.489C22.2187 20.0956 22.4615 20.068 22.8583 20.3992C24.3778 21.6682 25.5384 23.6188 25.906 25.5219C26.3838 27.9952 25.462 29.9537 23.6331 30.351C23.2783 30.4281 22.7292 30.4403 22.3529 30.3797ZM4.64058 26.007C1.47406 25.6715 0.607129 22.68 2.82573 19.7446C3.05996 19.4347 3.65344 18.7705 3.69607 18.7705C3.70106 18.7705 3.73541 18.8916 3.77244 19.0397C3.99887 19.9443 4.39994 21.0301 4.61167 21.3117C4.90372 21.6999 5.50609 21.9426 6.39146 22.0287C6.84251 22.0726 7.91667 22.076 8.41063 22.0351C8.57621 22.0214 9.87461 21.9604 10.1529 21.9533C11.4247 21.9206 11.9846 22.1446 11.7691 22.5998C11.7174 22.709 11.6508 22.7962 11.429 23.0444C9.64719 25.039 6.88437 26.2447 4.64058 26.007ZM26.6527 22.7592C26.633 22.751 26.6553 22.7059 26.7926 22.4764C27.1745 21.8379 27.5729 21.0177 27.7433 20.5187C27.8948 20.0753 27.7617 19.5305 27.3576 18.9392C26.9658 18.3658 26.4211 17.8022 25.235 16.743C24.0552 15.6895 23.6495 15.2622 23.4707 14.885C23.3216 14.5706 23.4053 14.3649 23.7136 14.2884C24.0844 14.1963 25.2563 14.2112 25.9975 14.3175C28.5543 14.684 30.7804 16.0526 31.6368 17.7843C32.7927 20.1217 31.0905 22.3155 27.8163 22.7081C27.438 22.7534 26.7147 22.7852 26.6527 22.7592ZM6.62189 17.7488C5.27763 17.6419 3.89441 17.2369 2.84976 16.6444C2.81898 16.6269 2.76549 16.5969 2.73087 16.5776C1.92862 16.1308 1.15485 15.4496 0.686133 14.7775C-0.0627296 13.7037 -0.204335 12.5501 0.289566 11.5468C0.918821 10.2685 2.51492 9.41212 4.55126 9.2602C4.75191 9.24522 5.34215 9.23639 5.35389 9.24813C5.35773 9.25197 5.32723 9.30808 5.28619 9.37291C4.89094 9.99706 4.31649 11.1784 4.21263 11.5805C4.17823 11.7139 4.17505 11.9911 4.20627 12.1411C4.37037 12.9293 5.01554 13.7162 6.80926 15.3157C8.3483 16.688 8.77181 17.2516 8.50626 17.5736C8.40158 17.7006 8.26446 17.7309 7.62062 17.7693C7.48164 17.7776 6.81074 17.7638 6.62189 17.7488ZM28.278 13.237C28.278 13.2252 28.2501 13.1044 28.216 12.9685C27.964 11.966 27.5688 10.9162 27.343 10.6501C26.8621 10.0832 25.8023 9.86719 23.8919 9.94683C23.5562 9.96081 22.8091 9.99964 22.7166 10.0079C22.2607 10.0487 21.1759 10.0494 20.8834 10.009C20.3785 9.93931 20.1496 9.7927 20.166 9.54957C20.1754 9.41114 20.2111 9.35645 20.5333 8.98734C21.4413 7.94667 22.7032 7.05618 24.0108 6.53339C24.9248 6.16794 25.7561 5.98651 26.6201 5.96386C29.2498 5.89502 30.8209 7.55304 30.3394 9.88918C30.1201 10.9537 29.4798 12.0676 28.5247 13.0462C28.3162 13.2598 28.278 13.2894 28.278 13.237ZM9.38345 11.7783C9.23603 11.7093 8.73038 11.2576 8.3855 10.8868C7.24029 9.65575 6.43244 8.13101 6.10451 6.5816C5.99972 6.08638 5.96965 5.78182 5.97009 5.21811C5.97047 4.64309 5.99818 4.39546 6.11066 3.96223C6.83878 1.15687 9.90215 0.76631 12.6591 3.12735C12.9202 3.35091 13.2778 3.70373 13.2519 3.71213C13.2404 3.71586 13.1113 3.74767 12.9651 3.78282C12.1117 3.98801 10.9654 4.40961 10.6821 4.62253C10.3735 4.85453 10.1526 5.28244 10.0354 5.87544C9.9016 6.55236 9.88981 7.31868 9.98571 9.10619C10.0479 10.2659 10.0459 10.8175 9.97781 11.2093C9.88657 11.7344 9.69048 11.9222 9.38345 11.7783ZM14.4922 8.56946C14.3563 8.51275 14.2992 8.40569 14.275 8.16217C14.1057 6.46395 14.4349 4.6856 15.2033 3.14644C16.6566 0.235558 19.259 -0.842946 21.0868 0.708174C22.133 1.59603 22.7646 3.24697 22.7655 5.0958L22.7656 5.3861L22.6502 5.31376C22.0438 4.93362 21.2793 4.54815 20.639 4.2997C20.2062 4.1317 19.8477 4.15765 19.3574 4.39228C18.6706 4.72092 18.0694 5.26676 16.6232 6.87464C15.8533 7.73052 15.5132 8.07299 15.1963 8.31146C14.8845 8.54598 14.6456 8.63358 14.4922 8.56946Z" fill="#BCC1D1"/>
<path d="M14.5735 8.13242L14.5735 8.13244C14.5832 8.23028 14.5967 8.27316 14.604 8.28975C14.614 8.28943 14.6382 8.28669 14.6816 8.27077C14.7611 8.24162 14.8722 8.17981 15.0159 8.07173L14.5735 8.13242ZM14.5735 8.13242C14.4099 6.49101 14.7284 4.76938 15.4717 3.28044L15.2033 3.14644M14.5735 8.13242L15.2033 3.14644M15.2033 3.14644L15.4717 3.28044C16.1752 1.87153 17.1421 0.936254 18.1195 0.531198C19.0849 0.131087 20.0714 0.240001 20.8926 0.93691L21.0868 0.708174M15.2033 3.14644L21.0868 0.708174M21.0868 0.708174L20.8926 0.936911C21.8065 1.71242 22.4075 3.16171 22.4615 4.85041M21.0868 0.708174L22.4615 4.85041M19.3574 4.39228L19.2279 4.12167C19.4941 3.9943 19.7437 3.91417 19.9982 3.89578C20.2556 3.87718 20.4981 3.9232 20.7476 4.02002L19.3574 4.39228ZM19.3574 4.39228L19.2279 4.12167C18.4792 4.47997 17.8407 5.07248 16.4001 6.67402M19.3574 4.39228L16.4001 6.67402M22.4615 4.85041C21.9116 4.53296 21.2883 4.22983 20.7476 4.02003L22.4615 4.85041ZM16.4001 6.67402C15.6274 7.53303 15.306 7.85349 15.0159 8.07171L16.4001 6.67402ZM9.60619 27.4241L9.60619 27.4241C9.60242 27.3677 9.59921 27.2838 9.59683 27.1919C10.1924 27.5279 10.9288 27.8776 11.378 28.0304L11.378 28.0304C11.9706 28.2319 12.6156 28.0308 13.2752 27.57C13.8422 27.1741 14.3814 26.6502 15.3429 25.5796C16.1704 24.6582 16.4658 24.3484 16.7453 24.1015C17.0324 23.848 17.2248 23.7389 17.3347 23.7118C17.3532 23.7072 17.3653 23.706 17.3724 23.7058C17.3757 23.7105 17.3804 23.7182 17.3861 23.7303C17.3964 23.7523 17.4189 23.835 17.4365 23.9997C17.4528 24.1523 17.462 24.3451 17.4633 24.5615C17.4659 24.9946 17.4363 25.504 17.3745 25.9448C17.1376 27.6346 16.4473 29.1365 15.5475 30.1822C14.6435 31.2329 13.5625 31.7885 12.5375 31.6884C10.9962 31.5379 9.77381 29.9369 9.60619 27.4241ZM17.3805 23.7063C17.3805 23.7064 17.3802 23.7063 17.3794 23.7061L17.3805 23.7063ZM17.3682 23.7007C17.3674 23.7001 17.3671 23.6997 17.3671 23.6996C17.3671 23.6996 17.3675 23.6999 17.3682 23.7007ZM19.3495 28.4462C19.7594 28.3343 20.1839 28.1959 20.5481 28.0592C20.7667 27.9772 20.9668 27.8946 21.131 27.8173C21.2871 27.7438 21.4356 27.664 21.5315 27.5835L21.5315 27.5834C21.9779 27.2087 22.2087 26.5812 22.3071 25.7497L22.3071 25.7497C22.3768 25.1596 22.3713 24.3468 22.2957 22.9915C22.2525 22.2164 22.236 21.693 22.247 21.3187C22.2581 20.9444 22.2965 20.7403 22.3514 20.5947C22.3779 20.5242 22.4013 20.4885 22.4148 20.4725C22.4241 20.4748 22.4394 20.4796 22.4615 20.4899C22.5107 20.5129 22.5781 20.5561 22.666 20.6295C24.1337 21.8552 25.2572 23.7451 25.6115 25.5788C25.8413 26.7686 25.7293 27.8092 25.3631 28.5872C24.9999 29.359 24.3846 29.8808 23.5694 30.0578C23.2531 30.1265 22.7418 30.1385 22.4007 30.0835C21.3747 29.918 20.3235 29.3616 19.3495 28.4462ZM3.54477 19.3543C3.65238 19.7482 3.78488 20.1579 3.91615 20.5133C3.9954 20.7278 4.07525 20.9254 4.1501 21.0896C4.22226 21.2478 4.29812 21.3939 4.37191 21.492L4.37192 21.492C4.74325 21.9857 5.45719 22.2393 6.36242 22.3273C6.83292 22.3731 7.92516 22.3763 8.43539 22.3341C8.59279 22.321 9.88476 22.2602 10.1606 22.2532C10.7917 22.237 11.1963 22.2877 11.4073 22.3721C11.4735 22.3986 11.5021 22.4211 11.5129 22.4315C11.5112 22.4393 11.5071 22.4522 11.498 22.4715C11.4675 22.5358 11.4303 22.5927 11.2053 22.8446L11.429 23.0444L11.2053 22.8446C9.47422 24.7823 6.8014 25.9343 4.6722 25.7086C3.18648 25.5512 2.297 24.7856 2.00188 23.7672C1.70124 22.7298 1.99224 21.3449 3.06507 19.9255C3.17236 19.7835 3.36663 19.5542 3.54477 19.3543ZM11.514 22.4216C11.5141 22.4214 11.5143 22.4225 11.5141 22.425C11.5137 22.4229 11.5138 22.4217 11.514 22.4216ZM27.7806 22.4102C27.6141 22.4302 27.3709 22.4479 27.1509 22.4585L27.7433 20.5187L28.0272 20.6157C28.0272 20.6157 28.0272 20.6156 28.0272 20.6156C28.2227 20.0432 28.0337 19.3968 27.6053 18.7699C27.1911 18.1638 26.6219 17.5793 25.4348 16.5193C24.8453 15.9928 24.457 15.6297 24.195 15.3538C23.9334 15.0783 23.8116 14.9039 23.7418 14.7565L23.7417 14.7565C23.7014 14.6715 23.6985 14.6284 23.699 14.6138C23.7088 14.6064 23.733 14.5927 23.7859 14.5795C23.9287 14.5441 24.2776 14.523 24.7128 14.5285C25.1361 14.5339 25.6008 14.5637 25.9549 14.6145C28.4501 14.9722 30.5694 16.3026 31.3679 17.9172C31.8973 18.9878 31.7674 19.9969 31.1508 20.7916C30.5236 21.6 29.3639 22.2204 27.7806 22.4102ZM23.6932 14.6194C23.6931 14.6193 23.6937 14.6184 23.6953 14.6169C23.6942 14.6186 23.6934 14.6194 23.6932 14.6194ZM4.83211 9.54829C4.67732 9.82019 4.51447 10.1324 4.37035 10.4288C4.1656 10.8498 3.98267 11.2712 3.92216 11.5055L3.92214 11.5056C3.896 11.6069 3.88615 11.7377 3.88486 11.8512C3.88355 11.9665 3.89074 12.0974 3.91256 12.2023L3.91257 12.2023C4.00779 12.6596 4.24024 13.0968 4.66467 13.6144C5.08635 14.1287 5.71081 14.7381 6.6096 15.5396L6.80926 15.3157L6.60961 15.5396C7.38049 16.2269 7.84979 16.6929 8.09466 17.0187C8.21804 17.1829 8.26398 17.2854 8.27662 17.3426C8.28382 17.3752 8.27912 17.3791 8.27604 17.3816C8.27557 17.382 8.27514 17.3824 8.27479 17.3828L8.50626 17.5736L8.27479 17.3828C8.27471 17.3829 8.27467 17.3831 8.27462 17.3833C8.27404 17.3858 8.27164 17.3961 8.20092 17.4117C8.10048 17.4339 7.92988 17.4503 7.60276 17.4698C7.48158 17.477 6.82524 17.464 6.64569 17.4497C5.33982 17.3459 4.00007 16.9519 2.99802 16.3836C2.99793 16.3836 2.99784 16.3835 2.99776 16.3835L2.84976 16.6444C2.81898 16.6269 2.76549 16.5969 2.73087 16.5776L2.87685 16.3155C2.87679 16.3155 2.87673 16.3155 2.87666 16.3154C2.10943 15.8881 1.37183 15.2363 0.932209 14.6059L0.686133 14.7775L0.932206 14.6059C0.233028 13.6033 0.122204 12.566 0.558721 11.6793C1.12225 10.5345 2.59256 9.70716 4.57358 9.55937L4.55126 9.2602L4.57359 9.55937C4.63029 9.55513 4.72588 9.55125 4.83211 9.54829ZM30.0456 9.82864C29.8512 10.772 29.2976 11.7773 28.4527 12.6869C28.3335 12.2431 28.191 11.8009 28.0504 11.4275C27.9691 11.2116 27.8873 11.0155 27.8097 10.8538C27.7352 10.6986 27.6546 10.5536 27.5718 10.4561L27.343 10.6501L27.5718 10.4561C27.2708 10.1012 26.8116 9.88395 26.2134 9.76205C25.6148 9.64004 24.8443 9.60686 23.8794 9.64709C23.5459 9.66098 22.7909 9.70007 22.6899 9.70912C22.4756 9.7283 22.1012 9.73869 21.7385 9.73891C21.3699 9.73913 21.0466 9.7287 20.9244 9.71184C20.6847 9.67874 20.5537 9.63181 20.4911 9.5917C20.4767 9.5825 20.469 9.57557 20.4653 9.5717C20.4653 9.57113 20.4653 9.57048 20.4654 9.56977C20.4669 9.54674 20.4685 9.54427 20.4678 9.54648C20.4671 9.54866 20.4686 9.54189 20.4835 9.51901C20.5199 9.46329 20.5932 9.37488 20.7593 9.18461L20.7593 9.18457C21.6355 8.18044 22.8578 7.31746 24.1222 6.81195L24.0108 6.53339L24.1222 6.81195C25.0078 6.45788 25.804 6.28536 26.6279 6.26375C27.8806 6.23096 28.84 6.60973 29.4287 7.231C30.0127 7.84735 30.2696 8.7417 30.0456 9.82863L30.3394 9.88918L30.0456 9.82864ZM9.51074 11.5067L9.5107 11.5066C9.51131 11.5069 9.51163 11.5071 9.51163 11.5071C9.51167 11.507 9.50273 11.5022 9.48244 11.4882C9.46076 11.4733 9.43294 11.4527 9.39934 11.4263C9.33224 11.3735 9.24941 11.3033 9.15839 11.222C8.97622 11.0592 8.77037 10.8601 8.60515 10.6825C7.49461 9.4887 6.71397 8.01236 6.39801 6.51948C6.29801 6.04691 6.26967 5.76341 6.27009 5.21834V5.21831C6.27046 4.66186 6.29644 4.44048 6.40103 4.03761L6.40103 4.0376C6.73639 2.74552 7.59029 2.04162 8.66201 1.90498C9.75491 1.76565 11.1283 2.21137 12.464 3.35521L12.6591 3.12735L12.464 3.35522C12.5308 3.41247 12.605 3.47923 12.6772 3.54635C12.2919 3.64869 11.8731 3.78329 11.5063 3.91822C11.2873 3.99875 11.0837 4.08054 10.9147 4.15702C10.7521 4.23056 10.6011 4.30811 10.5019 4.38271L10.5019 4.38273C10.1085 4.67839 9.86484 5.19092 9.74106 5.81728C9.5991 6.53567 9.59036 7.3371 9.68614 9.12226C9.74864 10.2872 9.74357 10.805 9.68224 11.1579L9.97781 11.2093L9.68224 11.1579C9.66177 11.2757 9.63713 11.364 9.61144 11.4276C9.58864 11.4841 9.56872 11.512 9.55812 11.5238C9.54927 11.5219 9.53384 11.5175 9.51074 11.5067ZM14.6021 8.29056C14.6021 8.29062 14.6022 8.29068 14.6023 8.29074C14.6043 8.29255 14.6057 8.29416 14.6064 8.29506C14.6065 8.29514 14.6065 8.29521 14.6066 8.29527C14.6066 8.29532 14.6067 8.29537 14.6067 8.29542C14.6071 8.29595 14.6071 8.296 14.6067 8.29533C14.6067 8.29527 14.6067 8.29521 14.6066 8.29514C14.6066 8.29502 14.6065 8.29487 14.6064 8.29471C14.6059 8.2938 14.6054 8.29273 14.6048 8.29147C14.6057 8.29179 14.6066 8.29216 14.6077 8.2926L14.6079 8.29266L14.6021 8.29056Z" stroke="#0F1B5E" stroke-opacity="0.08" stroke-width="0.6"/>
</svg>
